M48
; DRILL file KiCad 10.0.6 date 2026-09-21T18:21:25
; FORMAT={-:-/ absolute / metric / decimal}
; #@! TF.CreationDate,2026-09-21T18:21:25+08:00
; #@! TF.GenerationSoftware,Kicad,Pcbnew,10.0.6
; #@! TF.FileFunction,Plated,1,2,PTH
FMAT,2
METRIC
; #@! TA.AperFunction,Plated,PTH,ViaDrill
T1C0.300
; #@! TA.AperFunction,Plated,PTH,ComponentDrill
T2C0.889
; #@! TA.AperFunction,Plated,PTH,ComponentDrill
T3C1.000
; #@! TA.AperFunction,Plated,PTH,ComponentDrill
T4C1.500
%
G90
G05
T1
X125.5Y-121.5
X136.5Y-116.0
T2
X104.0Y-102.0
X104.0Y-104.54
X104.0Y-107.08
X104.0Y-109.62
X104.0Y-112.16
X104.0Y-114.7
X104.0Y-117.24
X119.24Y-102.0
X119.24Y-104.54
X119.24Y-107.08
X119.24Y-109.62
X119.24Y-112.16
X119.24Y-114.7
X119.24Y-117.24
T3
X154.218Y-101.694
X154.218Y-104.234
X154.218Y-106.774
X154.218Y-109.314
X154.218Y-111.854
X154.218Y-114.394
X154.218Y-116.934
X154.218Y-119.474
X160.0Y-110.5
X167.6Y-110.5
T4
X97.5Y-130.5
X103.85Y-127.96
X116.65Y-130.54
X123.0Y-128.0
X135.77Y-130.46
X142.12Y-127.92
X155.0Y-130.5
X161.35Y-127.96
X174.0Y-130.5
X180.35Y-127.96
M30
