%TF.GenerationSoftware,KiCad,Pcbnew,10.0.6*%
%TF.CreationDate,2026-09-21T18:21:28+08:00*%
%TF.ProjectId,KiCad,4b694361-642e-46b6-9963-61645f706362,rev?*%
%TF.SameCoordinates,Original*%
%TF.FileFunction,Copper,L1,Top*%
%TF.FilePolarity,Positive*%
%FSLAX46Y46*%
G04 Gerber Fmt 4.6, Leading zero omitted, Abs format (unit mm)*
G04 Created by KiCad (PCBNEW 10.0.6) date 2026-09-21 18:21:28*
%MOMM*%
%LPD*%
G01*
G04 APERTURE LIST*
G04 Aperture macros list*
%AMRoundRect*
0 Rectangle with rounded corners*
0 $1 Rounding radius*
0 $2 $3 $4 $5 $6 $7 $8 $9 X,Y pos of 4 corners*
0 Add a 4 corners polygon primitive as box body*
4,1,4,$2,$3,$4,$5,$6,$7,$8,$9,$2,$3,0*
0 Add four circle primitives for the rounded corners*
1,1,$1+$1,$2,$3*
1,1,$1+$1,$4,$5*
1,1,$1+$1,$6,$7*
1,1,$1+$1,$8,$9*
0 Add four rect primitives between the rounded corners*
20,1,$1+$1,$2,$3,$4,$5,0*
20,1,$1+$1,$4,$5,$6,$7,0*
20,1,$1+$1,$6,$7,$8,$9,0*
20,1,$1+$1,$8,$9,$2,$3,0*%
G04 Aperture macros list end*
%TA.AperFunction,ComponentPad*%
%ADD10C,2.200000*%
%TD*%
%TA.AperFunction,SMDPad,CuDef*%
%ADD11RoundRect,0.152400X1.063600X0.609600X-1.063600X0.609600X-1.063600X-0.609600X1.063600X-0.609600X0*%
%TD*%
%TA.AperFunction,ComponentPad*%
%ADD12C,1.524000*%
%TD*%
%TA.AperFunction,SMDPad,CuDef*%
%ADD13RoundRect,0.152400X-1.063600X-0.609600X1.063600X-0.609600X1.063600X0.609600X-1.063600X0.609600X0*%
%TD*%
%TA.AperFunction,ComponentPad*%
%ADD14R,2.000000X2.000000*%
%TD*%
%TA.AperFunction,ComponentPad*%
%ADD15C,2.000000*%
%TD*%
%TA.AperFunction,ComponentPad*%
%ADD16R,1.700000X1.700000*%
%TD*%
%TA.AperFunction,ComponentPad*%
%ADD17C,1.700000*%
%TD*%
%TA.AperFunction,ViaPad*%
%ADD18C,0.600000*%
%TD*%
%TA.AperFunction,Conductor*%
%ADD19C,0.200000*%
%TD*%
G04 APERTURE END LIST*
D10*
%TO.P,SW5,1,1_1*%
%TO.N,GND*%
X180350000Y-127960000D03*
%TO.P,SW5,2,2_2*%
%TO.N,Net-(U1-D0)*%
X174000000Y-130500000D03*
%TD*%
%TO.P,SW4,1,1_1*%
%TO.N,GND*%
X161350000Y-127960000D03*
%TO.P,SW4,2,2_2*%
%TO.N,Net-(U1-D1)*%
X155000000Y-130500000D03*
%TD*%
%TO.P,SW1,1,1_1*%
%TO.N,GND*%
X103850000Y-127960000D03*
%TO.P,SW1,2,2_2*%
%TO.N,Net-(U1-D4)*%
X97500000Y-130500000D03*
%TD*%
%TO.P,SW3,1,1_1*%
%TO.N,GND*%
X142120000Y-127920000D03*
%TO.P,SW3,2,2_2*%
%TO.N,Net-(U1-D2)*%
X135770000Y-130460000D03*
%TD*%
%TO.P,SW2,1,1_1*%
%TO.N,GND*%
X123000000Y-128000000D03*
%TO.P,SW2,2,2_2*%
%TO.N,Net-(U1-D3)*%
X116650000Y-130540000D03*
%TD*%
D11*
%TO.P,U1,1,D0_1*%
%TO.N,Net-(U1-D0)*%
X103165000Y-102000000D03*
D12*
X104000000Y-102000000D03*
D11*
%TO.P,U1,2,D1_2*%
%TO.N,Net-(U1-D1)*%
X103165000Y-104540000D03*
D12*
X104000000Y-104540000D03*
D11*
%TO.P,U1,3,D2_3*%
%TO.N,Net-(U1-D2)*%
X103165000Y-107080000D03*
D12*
X104000000Y-107080000D03*
D11*
%TO.P,U1,4,D3_4*%
%TO.N,Net-(U1-D3)*%
X103165000Y-109620000D03*
D12*
X104000000Y-109620000D03*
D11*
%TO.P,U1,5,D4_5*%
%TO.N,Net-(U1-D4)*%
X103165000Y-112160000D03*
D12*
X104000000Y-112160000D03*
D11*
%TO.P,U1,6,D5_6*%
%TO.N,/DC*%
X103165000Y-114700000D03*
D12*
X104000000Y-114700000D03*
D11*
%TO.P,U1,7,D6_7*%
%TO.N,/CS*%
X103165000Y-117240000D03*
D12*
X104000000Y-117240000D03*
%TO.P,U1,8,D7_8*%
%TO.N,Net-(BZ1-+)*%
X119240000Y-117240000D03*
D13*
X120075000Y-117240000D03*
D12*
%TO.P,U1,9,D8_9*%
%TO.N,/BL*%
X119240000Y-114700000D03*
D13*
X120075000Y-114700000D03*
D12*
%TO.P,U1,10,D9/BOOT_10*%
%TO.N,/SCL*%
X119240000Y-112160000D03*
D13*
X120075000Y-112160000D03*
D12*
%TO.P,U1,11,D10_11*%
%TO.N,/SDA*%
X119240000Y-109620000D03*
D13*
X120075000Y-109620000D03*
D12*
%TO.P,U1,12,3V3_OUT_12*%
%TO.N,+3V3*%
X119240000Y-107080000D03*
D13*
X120075000Y-107080000D03*
D12*
%TO.P,U1,13,GND_13*%
%TO.N,GND*%
X119240000Y-104540000D03*
D13*
X120075000Y-104540000D03*
D12*
%TO.P,U1,14,VBUS_14*%
%TO.N,unconnected-(U1-VBUS-Pad14)_1*%
X119240000Y-102000000D03*
D13*
%TO.N,unconnected-(U1-VBUS-Pad14)*%
X120075000Y-102000000D03*
%TD*%
D14*
%TO.P,BZ1,1,+_1*%
%TO.N,Net-(BZ1-+)*%
X160000000Y-110500000D03*
D15*
%TO.P,BZ1,2,-_2*%
%TO.N,GND*%
X167600000Y-110500000D03*
%TD*%
D16*
%TO.P,J1,1,Pin_1_1*%
%TO.N,GND*%
X154218441Y-119474480D03*
D17*
%TO.P,J1,2,Pin_2_2*%
%TO.N,+3V3*%
X154218441Y-116934480D03*
%TO.P,J1,3,Pin_3_3*%
%TO.N,/SCL*%
X154218441Y-114394480D03*
%TO.P,J1,4,Pin_4_4*%
%TO.N,/SDA*%
X154218441Y-111854480D03*
%TO.P,J1,5,Pin_5_5*%
%TO.N,unconnected-(J1-Pin_5-Pad5)*%
X154218441Y-109314480D03*
%TO.P,J1,6,Pin_6_6*%
%TO.N,/DC*%
X154218441Y-106774480D03*
%TO.P,J1,7,Pin_7_7*%
%TO.N,/CS*%
X154218441Y-104234480D03*
%TO.P,J1,8,Pin_8_8*%
%TO.N,/BL*%
X154218441Y-101694480D03*
%TD*%
D18*
%TO.N,+3V3*%
X125500000Y-121500000D03*
X136500000Y-116000000D03*
%TD*%
%TO.N,GND*%
D19*
X122960000Y-127960000D02*
X123000000Y-128000000D01*
X142160000Y-127960000D02*
X142120000Y-127920000D01*
X140160000Y-117160000D02*
X127540000Y-104540000D01*
X142120000Y-126380000D02*
X149025520Y-119474480D01*
X161350000Y-127960000D02*
X161350000Y-116750000D01*
X103850000Y-127960000D02*
X122960000Y-127960000D01*
X142120000Y-127920000D02*
X142120000Y-126380000D01*
X154218441Y-119474480D02*
X150974480Y-119474480D01*
X161350000Y-127960000D02*
X142160000Y-127960000D01*
X142040000Y-128000000D02*
X142120000Y-127920000D01*
X123000000Y-128000000D02*
X142040000Y-128000000D01*
X161350000Y-116750000D02*
X167600000Y-110500000D01*
X127540000Y-104540000D02*
X120075000Y-104540000D01*
X149025520Y-119474480D02*
X154218441Y-119474480D01*
X150974480Y-119474480D02*
X148660000Y-117160000D01*
X180350000Y-127960000D02*
X161350000Y-127960000D01*
X148660000Y-117160000D02*
X140160000Y-117160000D01*
%TO.N,Net-(U1-D3)*%
X96000000Y-110500000D02*
X97000000Y-109500000D01*
X97000000Y-109500000D02*
X97120000Y-109620000D01*
X96000000Y-130979899D02*
X96000000Y-110500000D01*
X97120000Y-109620000D02*
X103165000Y-109620000D01*
X96920101Y-131900000D02*
X96000000Y-130979899D01*
X116650000Y-130540000D02*
X99439899Y-130540000D01*
X99439899Y-130540000D02*
X98079899Y-131900000D01*
X98079899Y-131900000D02*
X96920101Y-131900000D01*
%TO.N,Net-(U1-D1)*%
X93540000Y-104540000D02*
X103165000Y-104540000D01*
X155000000Y-130500000D02*
X153444366Y-130500000D01*
X142944366Y-141000000D02*
X93000000Y-141000000D01*
X93000000Y-105000000D02*
X93500000Y-104500000D01*
X93000000Y-141000000D02*
X93000000Y-105000000D01*
X93500000Y-104500000D02*
X93540000Y-104540000D01*
X153444366Y-130500000D02*
X142944366Y-141000000D01*
%TO.N,Net-(U1-D4)*%
X97500000Y-115000000D02*
X100500000Y-112000000D01*
X100660000Y-112160000D02*
X104000000Y-112160000D01*
X97500000Y-130500000D02*
X97500000Y-115000000D01*
X100500000Y-112000000D02*
X100660000Y-112160000D01*
%TO.N,Net-(U1-D0)*%
X93000000Y-102000000D02*
X103165000Y-102000000D01*
X174000000Y-130500000D02*
X172444366Y-130500000D01*
X160444366Y-142500000D02*
X91500000Y-142500000D01*
X91500000Y-142500000D02*
X91500000Y-103500000D01*
X172444366Y-130500000D02*
X160444366Y-142500000D01*
X91500000Y-103500000D02*
X93000000Y-102000000D01*
%TO.N,Net-(U1-D2)*%
X95500000Y-140000000D02*
X94000000Y-138500000D01*
X135770000Y-136230000D02*
X132000000Y-140000000D01*
X94500000Y-107500000D02*
X94920000Y-107080000D01*
X132000000Y-140000000D02*
X95500000Y-140000000D01*
X94500000Y-138000000D02*
X94500000Y-107500000D01*
X135770000Y-130460000D02*
X135770000Y-136230000D01*
X94920000Y-107080000D02*
X103165000Y-107080000D01*
X94000000Y-138500000D02*
X94500000Y-138000000D01*
%TO.N,/BL*%
X116000000Y-101000000D02*
X117620000Y-99380000D01*
X150974480Y-101694480D02*
X154218441Y-101694480D01*
X119240000Y-114700000D02*
X116000000Y-111460000D01*
X117620000Y-99380000D02*
X148660000Y-99380000D01*
X116000000Y-111460000D02*
X116000000Y-101000000D01*
X148660000Y-99380000D02*
X150974480Y-101694480D01*
%TO.N,/SCL*%
X132500000Y-100000000D02*
X132500000Y-103580000D01*
X153243961Y-113420000D02*
X154218441Y-114394480D01*
X117000000Y-109920000D02*
X117000000Y-101000000D01*
X119240000Y-112160000D02*
X117000000Y-109920000D01*
X118000000Y-100000000D02*
X132500000Y-100000000D01*
X132500000Y-103580000D02*
X142340000Y-113420000D01*
X142340000Y-113420000D02*
X153243961Y-113420000D01*
X117000000Y-101000000D02*
X118000000Y-100000000D01*
%TO.N,+3V3*%
X129000000Y-116000000D02*
X136500000Y-116000000D01*
X125500000Y-121500000D02*
X125500000Y-119500000D01*
X125500000Y-119500000D02*
X129000000Y-116000000D01*
%TD*%
M02*
