ISO-10303-21;
HEADER;
/* Generated by software containing ST-Developer
 * from STEP Tools, Inc. (www.steptools.com) 
 */
/* OPTION: using custom renumber hook */

FILE_DESCRIPTION(
/* description */ ('STEP AP242 Edition 2',
'CAx-IF Rec.Pracs.---Representation and Presentation of Product Manufa
cturing Information (PMI)---4.0---2014-10-13',
'CAx-IF Rec.Pracs.---3D Tessellated Geometry---0.4---2014-09-14','2;1',
'CAx-IF Rec.Pracs.---User Defined Attributes---1.5---2016-08-15'),
/* implementation_level */ '2;1');

FILE_NAME(
/* name */ 'Part Studio 3 - Part 2',
/* time_stamp */ '2026-09-23T04:59:42Z',
/* author */ (''),
/* organization */ (''),
/* preprocessor_version */ 'ST-DEVELOPER v20',
/* originating_system */ 'ONSHAPE BY PTC INC, 1.221',
/* authorisation */ '  ');

FILE_SCHEMA (('AP242_MANAGED_MODEL_BASED_3D_ENGINEERING_MIM_LF { 1 0 10303 442 3 1 4 }'));
ENDSEC;

DATA;
#10=SHAPE_REPRESENTATION_RELATIONSHIP('','',#419,#11);
#11=ADVANCED_BREP_SHAPE_REPRESENTATION('',(#417),#661);
#12=CYLINDRICAL_SURFACE('',#445,0.00135255);
#13=CYLINDRICAL_SURFACE('',#446,0.00135255);
#14=CIRCLE('',#429,0.00135255);
#15=CIRCLE('',#430,0.00135255);
#16=CIRCLE('',#438,0.00135255);
#17=CIRCLE('',#444,0.00135255);
#18=ORIENTED_EDGE('',*,*,#122,.F.);
#19=ORIENTED_EDGE('',*,*,#123,.F.);
#20=ORIENTED_EDGE('',*,*,#124,.T.);
#21=ORIENTED_EDGE('',*,*,#125,.T.);
#22=ORIENTED_EDGE('',*,*,#126,.T.);
#23=ORIENTED_EDGE('',*,*,#127,.T.);
#24=ORIENTED_EDGE('',*,*,#128,.F.);
#25=ORIENTED_EDGE('',*,*,#129,.F.);
#26=ORIENTED_EDGE('',*,*,#130,.T.);
#27=ORIENTED_EDGE('',*,*,#131,.T.);
#28=ORIENTED_EDGE('',*,*,#132,.F.);
#29=ORIENTED_EDGE('',*,*,#133,.F.);
#30=ORIENTED_EDGE('',*,*,#134,.T.);
#31=ORIENTED_EDGE('',*,*,#135,.F.);
#32=ORIENTED_EDGE('',*,*,#136,.F.);
#33=ORIENTED_EDGE('',*,*,#137,.T.);
#34=ORIENTED_EDGE('',*,*,#138,.F.);
#35=ORIENTED_EDGE('',*,*,#137,.F.);
#36=ORIENTED_EDGE('',*,*,#139,.T.);
#37=ORIENTED_EDGE('',*,*,#140,.T.);
#38=ORIENTED_EDGE('',*,*,#141,.F.);
#39=ORIENTED_EDGE('',*,*,#140,.F.);
#40=ORIENTED_EDGE('',*,*,#142,.T.);
#41=ORIENTED_EDGE('',*,*,#123,.T.);
#42=ORIENTED_EDGE('',*,*,#143,.T.);
#43=ORIENTED_EDGE('',*,*,#125,.F.);
#44=ORIENTED_EDGE('',*,*,#144,.F.);
#45=ORIENTED_EDGE('',*,*,#145,.T.);
#46=ORIENTED_EDGE('',*,*,#146,.F.);
#47=ORIENTED_EDGE('',*,*,#145,.F.);
#48=ORIENTED_EDGE('',*,*,#147,.T.);
#49=ORIENTED_EDGE('',*,*,#148,.T.);
#50=ORIENTED_EDGE('',*,*,#149,.F.);
#51=ORIENTED_EDGE('',*,*,#148,.F.);
#52=ORIENTED_EDGE('',*,*,#150,.T.);
#53=ORIENTED_EDGE('',*,*,#151,.T.);
#54=ORIENTED_EDGE('',*,*,#152,.F.);
#55=ORIENTED_EDGE('',*,*,#153,.F.);
#56=ORIENTED_EDGE('',*,*,#154,.T.);
#57=ORIENTED_EDGE('',*,*,#151,.F.);
#58=ORIENTED_EDGE('',*,*,#155,.F.);
#59=ORIENTED_EDGE('',*,*,#135,.T.);
#60=ORIENTED_EDGE('',*,*,#136,.T.);
#61=ORIENTED_EDGE('',*,*,#155,.T.);
#62=ORIENTED_EDGE('',*,*,#150,.F.);
#63=ORIENTED_EDGE('',*,*,#147,.F.);
#64=ORIENTED_EDGE('',*,*,#144,.T.);
#65=ORIENTED_EDGE('',*,*,#124,.F.);
#66=ORIENTED_EDGE('',*,*,#142,.F.);
#67=ORIENTED_EDGE('',*,*,#139,.F.);
#68=ORIENTED_EDGE('',*,*,#134,.F.);
#69=ORIENTED_EDGE('',*,*,#138,.T.);
#70=ORIENTED_EDGE('',*,*,#141,.T.);
#71=ORIENTED_EDGE('',*,*,#122,.T.);
#72=ORIENTED_EDGE('',*,*,#143,.F.);
#73=ORIENTED_EDGE('',*,*,#146,.T.);
#74=ORIENTED_EDGE('',*,*,#149,.T.);
#75=ORIENTED_EDGE('',*,*,#154,.F.);
#76=ORIENTED_EDGE('',*,*,#156,.T.);
#77=ORIENTED_EDGE('',*,*,#157,.F.);
#78=ORIENTED_EDGE('',*,*,#158,.F.);
#79=ORIENTED_EDGE('',*,*,#127,.F.);
#80=ORIENTED_EDGE('',*,*,#159,.T.);
#81=ORIENTED_EDGE('',*,*,#160,.F.);
#82=ORIENTED_EDGE('',*,*,#156,.F.);
#83=ORIENTED_EDGE('',*,*,#126,.F.);
#84=ORIENTED_EDGE('',*,*,#129,.T.);
#85=ORIENTED_EDGE('',*,*,#161,.T.);
#86=ORIENTED_EDGE('',*,*,#162,.T.);
#87=ORIENTED_EDGE('',*,*,#159,.F.);
#88=ORIENTED_EDGE('',*,*,#128,.T.);
#89=ORIENTED_EDGE('',*,*,#158,.T.);
#90=ORIENTED_EDGE('',*,*,#163,.T.);
#91=ORIENTED_EDGE('',*,*,#161,.F.);
#92=ORIENTED_EDGE('',*,*,#164,.T.);
#93=ORIENTED_EDGE('',*,*,#157,.T.);
#94=ORIENTED_EDGE('',*,*,#160,.T.);
#95=ORIENTED_EDGE('',*,*,#162,.F.);
#96=ORIENTED_EDGE('',*,*,#163,.F.);
#97=ORIENTED_EDGE('',*,*,#165,.T.);
#98=ORIENTED_EDGE('',*,*,#166,.F.);
#99=ORIENTED_EDGE('',*,*,#167,.F.);
#100=ORIENTED_EDGE('',*,*,#131,.F.);
#101=ORIENTED_EDGE('',*,*,#168,.T.);
#102=ORIENTED_EDGE('',*,*,#169,.F.);
#103=ORIENTED_EDGE('',*,*,#165,.F.);
#104=ORIENTED_EDGE('',*,*,#130,.F.);
#105=ORIENTED_EDGE('',*,*,#133,.T.);
#106=ORIENTED_EDGE('',*,*,#170,.T.);
#107=ORIENTED_EDGE('',*,*,#171,.T.);
#108=ORIENTED_EDGE('',*,*,#168,.F.);
#109=ORIENTED_EDGE('',*,*,#132,.T.);
#110=ORIENTED_EDGE('',*,*,#167,.T.);
#111=ORIENTED_EDGE('',*,*,#172,.T.);
#112=ORIENTED_EDGE('',*,*,#170,.F.);
#113=ORIENTED_EDGE('',*,*,#173,.T.);
#114=ORIENTED_EDGE('',*,*,#166,.T.);
#115=ORIENTED_EDGE('',*,*,#169,.T.);
#116=ORIENTED_EDGE('',*,*,#171,.F.);
#117=ORIENTED_EDGE('',*,*,#172,.F.);
#118=ORIENTED_EDGE('',*,*,#173,.F.);
#119=ORIENTED_EDGE('',*,*,#153,.T.);
#120=ORIENTED_EDGE('',*,*,#164,.F.);
#121=ORIENTED_EDGE('',*,*,#152,.T.);
#122=EDGE_CURVE('',#174,#175,#210,.T.);
#123=EDGE_CURVE('',#176,#174,#211,.T.);
#124=EDGE_CURVE('',#176,#177,#212,.T.);
#125=EDGE_CURVE('',#177,#175,#213,.T.);
#126=EDGE_CURVE('',#178,#179,#214,.T.);
#127=EDGE_CURVE('',#179,#180,#215,.T.);
#128=EDGE_CURVE('',#181,#180,#216,.T.);
#129=EDGE_CURVE('',#178,#181,#217,.T.);
#130=EDGE_CURVE('',#182,#183,#218,.T.);
#131=EDGE_CURVE('',#183,#184,#219,.T.);
#132=EDGE_CURVE('',#185,#184,#220,.T.);
#133=EDGE_CURVE('',#182,#185,#221,.T.);
#134=EDGE_CURVE('',#186,#187,#222,.T.);
#135=EDGE_CURVE('',#188,#187,#223,.T.);
#136=EDGE_CURVE('',#189,#188,#224,.T.);
#137=EDGE_CURVE('',#189,#186,#225,.T.);
#138=EDGE_CURVE('',#186,#190,#226,.T.);
#139=EDGE_CURVE('',#189,#191,#227,.T.);
#140=EDGE_CURVE('',#191,#190,#228,.T.);
#141=EDGE_CURVE('',#190,#174,#229,.T.);
#142=EDGE_CURVE('',#191,#176,#230,.T.);
#143=EDGE_CURVE('',#192,#175,#231,.T.);
#144=EDGE_CURVE('',#193,#177,#232,.T.);
#145=EDGE_CURVE('',#193,#192,#233,.T.);
#146=EDGE_CURVE('',#192,#194,#234,.T.);
#147=EDGE_CURVE('',#193,#195,#235,.T.);
#148=EDGE_CURVE('',#195,#194,#236,.T.);
#149=EDGE_CURVE('',#194,#196,#237,.T.);
#150=EDGE_CURVE('',#195,#197,#238,.T.);
#151=EDGE_CURVE('',#197,#196,#239,.T.);
#152=EDGE_CURVE('',#198,#198,#14,.F.);
#153=EDGE_CURVE('',#199,#199,#15,.F.);
#154=EDGE_CURVE('',#187,#196,#240,.T.);
#155=EDGE_CURVE('',#188,#197,#241,.T.);
#156=EDGE_CURVE('',#179,#200,#242,.T.);
#157=EDGE_CURVE('',#201,#200,#243,.T.);
#158=EDGE_CURVE('',#180,#201,#244,.T.);
#159=EDGE_CURVE('',#178,#202,#245,.T.);
#160=EDGE_CURVE('',#200,#202,#246,.T.);
#161=EDGE_CURVE('',#181,#203,#247,.T.);
#162=EDGE_CURVE('',#203,#202,#248,.T.);
#163=EDGE_CURVE('',#201,#203,#249,.T.);
#164=EDGE_CURVE('',#204,#204,#16,.T.);
#165=EDGE_CURVE('',#183,#205,#250,.T.);
#166=EDGE_CURVE('',#206,#205,#251,.T.);
#167=EDGE_CURVE('',#184,#206,#252,.T.);
#168=EDGE_CURVE('',#182,#207,#253,.T.);
#169=EDGE_CURVE('',#205,#207,#254,.T.);
#170=EDGE_CURVE('',#185,#208,#255,.T.);
#171=EDGE_CURVE('',#208,#207,#256,.T.);
#172=EDGE_CURVE('',#206,#208,#257,.T.);
#173=EDGE_CURVE('',#209,#209,#17,.T.);
#174=VERTEX_POINT('',#552);
#175=VERTEX_POINT('',#553);
#176=VERTEX_POINT('',#555);
#177=VERTEX_POINT('',#557);
#178=VERTEX_POINT('',#560);
#179=VERTEX_POINT('',#561);
#180=VERTEX_POINT('',#563);
#181=VERTEX_POINT('',#565);
#182=VERTEX_POINT('',#568);
#183=VERTEX_POINT('',#569);
#184=VERTEX_POINT('',#571);
#185=VERTEX_POINT('',#573);
#186=VERTEX_POINT('',#577);
#187=VERTEX_POINT('',#578);
#188=VERTEX_POINT('',#580);
#189=VERTEX_POINT('',#582);
#190=VERTEX_POINT('',#586);
#191=VERTEX_POINT('',#588);
#192=VERTEX_POINT('',#595);
#193=VERTEX_POINT('',#597);
#194=VERTEX_POINT('',#601);
#195=VERTEX_POINT('',#603);
#196=VERTEX_POINT('',#607);
#197=VERTEX_POINT('',#609);
#198=VERTEX_POINT('',#613);
#199=VERTEX_POINT('',#615);
#200=VERTEX_POINT('',#622);
#201=VERTEX_POINT('',#624);
#202=VERTEX_POINT('',#628);
#203=VERTEX_POINT('',#632);
#204=VERTEX_POINT('',#638);
#205=VERTEX_POINT('',#641);
#206=VERTEX_POINT('',#643);
#207=VERTEX_POINT('',#647);
#208=VERTEX_POINT('',#651);
#209=VERTEX_POINT('',#657);
#210=LINE('',#551,#258);
#211=LINE('',#554,#259);
#212=LINE('',#556,#260);
#213=LINE('',#558,#261);
#214=LINE('',#559,#262);
#215=LINE('',#562,#263);
#216=LINE('',#564,#264);
#217=LINE('',#566,#265);
#218=LINE('',#567,#266);
#219=LINE('',#570,#267);
#220=LINE('',#572,#268);
#221=LINE('',#574,#269);
#222=LINE('',#576,#270);
#223=LINE('',#579,#271);
#224=LINE('',#581,#272);
#225=LINE('',#583,#273);
#226=LINE('',#585,#274);
#227=LINE('',#587,#275);
#228=LINE('',#589,#276);
#229=LINE('',#591,#277);
#230=LINE('',#592,#278);
#231=LINE('',#594,#279);
#232=LINE('',#596,#280);
#233=LINE('',#598,#281);
#234=LINE('',#600,#282);
#235=LINE('',#602,#283);
#236=LINE('',#604,#284);
#237=LINE('',#606,#285);
#238=LINE('',#608,#286);
#239=LINE('',#610,#287);
#240=LINE('',#616,#288);
#241=LINE('',#617,#289);
#242=LINE('',#621,#290);
#243=LINE('',#623,#291);
#244=LINE('',#625,#292);
#245=LINE('',#627,#293);
#246=LINE('',#629,#294);
#247=LINE('',#631,#295);
#248=LINE('',#633,#296);
#249=LINE('',#635,#297);
#250=LINE('',#640,#298);
#251=LINE('',#642,#299);
#252=LINE('',#644,#300);
#253=LINE('',#646,#301);
#254=LINE('',#648,#302);
#255=LINE('',#650,#303);
#256=LINE('',#652,#304);
#257=LINE('',#654,#305);
#258=VECTOR('',#451,1.);
#259=VECTOR('',#452,1.);
#260=VECTOR('',#453,1.);
#261=VECTOR('',#454,1.);
#262=VECTOR('',#455,1.);
#263=VECTOR('',#456,1.);
#264=VECTOR('',#457,1.);
#265=VECTOR('',#458,1.);
#266=VECTOR('',#459,1.);
#267=VECTOR('',#460,1.);
#268=VECTOR('',#461,1.);
#269=VECTOR('',#462,1.);
#270=VECTOR('',#465,1.);
#271=VECTOR('',#466,1.);
#272=VECTOR('',#467,1.);
#273=VECTOR('',#468,1.);
#274=VECTOR('',#471,1.);
#275=VECTOR('',#472,1.);
#276=VECTOR('',#473,1.);
#277=VECTOR('',#476,1.);
#278=VECTOR('',#477,1.);
#279=VECTOR('',#480,1.);
#280=VECTOR('',#481,1.);
#281=VECTOR('',#482,1.);
#282=VECTOR('',#485,1.);
#283=VECTOR('',#486,1.);
#284=VECTOR('',#487,1.);
#285=VECTOR('',#490,1.);
#286=VECTOR('',#491,1.);
#287=VECTOR('',#492,1.);
#288=VECTOR('',#499,1.);
#289=VECTOR('',#500,1.);
#290=VECTOR('',#507,1.);
#291=VECTOR('',#508,1.);
#292=VECTOR('',#509,1.);
#293=VECTOR('',#512,1.);
#294=VECTOR('',#513,1.);
#295=VECTOR('',#516,1.);
#296=VECTOR('',#517,1.);
#297=VECTOR('',#520,1.);
#298=VECTOR('',#527,1.);
#299=VECTOR('',#528,1.);
#300=VECTOR('',#529,1.);
#301=VECTOR('',#532,1.);
#302=VECTOR('',#533,1.);
#303=VECTOR('',#536,1.);
#304=VECTOR('',#537,1.);
#305=VECTOR('',#540,1.);
#306=EDGE_LOOP('',(#18,#19,#20,#21));
#307=EDGE_LOOP('',(#22,#23,#24,#25));
#308=EDGE_LOOP('',(#26,#27,#28,#29));
#309=EDGE_LOOP('',(#30,#31,#32,#33));
#310=EDGE_LOOP('',(#34,#35,#36,#37));
#311=EDGE_LOOP('',(#38,#39,#40,#41));
#312=EDGE_LOOP('',(#42,#43,#44,#45));
#313=EDGE_LOOP('',(#46,#47,#48,#49));
#314=EDGE_LOOP('',(#50,#51,#52,#53));
#315=EDGE_LOOP('',(#54));
#316=EDGE_LOOP('',(#55));
#317=EDGE_LOOP('',(#56,#57,#58,#59));
#318=EDGE_LOOP('',(#60,#61,#62,#63,#64,#65,#66,#67));
#319=EDGE_LOOP('',(#68,#69,#70,#71,#72,#73,#74,#75));
#320=EDGE_LOOP('',(#76,#77,#78,#79));
#321=EDGE_LOOP('',(#80,#81,#82,#83));
#322=EDGE_LOOP('',(#84,#85,#86,#87));
#323=EDGE_LOOP('',(#88,#89,#90,#91));
#324=EDGE_LOOP('',(#92));
#325=EDGE_LOOP('',(#93,#94,#95,#96));
#326=EDGE_LOOP('',(#97,#98,#99,#100));
#327=EDGE_LOOP('',(#101,#102,#103,#104));
#328=EDGE_LOOP('',(#105,#106,#107,#108));
#329=EDGE_LOOP('',(#109,#110,#111,#112));
#330=EDGE_LOOP('',(#113));
#331=EDGE_LOOP('',(#114,#115,#116,#117));
#332=EDGE_LOOP('',(#118));
#333=EDGE_LOOP('',(#119));
#334=EDGE_LOOP('',(#120));
#335=EDGE_LOOP('',(#121));
#336=FACE_BOUND('',#306,.T.);
#337=FACE_BOUND('',#307,.T.);
#338=FACE_BOUND('',#308,.T.);
#339=FACE_BOUND('',#309,.T.);
#340=FACE_BOUND('',#310,.T.);
#341=FACE_BOUND('',#311,.T.);
#342=FACE_BOUND('',#312,.T.);
#343=FACE_BOUND('',#313,.T.);
#344=FACE_BOUND('',#314,.T.);
#345=FACE_BOUND('',#315,.T.);
#346=FACE_BOUND('',#316,.T.);
#347=FACE_BOUND('',#317,.T.);
#348=FACE_BOUND('',#318,.T.);
#349=FACE_BOUND('',#319,.T.);
#350=FACE_BOUND('',#320,.T.);
#351=FACE_BOUND('',#321,.T.);
#352=FACE_BOUND('',#322,.T.);
#353=FACE_BOUND('',#323,.T.);
#354=FACE_BOUND('',#324,.T.);
#355=FACE_BOUND('',#325,.T.);
#356=FACE_BOUND('',#326,.T.);
#357=FACE_BOUND('',#327,.T.);
#358=FACE_BOUND('',#328,.T.);
#359=FACE_BOUND('',#329,.T.);
#360=FACE_BOUND('',#330,.T.);
#361=FACE_BOUND('',#331,.T.);
#362=FACE_BOUND('',#332,.T.);
#363=FACE_BOUND('',#333,.T.);
#364=FACE_BOUND('',#334,.T.);
#365=FACE_BOUND('',#335,.T.);
#366=PLANE('',#421);
#367=PLANE('',#422);
#368=PLANE('',#423);
#369=PLANE('',#424);
#370=PLANE('',#425);
#371=PLANE('',#426);
#372=PLANE('',#427);
#373=PLANE('',#428);
#374=PLANE('',#431);
#375=PLANE('',#432);
#376=PLANE('',#433);
#377=PLANE('',#434);
#378=PLANE('',#435);
#379=PLANE('',#436);
#380=PLANE('',#437);
#381=PLANE('',#439);
#382=PLANE('',#440);
#383=PLANE('',#441);
#384=PLANE('',#442);
#385=PLANE('',#443);
#386=ADVANCED_FACE('',(#336,#337,#338),#366,.T.);
#387=ADVANCED_FACE('',(#339),#367,.F.);
#388=ADVANCED_FACE('',(#340),#368,.T.);
#389=ADVANCED_FACE('',(#341),#369,.T.);
#390=ADVANCED_FACE('',(#342),#370,.F.);
#391=ADVANCED_FACE('',(#343),#371,.T.);
#392=ADVANCED_FACE('',(#344),#372,.T.);
#393=ADVANCED_FACE('',(#345,#346,#347),#373,.F.);
#394=ADVANCED_FACE('',(#348),#374,.F.);
#395=ADVANCED_FACE('',(#349),#375,.T.);
#396=ADVANCED_FACE('',(#350),#376,.T.);
#397=ADVANCED_FACE('',(#351),#377,.T.);
#398=ADVANCED_FACE('',(#352),#378,.F.);
#399=ADVANCED_FACE('',(#353),#379,.F.);
#400=ADVANCED_FACE('',(#354,#355),#380,.T.);
#401=ADVANCED_FACE('',(#356),#381,.T.);
#402=ADVANCED_FACE('',(#357),#382,.T.);
#403=ADVANCED_FACE('',(#358),#383,.F.);
#404=ADVANCED_FACE('',(#359),#384,.F.);
#405=ADVANCED_FACE('',(#360,#361),#385,.T.);
#406=ADVANCED_FACE('',(#362,#363),#12,.F.);
#407=ADVANCED_FACE('',(#364,#365),#13,.F.);
#408=CLOSED_SHELL('',(#386,#387,#388,#389,#390,#391,#392,#393,#394,#395,
#396,#397,#398,#399,#400,#401,#402,#403,#404,#405,#406,#407));
#409=STYLED_ITEM('',(#410),#417);
#410=PRESENTATION_STYLE_ASSIGNMENT((#411));
#411=SURFACE_STYLE_USAGE(.BOTH.,#412);
#412=SURFACE_SIDE_STYLE('',(#413));
#413=SURFACE_STYLE_FILL_AREA(#414);
#414=FILL_AREA_STYLE('',(#415));
#415=FILL_AREA_STYLE_COLOUR('',#416);
#416=COLOUR_RGB('',0.980392156862745,0.713725490196078,0.00392156862745098);
#417=MANIFOLD_SOLID_BREP('Part 2',#408);
#418=SHAPE_DEFINITION_REPRESENTATION(#666,#419);
#419=SHAPE_REPRESENTATION('Part 2',(#420),#661);
#420=AXIS2_PLACEMENT_3D('',#549,#447,#448);
#421=AXIS2_PLACEMENT_3D('',#550,#449,#450);
#422=AXIS2_PLACEMENT_3D('',#575,#463,#464);
#423=AXIS2_PLACEMENT_3D('',#584,#469,#470);
#424=AXIS2_PLACEMENT_3D('',#590,#474,#475);
#425=AXIS2_PLACEMENT_3D('',#593,#478,#479);
#426=AXIS2_PLACEMENT_3D('',#599,#483,#484);
#427=AXIS2_PLACEMENT_3D('',#605,#488,#489);
#428=AXIS2_PLACEMENT_3D('',#611,#493,#494);
#429=AXIS2_PLACEMENT_3D('',#612,#495,#496);
#430=AXIS2_PLACEMENT_3D('',#614,#497,#498);
#431=AXIS2_PLACEMENT_3D('',#618,#501,#502);
#432=AXIS2_PLACEMENT_3D('',#619,#503,#504);
#433=AXIS2_PLACEMENT_3D('',#620,#505,#506);
#434=AXIS2_PLACEMENT_3D('',#626,#510,#511);
#435=AXIS2_PLACEMENT_3D('',#630,#514,#515);
#436=AXIS2_PLACEMENT_3D('',#634,#518,#519);
#437=AXIS2_PLACEMENT_3D('',#636,#521,#522);
#438=AXIS2_PLACEMENT_3D('',#637,#523,#524);
#439=AXIS2_PLACEMENT_3D('',#639,#525,#526);
#440=AXIS2_PLACEMENT_3D('',#645,#530,#531);
#441=AXIS2_PLACEMENT_3D('',#649,#534,#535);
#442=AXIS2_PLACEMENT_3D('',#653,#538,#539);
#443=AXIS2_PLACEMENT_3D('',#655,#541,#542);
#444=AXIS2_PLACEMENT_3D('',#656,#543,#544);
#445=AXIS2_PLACEMENT_3D('',#658,#545,#546);
#446=AXIS2_PLACEMENT_3D('',#659,#547,#548);
#447=DIRECTION('',(0.,0.,1.));
#448=DIRECTION('',(1.,0.,0.));
#449=DIRECTION('',(0.0716860763511046,-0.997427243691179,0.));
#450=DIRECTION('',(0.99742724369118,0.0716860763511046,0.));
#451=DIRECTION('',(-0.99742724369118,-0.0716860763511046,0.));
#452=DIRECTION('',(0.,0.,-1.));
#453=DIRECTION('',(-0.99742724369118,-0.0716860763511046,0.));
#454=DIRECTION('',(0.,0.,-1.));
#455=DIRECTION('',(0.99742724369118,0.0716860763511046,0.));
#456=DIRECTION('',(0.,0.,-1.));
#457=DIRECTION('',(0.99742724369118,0.0716860763511046,0.));
#458=DIRECTION('',(0.,0.,-1.));
#459=DIRECTION('',(0.,0.,-1.));
#460=DIRECTION('',(-0.99742724369118,-0.0716860763511046,0.));
#461=DIRECTION('',(0.,0.,-1.));
#462=DIRECTION('',(-0.99742724369118,-0.0716860763511046,0.));
#463=DIRECTION('',(1.,0.,0.));
#464=DIRECTION('',(0.,0.,-1.));
#465=DIRECTION('',(0.,-1.,0.));
#466=DIRECTION('',(0.,0.,-1.));
#467=DIRECTION('',(0.,-1.,0.));
#468=DIRECTION('',(0.,0.,-1.));
#469=DIRECTION('',(0.,1.,0.));
#470=DIRECTION('',(0.,0.,1.));
#471=DIRECTION('',(1.,0.,0.));
#472=DIRECTION('',(1.,0.,0.));
#473=DIRECTION('',(0.,0.,-1.));
#474=DIRECTION('',(1.,0.,0.));
#475=DIRECTION('',(0.,0.,-1.));
#476=DIRECTION('',(0.,-1.,0.));
#477=DIRECTION('',(0.,-1.,0.));
#478=DIRECTION('',(-0.402442379332544,0.915445318583891,0.));
#479=DIRECTION('',(-0.915445318583891,-0.402442379332544,0.));
#480=DIRECTION('',(0.915445318583891,0.402442379332544,0.));
#481=DIRECTION('',(0.915445318583891,0.402442379332544,0.));
#482=DIRECTION('',(0.,0.,-1.));
#483=DIRECTION('',(-0.965275053549559,-0.261235661797727,0.));
#484=DIRECTION('',(0.261235661797727,-0.965275053549559,0.));
#485=DIRECTION('',(-0.261235661797727,0.965275053549559,0.));
#486=DIRECTION('',(-0.261235661797727,0.965275053549559,0.));
#487=DIRECTION('',(0.,0.,-1.));
#488=DIRECTION('',(-0.402442379332544,0.915445318583891,0.));
#489=DIRECTION('',(-0.915445318583891,-0.402442379332544,0.));
#490=DIRECTION('',(0.915445318583891,0.402442379332544,0.));
#491=DIRECTION('',(0.915445318583891,0.402442379332544,0.));
#492=DIRECTION('',(0.,0.,-1.));
#493=DIRECTION('',(0.0716860763511048,-0.997427243691179,0.));
#494=DIRECTION('',(0.99742724369118,0.0716860763511048,0.));
#495=DIRECTION('',(0.0716860763511048,-0.997427243691179,0.));
#496=DIRECTION('',(0.99742724369118,0.0716860763511048,0.));
#497=DIRECTION('',(0.0716860763511048,-0.997427243691179,0.));
#498=DIRECTION('',(0.99742724369118,0.0716860763511048,0.));
#499=DIRECTION('',(-0.99742724369118,-0.0716860763511048,0.));
#500=DIRECTION('',(-0.99742724369118,-0.0716860763511048,0.));
#501=DIRECTION('',(0.,0.,-1.));
#502=DIRECTION('',(1.,0.,0.));
#503=DIRECTION('',(0.,0.,-1.));
#504=DIRECTION('',(1.,0.,0.));
#505=DIRECTION('',(-0.997427243691179,-0.0716860763511048,0.));
#506=DIRECTION('',(0.0716860763511048,-0.99742724369118,0.));
#507=DIRECTION('',(-0.0716860763511048,0.997427243691179,0.));
#508=DIRECTION('',(0.,0.,1.));
#509=DIRECTION('',(-0.0716860763511048,0.997427243691179,0.));
#510=DIRECTION('',(0.,0.,-1.));
#511=DIRECTION('',(-1.,0.,0.));
#512=DIRECTION('',(-0.0716860763511048,0.997427243691179,0.));
#513=DIRECTION('',(-0.99742724369118,-0.0716860763511048,0.));
#514=DIRECTION('',(-0.997427243691179,-0.0716860763511048,0.));
#515=DIRECTION('',(0.0716860763511048,-0.99742724369118,0.));
#516=DIRECTION('',(-0.0716860763511048,0.997427243691179,0.));
#517=DIRECTION('',(0.,0.,1.));
#518=DIRECTION('',(0.,0.,-1.));
#519=DIRECTION('',(-1.,0.,0.));
#520=DIRECTION('',(-0.99742724369118,-0.0716860763511048,0.));
#521=DIRECTION('',(0.0716860763511048,-0.997427243691179,0.));
#522=DIRECTION('',(0.99742724369118,0.0716860763511048,0.));
#523=DIRECTION('',(-0.0716860763511048,0.99742724369118,0.));
#524=DIRECTION('',(-0.99742724369118,-0.0716860763511048,0.));
#525=DIRECTION('',(0.,0.,1.));
#526=DIRECTION('',(1.,0.,0.));
#527=DIRECTION('',(-0.0716860763511048,0.997427243691179,0.));
#528=DIRECTION('',(0.99742724369118,0.0716860763511048,0.));
#529=DIRECTION('',(-0.0716860763511048,0.997427243691179,0.));
#530=DIRECTION('',(-0.997427243691179,-0.0716860763511048,0.));
#531=DIRECTION('',(0.0716860763511048,-0.99742724369118,0.));
#532=DIRECTION('',(-0.0716860763511048,0.997427243691179,0.));
#533=DIRECTION('',(0.,0.,1.));
#534=DIRECTION('',(0.,0.,1.));
#535=DIRECTION('',(1.,0.,0.));
#536=DIRECTION('',(-0.0716860763511048,0.997427243691179,0.));
#537=DIRECTION('',(0.99742724369118,0.0716860763511048,0.));
#538=DIRECTION('',(-0.997427243691179,-0.0716860763511048,0.));
#539=DIRECTION('',(0.0716860763511048,-0.99742724369118,0.));
#540=DIRECTION('',(0.,0.,1.));
#541=DIRECTION('',(0.0716860763511048,-0.997427243691179,0.));
#542=DIRECTION('',(0.99742724369118,0.0716860763511048,0.));
#543=DIRECTION('',(-0.0716860763511048,0.99742724369118,0.));
#544=DIRECTION('',(-0.99742724369118,-0.0716860763511048,0.));
#545=DIRECTION('',(-0.0716860763511048,0.99742724369118,0.));
#546=DIRECTION('',(-0.99742724369118,-0.0716860763511048,0.));
#547=DIRECTION('',(-0.0716860763511048,0.99742724369118,0.));
#548=DIRECTION('',(-0.99742724369118,-0.0716860763511048,0.));
#549=CARTESIAN_POINT('',(0.,0.,0.));
#550=CARTESIAN_POINT('',(-0.0105400000000006,-0.0221016248688102,0.045625));
#551=CARTESIAN_POINT('',(-0.0105400000000006,-0.0221016248688102,-0.045575));
#552=CARTESIAN_POINT('',(0.009,-0.0206972658634186,-0.045575));
#553=CARTESIAN_POINT('',(-0.0300800000000012,-0.0235059838742018,-0.045575));
#554=CARTESIAN_POINT('',(0.009,-0.0206972658634186,0.045625));
#555=CARTESIAN_POINT('',(0.009,-0.0206972658634186,0.045625));
#556=CARTESIAN_POINT('',(-0.0105400000000006,-0.0221016248688102,0.045625));
#557=CARTESIAN_POINT('',(-0.0300800000000012,-0.0235059838742018,0.045625));
#558=CARTESIAN_POINT('',(-0.0300800000000012,-0.0235059838742018,0.045625));
#559=CARTESIAN_POINT('',(-0.0105400000000006,-0.0221016248688102,0.043575));
#560=CARTESIAN_POINT('',(-0.0277932556945968,-0.0233416333133869,0.043575));
#561=CARTESIAN_POINT('',(-0.0227932556945968,-0.0229822783990083,0.043575));
#562=CARTESIAN_POINT('',(-0.0227932556945968,-0.0229822783990083,0.045625));
#563=CARTESIAN_POINT('',(-0.0227932556945968,-0.0229822783990083,0.038575));
#564=CARTESIAN_POINT('',(-0.0105400000000006,-0.0221016248688102,0.038575));
#565=CARTESIAN_POINT('',(-0.0277932556945968,-0.0233416333133869,0.038575));
#566=CARTESIAN_POINT('',(-0.0277932556945968,-0.0233416333133869,0.045625));
#567=CARTESIAN_POINT('',(-0.0227932556945968,-0.0229822783990083,0.045625));
#568=CARTESIAN_POINT('',(-0.0227932556945968,-0.0229822783990083,-0.038575));
#569=CARTESIAN_POINT('',(-0.0227932556945968,-0.0229822783990083,-0.043575));
#570=CARTESIAN_POINT('',(-0.0105400000000006,-0.0221016248688102,-0.043575));
#571=CARTESIAN_POINT('',(-0.0277932556945968,-0.0233416333133869,-0.043575));
#572=CARTESIAN_POINT('',(-0.0277932556945968,-0.0233416333133869,0.045625));
#573=CARTESIAN_POINT('',(-0.0277932556945968,-0.0233416333133869,-0.038575));
#574=CARTESIAN_POINT('',(-0.0105400000000006,-0.0221016248688102,-0.038575));
#575=CARTESIAN_POINT('',(0.005,-0.0123831211214618,0.045625));
#576=CARTESIAN_POINT('',(0.005,-0.0123831211214618,-0.045575));
#577=CARTESIAN_POINT('',(0.005,-0.006,-0.045575));
#578=CARTESIAN_POINT('',(0.005,-0.0169744322250933,-0.045575));
#579=CARTESIAN_POINT('',(0.005,-0.0169744322250933,0.045625));
#580=CARTESIAN_POINT('',(0.005,-0.0169744322250933,0.045625));
#581=CARTESIAN_POINT('',(0.005,-0.0123831211214618,0.045625));
#582=CARTESIAN_POINT('',(0.005,-0.006,0.045625));
#583=CARTESIAN_POINT('',(0.005,-0.006,0.045625));
#584=CARTESIAN_POINT('',(-0.0105400000000006,-0.006,0.045625));
#585=CARTESIAN_POINT('',(-0.0105400000000006,-0.006,-0.045575));
#586=CARTESIAN_POINT('',(0.009,-0.006,-0.045575));
#587=CARTESIAN_POINT('',(-0.0105400000000006,-0.006,0.045625));
#588=CARTESIAN_POINT('',(0.009,-0.006,0.045625));
#589=CARTESIAN_POINT('',(0.009,-0.006,0.045625));
#590=CARTESIAN_POINT('',(0.009,-0.0133486329317093,0.045625));
#591=CARTESIAN_POINT('',(0.009,-0.0133486329317093,-0.045575));
#592=CARTESIAN_POINT('',(0.009,-0.0133486329317093,0.045625));
#593=CARTESIAN_POINT('',(-0.036224769334169,-0.0262073091648456,0.045625));
#594=CARTESIAN_POINT('',(-0.036224769334169,-0.0262073091648456,-0.045575));
#595=CARTESIAN_POINT('',(-0.0423695386683368,-0.0289086344554894,-0.045575));
#596=CARTESIAN_POINT('',(-0.036224769334169,-0.0262073091648456,0.045625));
#597=CARTESIAN_POINT('',(-0.0423695386683368,-0.0289086344554894,0.045625));
#598=CARTESIAN_POINT('',(-0.0423695386683368,-0.0289086344554894,0.045625));
#599=CARTESIAN_POINT('',(-0.0428979339208197,-0.0269561952206396,0.045625));
#600=CARTESIAN_POINT('',(-0.0428979339208197,-0.0269561952206396,-0.045575));
#601=CARTESIAN_POINT('',(-0.0434263291733027,-0.0250037559857899,-0.045575));
#602=CARTESIAN_POINT('',(-0.0428979339208197,-0.0269561952206396,0.045625));
#603=CARTESIAN_POINT('',(-0.0434263291733027,-0.0250037559857899,0.045625));
#604=CARTESIAN_POINT('',(-0.0434263291733027,-0.0250037559857899,0.045625));
#605=CARTESIAN_POINT('',(-0.037241468601646,-0.0222848060345815,0.045625));
#606=CARTESIAN_POINT('',(-0.037241468601646,-0.0222848060345815,-0.045575));
#607=CARTESIAN_POINT('',(-0.0310566080299894,-0.0195658560833732,-0.045575));
#608=CARTESIAN_POINT('',(-0.037241468601646,-0.0222848060345815,0.045625));
#609=CARTESIAN_POINT('',(-0.0310566080299894,-0.0195658560833732,0.045625));
#610=CARTESIAN_POINT('',(-0.0310566080299894,-0.0195658560833732,0.045625));
#611=CARTESIAN_POINT('',(-0.00720828687439905,-0.0178518538019851,0.045625));
#612=CARTESIAN_POINT('',(-0.0255800000000012,-0.0191722468814329,0.041075));
#613=CARTESIAN_POINT('',(-0.0242309297815467,-0.0190752878788642,0.041075));
#614=CARTESIAN_POINT('',(-0.0255800000000012,-0.0191722468814329,-0.041075));
#615=CARTESIAN_POINT('',(-0.0242309297815467,-0.0190752878788642,-0.041075));
#616=CARTESIAN_POINT('',(-0.00720828687439905,-0.0178518538019851,-0.045575));
#617=CARTESIAN_POINT('',(-0.00720828687439905,-0.0178518538019851,0.045625));
#618=CARTESIAN_POINT('',(-0.0262565815746784,0.0046132318675518,0.045625));
#619=CARTESIAN_POINT('',(-0.0262565815746784,0.0046132318675518,-0.045575));
#620=CARTESIAN_POINT('',(-0.0211444759385214,-0.0459231050039054,0.041075));
#621=CARTESIAN_POINT('',(-0.0211444759385214,-0.0459231050039055,0.043575));
#622=CARTESIAN_POINT('',(-0.022936627847299,-0.0209874239116259,0.043575));
#623=CARTESIAN_POINT('',(-0.022936627847299,-0.0209874239116259,0.041075));
#624=CARTESIAN_POINT('',(-0.022936627847299,-0.0209874239116259,0.038575));
#625=CARTESIAN_POINT('',(-0.0211444759385214,-0.0459231050039054,0.038575));
#626=CARTESIAN_POINT('',(-0.0243407866750303,-0.0461528269981146,0.043575));
#627=CARTESIAN_POINT('',(-0.0261444759385213,-0.046282459918284,0.043575));
#628=CARTESIAN_POINT('',(-0.027936627847299,-0.0213467788260045,0.043575));
#629=CARTESIAN_POINT('',(-0.026132938583808,-0.0212171459058351,0.043575));
#630=CARTESIAN_POINT('',(-0.0261444759385213,-0.046282459918284,0.041075));
#631=CARTESIAN_POINT('',(-0.0261444759385213,-0.046282459918284,0.038575));
#632=CARTESIAN_POINT('',(-0.027936627847299,-0.0213467788260045,0.038575));
#633=CARTESIAN_POINT('',(-0.027936627847299,-0.0213467788260045,0.041075));
#634=CARTESIAN_POINT('',(-0.0243407866750303,-0.0461528269981146,0.038575));
#635=CARTESIAN_POINT('',(-0.026132938583808,-0.0212171459058351,0.038575));
#636=CARTESIAN_POINT('',(-0.00706491472169684,-0.0198467082893675,0.045625));
#637=CARTESIAN_POINT('',(-0.025436627847299,-0.0211671013688152,0.041075));
#638=CARTESIAN_POINT('',(-0.0267856980657535,-0.0212640603713839,0.041075));
#639=CARTESIAN_POINT('',(-0.0243407866750303,-0.0461528269981146,-0.043575));
#640=CARTESIAN_POINT('',(-0.0211444759385214,-0.0459231050039054,-0.043575));
#641=CARTESIAN_POINT('',(-0.022936627847299,-0.0209874239116259,-0.043575));
#642=CARTESIAN_POINT('',(-0.026132938583808,-0.0212171459058351,-0.043575));
#643=CARTESIAN_POINT('',(-0.027936627847299,-0.0213467788260045,-0.043575));
#644=CARTESIAN_POINT('',(-0.0261444759385213,-0.046282459918284,-0.043575));
#645=CARTESIAN_POINT('',(-0.0211444759385214,-0.0459231050039054,-0.041075));
#646=CARTESIAN_POINT('',(-0.0211444759385214,-0.0459231050039055,-0.038575));
#647=CARTESIAN_POINT('',(-0.022936627847299,-0.0209874239116259,-0.038575));
#648=CARTESIAN_POINT('',(-0.022936627847299,-0.0209874239116259,-0.041075));
#649=CARTESIAN_POINT('',(-0.0243407866750303,-0.0461528269981146,-0.038575));
#650=CARTESIAN_POINT('',(-0.0261444759385213,-0.046282459918284,-0.038575));
#651=CARTESIAN_POINT('',(-0.027936627847299,-0.0213467788260045,-0.038575));
#652=CARTESIAN_POINT('',(-0.026132938583808,-0.0212171459058351,-0.038575));
#653=CARTESIAN_POINT('',(-0.0261444759385213,-0.046282459918284,-0.041075));
#654=CARTESIAN_POINT('',(-0.027936627847299,-0.0213467788260045,-0.041075));
#655=CARTESIAN_POINT('',(-0.00706491472169684,-0.0198467082893675,0.045625));
#656=CARTESIAN_POINT('',(-0.025436627847299,-0.0211671013688152,-0.041075));
#657=CARTESIAN_POINT('',(-0.0267856980657535,-0.0212640603713839,-0.041075));
#658=CARTESIAN_POINT('',(-0.025436627847299,-0.0211671013688152,-0.041075));
#659=CARTESIAN_POINT('',(-0.025436627847299,-0.0211671013688152,0.041075));
#660=MECHANICAL_DESIGN_GEOMETRIC_PRESENTATION_REPRESENTATION('',(#409),
#661);
#661=(
GEOMETRIC_REPRESENTATION_CONTEXT(3)
GLOBAL_UNCERTAINTY_ASSIGNED_CONTEXT((#662))
GLOBAL_UNIT_ASSIGNED_CONTEXT((#665,#664,#663))
REPRESENTATION_CONTEXT('Part 2','TOP_LEVEL_ASSEMBLY_PART')
);
#662=UNCERTAINTY_MEASURE_WITH_UNIT(LENGTH_MEASURE(1.E-8),#665,
'DISTANCE_ACCURACY_VALUE','Maximum Tolerance applied to model');
#663=(
NAMED_UNIT(*)
SI_UNIT($,.STERADIAN.)
SOLID_ANGLE_UNIT()
);
#664=(
NAMED_UNIT(*)
PLANE_ANGLE_UNIT()
SI_UNIT($,.RADIAN.)
);
#665=(
LENGTH_UNIT()
NAMED_UNIT(*)
SI_UNIT($,.METRE.)
);
#666=PRODUCT_DEFINITION_SHAPE('','',#667);
#667=PRODUCT_DEFINITION('','',#669,#668);
#668=PRODUCT_DEFINITION_CONTEXT('',#675,'design');
#669=PRODUCT_DEFINITION_FORMATION_WITH_SPECIFIED_SOURCE('','',#671,
 .NOT_KNOWN.);
#670=PRODUCT_RELATED_PRODUCT_CATEGORY('','',(#671));
#671=PRODUCT('Part 2','Part 2','Part 2',(#673));
#672=PRODUCT_CATEGORY('','');
#673=PRODUCT_CONTEXT('',#675,'mechanical');
#674=APPLICATION_PROTOCOL_DEFINITION('international standard',
'ap242_managed_model_based_3d_engineering',2020,#675);
#675=APPLICATION_CONTEXT('managed model based 3d engineering');
ENDSEC;
END-ISO-10303-21;
