ISO-10303-21;
HEADER;
/* Generated by software containing ST-Developer
 * from STEP Tools, Inc. (www.steptools.com) 
 */
/* OPTION: using custom renumber hook */

FILE_DESCRIPTION(
/* description */ ('STEP AP242 Edition 2',
'CAx-IF Rec.Pracs.---Representation and Presentation of Product Manufa
cturing Information (PMI)---4.0---2014-10-13',
'CAx-IF Rec.Pracs.---3D Tessellated Geometry---0.4---2014-09-14','2;1',
'CAx-IF Rec.Pracs.---User Defined Attributes---1.5---2016-08-15'),
/* implementation_level */ '2;1');

FILE_NAME(
/* name */ 'Part Studio 3 - Part 4',
/* time_stamp */ '2026-09-23T04:59:42Z',
/* author */ (''),
/* organization */ (''),
/* preprocessor_version */ 'ST-DEVELOPER v20',
/* originating_system */ 'ONSHAPE BY PTC INC, 1.221',
/* authorisation */ '  ');

FILE_SCHEMA (('AP242_MANAGED_MODEL_BASED_3D_ENGINEERING_MIM_LF { 1 0 10303 442 3 1 4 }'));
ENDSEC;

DATA;
#10=SHAPE_REPRESENTATION_RELATIONSHIP('','',#1297,#11);
#11=ADVANCED_BREP_SHAPE_REPRESENTATION('',(#1295),#2092);
#12=VERTEX_LOOP('',#677);
#13=VERTEX_LOOP('',#679);
#14=CONICAL_SURFACE('',#1392,0.00135255,1.02974425867665);
#15=CONICAL_SURFACE('',#1395,0.00135255,1.02974425867665);
#16=CIRCLE('',#1301,0.002);
#17=CIRCLE('',#1302,0.002);
#18=CIRCLE('',#1305,0.002);
#19=CIRCLE('',#1306,0.002);
#20=CIRCLE('',#1309,0.002);
#21=CIRCLE('',#1310,0.002);
#22=CIRCLE('',#1321,0.00225);
#23=CIRCLE('',#1322,0.00225);
#24=CIRCLE('',#1324,0.00225);
#25=CIRCLE('',#1325,0.00225);
#26=CIRCLE('',#1327,0.00225);
#27=CIRCLE('',#1328,0.00225);
#28=CIRCLE('',#1330,0.00225);
#29=CIRCLE('',#1331,0.00225);
#30=CIRCLE('',#1333,0.002);
#31=CIRCLE('',#1334,0.002);
#32=CIRCLE('',#1338,0.002);
#33=CIRCLE('',#1341,0.00125);
#34=CIRCLE('',#1346,0.002);
#35=CIRCLE('',#1349,0.00125);
#36=CIRCLE('',#1356,0.00125);
#37=CIRCLE('',#1362,0.00125);
#38=CIRCLE('',#1373,0.00095);
#39=CIRCLE('',#1374,0.00095);
#40=CIRCLE('',#1376,0.00095);
#41=CIRCLE('',#1377,0.00095);
#42=CIRCLE('',#1381,0.00135255);
#43=CIRCLE('',#1387,0.00135255);
#44=CIRCLE('',#1393,0.00135255);
#45=CIRCLE('',#1396,0.00135255);
#46=CYLINDRICAL_SURFACE('',#1300,0.002);
#47=CYLINDRICAL_SURFACE('',#1304,0.002);
#48=CYLINDRICAL_SURFACE('',#1308,0.002);
#49=CYLINDRICAL_SURFACE('',#1320,0.00225);
#50=CYLINDRICAL_SURFACE('',#1323,0.00225);
#51=CYLINDRICAL_SURFACE('',#1326,0.00225);
#52=CYLINDRICAL_SURFACE('',#1329,0.00225);
#53=CYLINDRICAL_SURFACE('',#1332,0.002);
#54=CYLINDRICAL_SURFACE('',#1347,0.002);
#55=CYLINDRICAL_SURFACE('',#1348,0.00125);
#56=CYLINDRICAL_SURFACE('',#1361,0.00125);
#57=CYLINDRICAL_SURFACE('',#1372,0.00095);
#58=CYLINDRICAL_SURFACE('',#1375,0.00095);
#59=CYLINDRICAL_SURFACE('',#1394,0.00135255);
#60=CYLINDRICAL_SURFACE('',#1397,0.00135255);
#61=ORIENTED_EDGE('',*,*,#395,.T.);
#62=ORIENTED_EDGE('',*,*,#396,.T.);
#63=ORIENTED_EDGE('',*,*,#397,.F.);
#64=ORIENTED_EDGE('',*,*,#398,.F.);
#65=ORIENTED_EDGE('',*,*,#397,.T.);
#66=ORIENTED_EDGE('',*,*,#399,.F.);
#67=ORIENTED_EDGE('',*,*,#400,.F.);
#68=ORIENTED_EDGE('',*,*,#401,.F.);
#69=ORIENTED_EDGE('',*,*,#400,.T.);
#70=ORIENTED_EDGE('',*,*,#402,.T.);
#71=ORIENTED_EDGE('',*,*,#403,.F.);
#72=ORIENTED_EDGE('',*,*,#404,.F.);
#73=ORIENTED_EDGE('',*,*,#403,.T.);
#74=ORIENTED_EDGE('',*,*,#405,.F.);
#75=ORIENTED_EDGE('',*,*,#406,.F.);
#76=ORIENTED_EDGE('',*,*,#407,.F.);
#77=ORIENTED_EDGE('',*,*,#406,.T.);
#78=ORIENTED_EDGE('',*,*,#408,.F.);
#79=ORIENTED_EDGE('',*,*,#409,.F.);
#80=ORIENTED_EDGE('',*,*,#410,.T.);
#81=ORIENTED_EDGE('',*,*,#409,.T.);
#82=ORIENTED_EDGE('',*,*,#411,.F.);
#83=ORIENTED_EDGE('',*,*,#412,.F.);
#84=ORIENTED_EDGE('',*,*,#413,.F.);
#85=ORIENTED_EDGE('',*,*,#412,.T.);
#86=ORIENTED_EDGE('',*,*,#414,.F.);
#87=ORIENTED_EDGE('',*,*,#415,.F.);
#88=ORIENTED_EDGE('',*,*,#416,.T.);
#89=ORIENTED_EDGE('',*,*,#417,.T.);
#90=ORIENTED_EDGE('',*,*,#418,.F.);
#91=ORIENTED_EDGE('',*,*,#419,.F.);
#92=ORIENTED_EDGE('',*,*,#420,.T.);
#93=ORIENTED_EDGE('',*,*,#419,.T.);
#94=ORIENTED_EDGE('',*,*,#421,.T.);
#95=ORIENTED_EDGE('',*,*,#422,.F.);
#96=ORIENTED_EDGE('',*,*,#423,.F.);
#97=ORIENTED_EDGE('',*,*,#422,.T.);
#98=ORIENTED_EDGE('',*,*,#424,.T.);
#99=ORIENTED_EDGE('',*,*,#425,.F.);
#100=ORIENTED_EDGE('',*,*,#426,.F.);
#101=ORIENTED_EDGE('',*,*,#427,.T.);
#102=ORIENTED_EDGE('',*,*,#428,.F.);
#103=ORIENTED_EDGE('',*,*,#429,.F.);
#104=ORIENTED_EDGE('',*,*,#430,.T.);
#105=ORIENTED_EDGE('',*,*,#429,.T.);
#106=ORIENTED_EDGE('',*,*,#431,.T.);
#107=ORIENTED_EDGE('',*,*,#432,.F.);
#108=ORIENTED_EDGE('',*,*,#433,.F.);
#109=ORIENTED_EDGE('',*,*,#432,.T.);
#110=ORIENTED_EDGE('',*,*,#434,.T.);
#111=ORIENTED_EDGE('',*,*,#435,.F.);
#112=ORIENTED_EDGE('',*,*,#436,.F.);
#113=ORIENTED_EDGE('',*,*,#425,.T.);
#114=ORIENTED_EDGE('',*,*,#437,.T.);
#115=ORIENTED_EDGE('',*,*,#417,.F.);
#116=ORIENTED_EDGE('',*,*,#438,.F.);
#117=ORIENTED_EDGE('',*,*,#435,.T.);
#118=ORIENTED_EDGE('',*,*,#439,.F.);
#119=ORIENTED_EDGE('',*,*,#427,.F.);
#120=ORIENTED_EDGE('',*,*,#440,.T.);
#121=ORIENTED_EDGE('',*,*,#441,.T.);
#122=ORIENTED_EDGE('',*,*,#442,.F.);
#123=ORIENTED_EDGE('',*,*,#443,.T.);
#124=ORIENTED_EDGE('',*,*,#444,.F.);
#125=ORIENTED_EDGE('',*,*,#445,.T.);
#126=ORIENTED_EDGE('',*,*,#446,.F.);
#127=ORIENTED_EDGE('',*,*,#447,.T.);
#128=ORIENTED_EDGE('',*,*,#448,.F.);
#129=ORIENTED_EDGE('',*,*,#415,.T.);
#130=ORIENTED_EDGE('',*,*,#449,.F.);
#131=ORIENTED_EDGE('',*,*,#395,.F.);
#132=ORIENTED_EDGE('',*,*,#450,.F.);
#133=ORIENTED_EDGE('',*,*,#451,.F.);
#134=ORIENTED_EDGE('',*,*,#452,.F.);
#135=ORIENTED_EDGE('',*,*,#453,.F.);
#136=ORIENTED_EDGE('',*,*,#454,.F.);
#137=ORIENTED_EDGE('',*,*,#455,.F.);
#138=ORIENTED_EDGE('',*,*,#456,.T.);
#139=ORIENTED_EDGE('',*,*,#457,.F.);
#140=ORIENTED_EDGE('',*,*,#458,.T.);
#141=ORIENTED_EDGE('',*,*,#447,.F.);
#142=ORIENTED_EDGE('',*,*,#445,.F.);
#143=ORIENTED_EDGE('',*,*,#443,.F.);
#144=ORIENTED_EDGE('',*,*,#441,.F.);
#145=ORIENTED_EDGE('',*,*,#430,.F.);
#146=ORIENTED_EDGE('',*,*,#433,.T.);
#147=ORIENTED_EDGE('',*,*,#436,.T.);
#148=ORIENTED_EDGE('',*,*,#440,.F.);
#149=ORIENTED_EDGE('',*,*,#420,.F.);
#150=ORIENTED_EDGE('',*,*,#423,.T.);
#151=ORIENTED_EDGE('',*,*,#426,.T.);
#152=ORIENTED_EDGE('',*,*,#438,.T.);
#153=ORIENTED_EDGE('',*,*,#398,.T.);
#154=ORIENTED_EDGE('',*,*,#401,.T.);
#155=ORIENTED_EDGE('',*,*,#404,.T.);
#156=ORIENTED_EDGE('',*,*,#407,.T.);
#157=ORIENTED_EDGE('',*,*,#410,.F.);
#158=ORIENTED_EDGE('',*,*,#413,.T.);
#159=ORIENTED_EDGE('',*,*,#416,.F.);
#160=ORIENTED_EDGE('',*,*,#450,.T.);
#161=ORIENTED_EDGE('',*,*,#448,.T.);
#162=ORIENTED_EDGE('',*,*,#446,.T.);
#163=ORIENTED_EDGE('',*,*,#444,.T.);
#164=ORIENTED_EDGE('',*,*,#442,.T.);
#165=ORIENTED_EDGE('',*,*,#428,.T.);
#166=ORIENTED_EDGE('',*,*,#439,.T.);
#167=ORIENTED_EDGE('',*,*,#434,.F.);
#168=ORIENTED_EDGE('',*,*,#431,.F.);
#169=ORIENTED_EDGE('',*,*,#418,.T.);
#170=ORIENTED_EDGE('',*,*,#437,.F.);
#171=ORIENTED_EDGE('',*,*,#424,.F.);
#172=ORIENTED_EDGE('',*,*,#421,.F.);
#173=ORIENTED_EDGE('',*,*,#402,.F.);
#174=ORIENTED_EDGE('',*,*,#399,.T.);
#175=ORIENTED_EDGE('',*,*,#396,.F.);
#176=ORIENTED_EDGE('',*,*,#449,.T.);
#177=ORIENTED_EDGE('',*,*,#414,.T.);
#178=ORIENTED_EDGE('',*,*,#411,.T.);
#179=ORIENTED_EDGE('',*,*,#408,.T.);
#180=ORIENTED_EDGE('',*,*,#405,.T.);
#181=ORIENTED_EDGE('',*,*,#458,.F.);
#182=ORIENTED_EDGE('',*,*,#459,.F.);
#183=ORIENTED_EDGE('',*,*,#460,.T.);
#184=ORIENTED_EDGE('',*,*,#461,.T.);
#185=ORIENTED_EDGE('',*,*,#462,.F.);
#186=ORIENTED_EDGE('',*,*,#463,.T.);
#187=ORIENTED_EDGE('',*,*,#464,.T.);
#188=ORIENTED_EDGE('',*,*,#465,.F.);
#189=ORIENTED_EDGE('',*,*,#466,.T.);
#190=ORIENTED_EDGE('',*,*,#453,.T.);
#191=ORIENTED_EDGE('',*,*,#467,.F.);
#192=ORIENTED_EDGE('',*,*,#468,.T.);
#193=ORIENTED_EDGE('',*,*,#469,.T.);
#194=ORIENTED_EDGE('',*,*,#470,.F.);
#195=ORIENTED_EDGE('',*,*,#471,.T.);
#196=ORIENTED_EDGE('',*,*,#461,.F.);
#197=ORIENTED_EDGE('',*,*,#468,.F.);
#198=ORIENTED_EDGE('',*,*,#472,.T.);
#199=ORIENTED_EDGE('',*,*,#473,.T.);
#200=ORIENTED_EDGE('',*,*,#474,.F.);
#201=ORIENTED_EDGE('',*,*,#475,.T.);
#202=ORIENTED_EDGE('',*,*,#462,.T.);
#203=ORIENTED_EDGE('',*,*,#473,.F.);
#204=ORIENTED_EDGE('',*,*,#464,.F.);
#205=ORIENTED_EDGE('',*,*,#476,.T.);
#206=ORIENTED_EDGE('',*,*,#477,.T.);
#207=ORIENTED_EDGE('',*,*,#478,.T.);
#208=ORIENTED_EDGE('',*,*,#479,.F.);
#209=ORIENTED_EDGE('',*,*,#451,.T.);
#210=ORIENTED_EDGE('',*,*,#465,.T.);
#211=ORIENTED_EDGE('',*,*,#478,.F.);
#212=ORIENTED_EDGE('',*,*,#467,.T.);
#213=ORIENTED_EDGE('',*,*,#452,.T.);
#214=ORIENTED_EDGE('',*,*,#479,.T.);
#215=ORIENTED_EDGE('',*,*,#477,.F.);
#216=ORIENTED_EDGE('',*,*,#480,.T.);
#217=ORIENTED_EDGE('',*,*,#474,.T.);
#218=ORIENTED_EDGE('',*,*,#472,.F.);
#219=ORIENTED_EDGE('',*,*,#480,.F.);
#220=ORIENTED_EDGE('',*,*,#476,.F.);
#221=ORIENTED_EDGE('',*,*,#463,.F.);
#222=ORIENTED_EDGE('',*,*,#475,.F.);
#223=ORIENTED_EDGE('',*,*,#481,.F.);
#224=ORIENTED_EDGE('',*,*,#471,.F.);
#225=ORIENTED_EDGE('',*,*,#481,.T.);
#226=ORIENTED_EDGE('',*,*,#459,.T.);
#227=ORIENTED_EDGE('',*,*,#457,.T.);
#228=ORIENTED_EDGE('',*,*,#482,.F.);
#229=ORIENTED_EDGE('',*,*,#483,.F.);
#230=ORIENTED_EDGE('',*,*,#484,.F.);
#231=ORIENTED_EDGE('',*,*,#484,.T.);
#232=ORIENTED_EDGE('',*,*,#485,.T.);
#233=ORIENTED_EDGE('',*,*,#469,.F.);
#234=ORIENTED_EDGE('',*,*,#460,.F.);
#235=ORIENTED_EDGE('',*,*,#486,.T.);
#236=ORIENTED_EDGE('',*,*,#483,.T.);
#237=ORIENTED_EDGE('',*,*,#487,.F.);
#238=ORIENTED_EDGE('',*,*,#488,.F.);
#239=ORIENTED_EDGE('',*,*,#456,.F.);
#240=ORIENTED_EDGE('',*,*,#489,.T.);
#241=ORIENTED_EDGE('',*,*,#490,.F.);
#242=ORIENTED_EDGE('',*,*,#491,.T.);
#243=ORIENTED_EDGE('',*,*,#492,.F.);
#244=ORIENTED_EDGE('',*,*,#487,.T.);
#245=ORIENTED_EDGE('',*,*,#482,.T.);
#246=ORIENTED_EDGE('',*,*,#493,.T.);
#247=ORIENTED_EDGE('',*,*,#470,.T.);
#248=ORIENTED_EDGE('',*,*,#494,.T.);
#249=ORIENTED_EDGE('',*,*,#495,.F.);
#250=ORIENTED_EDGE('',*,*,#496,.F.);
#251=ORIENTED_EDGE('',*,*,#497,.T.);
#252=ORIENTED_EDGE('',*,*,#498,.F.);
#253=ORIENTED_EDGE('',*,*,#499,.F.);
#254=ORIENTED_EDGE('',*,*,#500,.T.);
#255=ORIENTED_EDGE('',*,*,#491,.F.);
#256=ORIENTED_EDGE('',*,*,#501,.F.);
#257=ORIENTED_EDGE('',*,*,#502,.T.);
#258=ORIENTED_EDGE('',*,*,#495,.T.);
#259=ORIENTED_EDGE('',*,*,#503,.F.);
#260=ORIENTED_EDGE('',*,*,#504,.T.);
#261=ORIENTED_EDGE('',*,*,#490,.T.);
#262=ORIENTED_EDGE('',*,*,#505,.F.);
#263=ORIENTED_EDGE('',*,*,#506,.F.);
#264=ORIENTED_EDGE('',*,*,#501,.T.);
#265=ORIENTED_EDGE('',*,*,#489,.F.);
#266=ORIENTED_EDGE('',*,*,#455,.T.);
#267=ORIENTED_EDGE('',*,*,#507,.T.);
#268=ORIENTED_EDGE('',*,*,#505,.T.);
#269=ORIENTED_EDGE('',*,*,#507,.F.);
#270=ORIENTED_EDGE('',*,*,#454,.T.);
#271=ORIENTED_EDGE('',*,*,#466,.F.);
#272=ORIENTED_EDGE('',*,*,#496,.T.);
#273=ORIENTED_EDGE('',*,*,#502,.F.);
#274=ORIENTED_EDGE('',*,*,#506,.T.);
#275=ORIENTED_EDGE('',*,*,#508,.T.);
#276=ORIENTED_EDGE('',*,*,#493,.F.);
#277=ORIENTED_EDGE('',*,*,#508,.F.);
#278=ORIENTED_EDGE('',*,*,#509,.F.);
#279=ORIENTED_EDGE('',*,*,#510,.F.);
#280=ORIENTED_EDGE('',*,*,#511,.T.);
#281=ORIENTED_EDGE('',*,*,#512,.T.);
#282=ORIENTED_EDGE('',*,*,#488,.T.);
#283=ORIENTED_EDGE('',*,*,#492,.T.);
#284=ORIENTED_EDGE('',*,*,#504,.F.);
#285=ORIENTED_EDGE('',*,*,#513,.F.);
#286=ORIENTED_EDGE('',*,*,#514,.F.);
#287=ORIENTED_EDGE('',*,*,#515,.T.);
#288=ORIENTED_EDGE('',*,*,#516,.T.);
#289=ORIENTED_EDGE('',*,*,#517,.F.);
#290=ORIENTED_EDGE('',*,*,#518,.F.);
#291=ORIENTED_EDGE('',*,*,#519,.T.);
#292=ORIENTED_EDGE('',*,*,#520,.T.);
#293=ORIENTED_EDGE('',*,*,#521,.F.);
#294=ORIENTED_EDGE('',*,*,#522,.F.);
#295=ORIENTED_EDGE('',*,*,#523,.T.);
#296=ORIENTED_EDGE('',*,*,#524,.T.);
#297=ORIENTED_EDGE('',*,*,#497,.F.);
#298=ORIENTED_EDGE('',*,*,#525,.F.);
#299=ORIENTED_EDGE('',*,*,#526,.F.);
#300=ORIENTED_EDGE('',*,*,#509,.T.);
#301=ORIENTED_EDGE('',*,*,#527,.T.);
#302=ORIENTED_EDGE('',*,*,#528,.F.);
#303=ORIENTED_EDGE('',*,*,#529,.F.);
#304=ORIENTED_EDGE('',*,*,#530,.T.);
#305=ORIENTED_EDGE('',*,*,#522,.T.);
#306=ORIENTED_EDGE('',*,*,#500,.F.);
#307=ORIENTED_EDGE('',*,*,#531,.F.);
#308=ORIENTED_EDGE('',*,*,#510,.T.);
#309=ORIENTED_EDGE('',*,*,#526,.T.);
#310=ORIENTED_EDGE('',*,*,#499,.T.);
#311=ORIENTED_EDGE('',*,*,#532,.F.);
#312=ORIENTED_EDGE('',*,*,#511,.F.);
#313=ORIENTED_EDGE('',*,*,#531,.T.);
#314=ORIENTED_EDGE('',*,*,#533,.T.);
#315=ORIENTED_EDGE('',*,*,#534,.T.);
#316=ORIENTED_EDGE('',*,*,#527,.F.);
#317=ORIENTED_EDGE('',*,*,#512,.F.);
#318=ORIENTED_EDGE('',*,*,#532,.T.);
#319=ORIENTED_EDGE('',*,*,#498,.T.);
#320=ORIENTED_EDGE('',*,*,#524,.F.);
#321=ORIENTED_EDGE('',*,*,#535,.F.);
#322=ORIENTED_EDGE('',*,*,#494,.F.);
#323=ORIENTED_EDGE('',*,*,#485,.F.);
#324=ORIENTED_EDGE('',*,*,#486,.F.);
#325=ORIENTED_EDGE('',*,*,#513,.T.);
#326=ORIENTED_EDGE('',*,*,#503,.T.);
#327=ORIENTED_EDGE('',*,*,#536,.F.);
#328=ORIENTED_EDGE('',*,*,#529,.T.);
#329=ORIENTED_EDGE('',*,*,#537,.T.);
#330=ORIENTED_EDGE('',*,*,#533,.F.);
#331=ORIENTED_EDGE('',*,*,#538,.T.);
#332=ORIENTED_EDGE('',*,*,#539,.F.);
#333=ORIENTED_EDGE('',*,*,#540,.T.);
#334=ORIENTED_EDGE('',*,*,#541,.F.);
#335=ORIENTED_EDGE('',*,*,#537,.F.);
#336=ORIENTED_EDGE('',*,*,#528,.T.);
#337=ORIENTED_EDGE('',*,*,#525,.T.);
#338=ORIENTED_EDGE('',*,*,#534,.F.);
#339=ORIENTED_EDGE('',*,*,#538,.F.);
#340=ORIENTED_EDGE('',*,*,#540,.F.);
#341=ORIENTED_EDGE('',*,*,#530,.F.);
#342=ORIENTED_EDGE('',*,*,#536,.T.);
#343=ORIENTED_EDGE('',*,*,#535,.T.);
#344=ORIENTED_EDGE('',*,*,#523,.F.);
#345=ORIENTED_EDGE('',*,*,#539,.T.);
#346=ORIENTED_EDGE('',*,*,#541,.T.);
#347=ORIENTED_EDGE('',*,*,#542,.T.);
#348=ORIENTED_EDGE('',*,*,#543,.T.);
#349=ORIENTED_EDGE('',*,*,#544,.T.);
#350=ORIENTED_EDGE('',*,*,#545,.F.);
#351=ORIENTED_EDGE('',*,*,#546,.F.);
#352=ORIENTED_EDGE('',*,*,#547,.F.);
#353=ORIENTED_EDGE('',*,*,#545,.T.);
#354=ORIENTED_EDGE('',*,*,#548,.T.);
#355=ORIENTED_EDGE('',*,*,#516,.F.);
#356=ORIENTED_EDGE('',*,*,#549,.F.);
#357=ORIENTED_EDGE('',*,*,#546,.T.);
#358=ORIENTED_EDGE('',*,*,#547,.T.);
#359=ORIENTED_EDGE('',*,*,#515,.F.);
#360=ORIENTED_EDGE('',*,*,#544,.F.);
#361=ORIENTED_EDGE('',*,*,#550,.T.);
#362=ORIENTED_EDGE('',*,*,#517,.T.);
#363=ORIENTED_EDGE('',*,*,#548,.F.);
#364=ORIENTED_EDGE('',*,*,#543,.F.);
#365=ORIENTED_EDGE('',*,*,#549,.T.);
#366=ORIENTED_EDGE('',*,*,#514,.T.);
#367=ORIENTED_EDGE('',*,*,#550,.F.);
#368=ORIENTED_EDGE('',*,*,#551,.T.);
#369=ORIENTED_EDGE('',*,*,#552,.T.);
#370=ORIENTED_EDGE('',*,*,#553,.T.);
#371=ORIENTED_EDGE('',*,*,#554,.F.);
#372=ORIENTED_EDGE('',*,*,#555,.F.);
#373=ORIENTED_EDGE('',*,*,#556,.F.);
#374=ORIENTED_EDGE('',*,*,#554,.T.);
#375=ORIENTED_EDGE('',*,*,#557,.T.);
#376=ORIENTED_EDGE('',*,*,#520,.F.);
#377=ORIENTED_EDGE('',*,*,#558,.F.);
#378=ORIENTED_EDGE('',*,*,#555,.T.);
#379=ORIENTED_EDGE('',*,*,#556,.T.);
#380=ORIENTED_EDGE('',*,*,#519,.F.);
#381=ORIENTED_EDGE('',*,*,#553,.F.);
#382=ORIENTED_EDGE('',*,*,#559,.T.);
#383=ORIENTED_EDGE('',*,*,#521,.T.);
#384=ORIENTED_EDGE('',*,*,#557,.F.);
#385=ORIENTED_EDGE('',*,*,#552,.F.);
#386=ORIENTED_EDGE('',*,*,#558,.T.);
#387=ORIENTED_EDGE('',*,*,#518,.T.);
#388=ORIENTED_EDGE('',*,*,#559,.F.);
#389=ORIENTED_EDGE('',*,*,#560,.F.);
#390=ORIENTED_EDGE('',*,*,#551,.F.);
#391=ORIENTED_EDGE('',*,*,#560,.T.);
#392=ORIENTED_EDGE('',*,*,#561,.F.);
#393=ORIENTED_EDGE('',*,*,#542,.F.);
#394=ORIENTED_EDGE('',*,*,#561,.T.);
#395=EDGE_CURVE('',#562,#563,#681,.T.);
#396=EDGE_CURVE('',#563,#564,#682,.T.);
#397=EDGE_CURVE('',#565,#564,#683,.T.);
#398=EDGE_CURVE('',#562,#565,#684,.T.);
#399=EDGE_CURVE('',#566,#564,#16,.F.);
#400=EDGE_CURVE('',#567,#566,#685,.T.);
#401=EDGE_CURVE('',#565,#567,#17,.T.);
#402=EDGE_CURVE('',#566,#568,#686,.T.);
#403=EDGE_CURVE('',#569,#568,#687,.T.);
#404=EDGE_CURVE('',#567,#569,#688,.T.);
#405=EDGE_CURVE('',#570,#568,#18,.F.);
#406=EDGE_CURVE('',#571,#570,#689,.T.);
#407=EDGE_CURVE('',#569,#571,#19,.T.);
#408=EDGE_CURVE('',#572,#570,#690,.T.);
#409=EDGE_CURVE('',#573,#572,#691,.T.);
#410=EDGE_CURVE('',#573,#571,#692,.T.);
#411=EDGE_CURVE('',#574,#572,#20,.F.);
#412=EDGE_CURVE('',#575,#574,#693,.T.);
#413=EDGE_CURVE('',#573,#575,#21,.T.);
#414=EDGE_CURVE('',#576,#574,#694,.T.);
#415=EDGE_CURVE('',#577,#576,#695,.T.);
#416=EDGE_CURVE('',#577,#575,#696,.T.);
#417=EDGE_CURVE('',#578,#579,#697,.T.);
#418=EDGE_CURVE('',#580,#579,#698,.T.);
#419=EDGE_CURVE('',#581,#580,#699,.T.);
#420=EDGE_CURVE('',#581,#578,#700,.T.);
#421=EDGE_CURVE('',#580,#582,#701,.T.);
#422=EDGE_CURVE('',#583,#582,#702,.T.);
#423=EDGE_CURVE('',#581,#583,#703,.T.);
#424=EDGE_CURVE('',#582,#584,#704,.T.);
#425=EDGE_CURVE('',#585,#584,#705,.T.);
#426=EDGE_CURVE('',#583,#585,#706,.T.);
#427=EDGE_CURVE('',#586,#587,#707,.T.);
#428=EDGE_CURVE('',#588,#587,#708,.T.);
#429=EDGE_CURVE('',#589,#588,#709,.T.);
#430=EDGE_CURVE('',#589,#586,#710,.T.);
#431=EDGE_CURVE('',#588,#590,#711,.T.);
#432=EDGE_CURVE('',#591,#590,#712,.T.);
#433=EDGE_CURVE('',#589,#591,#713,.T.);
#434=EDGE_CURVE('',#590,#592,#714,.T.);
#435=EDGE_CURVE('',#593,#592,#715,.T.);
#436=EDGE_CURVE('',#591,#593,#716,.T.);
#437=EDGE_CURVE('',#584,#579,#717,.T.);
#438=EDGE_CURVE('',#585,#578,#718,.T.);
#439=EDGE_CURVE('',#587,#592,#719,.T.);
#440=EDGE_CURVE('',#586,#593,#720,.T.);
#441=EDGE_CURVE('',#594,#594,#22,.T.);
#442=EDGE_CURVE('',#595,#595,#23,.T.);
#443=EDGE_CURVE('',#596,#596,#24,.T.);
#444=EDGE_CURVE('',#597,#597,#25,.T.);
#445=EDGE_CURVE('',#598,#598,#26,.T.);
#446=EDGE_CURVE('',#599,#599,#27,.T.);
#447=EDGE_CURVE('',#600,#600,#28,.T.);
#448=EDGE_CURVE('',#601,#601,#29,.T.);
#449=EDGE_CURVE('',#563,#576,#30,.F.);
#450=EDGE_CURVE('',#577,#562,#31,.T.);
#451=EDGE_CURVE('',#602,#603,#721,.T.);
#452=EDGE_CURVE('',#604,#602,#722,.T.);
#453=EDGE_CURVE('',#605,#604,#723,.T.);
#454=EDGE_CURVE('',#606,#605,#724,.T.);
#455=EDGE_CURVE('',#607,#606,#725,.T.);
#456=EDGE_CURVE('',#607,#608,#726,.T.);
#457=EDGE_CURVE('',#609,#608,#727,.T.);
#458=EDGE_CURVE('',#609,#603,#728,.T.);
#459=EDGE_CURVE('',#610,#609,#729,.T.);
#460=EDGE_CURVE('',#610,#611,#730,.T.);
#461=EDGE_CURVE('',#611,#612,#731,.T.);
#462=EDGE_CURVE('',#613,#612,#732,.T.);
#463=EDGE_CURVE('',#613,#614,#32,.F.);
#464=EDGE_CURVE('',#614,#615,#733,.T.);
#465=EDGE_CURVE('',#603,#615,#734,.T.);
#466=EDGE_CURVE('',#616,#605,#735,.T.);
#467=EDGE_CURVE('',#617,#604,#736,.T.);
#468=EDGE_CURVE('',#617,#611,#737,.T.);
#469=EDGE_CURVE('',#611,#618,#738,.T.);
#470=EDGE_CURVE('',#616,#618,#739,.T.);
#471=EDGE_CURVE('',#619,#619,#33,.T.);
#472=EDGE_CURVE('',#617,#620,#740,.T.);
#473=EDGE_CURVE('',#620,#612,#741,.T.);
#474=EDGE_CURVE('',#621,#620,#742,.T.);
#475=EDGE_CURVE('',#621,#613,#743,.T.);
#476=EDGE_CURVE('',#614,#622,#744,.F.);
#477=EDGE_CURVE('',#622,#623,#745,.T.);
#478=EDGE_CURVE('',#623,#615,#746,.T.);
#479=EDGE_CURVE('',#602,#623,#747,.T.);
#480=EDGE_CURVE('',#622,#621,#34,.T.);
#481=EDGE_CURVE('',#624,#624,#35,.T.);
#482=EDGE_CURVE('',#625,#608,#748,.T.);
#483=EDGE_CURVE('',#626,#625,#749,.T.);
#484=EDGE_CURVE('',#610,#626,#750,.T.);
#485=EDGE_CURVE('',#626,#618,#751,.T.);
#486=EDGE_CURVE('',#627,#626,#752,.T.);
#487=EDGE_CURVE('',#628,#625,#753,.T.);
#488=EDGE_CURVE('',#627,#628,#754,.T.);
#489=EDGE_CURVE('',#607,#629,#755,.T.);
#490=EDGE_CURVE('',#630,#629,#756,.T.);
#491=EDGE_CURVE('',#630,#631,#757,.T.);
#492=EDGE_CURVE('',#628,#631,#758,.T.);
#493=EDGE_CURVE('',#632,#632,#36,.T.);
#494=EDGE_CURVE('',#618,#633,#759,.T.);
#495=EDGE_CURVE('',#634,#633,#760,.T.);
#496=EDGE_CURVE('',#616,#634,#761,.T.);
#497=EDGE_CURVE('',#635,#636,#762,.T.);
#498=EDGE_CURVE('',#637,#636,#763,.T.);
#499=EDGE_CURVE('',#638,#637,#764,.T.);
#500=EDGE_CURVE('',#638,#635,#765,.T.);
#501=EDGE_CURVE('',#639,#630,#766,.T.);
#502=EDGE_CURVE('',#639,#634,#767,.T.);
#503=EDGE_CURVE('',#640,#633,#768,.T.);
#504=EDGE_CURVE('',#640,#631,#769,.T.);
#505=EDGE_CURVE('',#641,#629,#770,.T.);
#506=EDGE_CURVE('',#639,#641,#771,.T.);
#507=EDGE_CURVE('',#606,#641,#772,.T.);
#508=EDGE_CURVE('',#642,#642,#37,.T.);
#509=EDGE_CURVE('',#643,#644,#773,.T.);
#510=EDGE_CURVE('',#645,#643,#774,.T.);
#511=EDGE_CURVE('',#645,#646,#775,.T.);
#512=EDGE_CURVE('',#646,#644,#776,.T.);
#513=EDGE_CURVE('',#627,#640,#777,.T.);
#514=EDGE_CURVE('',#647,#648,#778,.T.);
#515=EDGE_CURVE('',#647,#649,#779,.T.);
#516=EDGE_CURVE('',#649,#650,#780,.T.);
#517=EDGE_CURVE('',#648,#650,#781,.T.);
#518=EDGE_CURVE('',#651,#652,#782,.T.);
#519=EDGE_CURVE('',#651,#653,#783,.T.);
#520=EDGE_CURVE('',#653,#654,#784,.T.);
#521=EDGE_CURVE('',#652,#654,#785,.T.);
#522=EDGE_CURVE('',#655,#635,#786,.T.);
#523=EDGE_CURVE('',#655,#656,#787,.T.);
#524=EDGE_CURVE('',#656,#636,#788,.T.);
#525=EDGE_CURVE('',#657,#658,#789,.T.);
#526=EDGE_CURVE('',#643,#657,#790,.T.);
#527=EDGE_CURVE('',#644,#658,#791,.T.);
#528=EDGE_CURVE('',#659,#657,#792,.T.);
#529=EDGE_CURVE('',#660,#659,#793,.T.);
#530=EDGE_CURVE('',#660,#655,#794,.T.);
#531=EDGE_CURVE('',#645,#638,#795,.T.);
#532=EDGE_CURVE('',#646,#637,#796,.T.);
#533=EDGE_CURVE('',#661,#662,#797,.T.);
#534=EDGE_CURVE('',#662,#658,#798,.T.);
#535=EDGE_CURVE('',#661,#656,#799,.T.);
#536=EDGE_CURVE('',#660,#661,#800,.T.);
#537=EDGE_CURVE('',#659,#662,#801,.T.);
#538=EDGE_CURVE('',#663,#663,#38,.T.);
#539=EDGE_CURVE('',#664,#664,#39,.T.);
#540=EDGE_CURVE('',#665,#665,#40,.T.);
#541=EDGE_CURVE('',#666,#666,#41,.T.);
#542=EDGE_CURVE('',#667,#667,#42,.F.);
#543=EDGE_CURVE('',#668,#669,#802,.T.);
#544=EDGE_CURVE('',#669,#670,#803,.T.);
#545=EDGE_CURVE('',#671,#670,#804,.T.);
#546=EDGE_CURVE('',#668,#671,#805,.T.);
#547=EDGE_CURVE('',#671,#649,#806,.T.);
#548=EDGE_CURVE('',#670,#650,#807,.T.);
#549=EDGE_CURVE('',#668,#647,#808,.T.);
#550=EDGE_CURVE('',#669,#648,#809,.T.);
#551=EDGE_CURVE('',#672,#672,#43,.F.);
#552=EDGE_CURVE('',#673,#674,#810,.T.);
#553=EDGE_CURVE('',#674,#675,#811,.T.);
#554=EDGE_CURVE('',#676,#675,#812,.T.);
#555=EDGE_CURVE('',#673,#676,#813,.T.);
#556=EDGE_CURVE('',#676,#653,#814,.T.);
#557=EDGE_CURVE('',#675,#654,#815,.T.);
#558=EDGE_CURVE('',#673,#651,#816,.T.);
#559=EDGE_CURVE('',#674,#652,#817,.T.);
#560=EDGE_CURVE('',#678,#678,#44,.T.);
#561=EDGE_CURVE('',#680,#680,#45,.T.);
#562=VERTEX_POINT('',#1738);
#563=VERTEX_POINT('',#1739);
#564=VERTEX_POINT('',#1741);
#565=VERTEX_POINT('',#1743);
#566=VERTEX_POINT('',#1747);
#567=VERTEX_POINT('',#1749);
#568=VERTEX_POINT('',#1753);
#569=VERTEX_POINT('',#1755);
#570=VERTEX_POINT('',#1759);
#571=VERTEX_POINT('',#1761);
#572=VERTEX_POINT('',#1765);
#573=VERTEX_POINT('',#1767);
#574=VERTEX_POINT('',#1771);
#575=VERTEX_POINT('',#1773);
#576=VERTEX_POINT('',#1777);
#577=VERTEX_POINT('',#1779);
#578=VERTEX_POINT('',#1783);
#579=VERTEX_POINT('',#1784);
#580=VERTEX_POINT('',#1786);
#581=VERTEX_POINT('',#1788);
#582=VERTEX_POINT('',#1792);
#583=VERTEX_POINT('',#1794);
#584=VERTEX_POINT('',#1798);
#585=VERTEX_POINT('',#1800);
#586=VERTEX_POINT('',#1804);
#587=VERTEX_POINT('',#1805);
#588=VERTEX_POINT('',#1807);
#589=VERTEX_POINT('',#1809);
#590=VERTEX_POINT('',#1813);
#591=VERTEX_POINT('',#1815);
#592=VERTEX_POINT('',#1819);
#593=VERTEX_POINT('',#1821);
#594=VERTEX_POINT('',#1831);
#595=VERTEX_POINT('',#1833);
#596=VERTEX_POINT('',#1836);
#597=VERTEX_POINT('',#1838);
#598=VERTEX_POINT('',#1841);
#599=VERTEX_POINT('',#1843);
#600=VERTEX_POINT('',#1846);
#601=VERTEX_POINT('',#1848);
#602=VERTEX_POINT('',#1854);
#603=VERTEX_POINT('',#1855);
#604=VERTEX_POINT('',#1857);
#605=VERTEX_POINT('',#1859);
#606=VERTEX_POINT('',#1861);
#607=VERTEX_POINT('',#1863);
#608=VERTEX_POINT('',#1865);
#609=VERTEX_POINT('',#1867);
#610=VERTEX_POINT('',#1872);
#611=VERTEX_POINT('',#1874);
#612=VERTEX_POINT('',#1876);
#613=VERTEX_POINT('',#1878);
#614=VERTEX_POINT('',#1880);
#615=VERTEX_POINT('',#1882);
#616=VERTEX_POINT('',#1886);
#617=VERTEX_POINT('',#1888);
#618=VERTEX_POINT('',#1891);
#619=VERTEX_POINT('',#1895);
#620=VERTEX_POINT('',#1897);
#621=VERTEX_POINT('',#1901);
#622=VERTEX_POINT('',#1905);
#623=VERTEX_POINT('',#1907);
#624=VERTEX_POINT('',#1916);
#625=VERTEX_POINT('',#1920);
#626=VERTEX_POINT('',#1922);
#627=VERTEX_POINT('',#1928);
#628=VERTEX_POINT('',#1930);
#629=VERTEX_POINT('',#1934);
#630=VERTEX_POINT('',#1936);
#631=VERTEX_POINT('',#1938);
#632=VERTEX_POINT('',#1942);
#633=VERTEX_POINT('',#1944);
#634=VERTEX_POINT('',#1946);
#635=VERTEX_POINT('',#1949);
#636=VERTEX_POINT('',#1950);
#637=VERTEX_POINT('',#1952);
#638=VERTEX_POINT('',#1954);
#639=VERTEX_POINT('',#1958);
#640=VERTEX_POINT('',#1961);
#641=VERTEX_POINT('',#1965);
#642=VERTEX_POINT('',#1972);
#643=VERTEX_POINT('',#1976);
#644=VERTEX_POINT('',#1977);
#645=VERTEX_POINT('',#1979);
#646=VERTEX_POINT('',#1981);
#647=VERTEX_POINT('',#1985);
#648=VERTEX_POINT('',#1986);
#649=VERTEX_POINT('',#1988);
#650=VERTEX_POINT('',#1990);
#651=VERTEX_POINT('',#1993);
#652=VERTEX_POINT('',#1994);
#653=VERTEX_POINT('',#1996);
#654=VERTEX_POINT('',#1998);
#655=VERTEX_POINT('',#2002);
#656=VERTEX_POINT('',#2004);
#657=VERTEX_POINT('',#2008);
#658=VERTEX_POINT('',#2009);
#659=VERTEX_POINT('',#2014);
#660=VERTEX_POINT('',#2016);
#661=VERTEX_POINT('',#2023);
#662=VERTEX_POINT('',#2024);
#663=VERTEX_POINT('',#2033);
#664=VERTEX_POINT('',#2035);
#665=VERTEX_POINT('',#2038);
#666=VERTEX_POINT('',#2040);
#667=VERTEX_POINT('',#2045);
#668=VERTEX_POINT('',#2047);
#669=VERTEX_POINT('',#2048);
#670=VERTEX_POINT('',#2050);
#671=VERTEX_POINT('',#2052);
#672=VERTEX_POINT('',#2064);
#673=VERTEX_POINT('',#2066);
#674=VERTEX_POINT('',#2067);
#675=VERTEX_POINT('',#2069);
#676=VERTEX_POINT('',#2071);
#677=VERTEX_POINT('',#2082);
#678=VERTEX_POINT('',#2084);
#679=VERTEX_POINT('',#2087);
#680=VERTEX_POINT('',#2089);
#681=LINE('',#1737,#818);
#682=LINE('',#1740,#819);
#683=LINE('',#1742,#820);
#684=LINE('',#1744,#821);
#685=LINE('',#1748,#822);
#686=LINE('',#1752,#823);
#687=LINE('',#1754,#824);
#688=LINE('',#1756,#825);
#689=LINE('',#1760,#826);
#690=LINE('',#1764,#827);
#691=LINE('',#1766,#828);
#692=LINE('',#1768,#829);
#693=LINE('',#1772,#830);
#694=LINE('',#1776,#831);
#695=LINE('',#1778,#832);
#696=LINE('',#1780,#833);
#697=LINE('',#1782,#834);
#698=LINE('',#1785,#835);
#699=LINE('',#1787,#836);
#700=LINE('',#1789,#837);
#701=LINE('',#1791,#838);
#702=LINE('',#1793,#839);
#703=LINE('',#1795,#840);
#704=LINE('',#1797,#841);
#705=LINE('',#1799,#842);
#706=LINE('',#1801,#843);
#707=LINE('',#1803,#844);
#708=LINE('',#1806,#845);
#709=LINE('',#1808,#846);
#710=LINE('',#1810,#847);
#711=LINE('',#1812,#848);
#712=LINE('',#1814,#849);
#713=LINE('',#1816,#850);
#714=LINE('',#1818,#851);
#715=LINE('',#1820,#852);
#716=LINE('',#1822,#853);
#717=LINE('',#1824,#854);
#718=LINE('',#1825,#855);
#719=LINE('',#1827,#856);
#720=LINE('',#1828,#857);
#721=LINE('',#1853,#858);
#722=LINE('',#1856,#859);
#723=LINE('',#1858,#860);
#724=LINE('',#1860,#861);
#725=LINE('',#1862,#862);
#726=LINE('',#1864,#863);
#727=LINE('',#1866,#864);
#728=LINE('',#1868,#865);
#729=LINE('',#1871,#866);
#730=LINE('',#1873,#867);
#731=LINE('',#1875,#868);
#732=LINE('',#1877,#869);
#733=LINE('',#1881,#870);
#734=LINE('',#1883,#871);
#735=LINE('',#1885,#872);
#736=LINE('',#1887,#873);
#737=LINE('',#1889,#874);
#738=LINE('',#1890,#875);
#739=LINE('',#1892,#876);
#740=LINE('',#1896,#877);
#741=LINE('',#1898,#878);
#742=LINE('',#1900,#879);
#743=LINE('',#1902,#880);
#744=LINE('',#1904,#881);
#745=LINE('',#1906,#882);
#746=LINE('',#1908,#883);
#747=LINE('',#1910,#884);
#748=LINE('',#1919,#885);
#749=LINE('',#1921,#886);
#750=LINE('',#1923,#887);
#751=LINE('',#1925,#888);
#752=LINE('',#1927,#889);
#753=LINE('',#1929,#890);
#754=LINE('',#1931,#891);
#755=LINE('',#1933,#892);
#756=LINE('',#1935,#893);
#757=LINE('',#1937,#894);
#758=LINE('',#1939,#895);
#759=LINE('',#1943,#896);
#760=LINE('',#1945,#897);
#761=LINE('',#1947,#898);
#762=LINE('',#1948,#899);
#763=LINE('',#1951,#900);
#764=LINE('',#1953,#901);
#765=LINE('',#1955,#902);
#766=LINE('',#1957,#903);
#767=LINE('',#1959,#904);
#768=LINE('',#1960,#905);
#769=LINE('',#1962,#906);
#770=LINE('',#1964,#907);
#771=LINE('',#1966,#908);
#772=LINE('',#1968,#909);
#773=LINE('',#1975,#910);
#774=LINE('',#1978,#911);
#775=LINE('',#1980,#912);
#776=LINE('',#1982,#913);
#777=LINE('',#1983,#914);
#778=LINE('',#1984,#915);
#779=LINE('',#1987,#916);
#780=LINE('',#1989,#917);
#781=LINE('',#1991,#918);
#782=LINE('',#1992,#919);
#783=LINE('',#1995,#920);
#784=LINE('',#1997,#921);
#785=LINE('',#1999,#922);
#786=LINE('',#2001,#923);
#787=LINE('',#2003,#924);
#788=LINE('',#2005,#925);
#789=LINE('',#2007,#926);
#790=LINE('',#2010,#927);
#791=LINE('',#2011,#928);
#792=LINE('',#2013,#929);
#793=LINE('',#2015,#930);
#794=LINE('',#2017,#931);
#795=LINE('',#2018,#932);
#796=LINE('',#2020,#933);
#797=LINE('',#2022,#934);
#798=LINE('',#2025,#935);
#799=LINE('',#2026,#936);
#800=LINE('',#2029,#937);
#801=LINE('',#2030,#938);
#802=LINE('',#2046,#939);
#803=LINE('',#2049,#940);
#804=LINE('',#2051,#941);
#805=LINE('',#2053,#942);
#806=LINE('',#2055,#943);
#807=LINE('',#2056,#944);
#808=LINE('',#2058,#945);
#809=LINE('',#2060,#946);
#810=LINE('',#2065,#947);
#811=LINE('',#2068,#948);
#812=LINE('',#2070,#949);
#813=LINE('',#2072,#950);
#814=LINE('',#2074,#951);
#815=LINE('',#2075,#952);
#816=LINE('',#2077,#953);
#817=LINE('',#2079,#954);
#818=VECTOR('',#1402,1.);
#819=VECTOR('',#1403,1.);
#820=VECTOR('',#1404,1.);
#821=VECTOR('',#1405,1.);
#822=VECTOR('',#1410,1.);
#823=VECTOR('',#1415,1.);
#824=VECTOR('',#1416,1.);
#825=VECTOR('',#1417,1.);
#826=VECTOR('',#1422,1.);
#827=VECTOR('',#1427,1.);
#828=VECTOR('',#1428,1.);
#829=VECTOR('',#1429,1.);
#830=VECTOR('',#1434,1.);
#831=VECTOR('',#1439,1.);
#832=VECTOR('',#1440,1.);
#833=VECTOR('',#1441,1.);
#834=VECTOR('',#1444,1.);
#835=VECTOR('',#1445,1.);
#836=VECTOR('',#1446,1.);
#837=VECTOR('',#1447,1.);
#838=VECTOR('',#1450,1.);
#839=VECTOR('',#1451,1.);
#840=VECTOR('',#1452,1.);
#841=VECTOR('',#1455,1.);
#842=VECTOR('',#1456,1.);
#843=VECTOR('',#1457,1.);
#844=VECTOR('',#1460,1.);
#845=VECTOR('',#1461,1.);
#846=VECTOR('',#1462,1.);
#847=VECTOR('',#1463,1.);
#848=VECTOR('',#1466,1.);
#849=VECTOR('',#1467,1.);
#850=VECTOR('',#1468,1.);
#851=VECTOR('',#1471,1.);
#852=VECTOR('',#1472,1.);
#853=VECTOR('',#1473,1.);
#854=VECTOR('',#1476,1.);
#855=VECTOR('',#1477,1.);
#856=VECTOR('',#1480,1.);
#857=VECTOR('',#1481,1.);
#858=VECTOR('',#1514,1.);
#859=VECTOR('',#1515,1.);
#860=VECTOR('',#1516,1.);
#861=VECTOR('',#1517,1.);
#862=VECTOR('',#1518,1.);
#863=VECTOR('',#1519,1.);
#864=VECTOR('',#1520,1.);
#865=VECTOR('',#1521,1.);
#866=VECTOR('',#1526,1.);
#867=VECTOR('',#1527,1.);
#868=VECTOR('',#1528,1.);
#869=VECTOR('',#1529,1.);
#870=VECTOR('',#1532,1.);
#871=VECTOR('',#1533,1.);
#872=VECTOR('',#1536,1.);
#873=VECTOR('',#1537,1.);
#874=VECTOR('',#1538,1.);
#875=VECTOR('',#1539,1.);
#876=VECTOR('',#1540,1.);
#877=VECTOR('',#1545,1.);
#878=VECTOR('',#1546,1.);
#879=VECTOR('',#1549,1.);
#880=VECTOR('',#1550,1.);
#881=VECTOR('',#1553,1.);
#882=VECTOR('',#1554,1.);
#883=VECTOR('',#1555,1.);
#884=VECTOR('',#1558,1.);
#885=VECTOR('',#1573,1.);
#886=VECTOR('',#1574,1.);
#887=VECTOR('',#1575,1.);
#888=VECTOR('',#1578,1.);
#889=VECTOR('',#1581,1.);
#890=VECTOR('',#1582,1.);
#891=VECTOR('',#1583,1.);
#892=VECTOR('',#1586,1.);
#893=VECTOR('',#1587,1.);
#894=VECTOR('',#1588,1.);
#895=VECTOR('',#1589,1.);
#896=VECTOR('',#1594,1.);
#897=VECTOR('',#1595,1.);
#898=VECTOR('',#1596,1.);
#899=VECTOR('',#1597,1.);
#900=VECTOR('',#1598,1.);
#901=VECTOR('',#1599,1.);
#902=VECTOR('',#1600,1.);
#903=VECTOR('',#1603,1.);
#904=VECTOR('',#1604,1.);
#905=VECTOR('',#1605,1.);
#906=VECTOR('',#1606,1.);
#907=VECTOR('',#1609,1.);
#908=VECTOR('',#1610,1.);
#909=VECTOR('',#1613,1.);
#910=VECTOR('',#1624,1.);
#911=VECTOR('',#1625,1.);
#912=VECTOR('',#1626,1.);
#913=VECTOR('',#1627,1.);
#914=VECTOR('',#1628,1.);
#915=VECTOR('',#1629,1.);
#916=VECTOR('',#1630,1.);
#917=VECTOR('',#1631,1.);
#918=VECTOR('',#1632,1.);
#919=VECTOR('',#1633,1.);
#920=VECTOR('',#1634,1.);
#921=VECTOR('',#1635,1.);
#922=VECTOR('',#1636,1.);
#923=VECTOR('',#1639,1.);
#924=VECTOR('',#1640,1.);
#925=VECTOR('',#1641,1.);
#926=VECTOR('',#1644,1.);
#927=VECTOR('',#1645,1.);
#928=VECTOR('',#1646,1.);
#929=VECTOR('',#1649,1.);
#930=VECTOR('',#1650,1.);
#931=VECTOR('',#1651,1.);
#932=VECTOR('',#1652,1.);
#933=VECTOR('',#1655,1.);
#934=VECTOR('',#1658,1.);
#935=VECTOR('',#1659,1.);
#936=VECTOR('',#1660,1.);
#937=VECTOR('',#1665,1.);
#938=VECTOR('',#1666,1.);
#939=VECTOR('',#1687,1.);
#940=VECTOR('',#1688,1.);
#941=VECTOR('',#1689,1.);
#942=VECTOR('',#1690,1.);
#943=VECTOR('',#1693,1.);
#944=VECTOR('',#1694,1.);
#945=VECTOR('',#1697,1.);
#946=VECTOR('',#1700,1.);
#947=VECTOR('',#1707,1.);
#948=VECTOR('',#1708,1.);
#949=VECTOR('',#1709,1.);
#950=VECTOR('',#1710,1.);
#951=VECTOR('',#1713,1.);
#952=VECTOR('',#1714,1.);
#953=VECTOR('',#1717,1.);
#954=VECTOR('',#1720,1.);
#955=EDGE_LOOP('',(#61,#62,#63,#64));
#956=EDGE_LOOP('',(#65,#66,#67,#68));
#957=EDGE_LOOP('',(#69,#70,#71,#72));
#958=EDGE_LOOP('',(#73,#74,#75,#76));
#959=EDGE_LOOP('',(#77,#78,#79,#80));
#960=EDGE_LOOP('',(#81,#82,#83,#84));
#961=EDGE_LOOP('',(#85,#86,#87,#88));
#962=EDGE_LOOP('',(#89,#90,#91,#92));
#963=EDGE_LOOP('',(#93,#94,#95,#96));
#964=EDGE_LOOP('',(#97,#98,#99,#100));
#965=EDGE_LOOP('',(#101,#102,#103,#104));
#966=EDGE_LOOP('',(#105,#106,#107,#108));
#967=EDGE_LOOP('',(#109,#110,#111,#112));
#968=EDGE_LOOP('',(#113,#114,#115,#116));
#969=EDGE_LOOP('',(#117,#118,#119,#120));
#970=EDGE_LOOP('',(#121));
#971=EDGE_LOOP('',(#122));
#972=EDGE_LOOP('',(#123));
#973=EDGE_LOOP('',(#124));
#974=EDGE_LOOP('',(#125));
#975=EDGE_LOOP('',(#126));
#976=EDGE_LOOP('',(#127));
#977=EDGE_LOOP('',(#128));
#978=EDGE_LOOP('',(#129,#130,#131,#132));
#979=EDGE_LOOP('',(#133,#134,#135,#136,#137,#138,#139,#140));
#980=EDGE_LOOP('',(#141));
#981=EDGE_LOOP('',(#142));
#982=EDGE_LOOP('',(#143));
#983=EDGE_LOOP('',(#144));
#984=EDGE_LOOP('',(#145,#146,#147,#148));
#985=EDGE_LOOP('',(#149,#150,#151,#152));
#986=EDGE_LOOP('',(#153,#154,#155,#156,#157,#158,#159,#160));
#987=EDGE_LOOP('',(#161));
#988=EDGE_LOOP('',(#162));
#989=EDGE_LOOP('',(#163));
#990=EDGE_LOOP('',(#164));
#991=EDGE_LOOP('',(#165,#166,#167,#168));
#992=EDGE_LOOP('',(#169,#170,#171,#172));
#993=EDGE_LOOP('',(#173,#174,#175,#176,#177,#178,#179,#180));
#994=EDGE_LOOP('',(#181,#182,#183,#184,#185,#186,#187,#188));
#995=EDGE_LOOP('',(#189,#190,#191,#192,#193,#194));
#996=EDGE_LOOP('',(#195));
#997=EDGE_LOOP('',(#196,#197,#198,#199));
#998=EDGE_LOOP('',(#200,#201,#202,#203));
#999=EDGE_LOOP('',(#204,#205,#206,#207));
#1000=EDGE_LOOP('',(#208,#209,#210,#211));
#1001=EDGE_LOOP('',(#212,#213,#214,#215,#216,#217,#218));
#1002=EDGE_LOOP('',(#219,#220,#221,#222));
#1003=EDGE_LOOP('',(#223));
#1004=EDGE_LOOP('',(#224));
#1005=EDGE_LOOP('',(#225));
#1006=EDGE_LOOP('',(#226,#227,#228,#229,#230));
#1007=EDGE_LOOP('',(#231,#232,#233,#234));
#1008=EDGE_LOOP('',(#235,#236,#237,#238));
#1009=EDGE_LOOP('',(#239,#240,#241,#242,#243,#244,#245));
#1010=EDGE_LOOP('',(#246));
#1011=EDGE_LOOP('',(#247,#248,#249,#250));
#1012=EDGE_LOOP('',(#251,#252,#253,#254));
#1013=EDGE_LOOP('',(#255,#256,#257,#258,#259,#260));
#1014=EDGE_LOOP('',(#261,#262,#263,#264));
#1015=EDGE_LOOP('',(#265,#266,#267,#268));
#1016=EDGE_LOOP('',(#269,#270,#271,#272,#273,#274));
#1017=EDGE_LOOP('',(#275));
#1018=EDGE_LOOP('',(#276));
#1019=EDGE_LOOP('',(#277));
#1020=EDGE_LOOP('',(#278,#279,#280,#281));
#1021=EDGE_LOOP('',(#282,#283,#284,#285));
#1022=EDGE_LOOP('',(#286,#287,#288,#289));
#1023=EDGE_LOOP('',(#290,#291,#292,#293));
#1024=EDGE_LOOP('',(#294,#295,#296,#297));
#1025=EDGE_LOOP('',(#298,#299,#300,#301));
#1026=EDGE_LOOP('',(#302,#303,#304,#305,#306,#307,#308,#309));
#1027=EDGE_LOOP('',(#310,#311,#312,#313));
#1028=EDGE_LOOP('',(#314,#315,#316,#317,#318,#319,#320,#321));
#1029=EDGE_LOOP('',(#322,#323,#324,#325,#326));
#1030=EDGE_LOOP('',(#327,#328,#329,#330));
#1031=EDGE_LOOP('',(#331));
#1032=EDGE_LOOP('',(#332));
#1033=EDGE_LOOP('',(#333));
#1034=EDGE_LOOP('',(#334));
#1035=EDGE_LOOP('',(#335,#336,#337,#338));
#1036=EDGE_LOOP('',(#339));
#1037=EDGE_LOOP('',(#340));
#1038=EDGE_LOOP('',(#341,#342,#343,#344));
#1039=EDGE_LOOP('',(#345));
#1040=EDGE_LOOP('',(#346));
#1041=EDGE_LOOP('',(#347));
#1042=EDGE_LOOP('',(#348,#349,#350,#351));
#1043=EDGE_LOOP('',(#352,#353,#354,#355));
#1044=EDGE_LOOP('',(#356,#357,#358,#359));
#1045=EDGE_LOOP('',(#360,#361,#362,#363));
#1046=EDGE_LOOP('',(#364,#365,#366,#367));
#1047=EDGE_LOOP('',(#368));
#1048=EDGE_LOOP('',(#369,#370,#371,#372));
#1049=EDGE_LOOP('',(#373,#374,#375,#376));
#1050=EDGE_LOOP('',(#377,#378,#379,#380));
#1051=EDGE_LOOP('',(#381,#382,#383,#384));
#1052=EDGE_LOOP('',(#385,#386,#387,#388));
#1053=EDGE_LOOP('',(#389));
#1054=EDGE_LOOP('',(#390));
#1055=EDGE_LOOP('',(#391));
#1056=EDGE_LOOP('',(#392));
#1057=EDGE_LOOP('',(#393));
#1058=EDGE_LOOP('',(#394));
#1059=FACE_BOUND('',#955,.T.);
#1060=FACE_BOUND('',#956,.T.);
#1061=FACE_BOUND('',#957,.T.);
#1062=FACE_BOUND('',#958,.T.);
#1063=FACE_BOUND('',#959,.T.);
#1064=FACE_BOUND('',#960,.T.);
#1065=FACE_BOUND('',#961,.T.);
#1066=FACE_BOUND('',#962,.T.);
#1067=FACE_BOUND('',#963,.T.);
#1068=FACE_BOUND('',#964,.T.);
#1069=FACE_BOUND('',#965,.T.);
#1070=FACE_BOUND('',#966,.T.);
#1071=FACE_BOUND('',#967,.T.);
#1072=FACE_BOUND('',#968,.T.);
#1073=FACE_BOUND('',#969,.T.);
#1074=FACE_BOUND('',#970,.T.);
#1075=FACE_BOUND('',#971,.T.);
#1076=FACE_BOUND('',#972,.T.);
#1077=FACE_BOUND('',#973,.T.);
#1078=FACE_BOUND('',#974,.T.);
#1079=FACE_BOUND('',#975,.T.);
#1080=FACE_BOUND('',#976,.T.);
#1081=FACE_BOUND('',#977,.T.);
#1082=FACE_BOUND('',#978,.T.);
#1083=FACE_BOUND('',#979,.T.);
#1084=FACE_BOUND('',#980,.T.);
#1085=FACE_BOUND('',#981,.T.);
#1086=FACE_BOUND('',#982,.T.);
#1087=FACE_BOUND('',#983,.T.);
#1088=FACE_BOUND('',#984,.T.);
#1089=FACE_BOUND('',#985,.T.);
#1090=FACE_BOUND('',#986,.T.);
#1091=FACE_BOUND('',#987,.T.);
#1092=FACE_BOUND('',#988,.T.);
#1093=FACE_BOUND('',#989,.T.);
#1094=FACE_BOUND('',#990,.T.);
#1095=FACE_BOUND('',#991,.T.);
#1096=FACE_BOUND('',#992,.T.);
#1097=FACE_BOUND('',#993,.T.);
#1098=FACE_BOUND('',#994,.T.);
#1099=FACE_BOUND('',#995,.T.);
#1100=FACE_BOUND('',#996,.T.);
#1101=FACE_BOUND('',#997,.T.);
#1102=FACE_BOUND('',#998,.T.);
#1103=FACE_BOUND('',#999,.T.);
#1104=FACE_BOUND('',#1000,.T.);
#1105=FACE_BOUND('',#1001,.T.);
#1106=FACE_BOUND('',#1002,.T.);
#1107=FACE_BOUND('',#1003,.T.);
#1108=FACE_BOUND('',#1004,.T.);
#1109=FACE_BOUND('',#1005,.T.);
#1110=FACE_BOUND('',#1006,.T.);
#1111=FACE_BOUND('',#1007,.T.);
#1112=FACE_BOUND('',#1008,.T.);
#1113=FACE_BOUND('',#1009,.T.);
#1114=FACE_BOUND('',#1010,.T.);
#1115=FACE_BOUND('',#1011,.T.);
#1116=FACE_BOUND('',#1012,.T.);
#1117=FACE_BOUND('',#1013,.T.);
#1118=FACE_BOUND('',#1014,.T.);
#1119=FACE_BOUND('',#1015,.T.);
#1120=FACE_BOUND('',#1016,.T.);
#1121=FACE_BOUND('',#1017,.T.);
#1122=FACE_BOUND('',#1018,.T.);
#1123=FACE_BOUND('',#1019,.T.);
#1124=FACE_BOUND('',#1020,.T.);
#1125=FACE_BOUND('',#1021,.T.);
#1126=FACE_BOUND('',#1022,.T.);
#1127=FACE_BOUND('',#1023,.T.);
#1128=FACE_BOUND('',#1024,.T.);
#1129=FACE_BOUND('',#1025,.T.);
#1130=FACE_BOUND('',#1026,.T.);
#1131=FACE_BOUND('',#1027,.T.);
#1132=FACE_BOUND('',#1028,.T.);
#1133=FACE_BOUND('',#1029,.T.);
#1134=FACE_BOUND('',#1030,.T.);
#1135=FACE_BOUND('',#1031,.T.);
#1136=FACE_BOUND('',#1032,.T.);
#1137=FACE_BOUND('',#1033,.T.);
#1138=FACE_BOUND('',#1034,.T.);
#1139=FACE_BOUND('',#1035,.T.);
#1140=FACE_BOUND('',#1036,.T.);
#1141=FACE_BOUND('',#1037,.T.);
#1142=FACE_BOUND('',#1038,.T.);
#1143=FACE_BOUND('',#1039,.T.);
#1144=FACE_BOUND('',#1040,.T.);
#1145=FACE_BOUND('',#1041,.T.);
#1146=FACE_BOUND('',#1042,.T.);
#1147=FACE_BOUND('',#1043,.T.);
#1148=FACE_BOUND('',#1044,.T.);
#1149=FACE_BOUND('',#1045,.T.);
#1150=FACE_BOUND('',#1046,.T.);
#1151=FACE_BOUND('',#1047,.T.);
#1152=FACE_BOUND('',#1048,.T.);
#1153=FACE_BOUND('',#1049,.T.);
#1154=FACE_BOUND('',#1050,.T.);
#1155=FACE_BOUND('',#1051,.T.);
#1156=FACE_BOUND('',#1052,.T.);
#1157=FACE_BOUND('',#12,.T.);
#1158=FACE_BOUND('',#1053,.T.);
#1159=FACE_BOUND('',#1054,.T.);
#1160=FACE_BOUND('',#1055,.T.);
#1161=FACE_BOUND('',#13,.T.);
#1162=FACE_BOUND('',#1056,.T.);
#1163=FACE_BOUND('',#1057,.T.);
#1164=FACE_BOUND('',#1058,.T.);
#1165=PLANE('',#1299);
#1166=PLANE('',#1303);
#1167=PLANE('',#1307);
#1168=PLANE('',#1311);
#1169=PLANE('',#1312);
#1170=PLANE('',#1313);
#1171=PLANE('',#1314);
#1172=PLANE('',#1315);
#1173=PLANE('',#1316);
#1174=PLANE('',#1317);
#1175=PLANE('',#1318);
#1176=PLANE('',#1319);
#1177=PLANE('',#1335);
#1178=PLANE('',#1336);
#1179=PLANE('',#1337);
#1180=PLANE('',#1339);
#1181=PLANE('',#1340);
#1182=PLANE('',#1342);
#1183=PLANE('',#1343);
#1184=PLANE('',#1344);
#1185=PLANE('',#1345);
#1186=PLANE('',#1350);
#1187=PLANE('',#1351);
#1188=PLANE('',#1352);
#1189=PLANE('',#1353);
#1190=PLANE('',#1354);
#1191=PLANE('',#1355);
#1192=PLANE('',#1357);
#1193=PLANE('',#1358);
#1194=PLANE('',#1359);
#1195=PLANE('',#1360);
#1196=PLANE('',#1363);
#1197=PLANE('',#1364);
#1198=PLANE('',#1365);
#1199=PLANE('',#1366);
#1200=PLANE('',#1367);
#1201=PLANE('',#1368);
#1202=PLANE('',#1369);
#1203=PLANE('',#1370);
#1204=PLANE('',#1371);
#1205=PLANE('',#1378);
#1206=PLANE('',#1379);
#1207=PLANE('',#1380);
#1208=PLANE('',#1382);
#1209=PLANE('',#1383);
#1210=PLANE('',#1384);
#1211=PLANE('',#1385);
#1212=PLANE('',#1386);
#1213=PLANE('',#1388);
#1214=PLANE('',#1389);
#1215=PLANE('',#1390);
#1216=PLANE('',#1391);
#1217=ADVANCED_FACE('',(#1059),#1165,.F.);
#1218=ADVANCED_FACE('',(#1060),#46,.T.);
#1219=ADVANCED_FACE('',(#1061),#1166,.F.);
#1220=ADVANCED_FACE('',(#1062),#47,.T.);
#1221=ADVANCED_FACE('',(#1063),#1167,.T.);
#1222=ADVANCED_FACE('',(#1064),#48,.T.);
#1223=ADVANCED_FACE('',(#1065),#1168,.T.);
#1224=ADVANCED_FACE('',(#1066),#1169,.T.);
#1225=ADVANCED_FACE('',(#1067),#1170,.F.);
#1226=ADVANCED_FACE('',(#1068),#1171,.F.);
#1227=ADVANCED_FACE('',(#1069),#1172,.T.);
#1228=ADVANCED_FACE('',(#1070),#1173,.F.);
#1229=ADVANCED_FACE('',(#1071),#1174,.F.);
#1230=ADVANCED_FACE('',(#1072),#1175,.F.);
#1231=ADVANCED_FACE('',(#1073),#1176,.T.);
#1232=ADVANCED_FACE('',(#1074,#1075),#49,.F.);
#1233=ADVANCED_FACE('',(#1076,#1077),#50,.F.);
#1234=ADVANCED_FACE('',(#1078,#1079),#51,.F.);
#1235=ADVANCED_FACE('',(#1080,#1081),#52,.F.);
#1236=ADVANCED_FACE('',(#1082),#53,.T.);
#1237=ADVANCED_FACE('',(#1083,#1084,#1085,#1086,#1087,#1088,#1089,#1090),
#1177,.T.);
#1238=ADVANCED_FACE('',(#1091,#1092,#1093,#1094,#1095,#1096,#1097),#1178,
 .F.);
#1239=ADVANCED_FACE('',(#1098),#1179,.F.);
#1240=ADVANCED_FACE('',(#1099),#1180,.T.);
#1241=ADVANCED_FACE('',(#1100,#1101),#1181,.F.);
#1242=ADVANCED_FACE('',(#1102),#1182,.T.);
#1243=ADVANCED_FACE('',(#1103),#1183,.F.);
#1244=ADVANCED_FACE('',(#1104),#1184,.T.);
#1245=ADVANCED_FACE('',(#1105),#1185,.T.);
#1246=ADVANCED_FACE('',(#1106),#54,.T.);
#1247=ADVANCED_FACE('',(#1107,#1108),#55,.F.);
#1248=ADVANCED_FACE('',(#1109),#1186,.T.);
#1249=ADVANCED_FACE('',(#1110),#1187,.T.);
#1250=ADVANCED_FACE('',(#1111),#1188,.F.);
#1251=ADVANCED_FACE('',(#1112),#1189,.F.);
#1252=ADVANCED_FACE('',(#1113),#1190,.F.);
#1253=ADVANCED_FACE('',(#1114,#1115,#1116),#1191,.F.);
#1254=ADVANCED_FACE('',(#1117),#1192,.T.);
#1255=ADVANCED_FACE('',(#1118),#1193,.F.);
#1256=ADVANCED_FACE('',(#1119),#1194,.T.);
#1257=ADVANCED_FACE('',(#1120),#1195,.T.);
#1258=ADVANCED_FACE('',(#1121,#1122),#56,.F.);
#1259=ADVANCED_FACE('',(#1123),#1196,.T.);
#1260=ADVANCED_FACE('',(#1124,#1125,#1126,#1127),#1197,.T.);
#1261=ADVANCED_FACE('',(#1128),#1198,.T.);
#1262=ADVANCED_FACE('',(#1129),#1199,.T.);
#1263=ADVANCED_FACE('',(#1130),#1200,.T.);
#1264=ADVANCED_FACE('',(#1131),#1201,.F.);
#1265=ADVANCED_FACE('',(#1132),#1202,.F.);
#1266=ADVANCED_FACE('',(#1133),#1203,.T.);
#1267=ADVANCED_FACE('',(#1134),#1204,.T.);
#1268=ADVANCED_FACE('',(#1135,#1136),#57,.F.);
#1269=ADVANCED_FACE('',(#1137,#1138),#58,.F.);
#1270=ADVANCED_FACE('',(#1139,#1140,#1141),#1205,.T.);
#1271=ADVANCED_FACE('',(#1142,#1143,#1144),#1206,.F.);
#1272=ADVANCED_FACE('',(#1145,#1146),#1207,.T.);
#1273=ADVANCED_FACE('',(#1147),#1208,.T.);
#1274=ADVANCED_FACE('',(#1148),#1209,.T.);
#1275=ADVANCED_FACE('',(#1149),#1210,.F.);
#1276=ADVANCED_FACE('',(#1150),#1211,.F.);
#1277=ADVANCED_FACE('',(#1151,#1152),#1212,.T.);
#1278=ADVANCED_FACE('',(#1153),#1213,.T.);
#1279=ADVANCED_FACE('',(#1154),#1214,.T.);
#1280=ADVANCED_FACE('',(#1155),#1215,.F.);
#1281=ADVANCED_FACE('',(#1156),#1216,.F.);
#1282=ADVANCED_FACE('',(#1157,#1158),#14,.F.);
#1283=ADVANCED_FACE('',(#1159,#1160),#59,.F.);
#1284=ADVANCED_FACE('',(#1161,#1162),#15,.F.);
#1285=ADVANCED_FACE('',(#1163,#1164),#60,.F.);
#1286=CLOSED_SHELL('',(#1217,#1218,#1219,#1220,#1221,#1222,#1223,#1224,
#1225,#1226,#1227,#1228,#1229,#1230,#1231,#1232,#1233,#1234,#1235,#1236,
#1237,#1238,#1239,#1240,#1241,#1242,#1243,#1244,#1245,#1246,#1247,#1248,
#1249,#1250,#1251,#1252,#1253,#1254,#1255,#1256,#1257,#1258,#1259,#1260,
#1261,#1262,#1263,#1264,#1265,#1266,#1267,#1268,#1269,#1270,#1271,#1272,
#1273,#1274,#1275,#1276,#1277,#1278,#1279,#1280,#1281,#1282,#1283,#1284,
#1285));
#1287=STYLED_ITEM('',(#1288),#1295);
#1288=PRESENTATION_STYLE_ASSIGNMENT((#1289));
#1289=SURFACE_STYLE_USAGE(.BOTH.,#1290);
#1290=SURFACE_SIDE_STYLE('',(#1291));
#1291=SURFACE_STYLE_FILL_AREA(#1292);
#1292=FILL_AREA_STYLE('',(#1293));
#1293=FILL_AREA_STYLE_COLOUR('',#1294);
#1294=COLOUR_RGB('',0.231372549019608,0.380392156862745,0.705882352941177);
#1295=MANIFOLD_SOLID_BREP('Part 4',#1286);
#1296=SHAPE_DEFINITION_REPRESENTATION(#2097,#1297);
#1297=SHAPE_REPRESENTATION('Part 4',(#1298),#2092);
#1298=AXIS2_PLACEMENT_3D('',#1735,#1398,#1399);
#1299=AXIS2_PLACEMENT_3D('',#1736,#1400,#1401);
#1300=AXIS2_PLACEMENT_3D('',#1745,#1406,#1407);
#1301=AXIS2_PLACEMENT_3D('',#1746,#1408,#1409);
#1302=AXIS2_PLACEMENT_3D('',#1750,#1411,#1412);
#1303=AXIS2_PLACEMENT_3D('',#1751,#1413,#1414);
#1304=AXIS2_PLACEMENT_3D('',#1757,#1418,#1419);
#1305=AXIS2_PLACEMENT_3D('',#1758,#1420,#1421);
#1306=AXIS2_PLACEMENT_3D('',#1762,#1423,#1424);
#1307=AXIS2_PLACEMENT_3D('',#1763,#1425,#1426);
#1308=AXIS2_PLACEMENT_3D('',#1769,#1430,#1431);
#1309=AXIS2_PLACEMENT_3D('',#1770,#1432,#1433);
#1310=AXIS2_PLACEMENT_3D('',#1774,#1435,#1436);
#1311=AXIS2_PLACEMENT_3D('',#1775,#1437,#1438);
#1312=AXIS2_PLACEMENT_3D('',#1781,#1442,#1443);
#1313=AXIS2_PLACEMENT_3D('',#1790,#1448,#1449);
#1314=AXIS2_PLACEMENT_3D('',#1796,#1453,#1454);
#1315=AXIS2_PLACEMENT_3D('',#1802,#1458,#1459);
#1316=AXIS2_PLACEMENT_3D('',#1811,#1464,#1465);
#1317=AXIS2_PLACEMENT_3D('',#1817,#1469,#1470);
#1318=AXIS2_PLACEMENT_3D('',#1823,#1474,#1475);
#1319=AXIS2_PLACEMENT_3D('',#1826,#1478,#1479);
#1320=AXIS2_PLACEMENT_3D('',#1829,#1482,#1483);
#1321=AXIS2_PLACEMENT_3D('',#1830,#1484,#1485);
#1322=AXIS2_PLACEMENT_3D('',#1832,#1486,#1487);
#1323=AXIS2_PLACEMENT_3D('',#1834,#1488,#1489);
#1324=AXIS2_PLACEMENT_3D('',#1835,#1490,#1491);
#1325=AXIS2_PLACEMENT_3D('',#1837,#1492,#1493);
#1326=AXIS2_PLACEMENT_3D('',#1839,#1494,#1495);
#1327=AXIS2_PLACEMENT_3D('',#1840,#1496,#1497);
#1328=AXIS2_PLACEMENT_3D('',#1842,#1498,#1499);
#1329=AXIS2_PLACEMENT_3D('',#1844,#1500,#1501);
#1330=AXIS2_PLACEMENT_3D('',#1845,#1502,#1503);
#1331=AXIS2_PLACEMENT_3D('',#1847,#1504,#1505);
#1332=AXIS2_PLACEMENT_3D('',#1849,#1506,#1507);
#1333=AXIS2_PLACEMENT_3D('',#1850,#1508,#1509);
#1334=AXIS2_PLACEMENT_3D('',#1851,#1510,#1511);
#1335=AXIS2_PLACEMENT_3D('',#1852,#1512,#1513);
#1336=AXIS2_PLACEMENT_3D('',#1869,#1522,#1523);
#1337=AXIS2_PLACEMENT_3D('',#1870,#1524,#1525);
#1338=AXIS2_PLACEMENT_3D('',#1879,#1530,#1531);
#1339=AXIS2_PLACEMENT_3D('',#1884,#1534,#1535);
#1340=AXIS2_PLACEMENT_3D('',#1893,#1541,#1542);
#1341=AXIS2_PLACEMENT_3D('',#1894,#1543,#1544);
#1342=AXIS2_PLACEMENT_3D('',#1899,#1547,#1548);
#1343=AXIS2_PLACEMENT_3D('',#1903,#1551,#1552);
#1344=AXIS2_PLACEMENT_3D('',#1909,#1556,#1557);
#1345=AXIS2_PLACEMENT_3D('',#1911,#1559,#1560);
#1346=AXIS2_PLACEMENT_3D('',#1912,#1561,#1562);
#1347=AXIS2_PLACEMENT_3D('',#1913,#1563,#1564);
#1348=AXIS2_PLACEMENT_3D('',#1914,#1565,#1566);
#1349=AXIS2_PLACEMENT_3D('',#1915,#1567,#1568);
#1350=AXIS2_PLACEMENT_3D('',#1917,#1569,#1570);
#1351=AXIS2_PLACEMENT_3D('',#1918,#1571,#1572);
#1352=AXIS2_PLACEMENT_3D('',#1924,#1576,#1577);
#1353=AXIS2_PLACEMENT_3D('',#1926,#1579,#1580);
#1354=AXIS2_PLACEMENT_3D('',#1932,#1584,#1585);
#1355=AXIS2_PLACEMENT_3D('',#1940,#1590,#1591);
#1356=AXIS2_PLACEMENT_3D('',#1941,#1592,#1593);
#1357=AXIS2_PLACEMENT_3D('',#1956,#1601,#1602);
#1358=AXIS2_PLACEMENT_3D('',#1963,#1607,#1608);
#1359=AXIS2_PLACEMENT_3D('',#1967,#1611,#1612);
#1360=AXIS2_PLACEMENT_3D('',#1969,#1614,#1615);
#1361=AXIS2_PLACEMENT_3D('',#1970,#1616,#1617);
#1362=AXIS2_PLACEMENT_3D('',#1971,#1618,#1619);
#1363=AXIS2_PLACEMENT_3D('',#1973,#1620,#1621);
#1364=AXIS2_PLACEMENT_3D('',#1974,#1622,#1623);
#1365=AXIS2_PLACEMENT_3D('',#2000,#1637,#1638);
#1366=AXIS2_PLACEMENT_3D('',#2006,#1642,#1643);
#1367=AXIS2_PLACEMENT_3D('',#2012,#1647,#1648);
#1368=AXIS2_PLACEMENT_3D('',#2019,#1653,#1654);
#1369=AXIS2_PLACEMENT_3D('',#2021,#1656,#1657);
#1370=AXIS2_PLACEMENT_3D('',#2027,#1661,#1662);
#1371=AXIS2_PLACEMENT_3D('',#2028,#1663,#1664);
#1372=AXIS2_PLACEMENT_3D('',#2031,#1667,#1668);
#1373=AXIS2_PLACEMENT_3D('',#2032,#1669,#1670);
#1374=AXIS2_PLACEMENT_3D('',#2034,#1671,#1672);
#1375=AXIS2_PLACEMENT_3D('',#2036,#1673,#1674);
#1376=AXIS2_PLACEMENT_3D('',#2037,#1675,#1676);
#1377=AXIS2_PLACEMENT_3D('',#2039,#1677,#1678);
#1378=AXIS2_PLACEMENT_3D('',#2041,#1679,#1680);
#1379=AXIS2_PLACEMENT_3D('',#2042,#1681,#1682);
#1380=AXIS2_PLACEMENT_3D('',#2043,#1683,#1684);
#1381=AXIS2_PLACEMENT_3D('',#2044,#1685,#1686);
#1382=AXIS2_PLACEMENT_3D('',#2054,#1691,#1692);
#1383=AXIS2_PLACEMENT_3D('',#2057,#1695,#1696);
#1384=AXIS2_PLACEMENT_3D('',#2059,#1698,#1699);
#1385=AXIS2_PLACEMENT_3D('',#2061,#1701,#1702);
#1386=AXIS2_PLACEMENT_3D('',#2062,#1703,#1704);
#1387=AXIS2_PLACEMENT_3D('',#2063,#1705,#1706);
#1388=AXIS2_PLACEMENT_3D('',#2073,#1711,#1712);
#1389=AXIS2_PLACEMENT_3D('',#2076,#1715,#1716);
#1390=AXIS2_PLACEMENT_3D('',#2078,#1718,#1719);
#1391=AXIS2_PLACEMENT_3D('',#2080,#1721,#1722);
#1392=AXIS2_PLACEMENT_3D('',#2081,#1723,#1724);
#1393=AXIS2_PLACEMENT_3D('',#2083,#1725,#1726);
#1394=AXIS2_PLACEMENT_3D('',#2085,#1727,#1728);
#1395=AXIS2_PLACEMENT_3D('',#2086,#1729,#1730);
#1396=AXIS2_PLACEMENT_3D('',#2088,#1731,#1732);
#1397=AXIS2_PLACEMENT_3D('',#2090,#1733,#1734);
#1398=DIRECTION('',(0.,0.,1.));
#1399=DIRECTION('',(1.,0.,0.));
#1400=DIRECTION('',(0.,0.,-1.));
#1401=DIRECTION('',(-1.,0.,0.));
#1402=DIRECTION('',(-0.965925826289068,-0.258819045102521,0.));
#1403=DIRECTION('',(0.258819045102521,-0.965925826289068,0.));
#1404=DIRECTION('',(-0.965925826289068,-0.258819045102521,0.));
#1405=DIRECTION('',(0.258819045102521,-0.965925826289068,0.));
#1406=DIRECTION('',(-0.965925826289068,-0.258819045102521,0.));
#1407=DIRECTION('',(0.258819045102521,-0.965925826289068,0.));
#1408=DIRECTION('',(0.965925826289068,0.258819045102521,0.));
#1409=DIRECTION('',(-0.258819045102521,0.965925826289068,0.));
#1410=DIRECTION('',(-0.965925826289068,-0.258819045102521,0.));
#1411=DIRECTION('',(0.965925826289068,0.258819045102521,0.));
#1412=DIRECTION('',(-0.258819045102521,0.965925826289068,0.));
#1413=DIRECTION('',(-0.258819045102521,0.965925826289068,0.));
#1414=DIRECTION('',(-0.965925826289068,-0.258819045102521,0.));
#1415=DIRECTION('',(0.,0.,-1.));
#1416=DIRECTION('',(-0.965925826289068,-0.258819045102521,0.));
#1417=DIRECTION('',(0.,0.,-1.));
#1418=DIRECTION('',(-0.965925826289068,-0.258819045102521,0.));
#1419=DIRECTION('',(0.258819045102521,-0.965925826289068,0.));
#1420=DIRECTION('',(0.965925826289068,0.258819045102521,0.));
#1421=DIRECTION('',(-0.258819045102521,0.965925826289068,0.));
#1422=DIRECTION('',(-0.965925826289068,-0.258819045102521,0.));
#1423=DIRECTION('',(0.965925826289068,0.258819045102521,0.));
#1424=DIRECTION('',(-0.258819045102521,0.965925826289068,0.));
#1425=DIRECTION('',(0.,0.,-1.));
#1426=DIRECTION('',(-1.,0.,0.));
#1427=DIRECTION('',(0.258819045102521,-0.965925826289068,0.));
#1428=DIRECTION('',(-0.965925826289068,-0.258819045102521,0.));
#1429=DIRECTION('',(0.258819045102521,-0.965925826289068,0.));
#1430=DIRECTION('',(-0.965925826289068,-0.258819045102521,0.));
#1431=DIRECTION('',(0.258819045102521,-0.965925826289068,0.));
#1432=DIRECTION('',(0.965925826289068,0.258819045102521,0.));
#1433=DIRECTION('',(-0.258819045102521,0.965925826289068,0.));
#1434=DIRECTION('',(-0.965925826289068,-0.258819045102521,0.));
#1435=DIRECTION('',(0.965925826289068,0.258819045102521,0.));
#1436=DIRECTION('',(-0.258819045102521,0.965925826289068,0.));
#1437=DIRECTION('',(-0.258819045102521,0.965925826289068,0.));
#1438=DIRECTION('',(-0.965925826289068,-0.258819045102521,0.));
#1439=DIRECTION('',(0.,0.,-1.));
#1440=DIRECTION('',(-0.965925826289068,-0.258819045102521,0.));
#1441=DIRECTION('',(0.,0.,-1.));
#1442=DIRECTION('',(0.258819045102521,-0.965925826289068,0.));
#1443=DIRECTION('',(0.965925826289068,0.258819045102521,0.));
#1444=DIRECTION('',(-0.965925826289068,-0.258819045102521,0.));
#1445=DIRECTION('',(0.,0.,1.));
#1446=DIRECTION('',(-0.965925826289068,-0.258819045102521,0.));
#1447=DIRECTION('',(0.,0.,1.));
#1448=DIRECTION('',(0.,0.,-1.));
#1449=DIRECTION('',(-1.,0.,0.));
#1450=DIRECTION('',(0.258819045102521,-0.965925826289068,0.));
#1451=DIRECTION('',(-0.965925826289068,-0.258819045102521,0.));
#1452=DIRECTION('',(0.258819045102521,-0.965925826289068,0.));
#1453=DIRECTION('',(0.258819045102521,-0.965925826289068,0.));
#1454=DIRECTION('',(0.965925826289068,0.258819045102521,0.));
#1455=DIRECTION('',(0.,0.,1.));
#1456=DIRECTION('',(-0.965925826289068,-0.258819045102521,0.));
#1457=DIRECTION('',(0.,0.,1.));
#1458=DIRECTION('',(-0.258819045102521,0.965925826289068,0.));
#1459=DIRECTION('',(-0.965925826289068,-0.258819045102521,0.));
#1460=DIRECTION('',(-0.965925826289068,-0.258819045102521,0.));
#1461=DIRECTION('',(0.,0.,-1.));
#1462=DIRECTION('',(-0.965925826289068,-0.258819045102521,0.));
#1463=DIRECTION('',(0.,0.,-1.));
#1464=DIRECTION('',(0.,0.,1.));
#1465=DIRECTION('',(1.,0.,0.));
#1466=DIRECTION('',(-0.258819045102521,0.965925826289068,0.));
#1467=DIRECTION('',(-0.965925826289068,-0.258819045102521,0.));
#1468=DIRECTION('',(-0.258819045102521,0.965925826289068,0.));
#1469=DIRECTION('',(-0.258819045102521,0.965925826289068,1.11015837164879E-16));
#1470=DIRECTION('',(-0.965925826289068,-0.258819045102521,0.));
#1471=DIRECTION('',(-2.87330129662708E-17,1.07233064244658E-16,-1.));
#1472=DIRECTION('',(-0.965925826289068,-0.258819045102521,0.));
#1473=DIRECTION('',(-2.87330129662708E-17,1.07233064244658E-16,-1.));
#1474=DIRECTION('',(0.,0.,1.));
#1475=DIRECTION('',(1.,0.,0.));
#1476=DIRECTION('',(-0.258819045102521,0.965925826289068,0.));
#1477=DIRECTION('',(-0.258819045102521,0.965925826289068,0.));
#1478=DIRECTION('',(0.,0.,1.));
#1479=DIRECTION('',(1.,0.,0.));
#1480=DIRECTION('',(-0.258819045102521,0.965925826289068,0.));
#1481=DIRECTION('',(-0.258819045102521,0.965925826289068,0.));
#1482=DIRECTION('',(-0.965925826289068,-0.258819045102521,0.));
#1483=DIRECTION('',(0.258819045102521,-0.965925826289068,0.));
#1484=DIRECTION('',(0.965925826289068,0.258819045102521,0.));
#1485=DIRECTION('',(-0.25881904510252,0.965925826289069,0.));
#1486=DIRECTION('',(0.965925826289068,0.258819045102521,0.));
#1487=DIRECTION('',(-0.258819045102521,0.965925826289068,0.));
#1488=DIRECTION('',(-0.965925826289068,-0.258819045102521,0.));
#1489=DIRECTION('',(0.258819045102521,-0.965925826289068,0.));
#1490=DIRECTION('',(0.965925826289068,0.258819045102521,0.));
#1491=DIRECTION('',(-0.25881904510252,0.965925826289069,0.));
#1492=DIRECTION('',(0.965925826289068,0.258819045102521,0.));
#1493=DIRECTION('',(-0.258819045102521,0.965925826289068,0.));
#1494=DIRECTION('',(-0.965925826289068,-0.258819045102521,0.));
#1495=DIRECTION('',(0.258819045102521,-0.965925826289068,0.));
#1496=DIRECTION('',(0.965925826289068,0.258819045102521,0.));
#1497=DIRECTION('',(-0.25881904510252,0.965925826289069,0.));
#1498=DIRECTION('',(0.965925826289068,0.258819045102521,0.));
#1499=DIRECTION('',(-0.258819045102521,0.965925826289068,0.));
#1500=DIRECTION('',(-0.965925826289068,-0.258819045102521,0.));
#1501=DIRECTION('',(0.258819045102521,-0.965925826289068,0.));
#1502=DIRECTION('',(0.965925826289068,0.258819045102521,0.));
#1503=DIRECTION('',(-0.25881904510252,0.965925826289069,0.));
#1504=DIRECTION('',(0.965925826289068,0.258819045102521,0.));
#1505=DIRECTION('',(-0.258819045102521,0.965925826289068,0.));
#1506=DIRECTION('',(-0.965925826289068,-0.258819045102521,0.));
#1507=DIRECTION('',(0.258819045102521,-0.965925826289068,0.));
#1508=DIRECTION('',(0.965925826289068,0.258819045102521,0.));
#1509=DIRECTION('',(-0.258819045102521,0.965925826289068,0.));
#1510=DIRECTION('',(0.965925826289068,0.258819045102521,0.));
#1511=DIRECTION('',(-0.258819045102521,0.965925826289068,0.));
#1512=DIRECTION('',(0.965925826289068,0.258819045102521,0.));
#1513=DIRECTION('',(-0.258819045102521,0.965925826289068,0.));
#1514=DIRECTION('',(0.,0.,-1.));
#1515=DIRECTION('',(0.258819045102521,-0.965925826289068,0.));
#1516=DIRECTION('',(0.,0.,1.));
#1517=DIRECTION('',(-0.258819045102521,0.965925826289068,0.));
#1518=DIRECTION('',(0.,0.,-1.));
#1519=DIRECTION('',(-0.258819045102521,0.965925826289068,0.));
#1520=DIRECTION('',(0.,0.,-1.));
#1521=DIRECTION('',(0.258819045102521,-0.965925826289068,0.));
#1522=DIRECTION('',(0.965925826289068,0.258819045102521,0.));
#1523=DIRECTION('',(-0.258819045102521,0.965925826289068,0.));
#1524=DIRECTION('',(0.,0.,1.));
#1525=DIRECTION('',(1.,0.,0.));
#1526=DIRECTION('',(-0.965275053549559,-0.261235661797727,0.));
#1527=DIRECTION('',(0.,1.,0.));
#1528=DIRECTION('',(1.,0.,0.));
#1529=DIRECTION('',(0.,1.,0.));
#1530=DIRECTION('',(0.,0.,1.));
#1531=DIRECTION('',(1.,0.,0.));
#1532=DIRECTION('',(-0.99742724369118,-0.0716860763511046,0.));
#1533=DIRECTION('',(0.915445318583891,0.402442379332544,0.));
#1534=DIRECTION('',(-0.261235661797727,0.965275053549559,0.));
#1535=DIRECTION('',(-0.965275053549559,-0.261235661797727,0.));
#1536=DIRECTION('',(-0.965275053549559,-0.261235661797727,0.));
#1537=DIRECTION('',(-0.965275053549559,-0.261235661797727,0.));
#1538=DIRECTION('',(0.,0.,-1.));
#1539=DIRECTION('',(0.,0.,-1.));
#1540=DIRECTION('',(0.,0.,1.));
#1541=DIRECTION('',(0.,-1.,0.));
#1542=DIRECTION('',(0.,0.,1.));
#1543=DIRECTION('',(0.,-1.,0.));
#1544=DIRECTION('',(0.,0.,-1.));
#1545=DIRECTION('',(1.,0.,0.));
#1546=DIRECTION('',(0.,0.,-1.));
#1547=DIRECTION('',(1.,0.,0.));
#1548=DIRECTION('',(0.,0.,1.));
#1549=DIRECTION('',(0.,1.,0.));
#1550=DIRECTION('',(0.,0.,-1.));
#1551=DIRECTION('',(-0.0716860763511046,0.99742724369118,0.));
#1552=DIRECTION('',(-0.99742724369118,-0.0716860763511046,0.));
#1553=DIRECTION('',(0.,0.,-1.));
#1554=DIRECTION('',(-0.99742724369118,-0.0716860763511046,0.));
#1555=DIRECTION('',(0.,0.,-1.));
#1556=DIRECTION('',(0.402442379332544,-0.915445318583891,0.));
#1557=DIRECTION('',(0.915445318583891,0.402442379332544,0.));
#1558=DIRECTION('',(0.915445318583891,0.402442379332544,0.));
#1559=DIRECTION('',(0.,0.,1.));
#1560=DIRECTION('',(1.,0.,0.));
#1561=DIRECTION('',(0.,0.,1.));
#1562=DIRECTION('',(1.,0.,0.));
#1563=DIRECTION('',(0.,0.,1.));
#1564=DIRECTION('',(1.,0.,0.));
#1565=DIRECTION('',(0.,1.,0.));
#1566=DIRECTION('',(0.,0.,1.));
#1567=DIRECTION('',(0.,1.,0.));
#1568=DIRECTION('',(-1.,0.,0.));
#1569=DIRECTION('',(0.,1.,0.));
#1570=DIRECTION('',(-1.,0.,0.));
#1571=DIRECTION('',(0.261235661797727,-0.965275053549559,0.));
#1572=DIRECTION('',(0.965275053549559,0.261235661797727,0.));
#1573=DIRECTION('',(-0.965275053549559,-0.261235661797727,0.));
#1574=DIRECTION('',(0.,0.,-1.));
#1575=DIRECTION('',(0.,0.,-1.));
#1576=DIRECTION('',(-1.,0.,0.));
#1577=DIRECTION('',(0.,0.,1.));
#1578=DIRECTION('',(0.,1.,0.));
#1579=DIRECTION('',(1.,0.,0.));
#1580=DIRECTION('',(0.,0.,-1.));
#1581=DIRECTION('',(0.,1.,0.));
#1582=DIRECTION('',(0.,1.,0.));
#1583=DIRECTION('',(0.,0.,-1.));
#1584=DIRECTION('',(0.,0.,-1.));
#1585=DIRECTION('',(1.,0.,0.));
#1586=DIRECTION('',(0.915445318583891,0.402442379332544,0.));
#1587=DIRECTION('',(-0.99742724369118,-0.0716860763511046,0.));
#1588=DIRECTION('',(0.,1.,0.));
#1589=DIRECTION('',(1.,0.,0.));
#1590=DIRECTION('',(0.,-1.,0.));
#1591=DIRECTION('',(0.,0.,-1.));
#1592=DIRECTION('',(0.,-1.,0.));
#1593=DIRECTION('',(0.,0.,-1.));
#1594=DIRECTION('',(1.,0.,0.));
#1595=DIRECTION('',(0.,0.,1.));
#1596=DIRECTION('',(1.,0.,0.));
#1597=DIRECTION('',(1.,0.,0.));
#1598=DIRECTION('',(0.,0.,-1.));
#1599=DIRECTION('',(1.,0.,0.));
#1600=DIRECTION('',(0.,0.,-1.));
#1601=DIRECTION('',(1.,0.,0.));
#1602=DIRECTION('',(0.,0.,-1.));
#1603=DIRECTION('',(0.,0.,1.));
#1604=DIRECTION('',(0.,1.,0.));
#1605=DIRECTION('',(0.,1.,0.));
#1606=DIRECTION('',(0.,0.,-1.));
#1607=DIRECTION('',(-0.0716860763511046,0.99742724369118,0.));
#1608=DIRECTION('',(-0.99742724369118,-0.0716860763511046,0.));
#1609=DIRECTION('',(0.,0.,1.));
#1610=DIRECTION('',(-0.99742724369118,-0.0716860763511046,0.));
#1611=DIRECTION('',(0.402442379332544,-0.915445318583891,0.));
#1612=DIRECTION('',(0.915445318583891,0.402442379332544,0.));
#1613=DIRECTION('',(0.915445318583891,0.402442379332544,0.));
#1614=DIRECTION('',(0.,0.,-1.));
#1615=DIRECTION('',(1.,0.,0.));
#1616=DIRECTION('',(0.,1.,0.));
#1617=DIRECTION('',(0.,0.,-1.));
#1618=DIRECTION('',(0.,-1.,0.));
#1619=DIRECTION('',(-1.,0.,0.));
#1620=DIRECTION('',(0.,1.,0.));
#1621=DIRECTION('',(-1.,0.,0.));
#1622=DIRECTION('',(0.,-1.,0.));
#1623=DIRECTION('',(1.,0.,0.));
#1624=DIRECTION('',(1.,0.,0.));
#1625=DIRECTION('',(0.,0.,-1.));
#1626=DIRECTION('',(1.,0.,0.));
#1627=DIRECTION('',(0.,0.,-1.));
#1628=DIRECTION('',(1.,0.,0.));
#1629=DIRECTION('',(0.,0.,1.));
#1630=DIRECTION('',(-1.,0.,0.));
#1631=DIRECTION('',(0.,0.,1.));
#1632=DIRECTION('',(-1.,0.,0.));
#1633=DIRECTION('',(1.,0.,0.));
#1634=DIRECTION('',(0.,0.,1.));
#1635=DIRECTION('',(1.,0.,0.));
#1636=DIRECTION('',(0.,0.,1.));
#1637=DIRECTION('',(0.,0.,1.));
#1638=DIRECTION('',(1.,0.,0.));
#1639=DIRECTION('',(0.,1.,0.));
#1640=DIRECTION('',(1.,0.,0.));
#1641=DIRECTION('',(0.,1.,0.));
#1642=DIRECTION('',(0.,0.,1.));
#1643=DIRECTION('',(1.,0.,0.));
#1644=DIRECTION('',(1.,0.,0.));
#1645=DIRECTION('',(0.,1.,0.));
#1646=DIRECTION('',(0.,1.,0.));
#1647=DIRECTION('',(1.,0.,0.));
#1648=DIRECTION('',(0.,0.,-1.));
#1649=DIRECTION('',(0.,0.,-1.));
#1650=DIRECTION('',(0.,-1.,0.));
#1651=DIRECTION('',(0.,0.,-1.));
#1652=DIRECTION('',(0.,1.,0.));
#1653=DIRECTION('',(0.,0.,1.));
#1654=DIRECTION('',(1.,0.,0.));
#1655=DIRECTION('',(0.,1.,0.));
#1656=DIRECTION('',(1.,0.,0.));
#1657=DIRECTION('',(0.,0.,-1.));
#1658=DIRECTION('',(0.,-1.,0.));
#1659=DIRECTION('',(0.,0.,-1.));
#1660=DIRECTION('',(0.,0.,-1.));
#1661=DIRECTION('',(0.,0.,1.));
#1662=DIRECTION('',(1.,0.,0.));
#1663=DIRECTION('',(0.,0.,1.));
#1664=DIRECTION('',(1.,0.,0.));
#1665=DIRECTION('',(1.,0.,0.));
#1666=DIRECTION('',(1.,0.,0.));
#1667=DIRECTION('',(0.,1.,0.));
#1668=DIRECTION('',(0.,0.,1.));
#1669=DIRECTION('',(0.,-1.,0.));
#1670=DIRECTION('',(1.,0.,0.));
#1671=DIRECTION('',(0.,-1.,0.));
#1672=DIRECTION('',(1.,0.,0.));
#1673=DIRECTION('',(0.,1.,0.));
#1674=DIRECTION('',(0.,0.,1.));
#1675=DIRECTION('',(0.,-1.,0.));
#1676=DIRECTION('',(1.,0.,0.));
#1677=DIRECTION('',(0.,-1.,0.));
#1678=DIRECTION('',(1.,0.,0.));
#1679=DIRECTION('',(0.,-1.,0.));
#1680=DIRECTION('',(1.,0.,0.));
#1681=DIRECTION('',(0.,-1.,0.));
#1682=DIRECTION('',(1.,0.,0.));
#1683=DIRECTION('',(0.0716860763511048,-0.997427243691179,0.));
#1684=DIRECTION('',(0.99742724369118,0.0716860763511048,0.));
#1685=DIRECTION('',(0.0716860763511048,-0.997427243691179,0.));
#1686=DIRECTION('',(0.99742724369118,0.0716860763511048,0.));
#1687=DIRECTION('',(0.,0.,1.));
#1688=DIRECTION('',(-0.99742724369118,-0.0716860763511048,0.));
#1689=DIRECTION('',(0.,0.,1.));
#1690=DIRECTION('',(-0.99742724369118,-0.0716860763511048,0.));
#1691=DIRECTION('',(-1.,0.,0.));
#1692=DIRECTION('',(0.,0.,1.));
#1693=DIRECTION('',(0.,1.,0.));
#1694=DIRECTION('',(0.,1.,0.));
#1695=DIRECTION('',(0.,0.,-1.));
#1696=DIRECTION('',(-1.,0.,0.));
#1697=DIRECTION('',(0.,1.,0.));
#1698=DIRECTION('',(0.,0.,-1.));
#1699=DIRECTION('',(-1.,0.,0.));
#1700=DIRECTION('',(0.,1.,0.));
#1701=DIRECTION('',(-1.,0.,0.));
#1702=DIRECTION('',(0.,0.,1.));
#1703=DIRECTION('',(0.0716860763511048,-0.997427243691179,0.));
#1704=DIRECTION('',(0.99742724369118,0.0716860763511048,0.));
#1705=DIRECTION('',(0.0716860763511048,-0.997427243691179,0.));
#1706=DIRECTION('',(0.99742724369118,0.0716860763511048,0.));
#1707=DIRECTION('',(0.99742724369118,0.0716860763511048,0.));
#1708=DIRECTION('',(0.,0.,1.));
#1709=DIRECTION('',(0.99742724369118,0.0716860763511048,0.));
#1710=DIRECTION('',(0.,0.,1.));
#1711=DIRECTION('',(0.,0.,1.));
#1712=DIRECTION('',(1.,0.,0.));
#1713=DIRECTION('',(0.,1.,0.));
#1714=DIRECTION('',(0.,1.,0.));
#1715=DIRECTION('',(-1.,0.,0.));
#1716=DIRECTION('',(0.,0.,1.));
#1717=DIRECTION('',(0.,1.,0.));
#1718=DIRECTION('',(-1.,0.,0.));
#1719=DIRECTION('',(0.,0.,1.));
#1720=DIRECTION('',(0.,1.,0.));
#1721=DIRECTION('',(0.,0.,1.));
#1722=DIRECTION('',(1.,0.,0.));
#1723=DIRECTION('',(0.0716860763511048,-0.99742724369118,0.));
#1724=DIRECTION('',(0.99742724369118,0.0716860763511048,0.));
#1725=DIRECTION('',(-0.0716860763511048,0.99742724369118,0.));
#1726=DIRECTION('',(-0.99742724369118,-0.0716860763511048,0.));
#1727=DIRECTION('',(-0.0716860763511048,0.99742724369118,0.));
#1728=DIRECTION('',(-0.99742724369118,-0.0716860763511048,0.));
#1729=DIRECTION('',(0.0716860763511048,-0.99742724369118,0.));
#1730=DIRECTION('',(0.99742724369118,0.0716860763511048,0.));
#1731=DIRECTION('',(-0.0716860763511048,0.99742724369118,0.));
#1732=DIRECTION('',(-0.99742724369118,-0.0716860763511048,0.));
#1733=DIRECTION('',(-0.0716860763511048,0.99742724369118,0.));
#1734=DIRECTION('',(-0.99742724369118,-0.0716860763511048,0.));
#1735=CARTESIAN_POINT('',(0.,0.,0.));
#1736=CARTESIAN_POINT('',(-0.0509680731461106,0.0047190428646097,0.0688030198693276));
#1737=CARTESIAN_POINT('',(-0.0604281962643993,0.0400247029879199,0.0688030198693276));
#1738=CARTESIAN_POINT('',(-0.0604281962643993,0.0400247029879199,0.0688030198693276));
#1739=CARTESIAN_POINT('',(-0.0628430108301219,0.0393776553751637,0.0688030198693276));
#1740=CARTESIAN_POINT('',(-0.0533828877118333,0.0040719952518534,0.0688030198693276));
#1741=CARTESIAN_POINT('',(-0.0439227645935446,-0.0312336648714569,0.0688030198693276));
#1742=CARTESIAN_POINT('',(-0.0415079500278219,-0.0305866172587006,0.0688030198693276));
#1743=CARTESIAN_POINT('',(-0.0415079500278219,-0.0305866172587006,0.0688030198693276));
#1744=CARTESIAN_POINT('',(-0.0509680731461106,0.0047190428646097,0.0688030198693276));
#1745=CARTESIAN_POINT('',(-0.041507950027822,-0.0305866172587006,0.0668030198693276));
#1746=CARTESIAN_POINT('',(-0.0439227645935446,-0.0312336648714569,0.0668030198693276));
#1747=CARTESIAN_POINT('',(-0.0434051265033396,-0.033165516524035,0.0668030198693276));
#1748=CARTESIAN_POINT('',(-0.0409903119376168,-0.0325184689112787,0.0668030198693276));
#1749=CARTESIAN_POINT('',(-0.0409903119376168,-0.0325184689112787,0.0668030198693276));
#1750=CARTESIAN_POINT('',(-0.041507950027822,-0.0305866172587006,0.0668030198693276));
#1751=CARTESIAN_POINT('',(-0.0409903119376168,-0.0325184689112787,1.81980431079865E-6));
#1752=CARTESIAN_POINT('',(-0.0434051265033396,-0.033165516524035,1.81980431079865E-6));
#1753=CARTESIAN_POINT('',(-0.0434051265033396,-0.033165516524035,-0.066799380260706));
#1754=CARTESIAN_POINT('',(-0.0409903119376168,-0.0325184689112787,-0.066799380260706));
#1755=CARTESIAN_POINT('',(-0.0409903119376168,-0.0325184689112787,-0.066799380260706));
#1756=CARTESIAN_POINT('',(-0.0409903119376168,-0.0325184689112787,1.81980431079865E-6));
#1757=CARTESIAN_POINT('',(-0.041507950027822,-0.0305866172587006,-0.066799380260706));
#1758=CARTESIAN_POINT('',(-0.0439227645935446,-0.0312336648714569,-0.066799380260706));
#1759=CARTESIAN_POINT('',(-0.0439227645935446,-0.0312336648714569,-0.068799380260706));
#1760=CARTESIAN_POINT('',(-0.0415079500278219,-0.0305866172587006,-0.068799380260706));
#1761=CARTESIAN_POINT('',(-0.0415079500278219,-0.0305866172587006,-0.068799380260706));
#1762=CARTESIAN_POINT('',(-0.041507950027822,-0.0305866172587006,-0.066799380260706));
#1763=CARTESIAN_POINT('',(-0.0509680731461106,0.0047190428646097,-0.068799380260706));
#1764=CARTESIAN_POINT('',(-0.0533828877118333,0.0040719952518534,-0.068799380260706));
#1765=CARTESIAN_POINT('',(-0.0628430108301219,0.0393776553751637,-0.068799380260706));
#1766=CARTESIAN_POINT('',(-0.0604281962643993,0.0400247029879199,-0.068799380260706));
#1767=CARTESIAN_POINT('',(-0.0604281962643993,0.0400247029879199,-0.068799380260706));
#1768=CARTESIAN_POINT('',(-0.0509680731461106,0.0047190428646097,-0.068799380260706));
#1769=CARTESIAN_POINT('',(-0.0604281962643993,0.0400247029879199,-0.066799380260706));
#1770=CARTESIAN_POINT('',(-0.062843010830122,0.0393776553751637,-0.066799380260706));
#1771=CARTESIAN_POINT('',(-0.063360648920327,0.0413095070277418,-0.066799380260706));
#1772=CARTESIAN_POINT('',(-0.0609458343546043,0.0419565546404981,-0.066799380260706));
#1773=CARTESIAN_POINT('',(-0.0609458343546043,0.0419565546404981,-0.066799380260706));
#1774=CARTESIAN_POINT('',(-0.0604281962643993,0.0400247029879199,-0.066799380260706));
#1775=CARTESIAN_POINT('',(-0.0609458343546043,0.0419565546404981,1.81980431079865E-6));
#1776=CARTESIAN_POINT('',(-0.063360648920327,0.0413095070277418,1.81980431079865E-6));
#1777=CARTESIAN_POINT('',(-0.063360648920327,0.0413095070277418,0.0668030198693276));
#1778=CARTESIAN_POINT('',(-0.0609458343546043,0.0419565546404981,0.0668030198693276));
#1779=CARTESIAN_POINT('',(-0.0609458343546043,0.0419565546404981,0.0668030198693276));
#1780=CARTESIAN_POINT('',(-0.0609458343546043,0.0419565546404981,1.81980431079865E-6));
#1781=CARTESIAN_POINT('',(-0.0547341772721438,0.0187743348095605,-0.0373366186022759));
#1782=CARTESIAN_POINT('',(-0.0547341772721438,0.0187743348095605,0.0507348772585392));
#1783=CARTESIAN_POINT('',(-0.0547341772721438,0.0187743348095605,0.0507348772585392));
#1784=CARTESIAN_POINT('',(-0.0571489918378665,0.0181272871968042,0.0507348772585392));
#1785=CARTESIAN_POINT('',(-0.0571489918378665,0.0181272871968042,-0.0373366186022759));
#1786=CARTESIAN_POINT('',(-0.0571489918378665,0.0181272871968042,-0.0454081144630909));
#1787=CARTESIAN_POINT('',(-0.0547341772721438,0.0187743348095605,-0.0454081144630909));
#1788=CARTESIAN_POINT('',(-0.0547341772721438,0.0187743348095605,-0.0454081144630909));
#1789=CARTESIAN_POINT('',(-0.0547341772721438,0.0187743348095605,-0.0373366186022759));
#1790=CARTESIAN_POINT('',(-0.0521459868211186,0.00911507654666975,-0.0454081144630909));
#1791=CARTESIAN_POINT('',(-0.0545608013868413,0.00846802893391345,-0.0454081144630909));
#1792=CARTESIAN_POINT('',(-0.0523090756944494,6.44742451985543E-5,-0.0454081144630909));
#1793=CARTESIAN_POINT('',(-0.0498942611287267,0.000711521857954857,-0.0454081144630909));
#1794=CARTESIAN_POINT('',(-0.0498942611287267,0.000711521857954857,-0.0454081144630909));
#1795=CARTESIAN_POINT('',(-0.0521459868211186,0.00911507654666975,-0.0454081144630909));
#1796=CARTESIAN_POINT('',(-0.0498942611287267,0.000711521857954857,-0.0366219736859203));
#1797=CARTESIAN_POINT('',(-0.0523090756944494,6.44742451985543E-5,-0.0366219736859203));
#1798=CARTESIAN_POINT('',(-0.0523090756944494,6.44742451985552E-5,0.0507348772585392));
#1799=CARTESIAN_POINT('',(-0.0498942611287267,0.000711521857954845,0.0507348772585392));
#1800=CARTESIAN_POINT('',(-0.0498942611287267,0.000711521857954845,0.0507348772585392));
#1801=CARTESIAN_POINT('',(-0.0498942611287267,0.000711521857954857,-0.0366219736859203));
#1802=CARTESIAN_POINT('',(-0.0430873202425304,-0.0246923273734477,0.00913279131054878));
#1803=CARTESIAN_POINT('',(-0.0430873202425304,-0.0246923273734477,-0.00596067868173123));
#1804=CARTESIAN_POINT('',(-0.0430873202425304,-0.0246923273734477,-0.00596067868173123));
#1805=CARTESIAN_POINT('',(-0.0455021348082531,-0.0253393749862039,-0.00596067868173123));
#1806=CARTESIAN_POINT('',(-0.0455021348082531,-0.0253393749862039,0.00913279131054878));
#1807=CARTESIAN_POINT('',(-0.0455021348082531,-0.0253393749862039,0.0242262613028288));
#1808=CARTESIAN_POINT('',(-0.0430873202425304,-0.0246923273734477,0.0242262613028288));
#1809=CARTESIAN_POINT('',(-0.0430873202425304,-0.0246923273734477,0.0242262613028288));
#1810=CARTESIAN_POINT('',(-0.0430873202425304,-0.0246923273734477,0.00913279131054878));
#1811=CARTESIAN_POINT('',(-0.0459343297386581,-0.0140671432842679,0.0242262613028288));
#1812=CARTESIAN_POINT('',(-0.0483491443043808,-0.0147141908970242,0.0242262613028288));
#1813=CARTESIAN_POINT('',(-0.0511961538005085,-0.00408900680784445,0.0242262613028288));
#1814=CARTESIAN_POINT('',(-0.0487813392347858,-0.00344195919508815,0.0242262613028288));
#1815=CARTESIAN_POINT('',(-0.0487813392347858,-0.00344195919508815,0.0242262613028288));
#1816=CARTESIAN_POINT('',(-0.0459343297386581,-0.0140671432842679,0.0242262613028288));
#1817=CARTESIAN_POINT('',(-0.0487813392347858,-0.00344195919508815,0.00913279131054878));
#1818=CARTESIAN_POINT('',(-0.0511961538005085,-0.00408900680784445,0.00913279131054878));
#1819=CARTESIAN_POINT('',(-0.0511961538005085,-0.00408900680784445,-0.00596067868173123));
#1820=CARTESIAN_POINT('',(-0.0487813392347858,-0.00344195919508815,-0.00596067868173123));
#1821=CARTESIAN_POINT('',(-0.0487813392347858,-0.00344195919508815,-0.00596067868173123));
#1822=CARTESIAN_POINT('',(-0.0487813392347858,-0.00344195919508815,0.00913279131054878));
#1823=CARTESIAN_POINT('',(-0.0498215776887591,0.000440263567126759,0.0507348772585392));
#1824=CARTESIAN_POINT('',(-0.0522363922544817,-0.000206784045629543,0.0507348772585392));
#1825=CARTESIAN_POINT('',(-0.0498215776887591,0.000440263567126759,0.0507348772585392));
#1826=CARTESIAN_POINT('',(-0.0459343297386581,-0.0140671432842679,-0.00596067868173123));
#1827=CARTESIAN_POINT('',(-0.0483491443043808,-0.0147141908970242,-0.00596067868173123));
#1828=CARTESIAN_POINT('',(-0.0459343297386581,-0.0140671432842679,-0.00596067868173123));
#1829=CARTESIAN_POINT('',(-0.04202616215761,-0.0286526232612328,-0.0643969801306725));
#1830=CARTESIAN_POINT('',(-0.04202616215761,-0.0286526232612328,-0.0643969801306725));
#1831=CARTESIAN_POINT('',(-0.0426085050090907,-0.0264792901520824,-0.0643969801306725));
#1832=CARTESIAN_POINT('',(-0.0444409767233327,-0.0292996708739892,-0.0643969801306725));
#1833=CARTESIAN_POINT('',(-0.0450233195748134,-0.0271263377648387,-0.0643969801306725));
#1834=CARTESIAN_POINT('',(-0.0599105581741943,0.0380928513353418,0.0648030198693275));
#1835=CARTESIAN_POINT('',(-0.0599105581741943,0.0380928513353418,0.0648030198693275));
#1836=CARTESIAN_POINT('',(-0.060492901025675,0.0402661844444922,0.0648030198693275));
#1837=CARTESIAN_POINT('',(-0.0623253727399169,0.0374458037225855,0.0648030198693275));
#1838=CARTESIAN_POINT('',(-0.0629077155913976,0.0396191368317359,0.0648030198693275));
#1839=CARTESIAN_POINT('',(-0.04202616215761,-0.0286526232612328,0.0648030198693275));
#1840=CARTESIAN_POINT('',(-0.04202616215761,-0.0286526232612328,0.0648030198693275));
#1841=CARTESIAN_POINT('',(-0.0426085050090907,-0.0264792901520824,0.0648030198693275));
#1842=CARTESIAN_POINT('',(-0.0444409767233328,-0.0292996708739891,0.0648030198693275));
#1843=CARTESIAN_POINT('',(-0.0450233195748134,-0.0271263377648387,0.0648030198693275));
#1844=CARTESIAN_POINT('',(-0.0599105581741943,0.0380928513353418,-0.0643969801306725));
#1845=CARTESIAN_POINT('',(-0.0599105581741943,0.0380928513353418,-0.0643969801306725));
#1846=CARTESIAN_POINT('',(-0.060492901025675,0.0402661844444922,-0.0643969801306725));
#1847=CARTESIAN_POINT('',(-0.0623253727399169,0.0374458037225855,-0.0643969801306725));
#1848=CARTESIAN_POINT('',(-0.0629077155913976,0.0396191368317359,-0.0643969801306725));
#1849=CARTESIAN_POINT('',(-0.0604281962643993,0.0400247029879199,0.0668030198693276));
#1850=CARTESIAN_POINT('',(-0.062843010830122,0.0393776553751637,0.0668030198693276));
#1851=CARTESIAN_POINT('',(-0.0604281962643993,0.0400247029879199,0.0668030198693276));
#1852=CARTESIAN_POINT('',(-0.0509680731461106,0.0047190428646097,1.81980431079865E-6));
#1853=CARTESIAN_POINT('',(-0.042000978410158,-0.0287466102862487,1.81980431079865E-6));
#1854=CARTESIAN_POINT('',(-0.042000978410158,-0.0287466102862487,0.052625));
#1855=CARTESIAN_POINT('',(-0.042000978410158,-0.0287466102862487,0.045625));
#1856=CARTESIAN_POINT('',(-0.0509680731461106,0.0047190428646097,0.052625));
#1857=CARTESIAN_POINT('',(-0.0498757928833487,0.000642597427877577,0.052625));
#1858=CARTESIAN_POINT('',(-0.0498757928833487,0.000642597427877577,1.81980431079865E-6));
#1859=CARTESIAN_POINT('',(-0.0498757928833487,0.000642597427877576,-0.052575));
#1860=CARTESIAN_POINT('',(-0.0509680731461106,0.0047190428646097,-0.052575));
#1861=CARTESIAN_POINT('',(-0.042000978410158,-0.0287466102862487,-0.052575));
#1862=CARTESIAN_POINT('',(-0.042000978410158,-0.0287466102862487,1.81980431079865E-6));
#1863=CARTESIAN_POINT('',(-0.042000978410158,-0.0287466102862487,-0.045575));
#1864=CARTESIAN_POINT('',(-0.0509680731461106,0.0047190428646097,-0.045575));
#1865=CARTESIAN_POINT('',(-0.0488405134606808,-0.00322111797754942,-0.045575));
#1866=CARTESIAN_POINT('',(-0.0488405134606809,-0.00322111797754942,1.81980431079865E-6));
#1867=CARTESIAN_POINT('',(-0.0488405134606809,-0.00322111797754942,0.045625));
#1868=CARTESIAN_POINT('',(-0.0509680731461106,0.0047190428646097,0.045625));
#1869=CARTESIAN_POINT('',(-0.0533828877118333,0.0040719952518534,1.81980431079865E-6));
#1870=CARTESIAN_POINT('',(-0.0262565815746784,0.0046132318675518,0.045625));
#1871=CARTESIAN_POINT('',(-0.0391618377295299,-0.000601745135937892,0.045625));
#1872=CARTESIAN_POINT('',(-0.0300800000000012,0.00185610341291739,0.045625));
#1873=CARTESIAN_POINT('',(-0.0300800000000012,-0.006,0.045625));
#1874=CARTESIAN_POINT('',(-0.0300800000000012,0.006,0.045625));
#1875=CARTESIAN_POINT('',(-0.0105400000000006,0.006,0.045625));
#1876=CARTESIAN_POINT('',(0.009,0.006,0.045625));
#1877=CARTESIAN_POINT('',(0.009,-0.006,0.045625));
#1878=CARTESIAN_POINT('',(0.009,-0.018835849044256,0.045625));
#1879=CARTESIAN_POINT('',(0.007,-0.018835849044256,0.045625));
#1880=CARTESIAN_POINT('',(0.00714337215270221,-0.0208307035316383,0.045625));
#1881=CARTESIAN_POINT('',(-0.0105400000000006,-0.0221016248688102,0.045625));
#1882=CARTESIAN_POINT('',(-0.0300800000000012,-0.0235059838742018,0.045625));
#1883=CARTESIAN_POINT('',(-0.036224769334169,-0.0262073091648456,0.045625));
#1884=CARTESIAN_POINT('',(-0.0402067803767207,0.00325935507826035,0.052625));
#1885=CARTESIAN_POINT('',(-0.0402067803767207,0.00325935507826035,-0.052575));
#1886=CARTESIAN_POINT('',(-0.0300800000000012,0.006,-0.052575));
#1887=CARTESIAN_POINT('',(-0.0402067803767207,0.00325935507826035,0.052625));
#1888=CARTESIAN_POINT('',(-0.0300800000000012,0.006,0.052625));
#1889=CARTESIAN_POINT('',(-0.0300800000000012,0.006,0.052625));
#1890=CARTESIAN_POINT('',(-0.0300800000000012,0.006,0.045625));
#1891=CARTESIAN_POINT('',(-0.0300800000000012,0.006,0.045575));
#1892=CARTESIAN_POINT('',(-0.0300800000000012,0.006,-0.052575));
#1893=CARTESIAN_POINT('',(-0.0105400000000006,0.006,0.052625));
#1894=CARTESIAN_POINT('',(-0.00670893490314484,0.006,0.0497947856783867));
#1895=CARTESIAN_POINT('',(-0.00670893490314484,0.006,0.0485447856783867));
#1896=CARTESIAN_POINT('',(-0.0105400000000006,0.006,0.052625));
#1897=CARTESIAN_POINT('',(0.009,0.006,0.052625));
#1898=CARTESIAN_POINT('',(0.009,0.006,0.052625));
#1899=CARTESIAN_POINT('',(0.009,-0.006,0.052625));
#1900=CARTESIAN_POINT('',(0.009,-0.006,0.052625));
#1901=CARTESIAN_POINT('',(0.009,-0.018835849044256,0.052625));
#1902=CARTESIAN_POINT('',(0.009,-0.018835849044256,0.045625));
#1903=CARTESIAN_POINT('',(-0.0105400000000006,-0.0221016248688102,0.052625));
#1904=CARTESIAN_POINT('',(0.00714337215270221,-0.0208307035316383,0.052625));
#1905=CARTESIAN_POINT('',(0.00714337215270221,-0.0208307035316383,0.052625));
#1906=CARTESIAN_POINT('',(-0.0105400000000006,-0.0221016248688102,0.052625));
#1907=CARTESIAN_POINT('',(-0.0300800000000012,-0.0235059838742018,0.052625));
#1908=CARTESIAN_POINT('',(-0.0300800000000012,-0.0235059838742018,0.052625));
#1909=CARTESIAN_POINT('',(-0.036224769334169,-0.0262073091648456,0.052625));
#1910=CARTESIAN_POINT('',(-0.036224769334169,-0.0262073091648456,0.052625));
#1911=CARTESIAN_POINT('',(-0.0262565815746784,0.0046132318675518,0.052625));
#1912=CARTESIAN_POINT('',(0.007,-0.018835849044256,0.052625));
#1913=CARTESIAN_POINT('',(0.007,-0.018835849044256,0.052625));
#1914=CARTESIAN_POINT('',(-0.00670893490314484,-0.002,0.0497947856783867));
#1915=CARTESIAN_POINT('',(-0.00670893490314484,-0.002,0.0497947856783867));
#1916=CARTESIAN_POINT('',(-0.00795893490314484,-0.002,0.0497947856783867));
#1917=CARTESIAN_POINT('',(-0.0091257864376275,-0.002,4.99999999999806E-6));
#1918=CARTESIAN_POINT('',(-0.0391618377295299,-0.000601745135937892,0.045625));
#1919=CARTESIAN_POINT('',(-0.0391618377295299,-0.000601745135937892,-0.045575));
#1920=CARTESIAN_POINT('',(-0.0300800000000012,0.00185610341291739,-0.045575));
#1921=CARTESIAN_POINT('',(-0.0300800000000012,0.00185610341291739,0.045625));
#1922=CARTESIAN_POINT('',(-0.0300800000000012,0.00185610341291739,0.045575));
#1923=CARTESIAN_POINT('',(-0.0300800000000012,0.00185610341291739,0.045625));
#1924=CARTESIAN_POINT('',(-0.0300800000000012,-0.006,0.045625));
#1925=CARTESIAN_POINT('',(-0.0300800000000012,-0.006,0.045575));
#1926=CARTESIAN_POINT('',(-0.0300800000000012,-0.006,0.));
#1927=CARTESIAN_POINT('',(-0.0300800000000012,-0.006,0.045575));
#1928=CARTESIAN_POINT('',(-0.0300800000000012,-0.006,0.045575));
#1929=CARTESIAN_POINT('',(-0.0300800000000012,-0.006,-0.045575));
#1930=CARTESIAN_POINT('',(-0.0300800000000012,-0.006,-0.045575));
#1931=CARTESIAN_POINT('',(-0.0300800000000012,-0.006,0.));
#1932=CARTESIAN_POINT('',(-0.0262565815746784,0.0046132318675518,-0.045575));
#1933=CARTESIAN_POINT('',(-0.036224769334169,-0.0262073091648456,-0.045575));
#1934=CARTESIAN_POINT('',(-0.0300800000000012,-0.0235059838742018,-0.045575));
#1935=CARTESIAN_POINT('',(-0.0105400000000006,-0.0221016248688102,-0.045575));
#1936=CARTESIAN_POINT('',(0.009,-0.0206972658634186,-0.045575));
#1937=CARTESIAN_POINT('',(0.009,-0.006,-0.045575));
#1938=CARTESIAN_POINT('',(0.009,-0.006,-0.045575));
#1939=CARTESIAN_POINT('',(-0.0105400000000006,-0.006,-0.045575));
#1940=CARTESIAN_POINT('',(-0.0105400000000006,0.006,-0.052575));
#1941=CARTESIAN_POINT('',(-0.00670893490314484,0.006,-0.0497447856783867));
#1942=CARTESIAN_POINT('',(-0.00670893490314484,0.006,-0.0509947856783867));
#1943=CARTESIAN_POINT('',(-0.0105400000000006,0.006,0.045575));
#1944=CARTESIAN_POINT('',(0.009,0.006,0.045575));
#1945=CARTESIAN_POINT('',(0.009,0.006,-0.052575));
#1946=CARTESIAN_POINT('',(0.009,0.006,-0.052575));
#1947=CARTESIAN_POINT('',(-0.0105400000000006,0.006,-0.052575));
#1948=CARTESIAN_POINT('',(-0.0105400000000006,0.006,-0.037575));
#1949=CARTESIAN_POINT('',(-0.0220800000000012,0.006,-0.037575));
#1950=CARTESIAN_POINT('',(0.001,0.006,-0.037575));
#1951=CARTESIAN_POINT('',(0.001,0.006,0.));
#1952=CARTESIAN_POINT('',(0.001,0.006,0.037575));
#1953=CARTESIAN_POINT('',(-0.0105400000000006,0.006,0.037575));
#1954=CARTESIAN_POINT('',(-0.0220800000000012,0.006,0.037575));
#1955=CARTESIAN_POINT('',(-0.0220800000000012,0.006,0.));
#1956=CARTESIAN_POINT('',(0.009,-0.006,-0.052575));
#1957=CARTESIAN_POINT('',(0.009,-0.0206972658634186,-0.052575));
#1958=CARTESIAN_POINT('',(0.009,-0.0206972658634186,-0.052575));
#1959=CARTESIAN_POINT('',(0.009,-0.006,-0.052575));
#1960=CARTESIAN_POINT('',(0.009,-0.006,0.045575));
#1961=CARTESIAN_POINT('',(0.009,-0.006,0.045575));
#1962=CARTESIAN_POINT('',(0.009,-0.006,0.));
#1963=CARTESIAN_POINT('',(-0.0105400000000006,-0.0221016248688102,-0.052575));
#1964=CARTESIAN_POINT('',(-0.0300800000000012,-0.0235059838742018,-0.052575));
#1965=CARTESIAN_POINT('',(-0.0300800000000012,-0.0235059838742018,-0.052575));
#1966=CARTESIAN_POINT('',(-0.0105400000000006,-0.0221016248688102,-0.052575));
#1967=CARTESIAN_POINT('',(-0.036224769334169,-0.0262073091648456,-0.052575));
#1968=CARTESIAN_POINT('',(-0.036224769334169,-0.0262073091648456,-0.052575));
#1969=CARTESIAN_POINT('',(-0.0262565815746784,0.0046132318675518,-0.052575));
#1970=CARTESIAN_POINT('',(-0.00670893490314484,-0.002,-0.0497447856783867));
#1971=CARTESIAN_POINT('',(-0.00670893490314484,-0.002,-0.0497447856783867));
#1972=CARTESIAN_POINT('',(-0.00795893490314484,-0.002,-0.0497447856783867));
#1973=CARTESIAN_POINT('',(-0.0091257864376275,-0.002,4.50000000000103E-5));
#1974=CARTESIAN_POINT('',(-0.0105400000000006,-0.006,0.));
#1975=CARTESIAN_POINT('',(-0.0105400000000006,-0.006,-0.037575));
#1976=CARTESIAN_POINT('',(-0.0220800000000012,-0.006,-0.037575));
#1977=CARTESIAN_POINT('',(0.001,-0.006,-0.037575));
#1978=CARTESIAN_POINT('',(-0.0220800000000012,-0.006,0.));
#1979=CARTESIAN_POINT('',(-0.0220800000000012,-0.006,0.037575));
#1980=CARTESIAN_POINT('',(-0.0105400000000006,-0.006,0.037575));
#1981=CARTESIAN_POINT('',(0.001,-0.006,0.037575));
#1982=CARTESIAN_POINT('',(0.001,-0.006,0.));
#1983=CARTESIAN_POINT('',(-0.0105400000000006,-0.006,0.045575));
#1984=CARTESIAN_POINT('',(-0.0230800000000012,-0.006,0.041075));
#1985=CARTESIAN_POINT('',(-0.0230800000000012,-0.006,0.038575));
#1986=CARTESIAN_POINT('',(-0.0230800000000012,-0.006,0.043575));
#1987=CARTESIAN_POINT('',(-0.0255800000000012,-0.006,0.038575));
#1988=CARTESIAN_POINT('',(-0.0280800000000012,-0.006,0.038575));
#1989=CARTESIAN_POINT('',(-0.0280800000000012,-0.006,0.041075));
#1990=CARTESIAN_POINT('',(-0.0280800000000012,-0.006,0.043575));
#1991=CARTESIAN_POINT('',(-0.0255800000000012,-0.006,0.043575));
#1992=CARTESIAN_POINT('',(-0.0255800000000012,-0.006,-0.043575));
#1993=CARTESIAN_POINT('',(-0.0280800000000012,-0.006,-0.043575));
#1994=CARTESIAN_POINT('',(-0.0230800000000012,-0.006,-0.043575));
#1995=CARTESIAN_POINT('',(-0.0280800000000012,-0.006,-0.041075));
#1996=CARTESIAN_POINT('',(-0.0280800000000012,-0.006,-0.038575));
#1997=CARTESIAN_POINT('',(-0.0255800000000012,-0.006,-0.038575));
#1998=CARTESIAN_POINT('',(-0.0230800000000012,-0.006,-0.038575));
#1999=CARTESIAN_POINT('',(-0.0230800000000012,-0.006,-0.041075));
#2000=CARTESIAN_POINT('',(-0.0105400000000006,-0.006,-0.037575));
#2001=CARTESIAN_POINT('',(-0.0220800000000012,-0.006,-0.037575));
#2002=CARTESIAN_POINT('',(-0.0220800000000012,-6.93889390390723E-18,-0.037575));
#2003=CARTESIAN_POINT('',(-0.0105400000000006,-6.93889390390723E-18,-0.037575));
#2004=CARTESIAN_POINT('',(0.001,-6.93889390390723E-18,-0.037575));
#2005=CARTESIAN_POINT('',(0.001,-0.006,-0.037575));
#2006=CARTESIAN_POINT('',(-0.0105400000000006,-0.006,-0.037575));
#2007=CARTESIAN_POINT('',(-0.0105400000000006,-0.005,-0.037575));
#2008=CARTESIAN_POINT('',(-0.0220800000000012,-0.005,-0.037575));
#2009=CARTESIAN_POINT('',(0.001,-0.005,-0.037575));
#2010=CARTESIAN_POINT('',(-0.0220800000000012,-0.006,-0.037575));
#2011=CARTESIAN_POINT('',(0.001,-0.006,-0.037575));
#2012=CARTESIAN_POINT('',(-0.0220800000000012,-0.006,0.));
#2013=CARTESIAN_POINT('',(-0.0220800000000012,-0.005,0.));
#2014=CARTESIAN_POINT('',(-0.0220800000000012,-0.005,0.0302733946591593));
#2015=CARTESIAN_POINT('',(-0.0220800000000012,-0.006,0.0302733946591593));
#2016=CARTESIAN_POINT('',(-0.0220800000000012,-6.93889390390723E-18,0.0302733946591593));
#2017=CARTESIAN_POINT('',(-0.0220800000000012,-6.93889390390723E-18,0.));
#2018=CARTESIAN_POINT('',(-0.0220800000000012,-0.006,0.037575));
#2019=CARTESIAN_POINT('',(-0.0105400000000006,-0.006,0.037575));
#2020=CARTESIAN_POINT('',(0.001,-0.006,0.037575));
#2021=CARTESIAN_POINT('',(0.001,-0.006,0.));
#2022=CARTESIAN_POINT('',(0.001,-0.006,0.0302733946591593));
#2023=CARTESIAN_POINT('',(0.001,-6.93889390390723E-18,0.0302733946591593));
#2024=CARTESIAN_POINT('',(0.001,-0.005,0.0302733946591593));
#2025=CARTESIAN_POINT('',(0.001,-0.005,0.));
#2026=CARTESIAN_POINT('',(0.001,-6.93889390390723E-18,0.));
#2027=CARTESIAN_POINT('',(-0.0105400000000006,-0.006,0.045575));
#2028=CARTESIAN_POINT('',(-0.0105400000000006,-0.005,0.0302733946591593));
#2029=CARTESIAN_POINT('',(-0.0105400000000006,-6.93889390390749E-18,0.0302733946591593));
#2030=CARTESIAN_POINT('',(-0.0105400000000006,-0.005,0.0302733946591593));
#2031=CARTESIAN_POINT('',(-0.0186700000000011,-0.005,-0.034165));
#2032=CARTESIAN_POINT('',(-0.0186700000000011,-0.005,-0.034165));
#2033=CARTESIAN_POINT('',(-0.0177200000000011,-0.005,-0.034165));
#2034=CARTESIAN_POINT('',(-0.0186700000000011,-6.93889390390749E-18,-0.034165));
#2035=CARTESIAN_POINT('',(-0.0177200000000011,-6.93889390390749E-18,-0.034165));
#2036=CARTESIAN_POINT('',(-0.00241000000000014,-0.005,-0.034165));
#2037=CARTESIAN_POINT('',(-0.00241000000000014,-0.005,-0.034165));
#2038=CARTESIAN_POINT('',(-0.00146000000000014,-0.005,-0.034165));
#2039=CARTESIAN_POINT('',(-0.00241000000000014,-6.93889390390749E-18,-0.034165));
#2040=CARTESIAN_POINT('',(-0.00146000000000014,-6.93889390390749E-18,-0.034165));
#2041=CARTESIAN_POINT('',(-0.0105400000000006,-0.005,-0.00055));
#2042=CARTESIAN_POINT('',(-0.0105400000000006,-6.93889390390749E-18,-0.00055));
#2043=CARTESIAN_POINT('',(-0.00720828687439905,-0.0178518538019851,0.045625));
#2044=CARTESIAN_POINT('',(-0.0255800000000012,-0.0191722468814329,0.041075));
#2045=CARTESIAN_POINT('',(-0.0242309297815467,-0.0190752878788642,0.041075));
#2046=CARTESIAN_POINT('',(-0.0230800000000012,-0.0189925694242436,0.041075));
#2047=CARTESIAN_POINT('',(-0.0230800000000012,-0.0189925694242436,0.038575));
#2048=CARTESIAN_POINT('',(-0.0230800000000012,-0.0189925694242436,0.043575));
#2049=CARTESIAN_POINT('',(-0.0262763107365101,-0.0192222914184527,0.043575));
#2050=CARTESIAN_POINT('',(-0.0280800000000012,-0.0193519243386222,0.043575));
#2051=CARTESIAN_POINT('',(-0.0280800000000012,-0.0193519243386222,0.041075));
#2052=CARTESIAN_POINT('',(-0.0280800000000012,-0.0193519243386222,0.038575));
#2053=CARTESIAN_POINT('',(-0.0262763107365101,-0.0192222914184527,0.038575));
#2054=CARTESIAN_POINT('',(-0.0280800000000012,-0.0289106344554894,0.041075));
#2055=CARTESIAN_POINT('',(-0.0280800000000012,-0.0289106344554894,0.038575));
#2056=CARTESIAN_POINT('',(-0.0280800000000012,-0.0289106344554894,0.043575));
#2057=CARTESIAN_POINT('',(-0.0255800000000012,-0.0289106344554894,0.038575));
#2058=CARTESIAN_POINT('',(-0.0230800000000012,-0.0289106344554894,0.038575));
#2059=CARTESIAN_POINT('',(-0.0255800000000012,-0.0289106344554894,0.043575));
#2060=CARTESIAN_POINT('',(-0.0230800000000012,-0.0289106344554894,0.043575));
#2061=CARTESIAN_POINT('',(-0.0230800000000012,-0.0289106344554894,0.041075));
#2062=CARTESIAN_POINT('',(-0.00720828687439905,-0.0178518538019851,0.045625));
#2063=CARTESIAN_POINT('',(-0.0255800000000012,-0.0191722468814329,-0.041075));
#2064=CARTESIAN_POINT('',(-0.0242309297815467,-0.0190752878788642,-0.041075));
#2065=CARTESIAN_POINT('',(-0.0262763107365101,-0.0192222914184527,-0.043575));
#2066=CARTESIAN_POINT('',(-0.0280800000000012,-0.0193519243386222,-0.043575));
#2067=CARTESIAN_POINT('',(-0.0230800000000012,-0.0189925694242436,-0.043575));
#2068=CARTESIAN_POINT('',(-0.0230800000000012,-0.0189925694242436,-0.041075));
#2069=CARTESIAN_POINT('',(-0.0230800000000012,-0.0189925694242436,-0.038575));
#2070=CARTESIAN_POINT('',(-0.0262763107365101,-0.0192222914184527,-0.038575));
#2071=CARTESIAN_POINT('',(-0.0280800000000012,-0.0193519243386222,-0.038575));
#2072=CARTESIAN_POINT('',(-0.0280800000000012,-0.0193519243386222,-0.041075));
#2073=CARTESIAN_POINT('',(-0.0255800000000012,-0.0289106344554894,-0.038575));
#2074=CARTESIAN_POINT('',(-0.0280800000000012,-0.0289106344554894,-0.038575));
#2075=CARTESIAN_POINT('',(-0.0230800000000012,-0.0289106344554894,-0.038575));
#2076=CARTESIAN_POINT('',(-0.0280800000000012,-0.0289106344554894,-0.041075));
#2077=CARTESIAN_POINT('',(-0.0280800000000012,-0.0289106344554894,-0.043575));
#2078=CARTESIAN_POINT('',(-0.0230800000000012,-0.0289106344554894,-0.041075));
#2079=CARTESIAN_POINT('',(-0.0230800000000012,-0.0289106344554894,-0.043575));
#2080=CARTESIAN_POINT('',(-0.0255800000000012,-0.0289106344554894,-0.043575));
#2081=CARTESIAN_POINT('',(-0.0262968607635123,-0.00919797444452109,-0.041075));
#2082=CARTESIAN_POINT('',(-0.026355119609816,-0.00838737127794888,-0.041075));
#2083=CARTESIAN_POINT('',(-0.0262968607635123,-0.00919797444452109,-0.041075));
#2084=CARTESIAN_POINT('',(-0.0276459309819668,-0.00929493344708978,-0.041075));
#2085=CARTESIAN_POINT('',(-0.025436627847299,-0.0211671013688152,-0.041075));
#2086=CARTESIAN_POINT('',(-0.0262968607635123,-0.00919797444452109,0.041075));
#2087=CARTESIAN_POINT('',(-0.026355119609816,-0.00838737127794888,0.041075));
#2088=CARTESIAN_POINT('',(-0.0262968607635123,-0.00919797444452109,0.041075));
#2089=CARTESIAN_POINT('',(-0.0276459309819668,-0.00929493344708978,0.041075));
#2090=CARTESIAN_POINT('',(-0.025436627847299,-0.0211671013688152,0.041075));
#2091=MECHANICAL_DESIGN_GEOMETRIC_PRESENTATION_REPRESENTATION('',(#1287),
#2092);
#2092=(
GEOMETRIC_REPRESENTATION_CONTEXT(3)
GLOBAL_UNCERTAINTY_ASSIGNED_CONTEXT((#2093))
GLOBAL_UNIT_ASSIGNED_CONTEXT((#2096,#2095,#2094))
REPRESENTATION_CONTEXT('Part 4','TOP_LEVEL_ASSEMBLY_PART')
);
#2093=UNCERTAINTY_MEASURE_WITH_UNIT(LENGTH_MEASURE(1.E-8),#2096,
'DISTANCE_ACCURACY_VALUE','Maximum Tolerance applied to model');
#2094=(
NAMED_UNIT(*)
SI_UNIT($,.STERADIAN.)
SOLID_ANGLE_UNIT()
);
#2095=(
NAMED_UNIT(*)
PLANE_ANGLE_UNIT()
SI_UNIT($,.RADIAN.)
);
#2096=(
LENGTH_UNIT()
NAMED_UNIT(*)
SI_UNIT($,.METRE.)
);
#2097=PRODUCT_DEFINITION_SHAPE('','',#2098);
#2098=PRODUCT_DEFINITION('','',#2100,#2099);
#2099=PRODUCT_DEFINITION_CONTEXT('',#2106,'design');
#2100=PRODUCT_DEFINITION_FORMATION_WITH_SPECIFIED_SOURCE('','',#2102,
 .NOT_KNOWN.);
#2101=PRODUCT_RELATED_PRODUCT_CATEGORY('','',(#2102));
#2102=PRODUCT('Part 4','Part 4','Part 4',(#2104));
#2103=PRODUCT_CATEGORY('','');
#2104=PRODUCT_CONTEXT('',#2106,'mechanical');
#2105=APPLICATION_PROTOCOL_DEFINITION('international standard',
'ap242_managed_model_based_3d_engineering',2020,#2106);
#2106=APPLICATION_CONTEXT('managed model based 3d engineering');
ENDSEC;
END-ISO-10303-21;
