ISO-10303-21;
HEADER;
/* Generated by software containing ST-Developer
 * from STEP Tools, Inc. (www.steptools.com) 
 */
/* OPTION: using custom renumber hook */

FILE_DESCRIPTION(
/* description */ ('STEP AP242 Edition 2',
'CAx-IF Rec.Pracs.---Representation and Presentation of Product Manufa
cturing Information (PMI)---4.0---2014-10-13',
'CAx-IF Rec.Pracs.---3D Tessellated Geometry---0.4---2014-09-14','2;1',
'CAx-IF Rec.Pracs.---User Defined Attributes---1.5---2016-08-15'),
/* implementation_level */ '2;1');

FILE_NAME(
/* name */ 'Part Studio 3 - Part 1',
/* time_stamp */ '2026-09-23T04:59:42Z',
/* author */ (''),
/* organization */ (''),
/* preprocessor_version */ 'ST-DEVELOPER v20',
/* originating_system */ 'ONSHAPE BY PTC INC, 1.221',
/* authorisation */ '  ');

FILE_SCHEMA (('AP242_MANAGED_MODEL_BASED_3D_ENGINEERING_MIM_LF { 1 0 10303 442 3 1 4 }'));
ENDSEC;

DATA;
#10=SHAPE_REPRESENTATION_RELATIONSHIP('','',#1066,#11);
#11=ADVANCED_BREP_SHAPE_REPRESENTATION('',(#1064),#1754);
#12=CYLINDRICAL_SURFACE('',#1081,0.0037);
#13=CYLINDRICAL_SURFACE('',#1110,0.00163283486736552);
#14=CYLINDRICAL_SURFACE('',#1112,0.00164489323881558);
#15=CYLINDRICAL_SURFACE('',#1120,0.00162494317956099);
#16=CYLINDRICAL_SURFACE('',#1126,0.00163102627726327);
#17=CYLINDRICAL_SURFACE('',#1130,0.00225);
#18=CYLINDRICAL_SURFACE('',#1133,0.00225);
#19=CYLINDRICAL_SURFACE('',#1136,0.00225);
#20=CYLINDRICAL_SURFACE('',#1139,0.00225);
#21=CYLINDRICAL_SURFACE('',#1142,0.002);
#22=CYLINDRICAL_SURFACE('',#1143,0.002);
#23=CYLINDRICAL_SURFACE('',#1144,0.002);
#24=CYLINDRICAL_SURFACE('',#1145,0.002);
#25=CYLINDRICAL_SURFACE('',#1147,0.001);
#26=CYLINDRICAL_SURFACE('',#1149,0.001);
#27=CYLINDRICAL_SURFACE('',#1151,0.001);
#28=CYLINDRICAL_SURFACE('',#1153,0.001);
#29=CIRCLE('',#1069,0.001);
#30=CIRCLE('',#1070,0.001);
#31=CIRCLE('',#1071,0.001);
#32=CIRCLE('',#1072,0.001);
#33=CIRCLE('',#1074,0.001);
#34=CIRCLE('',#1075,0.001);
#35=CIRCLE('',#1076,0.001);
#36=CIRCLE('',#1077,0.001);
#37=CIRCLE('',#1080,0.0037);
#38=CIRCLE('',#1084,0.00163102627726327);
#39=CIRCLE('',#1086,0.00162494317956099);
#40=CIRCLE('',#1088,0.00163283486736552);
#41=CIRCLE('',#1091,0.00225);
#42=CIRCLE('',#1092,0.00225);
#43=CIRCLE('',#1093,0.00225);
#44=CIRCLE('',#1094,0.00225);
#45=CIRCLE('',#1095,0.002);
#46=CIRCLE('',#1096,0.002);
#47=CIRCLE('',#1097,0.002);
#48=CIRCLE('',#1098,0.002);
#49=CIRCLE('',#1100,0.002);
#50=CIRCLE('',#1101,0.002);
#51=CIRCLE('',#1102,0.002);
#52=CIRCLE('',#1103,0.002);
#53=CIRCLE('',#1111,0.00163283486736552);
#54=CIRCLE('',#1113,0.00164489323881558);
#55=CIRCLE('',#1114,0.00164489323881558);
#56=CIRCLE('',#1121,0.00162494317956099);
#57=CIRCLE('',#1127,0.00163102627726327);
#58=CIRCLE('',#1131,0.00225);
#59=CIRCLE('',#1134,0.00225);
#60=CIRCLE('',#1137,0.00225);
#61=CIRCLE('',#1140,0.00225);
#62=ORIENTED_EDGE('',*,*,#338,.F.);
#63=ORIENTED_EDGE('',*,*,#339,.T.);
#64=ORIENTED_EDGE('',*,*,#340,.F.);
#65=ORIENTED_EDGE('',*,*,#341,.F.);
#66=ORIENTED_EDGE('',*,*,#342,.F.);
#67=ORIENTED_EDGE('',*,*,#343,.F.);
#68=ORIENTED_EDGE('',*,*,#344,.T.);
#69=ORIENTED_EDGE('',*,*,#345,.T.);
#70=ORIENTED_EDGE('',*,*,#346,.F.);
#71=ORIENTED_EDGE('',*,*,#347,.T.);
#72=ORIENTED_EDGE('',*,*,#348,.F.);
#73=ORIENTED_EDGE('',*,*,#349,.F.);
#74=ORIENTED_EDGE('',*,*,#350,.F.);
#75=ORIENTED_EDGE('',*,*,#351,.T.);
#76=ORIENTED_EDGE('',*,*,#352,.F.);
#77=ORIENTED_EDGE('',*,*,#353,.F.);
#78=ORIENTED_EDGE('',*,*,#354,.T.);
#79=ORIENTED_EDGE('',*,*,#355,.T.);
#80=ORIENTED_EDGE('',*,*,#356,.F.);
#81=ORIENTED_EDGE('',*,*,#357,.F.);
#82=ORIENTED_EDGE('',*,*,#358,.T.);
#83=ORIENTED_EDGE('',*,*,#359,.T.);
#84=ORIENTED_EDGE('',*,*,#360,.T.);
#85=ORIENTED_EDGE('',*,*,#361,.T.);
#86=ORIENTED_EDGE('',*,*,#362,.F.);
#87=ORIENTED_EDGE('',*,*,#363,.T.);
#88=ORIENTED_EDGE('',*,*,#364,.T.);
#89=ORIENTED_EDGE('',*,*,#365,.T.);
#90=ORIENTED_EDGE('',*,*,#366,.F.);
#91=ORIENTED_EDGE('',*,*,#367,.T.);
#92=ORIENTED_EDGE('',*,*,#368,.F.);
#93=ORIENTED_EDGE('',*,*,#369,.F.);
#94=ORIENTED_EDGE('',*,*,#370,.F.);
#95=ORIENTED_EDGE('',*,*,#371,.T.);
#96=ORIENTED_EDGE('',*,*,#372,.F.);
#97=ORIENTED_EDGE('',*,*,#373,.F.);
#98=ORIENTED_EDGE('',*,*,#374,.F.);
#99=ORIENTED_EDGE('',*,*,#375,.T.);
#100=ORIENTED_EDGE('',*,*,#345,.F.);
#101=ORIENTED_EDGE('',*,*,#376,.F.);
#102=ORIENTED_EDGE('',*,*,#377,.T.);
#103=ORIENTED_EDGE('',*,*,#378,.T.);
#104=ORIENTED_EDGE('',*,*,#379,.T.);
#105=ORIENTED_EDGE('',*,*,#380,.T.);
#106=ORIENTED_EDGE('',*,*,#381,.F.);
#107=ORIENTED_EDGE('',*,*,#380,.F.);
#108=ORIENTED_EDGE('',*,*,#382,.T.);
#109=ORIENTED_EDGE('',*,*,#383,.F.);
#110=ORIENTED_EDGE('',*,*,#384,.F.);
#111=ORIENTED_EDGE('',*,*,#385,.T.);
#112=ORIENTED_EDGE('',*,*,#386,.F.);
#113=ORIENTED_EDGE('',*,*,#387,.T.);
#114=ORIENTED_EDGE('',*,*,#388,.T.);
#115=ORIENTED_EDGE('',*,*,#389,.F.);
#116=ORIENTED_EDGE('',*,*,#340,.T.);
#117=ORIENTED_EDGE('',*,*,#390,.T.);
#118=ORIENTED_EDGE('',*,*,#391,.F.);
#119=ORIENTED_EDGE('',*,*,#392,.F.);
#120=ORIENTED_EDGE('',*,*,#393,.F.);
#121=ORIENTED_EDGE('',*,*,#392,.T.);
#122=ORIENTED_EDGE('',*,*,#394,.F.);
#123=ORIENTED_EDGE('',*,*,#395,.F.);
#124=ORIENTED_EDGE('',*,*,#396,.F.);
#125=ORIENTED_EDGE('',*,*,#397,.T.);
#126=ORIENTED_EDGE('',*,*,#377,.F.);
#127=ORIENTED_EDGE('',*,*,#398,.F.);
#128=ORIENTED_EDGE('',*,*,#399,.T.);
#129=ORIENTED_EDGE('',*,*,#400,.T.);
#130=ORIENTED_EDGE('',*,*,#401,.T.);
#131=ORIENTED_EDGE('',*,*,#384,.T.);
#132=ORIENTED_EDGE('',*,*,#397,.F.);
#133=ORIENTED_EDGE('',*,*,#402,.T.);
#134=ORIENTED_EDGE('',*,*,#403,.F.);
#135=ORIENTED_EDGE('',*,*,#378,.F.);
#136=ORIENTED_EDGE('',*,*,#404,.F.);
#137=ORIENTED_EDGE('',*,*,#400,.F.);
#138=ORIENTED_EDGE('',*,*,#405,.T.);
#139=ORIENTED_EDGE('',*,*,#406,.T.);
#140=ORIENTED_EDGE('',*,*,#407,.F.);
#141=ORIENTED_EDGE('',*,*,#408,.F.);
#142=ORIENTED_EDGE('',*,*,#395,.T.);
#143=ORIENTED_EDGE('',*,*,#409,.T.);
#144=ORIENTED_EDGE('',*,*,#410,.F.);
#145=ORIENTED_EDGE('',*,*,#338,.T.);
#146=ORIENTED_EDGE('',*,*,#375,.F.);
#147=ORIENTED_EDGE('',*,*,#411,.T.);
#148=ORIENTED_EDGE('',*,*,#412,.F.);
#149=ORIENTED_EDGE('',*,*,#413,.F.);
#150=ORIENTED_EDGE('',*,*,#405,.F.);
#151=ORIENTED_EDGE('',*,*,#399,.F.);
#152=ORIENTED_EDGE('',*,*,#414,.T.);
#153=ORIENTED_EDGE('',*,*,#343,.T.);
#154=ORIENTED_EDGE('',*,*,#415,.F.);
#155=ORIENTED_EDGE('',*,*,#416,.T.);
#156=ORIENTED_EDGE('',*,*,#387,.F.);
#157=ORIENTED_EDGE('',*,*,#417,.T.);
#158=ORIENTED_EDGE('',*,*,#418,.T.);
#159=ORIENTED_EDGE('',*,*,#419,.T.);
#160=ORIENTED_EDGE('',*,*,#420,.T.);
#161=ORIENTED_EDGE('',*,*,#376,.T.);
#162=ORIENTED_EDGE('',*,*,#344,.F.);
#163=ORIENTED_EDGE('',*,*,#414,.F.);
#164=ORIENTED_EDGE('',*,*,#398,.T.);
#165=ORIENTED_EDGE('',*,*,#421,.T.);
#166=ORIENTED_EDGE('',*,*,#422,.T.);
#167=ORIENTED_EDGE('',*,*,#362,.T.);
#168=ORIENTED_EDGE('',*,*,#423,.T.);
#169=ORIENTED_EDGE('',*,*,#424,.F.);
#170=ORIENTED_EDGE('',*,*,#425,.T.);
#171=ORIENTED_EDGE('',*,*,#426,.F.);
#172=ORIENTED_EDGE('',*,*,#427,.T.);
#173=ORIENTED_EDGE('',*,*,#364,.F.);
#174=ORIENTED_EDGE('',*,*,#428,.T.);
#175=ORIENTED_EDGE('',*,*,#429,.F.);
#176=ORIENTED_EDGE('',*,*,#430,.T.);
#177=ORIENTED_EDGE('',*,*,#431,.T.);
#178=ORIENTED_EDGE('',*,*,#432,.T.);
#179=ORIENTED_EDGE('',*,*,#433,.T.);
#180=ORIENTED_EDGE('',*,*,#434,.T.);
#181=ORIENTED_EDGE('',*,*,#429,.T.);
#182=ORIENTED_EDGE('',*,*,#435,.T.);
#183=ORIENTED_EDGE('',*,*,#421,.F.);
#184=ORIENTED_EDGE('',*,*,#436,.T.);
#185=ORIENTED_EDGE('',*,*,#424,.T.);
#186=ORIENTED_EDGE('',*,*,#437,.T.);
#187=ORIENTED_EDGE('',*,*,#433,.F.);
#188=ORIENTED_EDGE('',*,*,#438,.T.);
#189=ORIENTED_EDGE('',*,*,#426,.T.);
#190=ORIENTED_EDGE('',*,*,#439,.T.);
#191=ORIENTED_EDGE('',*,*,#431,.F.);
#192=ORIENTED_EDGE('',*,*,#440,.T.);
#193=ORIENTED_EDGE('',*,*,#409,.F.);
#194=ORIENTED_EDGE('',*,*,#394,.T.);
#195=ORIENTED_EDGE('',*,*,#391,.T.);
#196=ORIENTED_EDGE('',*,*,#441,.F.);
#197=ORIENTED_EDGE('',*,*,#390,.F.);
#198=ORIENTED_EDGE('',*,*,#339,.F.);
#199=ORIENTED_EDGE('',*,*,#410,.T.);
#200=ORIENTED_EDGE('',*,*,#441,.T.);
#201=ORIENTED_EDGE('',*,*,#381,.T.);
#202=ORIENTED_EDGE('',*,*,#393,.T.);
#203=ORIENTED_EDGE('',*,*,#411,.F.);
#204=ORIENTED_EDGE('',*,*,#374,.T.);
#205=ORIENTED_EDGE('',*,*,#412,.T.);
#206=ORIENTED_EDGE('',*,*,#442,.F.);
#207=ORIENTED_EDGE('',*,*,#443,.T.);
#208=ORIENTED_EDGE('',*,*,#444,.F.);
#209=ORIENTED_EDGE('',*,*,#389,.T.);
#210=ORIENTED_EDGE('',*,*,#445,.F.);
#211=ORIENTED_EDGE('',*,*,#446,.F.);
#212=ORIENTED_EDGE('',*,*,#341,.T.);
#213=ORIENTED_EDGE('',*,*,#388,.F.);
#214=ORIENTED_EDGE('',*,*,#416,.F.);
#215=ORIENTED_EDGE('',*,*,#447,.T.);
#216=ORIENTED_EDGE('',*,*,#445,.T.);
#217=ORIENTED_EDGE('',*,*,#443,.F.);
#218=ORIENTED_EDGE('',*,*,#342,.T.);
#219=ORIENTED_EDGE('',*,*,#446,.T.);
#220=ORIENTED_EDGE('',*,*,#447,.F.);
#221=ORIENTED_EDGE('',*,*,#415,.T.);
#222=ORIENTED_EDGE('',*,*,#385,.F.);
#223=ORIENTED_EDGE('',*,*,#401,.F.);
#224=ORIENTED_EDGE('',*,*,#407,.T.);
#225=ORIENTED_EDGE('',*,*,#448,.T.);
#226=ORIENTED_EDGE('',*,*,#386,.T.);
#227=ORIENTED_EDGE('',*,*,#448,.F.);
#228=ORIENTED_EDGE('',*,*,#406,.F.);
#229=ORIENTED_EDGE('',*,*,#413,.T.);
#230=ORIENTED_EDGE('',*,*,#408,.T.);
#231=ORIENTED_EDGE('',*,*,#449,.F.);
#232=ORIENTED_EDGE('',*,*,#444,.T.);
#233=ORIENTED_EDGE('',*,*,#449,.T.);
#234=ORIENTED_EDGE('',*,*,#383,.T.);
#235=ORIENTED_EDGE('',*,*,#450,.F.);
#236=ORIENTED_EDGE('',*,*,#402,.F.);
#237=ORIENTED_EDGE('',*,*,#396,.T.);
#238=ORIENTED_EDGE('',*,*,#382,.F.);
#239=ORIENTED_EDGE('',*,*,#379,.F.);
#240=ORIENTED_EDGE('',*,*,#403,.T.);
#241=ORIENTED_EDGE('',*,*,#450,.T.);
#242=ORIENTED_EDGE('',*,*,#404,.T.);
#243=ORIENTED_EDGE('',*,*,#451,.F.);
#244=ORIENTED_EDGE('',*,*,#442,.T.);
#245=ORIENTED_EDGE('',*,*,#451,.T.);
#246=ORIENTED_EDGE('',*,*,#452,.F.);
#247=ORIENTED_EDGE('',*,*,#420,.F.);
#248=ORIENTED_EDGE('',*,*,#452,.T.);
#249=ORIENTED_EDGE('',*,*,#453,.F.);
#250=ORIENTED_EDGE('',*,*,#419,.F.);
#251=ORIENTED_EDGE('',*,*,#453,.T.);
#252=ORIENTED_EDGE('',*,*,#454,.F.);
#253=ORIENTED_EDGE('',*,*,#418,.F.);
#254=ORIENTED_EDGE('',*,*,#454,.T.);
#255=ORIENTED_EDGE('',*,*,#455,.F.);
#256=ORIENTED_EDGE('',*,*,#417,.F.);
#257=ORIENTED_EDGE('',*,*,#455,.T.);
#258=ORIENTED_EDGE('',*,*,#428,.F.);
#259=ORIENTED_EDGE('',*,*,#363,.F.);
#260=ORIENTED_EDGE('',*,*,#422,.F.);
#261=ORIENTED_EDGE('',*,*,#435,.F.);
#262=ORIENTED_EDGE('',*,*,#434,.F.);
#263=ORIENTED_EDGE('',*,*,#437,.F.);
#264=ORIENTED_EDGE('',*,*,#423,.F.);
#265=ORIENTED_EDGE('',*,*,#365,.F.);
#266=ORIENTED_EDGE('',*,*,#432,.F.);
#267=ORIENTED_EDGE('',*,*,#439,.F.);
#268=ORIENTED_EDGE('',*,*,#425,.F.);
#269=ORIENTED_EDGE('',*,*,#438,.F.);
#270=ORIENTED_EDGE('',*,*,#430,.F.);
#271=ORIENTED_EDGE('',*,*,#436,.F.);
#272=ORIENTED_EDGE('',*,*,#427,.F.);
#273=ORIENTED_EDGE('',*,*,#440,.F.);
#274=ORIENTED_EDGE('',*,*,#456,.T.);
#275=ORIENTED_EDGE('',*,*,#367,.F.);
#276=ORIENTED_EDGE('',*,*,#457,.F.);
#277=ORIENTED_EDGE('',*,*,#347,.F.);
#278=ORIENTED_EDGE('',*,*,#348,.T.);
#279=ORIENTED_EDGE('',*,*,#457,.T.);
#280=ORIENTED_EDGE('',*,*,#366,.T.);
#281=ORIENTED_EDGE('',*,*,#458,.F.);
#282=ORIENTED_EDGE('',*,*,#349,.T.);
#283=ORIENTED_EDGE('',*,*,#458,.T.);
#284=ORIENTED_EDGE('',*,*,#369,.T.);
#285=ORIENTED_EDGE('',*,*,#459,.F.);
#286=ORIENTED_EDGE('',*,*,#346,.T.);
#287=ORIENTED_EDGE('',*,*,#459,.T.);
#288=ORIENTED_EDGE('',*,*,#368,.T.);
#289=ORIENTED_EDGE('',*,*,#456,.F.);
#290=ORIENTED_EDGE('',*,*,#460,.T.);
#291=ORIENTED_EDGE('',*,*,#371,.F.);
#292=ORIENTED_EDGE('',*,*,#461,.F.);
#293=ORIENTED_EDGE('',*,*,#351,.F.);
#294=ORIENTED_EDGE('',*,*,#352,.T.);
#295=ORIENTED_EDGE('',*,*,#461,.T.);
#296=ORIENTED_EDGE('',*,*,#370,.T.);
#297=ORIENTED_EDGE('',*,*,#462,.F.);
#298=ORIENTED_EDGE('',*,*,#353,.T.);
#299=ORIENTED_EDGE('',*,*,#462,.T.);
#300=ORIENTED_EDGE('',*,*,#373,.T.);
#301=ORIENTED_EDGE('',*,*,#463,.F.);
#302=ORIENTED_EDGE('',*,*,#350,.T.);
#303=ORIENTED_EDGE('',*,*,#463,.T.);
#304=ORIENTED_EDGE('',*,*,#372,.T.);
#305=ORIENTED_EDGE('',*,*,#460,.F.);
#306=ORIENTED_EDGE('',*,*,#464,.T.);
#307=ORIENTED_EDGE('',*,*,#465,.T.);
#308=ORIENTED_EDGE('',*,*,#466,.F.);
#309=ORIENTED_EDGE('',*,*,#355,.F.);
#310=ORIENTED_EDGE('',*,*,#466,.T.);
#311=ORIENTED_EDGE('',*,*,#467,.T.);
#312=ORIENTED_EDGE('',*,*,#468,.F.);
#313=ORIENTED_EDGE('',*,*,#356,.T.);
#314=ORIENTED_EDGE('',*,*,#468,.T.);
#315=ORIENTED_EDGE('',*,*,#469,.T.);
#316=ORIENTED_EDGE('',*,*,#470,.F.);
#317=ORIENTED_EDGE('',*,*,#357,.T.);
#318=ORIENTED_EDGE('',*,*,#470,.T.);
#319=ORIENTED_EDGE('',*,*,#471,.T.);
#320=ORIENTED_EDGE('',*,*,#464,.F.);
#321=ORIENTED_EDGE('',*,*,#354,.F.);
#322=ORIENTED_EDGE('',*,*,#472,.F.);
#323=ORIENTED_EDGE('',*,*,#467,.F.);
#324=ORIENTED_EDGE('',*,*,#473,.F.);
#325=ORIENTED_EDGE('',*,*,#361,.F.);
#326=ORIENTED_EDGE('',*,*,#473,.T.);
#327=ORIENTED_EDGE('',*,*,#465,.F.);
#328=ORIENTED_EDGE('',*,*,#474,.F.);
#329=ORIENTED_EDGE('',*,*,#358,.F.);
#330=ORIENTED_EDGE('',*,*,#472,.T.);
#331=ORIENTED_EDGE('',*,*,#360,.F.);
#332=ORIENTED_EDGE('',*,*,#475,.F.);
#333=ORIENTED_EDGE('',*,*,#469,.F.);
#334=ORIENTED_EDGE('',*,*,#474,.T.);
#335=ORIENTED_EDGE('',*,*,#471,.F.);
#336=ORIENTED_EDGE('',*,*,#475,.T.);
#337=ORIENTED_EDGE('',*,*,#359,.F.);
#338=EDGE_CURVE('',#476,#477,#572,.T.);
#339=EDGE_CURVE('',#476,#478,#573,.T.);
#340=EDGE_CURVE('',#479,#478,#574,.T.);
#341=EDGE_CURVE('',#480,#479,#575,.T.);
#342=EDGE_CURVE('',#481,#480,#576,.T.);
#343=EDGE_CURVE('',#482,#481,#577,.T.);
#344=EDGE_CURVE('',#482,#483,#578,.T.);
#345=EDGE_CURVE('',#483,#477,#579,.T.);
#346=EDGE_CURVE('',#484,#485,#29,.T.);
#347=EDGE_CURVE('',#484,#486,#580,.T.);
#348=EDGE_CURVE('',#487,#486,#30,.T.);
#349=EDGE_CURVE('',#485,#487,#581,.T.);
#350=EDGE_CURVE('',#488,#489,#31,.T.);
#351=EDGE_CURVE('',#488,#490,#582,.T.);
#352=EDGE_CURVE('',#491,#490,#32,.T.);
#353=EDGE_CURVE('',#489,#491,#583,.T.);
#354=EDGE_CURVE('',#492,#493,#584,.T.);
#355=EDGE_CURVE('',#493,#494,#585,.T.);
#356=EDGE_CURVE('',#495,#494,#586,.T.);
#357=EDGE_CURVE('',#492,#495,#587,.T.);
#358=EDGE_CURVE('',#496,#497,#588,.T.);
#359=EDGE_CURVE('',#497,#498,#589,.T.);
#360=EDGE_CURVE('',#498,#499,#590,.T.);
#361=EDGE_CURVE('',#499,#496,#591,.T.);
#362=EDGE_CURVE('',#500,#501,#592,.T.);
#363=EDGE_CURVE('',#500,#502,#593,.F.);
#364=EDGE_CURVE('',#502,#503,#594,.T.);
#365=EDGE_CURVE('',#503,#501,#595,.T.);
#366=EDGE_CURVE('',#504,#505,#33,.T.);
#367=EDGE_CURVE('',#504,#506,#596,.T.);
#368=EDGE_CURVE('',#507,#506,#34,.T.);
#369=EDGE_CURVE('',#505,#507,#597,.T.);
#370=EDGE_CURVE('',#508,#509,#35,.T.);
#371=EDGE_CURVE('',#508,#510,#598,.T.);
#372=EDGE_CURVE('',#511,#510,#36,.T.);
#373=EDGE_CURVE('',#509,#511,#599,.T.);
#374=EDGE_CURVE('',#512,#513,#600,.T.);
#375=EDGE_CURVE('',#512,#477,#601,.T.);
#376=EDGE_CURVE('',#514,#483,#602,.T.);
#377=EDGE_CURVE('',#514,#515,#603,.T.);
#378=EDGE_CURVE('',#515,#516,#604,.T.);
#379=EDGE_CURVE('',#516,#517,#605,.T.);
#380=EDGE_CURVE('',#517,#513,#606,.T.);
#381=EDGE_CURVE('',#513,#518,#607,.T.);
#382=EDGE_CURVE('',#517,#519,#608,.T.);
#383=EDGE_CURVE('',#520,#519,#609,.T.);
#384=EDGE_CURVE('',#521,#520,#610,.T.);
#385=EDGE_CURVE('',#521,#522,#611,.T.);
#386=EDGE_CURVE('',#523,#522,#612,.T.);
#387=EDGE_CURVE('',#523,#524,#613,.T.);
#388=EDGE_CURVE('',#524,#525,#614,.T.);
#389=EDGE_CURVE('',#479,#525,#615,.T.);
#390=EDGE_CURVE('',#478,#526,#616,.T.);
#391=EDGE_CURVE('',#527,#526,#617,.T.);
#392=EDGE_CURVE('',#518,#527,#37,.F.);
#393=EDGE_CURVE('',#518,#528,#618,.T.);
#394=EDGE_CURVE('',#529,#527,#619,.F.);
#395=EDGE_CURVE('',#528,#529,#620,.T.);
#396=EDGE_CURVE('',#530,#520,#621,.T.);
#397=EDGE_CURVE('',#530,#515,#622,.T.);
#398=EDGE_CURVE('',#531,#514,#623,.T.);
#399=EDGE_CURVE('',#531,#532,#624,.T.);
#400=EDGE_CURVE('',#532,#533,#625,.T.);
#401=EDGE_CURVE('',#533,#521,#626,.T.);
#402=EDGE_CURVE('',#530,#534,#627,.T.);
#403=EDGE_CURVE('',#516,#534,#628,.T.);
#404=EDGE_CURVE('',#535,#535,#38,.T.);
#405=EDGE_CURVE('',#532,#536,#629,.T.);
#406=EDGE_CURVE('',#536,#537,#630,.T.);
#407=EDGE_CURVE('',#533,#537,#631,.T.);
#408=EDGE_CURVE('',#538,#538,#39,.T.);
#409=EDGE_CURVE('',#529,#539,#632,.T.);
#410=EDGE_CURVE('',#476,#539,#633,.T.);
#411=EDGE_CURVE('',#512,#528,#634,.T.);
#412=EDGE_CURVE('',#540,#540,#40,.T.);
#413=EDGE_CURVE('',#536,#523,#635,.T.);
#414=EDGE_CURVE('',#531,#482,#636,.T.);
#415=EDGE_CURVE('',#541,#481,#637,.T.);
#416=EDGE_CURVE('',#541,#524,#638,.T.);
#417=EDGE_CURVE('',#542,#542,#41,.T.);
#418=EDGE_CURVE('',#543,#543,#42,.T.);
#419=EDGE_CURVE('',#544,#544,#43,.T.);
#420=EDGE_CURVE('',#545,#545,#44,.T.);
#421=EDGE_CURVE('',#546,#547,#639,.T.);
#422=EDGE_CURVE('',#547,#500,#45,.F.);
#423=EDGE_CURVE('',#501,#548,#46,.F.);
#424=EDGE_CURVE('',#549,#548,#640,.T.);
#425=EDGE_CURVE('',#549,#550,#47,.F.);
#426=EDGE_CURVE('',#551,#550,#641,.T.);
#427=EDGE_CURVE('',#551,#546,#48,.F.);
#428=EDGE_CURVE('',#502,#552,#49,.T.);
#429=EDGE_CURVE('',#553,#552,#642,.T.);
#430=EDGE_CURVE('',#553,#554,#50,.T.);
#431=EDGE_CURVE('',#554,#555,#643,.T.);
#432=EDGE_CURVE('',#555,#556,#51,.T.);
#433=EDGE_CURVE('',#556,#557,#644,.T.);
#434=EDGE_CURVE('',#557,#503,#52,.T.);
#435=EDGE_CURVE('',#552,#547,#645,.T.);
#436=EDGE_CURVE('',#546,#553,#646,.F.);
#437=EDGE_CURVE('',#548,#557,#647,.F.);
#438=EDGE_CURVE('',#556,#549,#648,.T.);
#439=EDGE_CURVE('',#550,#555,#649,.F.);
#440=EDGE_CURVE('',#554,#551,#650,.T.);
#441=EDGE_CURVE('',#539,#526,#651,.T.);
#442=EDGE_CURVE('',#558,#558,#53,.T.);
#443=EDGE_CURVE('',#559,#559,#54,.T.);
#444=EDGE_CURVE('',#560,#560,#55,.T.);
#445=EDGE_CURVE('',#561,#525,#652,.T.);
#446=EDGE_CURVE('',#480,#561,#653,.T.);
#447=EDGE_CURVE('',#541,#561,#654,.T.);
#448=EDGE_CURVE('',#537,#522,#655,.T.);
#449=EDGE_CURVE('',#562,#562,#56,.T.);
#450=EDGE_CURVE('',#534,#519,#656,.T.);
#451=EDGE_CURVE('',#563,#563,#57,.T.);
#452=EDGE_CURVE('',#564,#564,#58,.T.);
#453=EDGE_CURVE('',#565,#565,#59,.T.);
#454=EDGE_CURVE('',#566,#566,#60,.T.);
#455=EDGE_CURVE('',#567,#567,#61,.T.);
#456=EDGE_CURVE('',#484,#506,#657,.T.);
#457=EDGE_CURVE('',#486,#504,#658,.T.);
#458=EDGE_CURVE('',#487,#505,#659,.T.);
#459=EDGE_CURVE('',#485,#507,#660,.T.);
#460=EDGE_CURVE('',#488,#510,#661,.T.);
#461=EDGE_CURVE('',#490,#508,#662,.T.);
#462=EDGE_CURVE('',#491,#509,#663,.T.);
#463=EDGE_CURVE('',#489,#511,#664,.T.);
#464=EDGE_CURVE('',#493,#568,#665,.T.);
#465=EDGE_CURVE('',#568,#569,#666,.T.);
#466=EDGE_CURVE('',#494,#569,#667,.T.);
#467=EDGE_CURVE('',#569,#570,#668,.T.);
#468=EDGE_CURVE('',#495,#570,#669,.T.);
#469=EDGE_CURVE('',#570,#571,#670,.T.);
#470=EDGE_CURVE('',#492,#571,#671,.T.);
#471=EDGE_CURVE('',#571,#568,#672,.T.);
#472=EDGE_CURVE('',#570,#499,#673,.T.);
#473=EDGE_CURVE('',#496,#569,#674,.T.);
#474=EDGE_CURVE('',#497,#568,#675,.F.);
#475=EDGE_CURVE('',#571,#498,#676,.T.);
#476=VERTEX_POINT('',#1460);
#477=VERTEX_POINT('',#1461);
#478=VERTEX_POINT('',#1463);
#479=VERTEX_POINT('',#1465);
#480=VERTEX_POINT('',#1467);
#481=VERTEX_POINT('',#1469);
#482=VERTEX_POINT('',#1471);
#483=VERTEX_POINT('',#1473);
#484=VERTEX_POINT('',#1476);
#485=VERTEX_POINT('',#1477);
#486=VERTEX_POINT('',#1479);
#487=VERTEX_POINT('',#1481);
#488=VERTEX_POINT('',#1484);
#489=VERTEX_POINT('',#1485);
#490=VERTEX_POINT('',#1487);
#491=VERTEX_POINT('',#1489);
#492=VERTEX_POINT('',#1492);
#493=VERTEX_POINT('',#1493);
#494=VERTEX_POINT('',#1495);
#495=VERTEX_POINT('',#1497);
#496=VERTEX_POINT('',#1501);
#497=VERTEX_POINT('',#1502);
#498=VERTEX_POINT('',#1504);
#499=VERTEX_POINT('',#1506);
#500=VERTEX_POINT('',#1509);
#501=VERTEX_POINT('',#1510);
#502=VERTEX_POINT('',#1512);
#503=VERTEX_POINT('',#1514);
#504=VERTEX_POINT('',#1517);
#505=VERTEX_POINT('',#1518);
#506=VERTEX_POINT('',#1520);
#507=VERTEX_POINT('',#1522);
#508=VERTEX_POINT('',#1525);
#509=VERTEX_POINT('',#1526);
#510=VERTEX_POINT('',#1528);
#511=VERTEX_POINT('',#1530);
#512=VERTEX_POINT('',#1534);
#513=VERTEX_POINT('',#1535);
#514=VERTEX_POINT('',#1538);
#515=VERTEX_POINT('',#1540);
#516=VERTEX_POINT('',#1542);
#517=VERTEX_POINT('',#1544);
#518=VERTEX_POINT('',#1548);
#519=VERTEX_POINT('',#1550);
#520=VERTEX_POINT('',#1552);
#521=VERTEX_POINT('',#1554);
#522=VERTEX_POINT('',#1556);
#523=VERTEX_POINT('',#1558);
#524=VERTEX_POINT('',#1560);
#525=VERTEX_POINT('',#1562);
#526=VERTEX_POINT('',#1565);
#527=VERTEX_POINT('',#1567);
#528=VERTEX_POINT('',#1571);
#529=VERTEX_POINT('',#1573);
#530=VERTEX_POINT('',#1577);
#531=VERTEX_POINT('',#1580);
#532=VERTEX_POINT('',#1582);
#533=VERTEX_POINT('',#1584);
#534=VERTEX_POINT('',#1588);
#535=VERTEX_POINT('',#1591);
#536=VERTEX_POINT('',#1594);
#537=VERTEX_POINT('',#1596);
#538=VERTEX_POINT('',#1599);
#539=VERTEX_POINT('',#1602);
#540=VERTEX_POINT('',#1606);
#541=VERTEX_POINT('',#1611);
#542=VERTEX_POINT('',#1615);
#543=VERTEX_POINT('',#1617);
#544=VERTEX_POINT('',#1619);
#545=VERTEX_POINT('',#1621);
#546=VERTEX_POINT('',#1623);
#547=VERTEX_POINT('',#1624);
#548=VERTEX_POINT('',#1627);
#549=VERTEX_POINT('',#1629);
#550=VERTEX_POINT('',#1631);
#551=VERTEX_POINT('',#1633);
#552=VERTEX_POINT('',#1637);
#553=VERTEX_POINT('',#1639);
#554=VERTEX_POINT('',#1641);
#555=VERTEX_POINT('',#1643);
#556=VERTEX_POINT('',#1645);
#557=VERTEX_POINT('',#1647);
#558=VERTEX_POINT('',#1664);
#559=VERTEX_POINT('',#1667);
#560=VERTEX_POINT('',#1669);
#561=VERTEX_POINT('',#1672);
#562=VERTEX_POINT('',#1682);
#563=VERTEX_POINT('',#1690);
#564=VERTEX_POINT('',#1695);
#565=VERTEX_POINT('',#1699);
#566=VERTEX_POINT('',#1703);
#567=VERTEX_POINT('',#1707);
#568=VERTEX_POINT('',#1731);
#569=VERTEX_POINT('',#1733);
#570=VERTEX_POINT('',#1737);
#571=VERTEX_POINT('',#1741);
#572=LINE('',#1459,#677);
#573=LINE('',#1462,#678);
#574=LINE('',#1464,#679);
#575=LINE('',#1466,#680);
#576=LINE('',#1468,#681);
#577=LINE('',#1470,#682);
#578=LINE('',#1472,#683);
#579=LINE('',#1474,#684);
#580=LINE('',#1478,#685);
#581=LINE('',#1482,#686);
#582=LINE('',#1486,#687);
#583=LINE('',#1490,#688);
#584=LINE('',#1491,#689);
#585=LINE('',#1494,#690);
#586=LINE('',#1496,#691);
#587=LINE('',#1498,#692);
#588=LINE('',#1500,#693);
#589=LINE('',#1503,#694);
#590=LINE('',#1505,#695);
#591=LINE('',#1507,#696);
#592=LINE('',#1508,#697);
#593=LINE('',#1511,#698);
#594=LINE('',#1513,#699);
#595=LINE('',#1515,#700);
#596=LINE('',#1519,#701);
#597=LINE('',#1523,#702);
#598=LINE('',#1527,#703);
#599=LINE('',#1531,#704);
#600=LINE('',#1533,#705);
#601=LINE('',#1536,#706);
#602=LINE('',#1537,#707);
#603=LINE('',#1539,#708);
#604=LINE('',#1541,#709);
#605=LINE('',#1543,#710);
#606=LINE('',#1545,#711);
#607=LINE('',#1547,#712);
#608=LINE('',#1549,#713);
#609=LINE('',#1551,#714);
#610=LINE('',#1553,#715);
#611=LINE('',#1555,#716);
#612=LINE('',#1557,#717);
#613=LINE('',#1559,#718);
#614=LINE('',#1561,#719);
#615=LINE('',#1563,#720);
#616=LINE('',#1564,#721);
#617=LINE('',#1566,#722);
#618=LINE('',#1570,#723);
#619=LINE('',#1572,#724);
#620=LINE('',#1574,#725);
#621=LINE('',#1576,#726);
#622=LINE('',#1578,#727);
#623=LINE('',#1579,#728);
#624=LINE('',#1581,#729);
#625=LINE('',#1583,#730);
#626=LINE('',#1585,#731);
#627=LINE('',#1587,#732);
#628=LINE('',#1589,#733);
#629=LINE('',#1593,#734);
#630=LINE('',#1595,#735);
#631=LINE('',#1597,#736);
#632=LINE('',#1601,#737);
#633=LINE('',#1603,#738);
#634=LINE('',#1604,#739);
#635=LINE('',#1608,#740);
#636=LINE('',#1609,#741);
#637=LINE('',#1610,#742);
#638=LINE('',#1612,#743);
#639=LINE('',#1622,#744);
#640=LINE('',#1628,#745);
#641=LINE('',#1632,#746);
#642=LINE('',#1638,#747);
#643=LINE('',#1642,#748);
#644=LINE('',#1646,#749);
#645=LINE('',#1650,#750);
#646=LINE('',#1651,#751);
#647=LINE('',#1653,#752);
#648=LINE('',#1654,#753);
#649=LINE('',#1656,#754);
#650=LINE('',#1657,#755);
#651=LINE('',#1659,#756);
#652=LINE('',#1671,#757);
#653=LINE('',#1673,#758);
#654=LINE('',#1675,#759);
#655=LINE('',#1678,#760);
#656=LINE('',#1686,#761);
#657=LINE('',#1714,#762);
#658=LINE('',#1715,#763);
#659=LINE('',#1717,#764);
#660=LINE('',#1719,#765);
#661=LINE('',#1722,#766);
#662=LINE('',#1723,#767);
#663=LINE('',#1725,#768);
#664=LINE('',#1727,#769);
#665=LINE('',#1730,#770);
#666=LINE('',#1732,#771);
#667=LINE('',#1734,#772);
#668=LINE('',#1736,#773);
#669=LINE('',#1738,#774);
#670=LINE('',#1740,#775);
#671=LINE('',#1742,#776);
#672=LINE('',#1744,#777);
#673=LINE('',#1746,#778);
#674=LINE('',#1747,#779);
#675=LINE('',#1749,#780);
#676=LINE('',#1751,#781);
#677=VECTOR('',#1166,1.);
#678=VECTOR('',#1167,1.);
#679=VECTOR('',#1168,1.);
#680=VECTOR('',#1169,1.);
#681=VECTOR('',#1170,1.);
#682=VECTOR('',#1171,1.);
#683=VECTOR('',#1172,1.);
#684=VECTOR('',#1173,1.);
#685=VECTOR('',#1176,1.);
#686=VECTOR('',#1179,1.);
#687=VECTOR('',#1182,1.);
#688=VECTOR('',#1185,1.);
#689=VECTOR('',#1186,1.);
#690=VECTOR('',#1187,1.);
#691=VECTOR('',#1188,1.);
#692=VECTOR('',#1189,1.);
#693=VECTOR('',#1192,1.);
#694=VECTOR('',#1193,1.);
#695=VECTOR('',#1194,1.);
#696=VECTOR('',#1195,1.);
#697=VECTOR('',#1196,1.);
#698=VECTOR('',#1197,1.);
#699=VECTOR('',#1198,1.);
#700=VECTOR('',#1199,1.);
#701=VECTOR('',#1202,1.);
#702=VECTOR('',#1205,1.);
#703=VECTOR('',#1208,1.);
#704=VECTOR('',#1211,1.);
#705=VECTOR('',#1214,1.);
#706=VECTOR('',#1215,1.);
#707=VECTOR('',#1216,1.);
#708=VECTOR('',#1217,1.);
#709=VECTOR('',#1218,1.);
#710=VECTOR('',#1219,1.);
#711=VECTOR('',#1220,1.);
#712=VECTOR('',#1223,1.);
#713=VECTOR('',#1224,1.);
#714=VECTOR('',#1225,1.);
#715=VECTOR('',#1226,1.);
#716=VECTOR('',#1227,1.);
#717=VECTOR('',#1228,1.);
#718=VECTOR('',#1229,1.);
#719=VECTOR('',#1230,1.);
#720=VECTOR('',#1231,1.);
#721=VECTOR('',#1232,1.);
#722=VECTOR('',#1233,1.);
#723=VECTOR('',#1238,1.);
#724=VECTOR('',#1239,1.);
#725=VECTOR('',#1240,1.);
#726=VECTOR('',#1243,1.);
#727=VECTOR('',#1244,1.);
#728=VECTOR('',#1245,1.);
#729=VECTOR('',#1246,1.);
#730=VECTOR('',#1247,1.);
#731=VECTOR('',#1248,1.);
#732=VECTOR('',#1251,1.);
#733=VECTOR('',#1252,1.);
#734=VECTOR('',#1257,1.);
#735=VECTOR('',#1258,1.);
#736=VECTOR('',#1259,1.);
#737=VECTOR('',#1264,1.);
#738=VECTOR('',#1265,1.);
#739=VECTOR('',#1266,1.);
#740=VECTOR('',#1271,1.);
#741=VECTOR('',#1272,1.);
#742=VECTOR('',#1273,1.);
#743=VECTOR('',#1274,1.);
#744=VECTOR('',#1285,1.);
#745=VECTOR('',#1290,1.);
#746=VECTOR('',#1293,1.);
#747=VECTOR('',#1300,1.);
#748=VECTOR('',#1303,1.);
#749=VECTOR('',#1306,1.);
#750=VECTOR('',#1311,1.);
#751=VECTOR('',#1312,1.);
#752=VECTOR('',#1315,1.);
#753=VECTOR('',#1316,1.);
#754=VECTOR('',#1319,1.);
#755=VECTOR('',#1320,1.);
#756=VECTOR('',#1323,1.);
#757=VECTOR('',#1340,1.);
#758=VECTOR('',#1341,1.);
#759=VECTOR('',#1344,1.);
#760=VECTOR('',#1349,1.);
#761=VECTOR('',#1362,1.);
#762=VECTOR('',#1407,1.);
#763=VECTOR('',#1408,1.);
#764=VECTOR('',#1411,1.);
#765=VECTOR('',#1414,1.);
#766=VECTOR('',#1419,1.);
#767=VECTOR('',#1420,1.);
#768=VECTOR('',#1423,1.);
#769=VECTOR('',#1426,1.);
#770=VECTOR('',#1431,1.);
#771=VECTOR('',#1432,1.);
#772=VECTOR('',#1433,1.);
#773=VECTOR('',#1436,1.);
#774=VECTOR('',#1437,1.);
#775=VECTOR('',#1440,1.);
#776=VECTOR('',#1441,1.);
#777=VECTOR('',#1444,1.);
#778=VECTOR('',#1447,1.);
#779=VECTOR('',#1448,1.);
#780=VECTOR('',#1451,1.);
#781=VECTOR('',#1454,1.);
#782=EDGE_LOOP('',(#62,#63,#64,#65,#66,#67,#68,#69));
#783=EDGE_LOOP('',(#70,#71,#72,#73));
#784=EDGE_LOOP('',(#74,#75,#76,#77));
#785=EDGE_LOOP('',(#78,#79,#80,#81));
#786=EDGE_LOOP('',(#82,#83,#84,#85));
#787=EDGE_LOOP('',(#86,#87,#88,#89));
#788=EDGE_LOOP('',(#90,#91,#92,#93));
#789=EDGE_LOOP('',(#94,#95,#96,#97));
#790=EDGE_LOOP('',(#98,#99,#100,#101,#102,#103,#104,#105));
#791=EDGE_LOOP('',(#106,#107,#108,#109,#110,#111,#112,#113,#114,#115,#116,
#117,#118,#119));
#792=EDGE_LOOP('',(#120,#121,#122,#123));
#793=EDGE_LOOP('',(#124,#125,#126,#127,#128,#129,#130,#131));
#794=EDGE_LOOP('',(#132,#133,#134,#135));
#795=EDGE_LOOP('',(#136));
#796=EDGE_LOOP('',(#137,#138,#139,#140));
#797=EDGE_LOOP('',(#141));
#798=EDGE_LOOP('',(#142,#143,#144,#145,#146,#147));
#799=EDGE_LOOP('',(#148));
#800=EDGE_LOOP('',(#149,#150,#151,#152,#153,#154,#155,#156));
#801=EDGE_LOOP('',(#157));
#802=EDGE_LOOP('',(#158));
#803=EDGE_LOOP('',(#159));
#804=EDGE_LOOP('',(#160));
#805=EDGE_LOOP('',(#161,#162,#163,#164));
#806=EDGE_LOOP('',(#165,#166,#167,#168,#169,#170,#171,#172));
#807=EDGE_LOOP('',(#173,#174,#175,#176,#177,#178,#179,#180));
#808=EDGE_LOOP('',(#181,#182,#183,#184));
#809=EDGE_LOOP('',(#185,#186,#187,#188));
#810=EDGE_LOOP('',(#189,#190,#191,#192));
#811=EDGE_LOOP('',(#193,#194,#195,#196));
#812=EDGE_LOOP('',(#197,#198,#199,#200));
#813=EDGE_LOOP('',(#201,#202,#203,#204));
#814=EDGE_LOOP('',(#205));
#815=EDGE_LOOP('',(#206));
#816=EDGE_LOOP('',(#207));
#817=EDGE_LOOP('',(#208));
#818=EDGE_LOOP('',(#209,#210,#211,#212));
#819=EDGE_LOOP('',(#213,#214,#215,#216));
#820=EDGE_LOOP('',(#217));
#821=EDGE_LOOP('',(#218,#219,#220,#221));
#822=EDGE_LOOP('',(#222,#223,#224,#225));
#823=EDGE_LOOP('',(#226,#227,#228,#229));
#824=EDGE_LOOP('',(#230));
#825=EDGE_LOOP('',(#231));
#826=EDGE_LOOP('',(#232));
#827=EDGE_LOOP('',(#233));
#828=EDGE_LOOP('',(#234,#235,#236,#237));
#829=EDGE_LOOP('',(#238,#239,#240,#241));
#830=EDGE_LOOP('',(#242));
#831=EDGE_LOOP('',(#243));
#832=EDGE_LOOP('',(#244));
#833=EDGE_LOOP('',(#245));
#834=EDGE_LOOP('',(#246));
#835=EDGE_LOOP('',(#247));
#836=EDGE_LOOP('',(#248));
#837=EDGE_LOOP('',(#249));
#838=EDGE_LOOP('',(#250));
#839=EDGE_LOOP('',(#251));
#840=EDGE_LOOP('',(#252));
#841=EDGE_LOOP('',(#253));
#842=EDGE_LOOP('',(#254));
#843=EDGE_LOOP('',(#255));
#844=EDGE_LOOP('',(#256));
#845=EDGE_LOOP('',(#257));
#846=EDGE_LOOP('',(#258,#259,#260,#261));
#847=EDGE_LOOP('',(#262,#263,#264,#265));
#848=EDGE_LOOP('',(#266,#267,#268,#269));
#849=EDGE_LOOP('',(#270,#271,#272,#273));
#850=EDGE_LOOP('',(#274,#275,#276,#277));
#851=EDGE_LOOP('',(#278,#279,#280,#281));
#852=EDGE_LOOP('',(#282,#283,#284,#285));
#853=EDGE_LOOP('',(#286,#287,#288,#289));
#854=EDGE_LOOP('',(#290,#291,#292,#293));
#855=EDGE_LOOP('',(#294,#295,#296,#297));
#856=EDGE_LOOP('',(#298,#299,#300,#301));
#857=EDGE_LOOP('',(#302,#303,#304,#305));
#858=EDGE_LOOP('',(#306,#307,#308,#309));
#859=EDGE_LOOP('',(#310,#311,#312,#313));
#860=EDGE_LOOP('',(#314,#315,#316,#317));
#861=EDGE_LOOP('',(#318,#319,#320,#321));
#862=EDGE_LOOP('',(#322,#323,#324,#325));
#863=EDGE_LOOP('',(#326,#327,#328,#329));
#864=EDGE_LOOP('',(#330,#331,#332,#333));
#865=EDGE_LOOP('',(#334,#335,#336,#337));
#866=FACE_BOUND('',#782,.T.);
#867=FACE_BOUND('',#783,.T.);
#868=FACE_BOUND('',#784,.T.);
#869=FACE_BOUND('',#785,.T.);
#870=FACE_BOUND('',#786,.T.);
#871=FACE_BOUND('',#787,.T.);
#872=FACE_BOUND('',#788,.T.);
#873=FACE_BOUND('',#789,.T.);
#874=FACE_BOUND('',#790,.T.);
#875=FACE_BOUND('',#791,.T.);
#876=FACE_BOUND('',#792,.T.);
#877=FACE_BOUND('',#793,.T.);
#878=FACE_BOUND('',#794,.T.);
#879=FACE_BOUND('',#795,.T.);
#880=FACE_BOUND('',#796,.T.);
#881=FACE_BOUND('',#797,.T.);
#882=FACE_BOUND('',#798,.T.);
#883=FACE_BOUND('',#799,.T.);
#884=FACE_BOUND('',#800,.T.);
#885=FACE_BOUND('',#801,.T.);
#886=FACE_BOUND('',#802,.T.);
#887=FACE_BOUND('',#803,.T.);
#888=FACE_BOUND('',#804,.T.);
#889=FACE_BOUND('',#805,.T.);
#890=FACE_BOUND('',#806,.T.);
#891=FACE_BOUND('',#807,.T.);
#892=FACE_BOUND('',#808,.T.);
#893=FACE_BOUND('',#809,.T.);
#894=FACE_BOUND('',#810,.T.);
#895=FACE_BOUND('',#811,.T.);
#896=FACE_BOUND('',#812,.T.);
#897=FACE_BOUND('',#813,.T.);
#898=FACE_BOUND('',#814,.T.);
#899=FACE_BOUND('',#815,.T.);
#900=FACE_BOUND('',#816,.T.);
#901=FACE_BOUND('',#817,.T.);
#902=FACE_BOUND('',#818,.T.);
#903=FACE_BOUND('',#819,.T.);
#904=FACE_BOUND('',#820,.T.);
#905=FACE_BOUND('',#821,.T.);
#906=FACE_BOUND('',#822,.T.);
#907=FACE_BOUND('',#823,.T.);
#908=FACE_BOUND('',#824,.T.);
#909=FACE_BOUND('',#825,.T.);
#910=FACE_BOUND('',#826,.T.);
#911=FACE_BOUND('',#827,.T.);
#912=FACE_BOUND('',#828,.T.);
#913=FACE_BOUND('',#829,.T.);
#914=FACE_BOUND('',#830,.T.);
#915=FACE_BOUND('',#831,.T.);
#916=FACE_BOUND('',#832,.T.);
#917=FACE_BOUND('',#833,.T.);
#918=FACE_BOUND('',#834,.T.);
#919=FACE_BOUND('',#835,.T.);
#920=FACE_BOUND('',#836,.T.);
#921=FACE_BOUND('',#837,.T.);
#922=FACE_BOUND('',#838,.T.);
#923=FACE_BOUND('',#839,.T.);
#924=FACE_BOUND('',#840,.T.);
#925=FACE_BOUND('',#841,.T.);
#926=FACE_BOUND('',#842,.T.);
#927=FACE_BOUND('',#843,.T.);
#928=FACE_BOUND('',#844,.T.);
#929=FACE_BOUND('',#845,.T.);
#930=FACE_BOUND('',#846,.T.);
#931=FACE_BOUND('',#847,.T.);
#932=FACE_BOUND('',#848,.T.);
#933=FACE_BOUND('',#849,.T.);
#934=FACE_BOUND('',#850,.T.);
#935=FACE_BOUND('',#851,.T.);
#936=FACE_BOUND('',#852,.T.);
#937=FACE_BOUND('',#853,.T.);
#938=FACE_BOUND('',#854,.T.);
#939=FACE_BOUND('',#855,.T.);
#940=FACE_BOUND('',#856,.T.);
#941=FACE_BOUND('',#857,.T.);
#942=FACE_BOUND('',#858,.T.);
#943=FACE_BOUND('',#859,.T.);
#944=FACE_BOUND('',#860,.T.);
#945=FACE_BOUND('',#861,.T.);
#946=FACE_BOUND('',#862,.T.);
#947=FACE_BOUND('',#863,.T.);
#948=FACE_BOUND('',#864,.T.);
#949=FACE_BOUND('',#865,.T.);
#950=PLANE('',#1068);
#951=PLANE('',#1073);
#952=PLANE('',#1078);
#953=PLANE('',#1079);
#954=PLANE('',#1082);
#955=PLANE('',#1083);
#956=PLANE('',#1085);
#957=PLANE('',#1087);
#958=PLANE('',#1089);
#959=PLANE('',#1090);
#960=PLANE('',#1099);
#961=PLANE('',#1104);
#962=PLANE('',#1105);
#963=PLANE('',#1106);
#964=PLANE('',#1107);
#965=PLANE('',#1108);
#966=PLANE('',#1109);
#967=PLANE('',#1115);
#968=PLANE('',#1116);
#969=PLANE('',#1117);
#970=PLANE('',#1118);
#971=PLANE('',#1119);
#972=PLANE('',#1122);
#973=PLANE('',#1123);
#974=PLANE('',#1124);
#975=PLANE('',#1125);
#976=PLANE('',#1128);
#977=PLANE('',#1129);
#978=PLANE('',#1132);
#979=PLANE('',#1135);
#980=PLANE('',#1138);
#981=PLANE('',#1141);
#982=PLANE('',#1146);
#983=PLANE('',#1148);
#984=PLANE('',#1150);
#985=PLANE('',#1152);
#986=PLANE('',#1154);
#987=PLANE('',#1155);
#988=PLANE('',#1156);
#989=PLANE('',#1157);
#990=PLANE('',#1158);
#991=PLANE('',#1159);
#992=PLANE('',#1160);
#993=PLANE('',#1161);
#994=ADVANCED_FACE('',(#866,#867,#868,#869),#950,.T.);
#995=ADVANCED_FACE('',(#870,#871,#872,#873),#951,.T.);
#996=ADVANCED_FACE('',(#874),#952,.F.);
#997=ADVANCED_FACE('',(#875),#953,.F.);
#998=ADVANCED_FACE('',(#876),#12,.T.);
#999=ADVANCED_FACE('',(#877),#954,.F.);
#1000=ADVANCED_FACE('',(#878,#879),#955,.F.);
#1001=ADVANCED_FACE('',(#880,#881),#956,.F.);
#1002=ADVANCED_FACE('',(#882,#883),#957,.F.);
#1003=ADVANCED_FACE('',(#884),#958,.T.);
#1004=ADVANCED_FACE('',(#885,#886,#887,#888,#889,#890),#959,.F.);
#1005=ADVANCED_FACE('',(#891),#960,.T.);
#1006=ADVANCED_FACE('',(#892),#961,.T.);
#1007=ADVANCED_FACE('',(#893),#962,.F.);
#1008=ADVANCED_FACE('',(#894),#963,.F.);
#1009=ADVANCED_FACE('',(#895),#964,.F.);
#1010=ADVANCED_FACE('',(#896),#965,.T.);
#1011=ADVANCED_FACE('',(#897),#966,.F.);
#1012=ADVANCED_FACE('',(#898,#899),#13,.F.);
#1013=ADVANCED_FACE('',(#900,#901),#14,.F.);
#1014=ADVANCED_FACE('',(#902),#967,.F.);
#1015=ADVANCED_FACE('',(#903),#968,.T.);
#1016=ADVANCED_FACE('',(#904,#905),#969,.F.);
#1017=ADVANCED_FACE('',(#906),#970,.T.);
#1018=ADVANCED_FACE('',(#907),#971,.F.);
#1019=ADVANCED_FACE('',(#908,#909),#15,.F.);
#1020=ADVANCED_FACE('',(#910),#972,.F.);
#1021=ADVANCED_FACE('',(#911),#973,.F.);
#1022=ADVANCED_FACE('',(#912),#974,.F.);
#1023=ADVANCED_FACE('',(#913),#975,.T.);
#1024=ADVANCED_FACE('',(#914,#915),#16,.F.);
#1025=ADVANCED_FACE('',(#916),#976,.F.);
#1026=ADVANCED_FACE('',(#917),#977,.F.);
#1027=ADVANCED_FACE('',(#918,#919),#17,.F.);
#1028=ADVANCED_FACE('',(#920),#978,.T.);
#1029=ADVANCED_FACE('',(#921,#922),#18,.F.);
#1030=ADVANCED_FACE('',(#923),#979,.T.);
#1031=ADVANCED_FACE('',(#924,#925),#19,.F.);
#1032=ADVANCED_FACE('',(#926),#980,.T.);
#1033=ADVANCED_FACE('',(#927,#928),#20,.F.);
#1034=ADVANCED_FACE('',(#929),#981,.T.);
#1035=ADVANCED_FACE('',(#930),#21,.T.);
#1036=ADVANCED_FACE('',(#931),#22,.T.);
#1037=ADVANCED_FACE('',(#932),#23,.T.);
#1038=ADVANCED_FACE('',(#933),#24,.T.);
#1039=ADVANCED_FACE('',(#934),#982,.T.);
#1040=ADVANCED_FACE('',(#935),#25,.F.);
#1041=ADVANCED_FACE('',(#936),#983,.F.);
#1042=ADVANCED_FACE('',(#937),#26,.F.);
#1043=ADVANCED_FACE('',(#938),#984,.T.);
#1044=ADVANCED_FACE('',(#939),#27,.F.);
#1045=ADVANCED_FACE('',(#940),#985,.F.);
#1046=ADVANCED_FACE('',(#941),#28,.F.);
#1047=ADVANCED_FACE('',(#942),#986,.T.);
#1048=ADVANCED_FACE('',(#943),#987,.F.);
#1049=ADVANCED_FACE('',(#944),#988,.F.);
#1050=ADVANCED_FACE('',(#945),#989,.T.);
#1051=ADVANCED_FACE('',(#946),#990,.T.);
#1052=ADVANCED_FACE('',(#947),#991,.F.);
#1053=ADVANCED_FACE('',(#948),#992,.T.);
#1054=ADVANCED_FACE('',(#949),#993,.F.);
#1055=CLOSED_SHELL('',(#994,#995,#996,#997,#998,#999,#1000,#1001,#1002,
#1003,#1004,#1005,#1006,#1007,#1008,#1009,#1010,#1011,#1012,#1013,#1014,
#1015,#1016,#1017,#1018,#1019,#1020,#1021,#1022,#1023,#1024,#1025,#1026,
#1027,#1028,#1029,#1030,#1031,#1032,#1033,#1034,#1035,#1036,#1037,#1038,
#1039,#1040,#1041,#1042,#1043,#1044,#1045,#1046,#1047,#1048,#1049,#1050,
#1051,#1052,#1053,#1054));
#1056=STYLED_ITEM('',(#1057),#1064);
#1057=PRESENTATION_STYLE_ASSIGNMENT((#1058));
#1058=SURFACE_STYLE_USAGE(.BOTH.,#1059);
#1059=SURFACE_SIDE_STYLE('',(#1060));
#1060=SURFACE_STYLE_FILL_AREA(#1061);
#1061=FILL_AREA_STYLE('',(#1062));
#1062=FILL_AREA_STYLE_COLOUR('',#1063);
#1063=COLOUR_RGB('',0.917647058823529,0.917647058823529,0.917647058823529);
#1064=MANIFOLD_SOLID_BREP('Part 1',#1055);
#1065=SHAPE_DEFINITION_REPRESENTATION(#1759,#1066);
#1066=SHAPE_REPRESENTATION('Part 1',(#1067),#1754);
#1067=AXIS2_PLACEMENT_3D('',#1457,#1162,#1163);
#1068=AXIS2_PLACEMENT_3D('',#1458,#1164,#1165);
#1069=AXIS2_PLACEMENT_3D('',#1475,#1174,#1175);
#1070=AXIS2_PLACEMENT_3D('',#1480,#1177,#1178);
#1071=AXIS2_PLACEMENT_3D('',#1483,#1180,#1181);
#1072=AXIS2_PLACEMENT_3D('',#1488,#1183,#1184);
#1073=AXIS2_PLACEMENT_3D('',#1499,#1190,#1191);
#1074=AXIS2_PLACEMENT_3D('',#1516,#1200,#1201);
#1075=AXIS2_PLACEMENT_3D('',#1521,#1203,#1204);
#1076=AXIS2_PLACEMENT_3D('',#1524,#1206,#1207);
#1077=AXIS2_PLACEMENT_3D('',#1529,#1209,#1210);
#1078=AXIS2_PLACEMENT_3D('',#1532,#1212,#1213);
#1079=AXIS2_PLACEMENT_3D('',#1546,#1221,#1222);
#1080=AXIS2_PLACEMENT_3D('',#1568,#1234,#1235);
#1081=AXIS2_PLACEMENT_3D('',#1569,#1236,#1237);
#1082=AXIS2_PLACEMENT_3D('',#1575,#1241,#1242);
#1083=AXIS2_PLACEMENT_3D('',#1586,#1249,#1250);
#1084=AXIS2_PLACEMENT_3D('',#1590,#1253,#1254);
#1085=AXIS2_PLACEMENT_3D('',#1592,#1255,#1256);
#1086=AXIS2_PLACEMENT_3D('',#1598,#1260,#1261);
#1087=AXIS2_PLACEMENT_3D('',#1600,#1262,#1263);
#1088=AXIS2_PLACEMENT_3D('',#1605,#1267,#1268);
#1089=AXIS2_PLACEMENT_3D('',#1607,#1269,#1270);
#1090=AXIS2_PLACEMENT_3D('',#1613,#1275,#1276);
#1091=AXIS2_PLACEMENT_3D('',#1614,#1277,#1278);
#1092=AXIS2_PLACEMENT_3D('',#1616,#1279,#1280);
#1093=AXIS2_PLACEMENT_3D('',#1618,#1281,#1282);
#1094=AXIS2_PLACEMENT_3D('',#1620,#1283,#1284);
#1095=AXIS2_PLACEMENT_3D('',#1625,#1286,#1287);
#1096=AXIS2_PLACEMENT_3D('',#1626,#1288,#1289);
#1097=AXIS2_PLACEMENT_3D('',#1630,#1291,#1292);
#1098=AXIS2_PLACEMENT_3D('',#1634,#1294,#1295);
#1099=AXIS2_PLACEMENT_3D('',#1635,#1296,#1297);
#1100=AXIS2_PLACEMENT_3D('',#1636,#1298,#1299);
#1101=AXIS2_PLACEMENT_3D('',#1640,#1301,#1302);
#1102=AXIS2_PLACEMENT_3D('',#1644,#1304,#1305);
#1103=AXIS2_PLACEMENT_3D('',#1648,#1307,#1308);
#1104=AXIS2_PLACEMENT_3D('',#1649,#1309,#1310);
#1105=AXIS2_PLACEMENT_3D('',#1652,#1313,#1314);
#1106=AXIS2_PLACEMENT_3D('',#1655,#1317,#1318);
#1107=AXIS2_PLACEMENT_3D('',#1658,#1321,#1322);
#1108=AXIS2_PLACEMENT_3D('',#1660,#1324,#1325);
#1109=AXIS2_PLACEMENT_3D('',#1661,#1326,#1327);
#1110=AXIS2_PLACEMENT_3D('',#1662,#1328,#1329);
#1111=AXIS2_PLACEMENT_3D('',#1663,#1330,#1331);
#1112=AXIS2_PLACEMENT_3D('',#1665,#1332,#1333);
#1113=AXIS2_PLACEMENT_3D('',#1666,#1334,#1335);
#1114=AXIS2_PLACEMENT_3D('',#1668,#1336,#1337);
#1115=AXIS2_PLACEMENT_3D('',#1670,#1338,#1339);
#1116=AXIS2_PLACEMENT_3D('',#1674,#1342,#1343);
#1117=AXIS2_PLACEMENT_3D('',#1676,#1345,#1346);
#1118=AXIS2_PLACEMENT_3D('',#1677,#1347,#1348);
#1119=AXIS2_PLACEMENT_3D('',#1679,#1350,#1351);
#1120=AXIS2_PLACEMENT_3D('',#1680,#1352,#1353);
#1121=AXIS2_PLACEMENT_3D('',#1681,#1354,#1355);
#1122=AXIS2_PLACEMENT_3D('',#1683,#1356,#1357);
#1123=AXIS2_PLACEMENT_3D('',#1684,#1358,#1359);
#1124=AXIS2_PLACEMENT_3D('',#1685,#1360,#1361);
#1125=AXIS2_PLACEMENT_3D('',#1687,#1363,#1364);
#1126=AXIS2_PLACEMENT_3D('',#1688,#1365,#1366);
#1127=AXIS2_PLACEMENT_3D('',#1689,#1367,#1368);
#1128=AXIS2_PLACEMENT_3D('',#1691,#1369,#1370);
#1129=AXIS2_PLACEMENT_3D('',#1692,#1371,#1372);
#1130=AXIS2_PLACEMENT_3D('',#1693,#1373,#1374);
#1131=AXIS2_PLACEMENT_3D('',#1694,#1375,#1376);
#1132=AXIS2_PLACEMENT_3D('',#1696,#1377,#1378);
#1133=AXIS2_PLACEMENT_3D('',#1697,#1379,#1380);
#1134=AXIS2_PLACEMENT_3D('',#1698,#1381,#1382);
#1135=AXIS2_PLACEMENT_3D('',#1700,#1383,#1384);
#1136=AXIS2_PLACEMENT_3D('',#1701,#1385,#1386);
#1137=AXIS2_PLACEMENT_3D('',#1702,#1387,#1388);
#1138=AXIS2_PLACEMENT_3D('',#1704,#1389,#1390);
#1139=AXIS2_PLACEMENT_3D('',#1705,#1391,#1392);
#1140=AXIS2_PLACEMENT_3D('',#1706,#1393,#1394);
#1141=AXIS2_PLACEMENT_3D('',#1708,#1395,#1396);
#1142=AXIS2_PLACEMENT_3D('',#1709,#1397,#1398);
#1143=AXIS2_PLACEMENT_3D('',#1710,#1399,#1400);
#1144=AXIS2_PLACEMENT_3D('',#1711,#1401,#1402);
#1145=AXIS2_PLACEMENT_3D('',#1712,#1403,#1404);
#1146=AXIS2_PLACEMENT_3D('',#1713,#1405,#1406);
#1147=AXIS2_PLACEMENT_3D('',#1716,#1409,#1410);
#1148=AXIS2_PLACEMENT_3D('',#1718,#1412,#1413);
#1149=AXIS2_PLACEMENT_3D('',#1720,#1415,#1416);
#1150=AXIS2_PLACEMENT_3D('',#1721,#1417,#1418);
#1151=AXIS2_PLACEMENT_3D('',#1724,#1421,#1422);
#1152=AXIS2_PLACEMENT_3D('',#1726,#1424,#1425);
#1153=AXIS2_PLACEMENT_3D('',#1728,#1427,#1428);
#1154=AXIS2_PLACEMENT_3D('',#1729,#1429,#1430);
#1155=AXIS2_PLACEMENT_3D('',#1735,#1434,#1435);
#1156=AXIS2_PLACEMENT_3D('',#1739,#1438,#1439);
#1157=AXIS2_PLACEMENT_3D('',#1743,#1442,#1443);
#1158=AXIS2_PLACEMENT_3D('',#1745,#1445,#1446);
#1159=AXIS2_PLACEMENT_3D('',#1748,#1449,#1450);
#1160=AXIS2_PLACEMENT_3D('',#1750,#1452,#1453);
#1161=AXIS2_PLACEMENT_3D('',#1752,#1455,#1456);
#1162=DIRECTION('',(0.,0.,1.));
#1163=DIRECTION('',(1.,0.,0.));
#1164=DIRECTION('',(-0.258819045102521,0.965925826289068,0.));
#1165=DIRECTION('',(-0.965925826289068,-0.258819045102521,0.));
#1166=DIRECTION('',(0.,0.,-1.));
#1167=DIRECTION('',(-0.965925826289068,-0.258819045102521,0.));
#1168=DIRECTION('',(0.,0.,-1.));
#1169=DIRECTION('',(-0.965925826289068,-0.258819045102521,0.));
#1170=DIRECTION('',(0.,0.,-1.));
#1171=DIRECTION('',(-0.965925826289068,-0.258819045102521,0.));
#1172=DIRECTION('',(0.,0.,-1.));
#1173=DIRECTION('',(-0.965925826289068,-0.258819045102521,0.));
#1174=DIRECTION('',(-0.258819045102521,0.965925826289068,0.));
#1175=DIRECTION('',(-0.965925826289068,-0.258819045102521,0.));
#1176=DIRECTION('',(0.965925826289068,0.258819045102521,0.));
#1177=DIRECTION('',(-0.258819045102521,0.965925826289068,0.));
#1178=DIRECTION('',(-0.965925826289068,-0.258819045102521,0.));
#1179=DIRECTION('',(0.965925826289068,0.258819045102521,0.));
#1180=DIRECTION('',(-0.258819045102521,0.965925826289068,0.));
#1181=DIRECTION('',(-0.965925826289068,-0.258819045102521,0.));
#1182=DIRECTION('',(0.965925826289068,0.258819045102521,0.));
#1183=DIRECTION('',(-0.258819045102521,0.965925826289068,0.));
#1184=DIRECTION('',(-0.965925826289068,-0.258819045102521,0.));
#1185=DIRECTION('',(0.965925826289068,0.258819045102521,0.));
#1186=DIRECTION('',(0.,0.,1.));
#1187=DIRECTION('',(-0.965925826289068,-0.258819045102521,0.));
#1188=DIRECTION('',(0.,0.,1.));
#1189=DIRECTION('',(-0.965925826289068,-0.258819045102521,0.));
#1190=DIRECTION('',(0.258819045102521,-0.965925826289068,0.));
#1191=DIRECTION('',(0.965925826289068,0.258819045102521,0.));
#1192=DIRECTION('',(0.965925826289068,0.258819045102521,0.));
#1193=DIRECTION('',(0.,0.,-1.));
#1194=DIRECTION('',(-0.965925826289068,-0.258819045102521,0.));
#1195=DIRECTION('',(0.,0.,1.));
#1196=DIRECTION('',(0.,0.,-1.));
#1197=DIRECTION('',(0.965925826289068,0.258819045102521,0.));
#1198=DIRECTION('',(0.,0.,-1.));
#1199=DIRECTION('',(0.965925826289068,0.258819045102521,0.));
#1200=DIRECTION('',(0.258819045102521,-0.965925826289068,0.));
#1201=DIRECTION('',(0.,0.,-1.));
#1202=DIRECTION('',(-0.965925826289068,-0.258819045102521,0.));
#1203=DIRECTION('',(0.258819045102521,-0.965925826289068,0.));
#1204=DIRECTION('',(0.,0.,1.));
#1205=DIRECTION('',(-0.965925826289068,-0.258819045102521,0.));
#1206=DIRECTION('',(0.258819045102521,-0.965925826289068,0.));
#1207=DIRECTION('',(0.,0.,-1.));
#1208=DIRECTION('',(-0.965925826289068,-0.258819045102521,0.));
#1209=DIRECTION('',(0.258819045102521,-0.965925826289068,0.));
#1210=DIRECTION('',(0.,0.,1.));
#1211=DIRECTION('',(-0.965925826289068,-0.258819045102521,0.));
#1212=DIRECTION('',(0.,0.,-1.));
#1213=DIRECTION('',(-1.,0.,0.));
#1214=DIRECTION('',(-0.965925826289068,-0.258819045102521,0.));
#1215=DIRECTION('',(0.258819045102521,-0.965925826289068,0.));
#1216=DIRECTION('',(0.258819045102521,-0.965925826289068,0.));
#1217=DIRECTION('',(-0.965925826289068,-0.258819045102521,0.));
#1218=DIRECTION('',(0.258819045102521,-0.965925826289068,0.));
#1219=DIRECTION('',(-0.965925826289068,-0.258819045102521,0.));
#1220=DIRECTION('',(0.258819045102521,-0.965925826289068,0.));
#1221=DIRECTION('',(-0.965925826289068,-0.258819045102521,0.));
#1222=DIRECTION('',(0.258819045102521,-0.965925826289068,0.));
#1223=DIRECTION('',(7.2280144832367E-17,-2.69753172892831E-16,1.));
#1224=DIRECTION('',(7.2280144832367E-17,-2.69753172892831E-16,1.));
#1225=DIRECTION('',(0.258819045102521,-0.965925826289068,0.));
#1226=DIRECTION('',(0.,0.,-1.));
#1227=DIRECTION('',(0.258819045102521,-0.965925826289068,0.));
#1228=DIRECTION('',(-7.2280144832367E-17,2.69753172892831E-16,-1.));
#1229=DIRECTION('',(0.258819045102521,-0.965925826289068,0.));
#1230=DIRECTION('',(0.,0.,-1.));
#1231=DIRECTION('',(-0.258819045102521,0.965925826289068,0.));
#1232=DIRECTION('',(-0.258819045102521,0.965925826289068,0.));
#1233=DIRECTION('',(7.2280144832367E-17,-2.69753172892831E-16,1.));
#1234=DIRECTION('',(-0.965925826289068,-0.258819045102521,0.));
#1235=DIRECTION('',(0.258819045102521,-0.965925826289068,0.));
#1236=DIRECTION('',(0.965925826289068,0.258819045102521,0.));
#1237=DIRECTION('',(-0.258819045102521,0.965925826289068,0.));
#1238=DIRECTION('',(0.965925826289068,0.258819045102521,0.));
#1239=DIRECTION('',(0.965925826289068,0.258819045102521,0.));
#1240=DIRECTION('',(7.2280144832367E-17,-2.69753172892831E-16,1.));
#1241=DIRECTION('',(-0.258819045102521,0.965925826289068,0.));
#1242=DIRECTION('',(-0.965925826289068,-0.258819045102521,0.));
#1243=DIRECTION('',(-0.965925826289068,-0.258819045102521,0.));
#1244=DIRECTION('',(0.,0.,-1.));
#1245=DIRECTION('',(0.,0.,-1.));
#1246=DIRECTION('',(-0.965925826289068,-0.258819045102521,0.));
#1247=DIRECTION('',(0.,0.,-1.));
#1248=DIRECTION('',(-0.965925826289068,-0.258819045102521,0.));
#1249=DIRECTION('',(-0.965925826289068,-0.258819045102521,0.));
#1250=DIRECTION('',(0.258819045102521,-0.965925826289068,0.));
#1251=DIRECTION('',(0.258819045102521,-0.965925826289068,0.));
#1252=DIRECTION('',(7.2280144832367E-17,-2.69753172892831E-16,1.));
#1253=DIRECTION('',(0.965925826289068,0.258819045102521,0.));
#1254=DIRECTION('',(-0.25881904510252,0.965925826289069,0.));
#1255=DIRECTION('',(-0.965925826289068,-0.258819045102521,0.));
#1256=DIRECTION('',(0.258819045102521,-0.965925826289068,0.));
#1257=DIRECTION('',(0.258819045102521,-0.965925826289068,0.));
#1258=DIRECTION('',(-7.2280144832367E-17,2.69753172892831E-16,-1.));
#1259=DIRECTION('',(0.258819045102521,-0.965925826289068,0.));
#1260=DIRECTION('',(0.965925826289068,0.258819045102521,0.));
#1261=DIRECTION('',(-0.25881904510252,0.965925826289069,0.));
#1262=DIRECTION('',(-0.965925826289068,-0.258819045102521,0.));
#1263=DIRECTION('',(0.258819045102521,-0.965925826289068,0.));
#1264=DIRECTION('',(7.2280144832367E-17,-2.69753172892831E-16,1.));
#1265=DIRECTION('',(-0.258819045102521,0.965925826289068,0.));
#1266=DIRECTION('',(7.2280144832367E-17,-2.69753172892831E-16,1.));
#1267=DIRECTION('',(0.965925826289068,0.258819045102521,0.));
#1268=DIRECTION('',(-0.258819045102525,0.965925826289067,0.));
#1269=DIRECTION('',(0.,0.,-1.));
#1270=DIRECTION('',(-1.,0.,0.));
#1271=DIRECTION('',(-0.965925826289068,-0.258819045102521,0.));
#1272=DIRECTION('',(0.258819045102521,-0.965925826289068,0.));
#1273=DIRECTION('',(0.258819045102521,-0.965925826289068,0.));
#1274=DIRECTION('',(-0.965925826289068,-0.258819045102521,0.));
#1275=DIRECTION('',(-0.965925826289068,-0.258819045102521,0.));
#1276=DIRECTION('',(0.258819045102521,-0.965925826289068,0.));
#1277=DIRECTION('',(-0.965925826289068,-0.258819045102521,0.));
#1278=DIRECTION('',(0.258819045102521,-0.965925826289068,0.));
#1279=DIRECTION('',(-0.965925826289068,-0.258819045102521,0.));
#1280=DIRECTION('',(0.258819045102521,-0.965925826289068,0.));
#1281=DIRECTION('',(-0.965925826289068,-0.258819045102521,0.));
#1282=DIRECTION('',(0.258819045102521,-0.965925826289068,0.));
#1283=DIRECTION('',(-0.965925826289068,-0.258819045102521,0.));
#1284=DIRECTION('',(0.258819045102521,-0.965925826289068,0.));
#1285=DIRECTION('',(0.258819045102521,-0.965925826289068,0.));
#1286=DIRECTION('',(-0.965925826289068,-0.258819045102521,0.));
#1287=DIRECTION('',(0.258819045102521,-0.965925826289068,0.));
#1288=DIRECTION('',(-0.965925826289068,-0.258819045102521,0.));
#1289=DIRECTION('',(0.258819045102521,-0.965925826289068,0.));
#1290=DIRECTION('',(0.258819045102521,-0.965925826289068,0.));
#1291=DIRECTION('',(-0.965925826289068,-0.258819045102521,0.));
#1292=DIRECTION('',(0.258819045102521,-0.965925826289068,0.));
#1293=DIRECTION('',(0.,0.,-1.));
#1294=DIRECTION('',(-0.965925826289068,-0.258819045102521,0.));
#1295=DIRECTION('',(0.258819045102521,-0.965925826289068,0.));
#1296=DIRECTION('',(-0.965925826289068,-0.258819045102521,0.));
#1297=DIRECTION('',(0.258819045102521,-0.965925826289068,0.));
#1298=DIRECTION('',(-0.965925826289068,-0.258819045102521,0.));
#1299=DIRECTION('',(0.258819045102521,-0.965925826289068,0.));
#1300=DIRECTION('',(0.258819045102521,-0.965925826289068,0.));
#1301=DIRECTION('',(-0.965925826289068,-0.258819045102521,0.));
#1302=DIRECTION('',(0.258819045102521,-0.965925826289068,0.));
#1303=DIRECTION('',(0.,0.,-1.));
#1304=DIRECTION('',(-0.965925826289068,-0.258819045102521,0.));
#1305=DIRECTION('',(0.258819045102521,-0.965925826289068,0.));
#1306=DIRECTION('',(0.258819045102521,-0.965925826289068,0.));
#1307=DIRECTION('',(-0.965925826289068,-0.258819045102521,0.));
#1308=DIRECTION('',(0.258819045102521,-0.965925826289068,0.));
#1309=DIRECTION('',(0.,0.,1.));
#1310=DIRECTION('',(1.,0.,0.));
#1311=DIRECTION('',(0.965925826289068,0.258819045102521,0.));
#1312=DIRECTION('',(0.965925826289068,0.258819045102521,0.));
#1313=DIRECTION('',(0.,0.,1.));
#1314=DIRECTION('',(1.,0.,0.));
#1315=DIRECTION('',(0.965925826289068,0.258819045102521,0.));
#1316=DIRECTION('',(0.965925826289068,0.258819045102521,0.));
#1317=DIRECTION('',(0.258819045102521,-0.965925826289068,0.));
#1318=DIRECTION('',(0.965925826289068,0.258819045102521,0.));
#1319=DIRECTION('',(0.965925826289068,0.258819045102521,0.));
#1320=DIRECTION('',(0.965925826289068,0.258819045102521,0.));
#1321=DIRECTION('',(0.258819045102521,-0.965925826289068,-2.7926903448599E-16));
#1322=DIRECTION('',(0.965925826289068,0.258819045102521,0.));
#1323=DIRECTION('',(-0.965925826289068,-0.258819045102521,0.));
#1324=DIRECTION('',(0.,0.,1.));
#1325=DIRECTION('',(1.,0.,0.));
#1326=DIRECTION('',(0.258819045102521,-0.965925826289068,-2.7926903448599E-16));
#1327=DIRECTION('',(0.965925826289068,0.258819045102521,0.));
#1328=DIRECTION('',(-0.965925826289068,-0.258819045102521,0.));
#1329=DIRECTION('',(0.258819045102521,-0.965925826289068,0.));
#1330=DIRECTION('',(0.965925826289068,0.258819045102521,0.));
#1331=DIRECTION('',(-0.258819045102525,0.965925826289067,0.));
#1332=DIRECTION('',(-0.965925826289068,-0.258819045102521,0.));
#1333=DIRECTION('',(0.258819045102521,-0.965925826289068,0.));
#1334=DIRECTION('',(0.965925826289068,0.258819045102521,0.));
#1335=DIRECTION('',(-0.25881904510252,0.965925826289069,0.));
#1336=DIRECTION('',(0.965925826289068,0.258819045102521,0.));
#1337=DIRECTION('',(-0.25881904510252,0.965925826289069,0.));
#1338=DIRECTION('',(0.,0.,1.));
#1339=DIRECTION('',(1.,0.,0.));
#1340=DIRECTION('',(-0.965925826289068,-0.258819045102521,0.));
#1341=DIRECTION('',(-0.258819045102521,0.965925826289068,0.));
#1342=DIRECTION('',(-0.258819045102521,0.965925826289068,0.));
#1343=DIRECTION('',(-0.965925826289068,-0.258819045102521,0.));
#1344=DIRECTION('',(0.,0.,-1.));
#1345=DIRECTION('',(-0.965925826289068,-0.258819045102521,0.));
#1346=DIRECTION('',(0.258819045102521,-0.965925826289068,0.));
#1347=DIRECTION('',(0.,0.,-1.));
#1348=DIRECTION('',(-1.,0.,0.));
#1349=DIRECTION('',(-0.965925826289068,-0.258819045102521,0.));
#1350=DIRECTION('',(-0.258819045102521,0.965925826289068,2.7926903448599E-16));
#1351=DIRECTION('',(-0.965925826289068,-0.258819045102521,0.));
#1352=DIRECTION('',(-0.965925826289068,-0.258819045102521,0.));
#1353=DIRECTION('',(0.258819045102521,-0.965925826289068,0.));
#1354=DIRECTION('',(0.965925826289068,0.258819045102521,0.));
#1355=DIRECTION('',(-0.25881904510252,0.965925826289069,0.));
#1356=DIRECTION('',(-0.965925826289068,-0.258819045102521,0.));
#1357=DIRECTION('',(0.258819045102521,-0.965925826289068,0.));
#1358=DIRECTION('',(-0.965925826289068,-0.258819045102521,0.));
#1359=DIRECTION('',(0.258819045102521,-0.965925826289068,0.));
#1360=DIRECTION('',(0.,0.,-1.));
#1361=DIRECTION('',(-1.,0.,0.));
#1362=DIRECTION('',(-0.965925826289068,-0.258819045102521,0.));
#1363=DIRECTION('',(0.258819045102521,-0.965925826289068,-2.7926903448599E-16));
#1364=DIRECTION('',(0.965925826289068,0.258819045102521,0.));
#1365=DIRECTION('',(-0.965925826289068,-0.258819045102521,0.));
#1366=DIRECTION('',(0.258819045102521,-0.965925826289068,0.));
#1367=DIRECTION('',(0.965925826289068,0.258819045102521,0.));
#1368=DIRECTION('',(-0.25881904510252,0.965925826289069,0.));
#1369=DIRECTION('',(-0.965925826289068,-0.258819045102521,0.));
#1370=DIRECTION('',(0.258819045102521,-0.965925826289068,0.));
#1371=DIRECTION('',(-0.965925826289068,-0.258819045102521,0.));
#1372=DIRECTION('',(0.258819045102521,-0.965925826289068,0.));
#1373=DIRECTION('',(0.965925826289068,0.258819045102521,0.));
#1374=DIRECTION('',(-0.258819045102521,0.965925826289068,0.));
#1375=DIRECTION('',(0.965925826289068,0.258819045102521,0.));
#1376=DIRECTION('',(-0.25881904510252,0.965925826289069,0.));
#1377=DIRECTION('',(0.965925826289068,0.258819045102521,0.));
#1378=DIRECTION('',(-0.258819045102521,0.965925826289068,0.));
#1379=DIRECTION('',(0.965925826289068,0.258819045102521,0.));
#1380=DIRECTION('',(-0.258819045102521,0.965925826289068,0.));
#1381=DIRECTION('',(0.965925826289068,0.258819045102521,0.));
#1382=DIRECTION('',(-0.25881904510252,0.965925826289069,0.));
#1383=DIRECTION('',(0.965925826289068,0.258819045102521,0.));
#1384=DIRECTION('',(-0.258819045102521,0.965925826289068,0.));
#1385=DIRECTION('',(0.965925826289068,0.258819045102521,0.));
#1386=DIRECTION('',(-0.258819045102521,0.965925826289068,0.));
#1387=DIRECTION('',(0.965925826289068,0.258819045102521,0.));
#1388=DIRECTION('',(-0.25881904510252,0.965925826289069,0.));
#1389=DIRECTION('',(0.965925826289068,0.258819045102521,0.));
#1390=DIRECTION('',(-0.258819045102521,0.965925826289068,0.));
#1391=DIRECTION('',(0.965925826289068,0.258819045102521,0.));
#1392=DIRECTION('',(-0.258819045102521,0.965925826289068,0.));
#1393=DIRECTION('',(0.965925826289068,0.258819045102521,0.));
#1394=DIRECTION('',(-0.25881904510252,0.965925826289069,0.));
#1395=DIRECTION('',(0.965925826289068,0.258819045102521,0.));
#1396=DIRECTION('',(-0.258819045102521,0.965925826289068,0.));
#1397=DIRECTION('',(0.965925826289068,0.258819045102521,0.));
#1398=DIRECTION('',(-0.258819045102521,0.965925826289068,0.));
#1399=DIRECTION('',(-0.965925826289068,-0.258819045102521,0.));
#1400=DIRECTION('',(0.258819045102521,-0.965925826289068,0.));
#1401=DIRECTION('',(0.965925826289068,0.258819045102521,0.));
#1402=DIRECTION('',(-0.258819045102521,0.965925826289068,0.));
#1403=DIRECTION('',(-0.965925826289068,-0.258819045102521,0.));
#1404=DIRECTION('',(0.258819045102521,-0.965925826289068,0.));
#1405=DIRECTION('',(0.,0.,1.));
#1406=DIRECTION('',(1.,0.,0.));
#1407=DIRECTION('',(0.258819045102521,-0.965925826289068,0.));
#1408=DIRECTION('',(0.258819045102521,-0.965925826289068,0.));
#1409=DIRECTION('',(0.258819045102521,-0.965925826289068,0.));
#1410=DIRECTION('',(0.965925826289068,0.258819045102521,0.));
#1411=DIRECTION('',(0.258819045102521,-0.965925826289068,0.));
#1412=DIRECTION('',(0.,0.,1.));
#1413=DIRECTION('',(1.,0.,0.));
#1414=DIRECTION('',(0.258819045102521,-0.965925826289068,0.));
#1415=DIRECTION('',(0.258819045102521,-0.965925826289068,0.));
#1416=DIRECTION('',(0.965925826289068,0.258819045102521,0.));
#1417=DIRECTION('',(0.,0.,1.));
#1418=DIRECTION('',(1.,0.,0.));
#1419=DIRECTION('',(0.258819045102521,-0.965925826289068,0.));
#1420=DIRECTION('',(0.258819045102521,-0.965925826289068,0.));
#1421=DIRECTION('',(0.258819045102521,-0.965925826289068,0.));
#1422=DIRECTION('',(0.965925826289068,0.258819045102521,0.));
#1423=DIRECTION('',(0.258819045102521,-0.965925826289068,0.));
#1424=DIRECTION('',(0.,0.,1.));
#1425=DIRECTION('',(1.,0.,0.));
#1426=DIRECTION('',(0.258819045102521,-0.965925826289068,0.));
#1427=DIRECTION('',(0.258819045102521,-0.965925826289068,0.));
#1428=DIRECTION('',(0.965925826289068,0.258819045102521,0.));
#1429=DIRECTION('',(0.,0.,-1.));
#1430=DIRECTION('',(-1.,0.,0.));
#1431=DIRECTION('',(0.258819045102521,-0.965925826289068,0.));
#1432=DIRECTION('',(-0.965925826289068,-0.258819045102521,0.));
#1433=DIRECTION('',(0.258819045102521,-0.965925826289068,0.));
#1434=DIRECTION('',(-0.965925826289068,-0.258819045102521,0.));
#1435=DIRECTION('',(0.258819045102521,-0.965925826289068,0.));
#1436=DIRECTION('',(0.,0.,-1.));
#1437=DIRECTION('',(0.258819045102521,-0.965925826289068,0.));
#1438=DIRECTION('',(0.,0.,-1.));
#1439=DIRECTION('',(-1.,0.,0.));
#1440=DIRECTION('',(0.965925826289068,0.258819045102521,0.));
#1441=DIRECTION('',(0.258819045102521,-0.965925826289068,0.));
#1442=DIRECTION('',(-0.965925826289068,-0.258819045102521,0.));
#1443=DIRECTION('',(0.258819045102521,-0.965925826289068,0.));
#1444=DIRECTION('',(0.,0.,1.));
#1445=DIRECTION('',(0.866025403784439,-0.5,0.));
#1446=DIRECTION('',(0.,0.,1.));
#1447=DIRECTION('',(-0.408248290463863,-0.707106781186547,-0.577350269189627));
#1448=DIRECTION('',(0.408248290463863,0.707106781186547,-0.577350269189627));
#1449=DIRECTION('',(-0.18301270189222,0.68301270189222,0.707106781186547));
#1450=DIRECTION('',(0.965925826289068,0.258819045102521,0.));
#1451=DIRECTION('',(0.707106781186548,-0.408248290463863,0.577350269189626));
#1452=DIRECTION('',(0.18301270189222,-0.68301270189222,0.707106781186547));
#1453=DIRECTION('',(-0.965925826289068,-0.258819045102521,0.));
#1454=DIRECTION('',(0.707106781186547,-0.408248290463863,-0.577350269189626));
#1455=DIRECTION('',(0.5,0.866025403784439,0.));
#1456=DIRECTION('',(0.,0.,-1.));
#1457=CARTESIAN_POINT('',(0.,0.,0.));
#1458=CARTESIAN_POINT('',(-0.0454756788641597,-0.0254381099137224,1.81980431079865E-6));
#1459=CARTESIAN_POINT('',(-0.0561008629533395,-0.0282851194098501,1.81980431079865E-6));
#1460=CARTESIAN_POINT('',(-0.0561008629533395,-0.0282851194098501,-0.048799380260706));
#1461=CARTESIAN_POINT('',(-0.0561008629533395,-0.0282851194098501,-0.060799380260706));
#1462=CARTESIAN_POINT('',(-0.0561008629533395,-0.0282851194098501,-0.048799380260706));
#1463=CARTESIAN_POINT('',(-0.0599645662584957,-0.0293203955902602,-0.048799380260706));
#1464=CARTESIAN_POINT('',(-0.0599645662584957,-0.0293203955902602,1.81980431079865E-6));
#1465=CARTESIAN_POINT('',(-0.0599645662584957,-0.0293203955902602,0.0488030198693275));
#1466=CARTESIAN_POINT('',(-0.0561008629533395,-0.0282851194098501,0.0488030198693275));
#1467=CARTESIAN_POINT('',(-0.0561008629533395,-0.0282851194098501,0.0488030198693275));
#1468=CARTESIAN_POINT('',(-0.0561008629533395,-0.0282851194098501,1.81980431079865E-6));
#1469=CARTESIAN_POINT('',(-0.0561008629533395,-0.0282851194098501,0.0608030198693276));
#1470=CARTESIAN_POINT('',(-0.0454756788641597,-0.0254381099137224,0.0608030198693276));
#1471=CARTESIAN_POINT('',(-0.0454756788641597,-0.0254381099137224,0.0608030198693276));
#1472=CARTESIAN_POINT('',(-0.0454756788641597,-0.0254381099137224,1.81980431079865E-6));
#1473=CARTESIAN_POINT('',(-0.0454756788641597,-0.0254381099137224,-0.060799380260706));
#1474=CARTESIAN_POINT('',(-0.0454756788641597,-0.0254381099137224,-0.060799380260706));
#1475=CARTESIAN_POINT('',(-0.0579051489666646,-0.0287685763900354,0.0416341447880563));
#1476=CARTESIAN_POINT('',(-0.0579051489666646,-0.0287685763900354,0.0406341447880563));
#1477=CARTESIAN_POINT('',(-0.0579051489666646,-0.0287685763900354,0.0426341447880564));
#1478=CARTESIAN_POINT('',(-0.0454756788641597,-0.0254381099137224,0.0406341447880563));
#1479=CARTESIAN_POINT('',(-0.0501777423563521,-0.0266980240292152,0.0406341447880563));
#1480=CARTESIAN_POINT('',(-0.0501777423563521,-0.0266980240292152,0.0416341447880563));
#1481=CARTESIAN_POINT('',(-0.0501777423563521,-0.0266980240292152,0.0426341447880563));
#1482=CARTESIAN_POINT('',(-0.0454756788641597,-0.0254381099137224,0.0426341447880563));
#1483=CARTESIAN_POINT('',(-0.0579051489666646,-0.0287685763900354,0.0347057614704918));
#1484=CARTESIAN_POINT('',(-0.0579051489666646,-0.0287685763900354,0.0337057614704918));
#1485=CARTESIAN_POINT('',(-0.0579051489666646,-0.0287685763900354,0.0357057614704918));
#1486=CARTESIAN_POINT('',(-0.0454756788641597,-0.0254381099137224,0.0337057614704918));
#1487=CARTESIAN_POINT('',(-0.0501777423563521,-0.0266980240292152,0.0337057614704918));
#1488=CARTESIAN_POINT('',(-0.0501777423563521,-0.0266980240292152,0.0347057614704918));
#1489=CARTESIAN_POINT('',(-0.0501777423563521,-0.0266980240292152,0.0357057614704918));
#1490=CARTESIAN_POINT('',(-0.0454756788641597,-0.0254381099137224,0.0357057614704918));
#1491=CARTESIAN_POINT('',(-0.0494133507392057,-0.0264932059126998,1.81980431079865E-6));
#1492=CARTESIAN_POINT('',(-0.0494133507392057,-0.0264932059126998,-0.0319916917606139));
#1493=CARTESIAN_POINT('',(-0.0494133507392057,-0.0264932059126998,-0.0189916917606139));
#1494=CARTESIAN_POINT('',(-0.0454756788641597,-0.0254381099137224,-0.0189916917606139));
#1495=CARTESIAN_POINT('',(-0.054242979870651,-0.0277873011382124,-0.0189916917606139));
#1496=CARTESIAN_POINT('',(-0.054242979870651,-0.0277873011382124,1.81980431079865E-6));
#1497=CARTESIAN_POINT('',(-0.054242979870651,-0.0277873011382124,-0.0319916917606139));
#1498=CARTESIAN_POINT('',(-0.0454756788641597,-0.0254381099137224,-0.0319916917606139));
#1499=CARTESIAN_POINT('',(-0.06368956885541,-0.0386007164711879,1.81980431079865E-6));
#1500=CARTESIAN_POINT('',(-0.06368956885541,-0.0386007164711879,-0.014991691760614));
#1501=CARTESIAN_POINT('',(-0.0560361308149871,-0.036549983928935,-0.014991691760614));
#1502=CARTESIAN_POINT('',(-0.0434790950732293,-0.0331853363426022,-0.014991691760614));
#1503=CARTESIAN_POINT('',(-0.0434790950732293,-0.0331853363426022,1.81980431079865E-6));
#1504=CARTESIAN_POINT('',(-0.0434790950732293,-0.0331853363426022,-0.035991691760614));
#1505=CARTESIAN_POINT('',(-0.0521724275098308,-0.0355147077485249,-0.035991691760614));
#1506=CARTESIAN_POINT('',(-0.0560361308149871,-0.036549983928935,-0.035991691760614));
#1507=CARTESIAN_POINT('',(-0.0560361308149871,-0.036549983928935,-0.0189916917606139));
#1508=CARTESIAN_POINT('',(-0.0434051265033396,-0.033165516524035,1.81980431079865E-6));
#1509=CARTESIAN_POINT('',(-0.0434051265033396,-0.033165516524035,0.0668030198693276));
#1510=CARTESIAN_POINT('',(-0.0434051265033396,-0.033165516524035,-0.0667993802607059));
#1511=CARTESIAN_POINT('',(-0.06368956885541,-0.0386007164711879,0.0668030198693276));
#1512=CARTESIAN_POINT('',(-0.06368956885541,-0.0386007164711879,0.0668030198693276));
#1513=CARTESIAN_POINT('',(-0.06368956885541,-0.0386007164711879,1.81980431079865E-6));
#1514=CARTESIAN_POINT('',(-0.06368956885541,-0.0386007164711879,-0.0667993802607059));
#1515=CARTESIAN_POINT('',(-0.0434051265033396,-0.033165516524035,-0.0667993802607059));
#1516=CARTESIAN_POINT('',(-0.0481071899955319,-0.0344254306395278,0.0416341447880563));
#1517=CARTESIAN_POINT('',(-0.0481071899955319,-0.0344254306395278,0.0406341447880563));
#1518=CARTESIAN_POINT('',(-0.0481071899955319,-0.0344254306395278,0.0426341447880563));
#1519=CARTESIAN_POINT('',(-0.0519708933006882,-0.0354607068199379,0.0406341447880563));
#1520=CARTESIAN_POINT('',(-0.0558345966058445,-0.036495983000348,0.0406341447880563));
#1521=CARTESIAN_POINT('',(-0.0558345966058445,-0.036495983000348,0.0416341447880563));
#1522=CARTESIAN_POINT('',(-0.0558345966058445,-0.036495983000348,0.0426341447880564));
#1523=CARTESIAN_POINT('',(-0.0519708933006882,-0.0354607068199379,0.0426341447880563));
#1524=CARTESIAN_POINT('',(-0.0481071899955319,-0.0344254306395278,0.0347057614704918));
#1525=CARTESIAN_POINT('',(-0.0481071899955319,-0.0344254306395278,0.0337057614704918));
#1526=CARTESIAN_POINT('',(-0.0481071899955319,-0.0344254306395278,0.0357057614704918));
#1527=CARTESIAN_POINT('',(-0.0519708933006882,-0.0354607068199379,0.0337057614704918));
#1528=CARTESIAN_POINT('',(-0.0558345966058445,-0.036495983000348,0.0337057614704918));
#1529=CARTESIAN_POINT('',(-0.0558345966058445,-0.036495983000348,0.0347057614704918));
#1530=CARTESIAN_POINT('',(-0.0558345966058445,-0.036495983000348,0.0357057614704918));
#1531=CARTESIAN_POINT('',(-0.0519708933006882,-0.0354607068199379,0.0357057614704918));
#1532=CARTESIAN_POINT('',(-0.0533828877118332,0.00407199525185339,-0.060799380260706));
#1533=CARTESIAN_POINT('',(-0.0612772438553899,-0.0089666028840688,-0.060799380260706));
#1534=CARTESIAN_POINT('',(-0.0612772438553899,-0.0089666028840688,-0.060799380260706));
#1535=CARTESIAN_POINT('',(-0.0651409471605462,-0.0100018790644789,-0.060799380260706));
#1536=CARTESIAN_POINT('',(-0.064008071801013,0.00122498575572566,-0.060799380260706));
#1537=CARTESIAN_POINT('',(-0.0533828877118332,0.00407199525185339,-0.060799380260706));
#1538=CARTESIAN_POINT('',(-0.0612900965595068,0.0335821004174292,-0.060799380260706));
#1539=CARTESIAN_POINT('',(-0.0612900965595068,0.0335821004174292,-0.060799380260706));
#1540=CARTESIAN_POINT('',(-0.0719152806486866,0.0307350909213015,-0.060799380260706));
#1541=CARTESIAN_POINT('',(-0.064008071801013,0.00122498575572566,-0.060799380260706));
#1542=CARTESIAN_POINT('',(-0.0667388997466362,0.0114165743955201,-0.060799380260706));
#1543=CARTESIAN_POINT('',(-0.0667388997466362,0.0114165743955201,-0.060799380260706));
#1544=CARTESIAN_POINT('',(-0.0706026030517924,0.01038129821511,-0.060799380260706));
#1545=CARTESIAN_POINT('',(-0.0678717751061693,0.000189709575315579,-0.060799380260706));
#1546=CARTESIAN_POINT('',(-0.0678717751061693,0.000189709575315588,1.81980431079865E-6));
#1547=CARTESIAN_POINT('',(-0.0651409471605462,-0.0100018790644789,-0.054799380260706));
#1548=CARTESIAN_POINT('',(-0.0651409471605461,-0.0100018790644789,-0.0541001463746253));
#1549=CARTESIAN_POINT('',(-0.0706026030517925,0.01038129821511,-0.054799380260706));
#1550=CARTESIAN_POINT('',(-0.0706026030517925,0.01038129821511,-0.048799380260706));
#1551=CARTESIAN_POINT('',(-0.0731907935028177,0.0200405564780007,-0.048799380260706));
#1552=CARTESIAN_POINT('',(-0.0757789839538428,0.0296998147408914,-0.048799380260706));
#1553=CARTESIAN_POINT('',(-0.0757789839538428,0.0296998147408914,1.81980431079865E-6));
#1554=CARTESIAN_POINT('',(-0.0757789839538428,0.0296998147408914,0.0488030198693276));
#1555=CARTESIAN_POINT('',(-0.0739672506381252,0.022938333956868,0.0488030198693276));
#1556=CARTESIAN_POINT('',(-0.0721555173224076,0.0161768531728446,0.0488030198693276));
#1557=CARTESIAN_POINT('',(-0.0721555173224076,0.0161768531728446,0.0548030198693276));
#1558=CARTESIAN_POINT('',(-0.0721555173224076,0.0161768531728446,0.0608030198693276));
#1559=CARTESIAN_POINT('',(-0.0678717751061693,0.000189709575315579,0.0608030198693276));
#1560=CARTESIAN_POINT('',(-0.0651409471605462,-0.0100018790644789,0.0608030198693276));
#1561=CARTESIAN_POINT('',(-0.0651409471605462,-0.0100018790644789,0.0548030198693276));
#1562=CARTESIAN_POINT('',(-0.0651409471605462,-0.0100018790644789,0.0488030198693275));
#1563=CARTESIAN_POINT('',(-0.062552756709521,-0.0196611373273696,0.0488030198693275));
#1564=CARTESIAN_POINT('',(-0.062552756709521,-0.0196611373273696,-0.048799380260706));
#1565=CARTESIAN_POINT('',(-0.0651409471605462,-0.0100018790644789,-0.048799380260706));
#1566=CARTESIAN_POINT('',(-0.0651409471605462,-0.0100018790644789,-0.054799380260706));
#1567=CARTESIAN_POINT('',(-0.0651409471605462,-0.0100018790644789,-0.0538998536253742));
#1568=CARTESIAN_POINT('',(-0.064183667538058,-0.013574495252655,-0.054));
#1569=CARTESIAN_POINT('',(-0.069981154347445,-0.0151279271613603,-0.054));
#1570=CARTESIAN_POINT('',(-0.0709384339699331,-0.0115553109731842,-0.0541001463746253));
#1571=CARTESIAN_POINT('',(-0.0612772438553899,-0.0089666028840688,-0.0541001463746252));
#1572=CARTESIAN_POINT('',(-0.0709384339699331,-0.0115553109731842,-0.0538998536253742));
#1573=CARTESIAN_POINT('',(-0.0612772438553899,-0.0089666028840688,-0.0538998536253743));
#1574=CARTESIAN_POINT('',(-0.0612772438553899,-0.00896660288406881,-0.054799380260706));
#1575=CARTESIAN_POINT('',(-0.0612900965595068,0.0335821004174292,1.81980431079865E-6));
#1576=CARTESIAN_POINT('',(-0.0719152806486866,0.0307350909213015,-0.048799380260706));
#1577=CARTESIAN_POINT('',(-0.0719152806486866,0.0307350909213015,-0.048799380260706));
#1578=CARTESIAN_POINT('',(-0.0719152806486866,0.0307350909213015,0.));
#1579=CARTESIAN_POINT('',(-0.0612900965595068,0.0335821004174292,1.81980431079865E-6));
#1580=CARTESIAN_POINT('',(-0.0612900965595068,0.0335821004174293,0.0608030198693276));
#1581=CARTESIAN_POINT('',(-0.0612900965595068,0.0335821004174293,0.0608030198693276));
#1582=CARTESIAN_POINT('',(-0.0719152806486866,0.0307350909213015,0.0608030198693276));
#1583=CARTESIAN_POINT('',(-0.0719152806486866,0.0307350909213015,0.));
#1584=CARTESIAN_POINT('',(-0.0719152806486866,0.0307350909213015,0.0488030198693276));
#1585=CARTESIAN_POINT('',(-0.0719152806486866,0.0307350909213015,0.0488030198693276));
#1586=CARTESIAN_POINT('',(-0.066078687986433,0.00895263056268768,0.));
#1587=CARTESIAN_POINT('',(-0.0693270901976614,0.0210758326584108,-0.048799380260706));
#1588=CARTESIAN_POINT('',(-0.0667388997466362,0.0114165743955201,-0.048799380260706));
#1589=CARTESIAN_POINT('',(-0.0667388997466362,0.0114165743955201,-0.054799380260706));
#1590=CARTESIAN_POINT('',(-0.0695095540604752,0.0217567970649771,-0.054));
#1591=CARTESIAN_POINT('',(-0.0699316947240936,0.0233322474695419,-0.054));
#1592=CARTESIAN_POINT('',(-0.0775831945412401,0.0518880335412368,0.));
#1593=CARTESIAN_POINT('',(-0.064008071801013,0.00122498575572566,0.0608030198693276));
#1594=CARTESIAN_POINT('',(-0.0682918140172513,0.0172121293532546,0.0608030198693276));
#1595=CARTESIAN_POINT('',(-0.0682918140172513,0.0172121293532546,0.0548030198693276));
#1596=CARTESIAN_POINT('',(-0.0682918140172513,0.0172121293532546,0.0488030198693276));
#1597=CARTESIAN_POINT('',(-0.070103547332969,0.0239736101372781,0.0488030198693276));
#1598=CARTESIAN_POINT('',(-0.0695044064005685,0.0217375857366654,0.0544879361987114));
#1599=CARTESIAN_POINT('',(-0.0699249726426483,0.0233071603200557,0.0544879361987114));
#1600=CARTESIAN_POINT('',(-0.066078687986433,0.00895263056268768,0.));
#1601=CARTESIAN_POINT('',(-0.0612772438553899,-0.00896660288406881,-0.054799380260706));
#1602=CARTESIAN_POINT('',(-0.0612772438553899,-0.00896660288406881,-0.048799380260706));
#1603=CARTESIAN_POINT('',(-0.0586890534043647,-0.0186258611469595,-0.048799380260706));
#1604=CARTESIAN_POINT('',(-0.0612772438553899,-0.00896660288406881,-0.054799380260706));
#1605=CARTESIAN_POINT('',(-0.0582473699568845,-0.0202742462138179,-0.0540112070739269));
#1606=CARTESIAN_POINT('',(-0.0586699787180661,-0.0186970488453643,-0.0540112070739269));
#1607=CARTESIAN_POINT('',(-0.0533828877118332,0.00407199525185339,0.0608030198693276));
#1608=CARTESIAN_POINT('',(-0.0682918140172513,0.0172121293532546,0.0608030198693276));
#1609=CARTESIAN_POINT('',(-0.0533828877118332,0.00407199525185339,0.0608030198693276));
#1610=CARTESIAN_POINT('',(-0.064008071801013,0.00122498575572566,0.0608030198693276));
#1611=CARTESIAN_POINT('',(-0.0612772438553899,-0.0089666028840688,0.0608030198693276));
#1612=CARTESIAN_POINT('',(-0.0612772438553899,-0.0089666028840688,0.0608030198693276));
#1613=CARTESIAN_POINT('',(-0.0533828877118332,0.0040719952518534,1.81980431079865E-6));
#1614=CARTESIAN_POINT('',(-0.0623253727399169,0.0374458037225855,-0.0643969801306725));
#1615=CARTESIAN_POINT('',(-0.0617430298884362,0.0352724706134351,-0.0643969801306725));
#1616=CARTESIAN_POINT('',(-0.0444409767233327,-0.0292996708739891,0.0648030198693275));
#1617=CARTESIAN_POINT('',(-0.043858633871852,-0.0314730039831395,0.0648030198693275));
#1618=CARTESIAN_POINT('',(-0.0623253727399169,0.0374458037225855,0.0648030198693275));
#1619=CARTESIAN_POINT('',(-0.0617430298884362,0.0352724706134351,0.0648030198693275));
#1620=CARTESIAN_POINT('',(-0.0444409767233327,-0.0292996708739892,-0.0643969801306725));
#1621=CARTESIAN_POINT('',(-0.043858633871852,-0.0314730039831396,-0.0643969801306725));
#1622=CARTESIAN_POINT('',(-0.0533828877118332,0.0040719952518534,0.0688030198693276));
#1623=CARTESIAN_POINT('',(-0.0628430108301219,0.0393776553751637,0.0688030198693276));
#1624=CARTESIAN_POINT('',(-0.0439227645935445,-0.0312336648714569,0.0688030198693276));
#1625=CARTESIAN_POINT('',(-0.0439227645935445,-0.0312336648714569,0.0668030198693276));
#1626=CARTESIAN_POINT('',(-0.0439227645935445,-0.0312336648714569,-0.0667993802607059));
#1627=CARTESIAN_POINT('',(-0.0439227645935445,-0.0312336648714569,-0.068799380260706));
#1628=CARTESIAN_POINT('',(-0.0533828877118332,0.0040719952518534,-0.068799380260706));
#1629=CARTESIAN_POINT('',(-0.0628430108301219,0.0393776553751637,-0.068799380260706));
#1630=CARTESIAN_POINT('',(-0.0628430108301219,0.0393776553751637,-0.066799380260706));
#1631=CARTESIAN_POINT('',(-0.063360648920327,0.0413095070277418,-0.066799380260706));
#1632=CARTESIAN_POINT('',(-0.063360648920327,0.0413095070277418,1.81980431079865E-6));
#1633=CARTESIAN_POINT('',(-0.063360648920327,0.0413095070277418,0.0668030198693275));
#1634=CARTESIAN_POINT('',(-0.0628430108301219,0.0393776553751637,0.0668030198693275));
#1635=CARTESIAN_POINT('',(-0.0736673300639037,-0.00136320469529954,1.81980431079865E-6));
#1636=CARTESIAN_POINT('',(-0.064207206945615,-0.0366688648186098,0.0668030198693276));
#1637=CARTESIAN_POINT('',(-0.064207206945615,-0.0366688648186098,0.0688030198693276));
#1638=CARTESIAN_POINT('',(-0.0736673300639037,-0.00136320469529954,0.0688030198693276));
#1639=CARTESIAN_POINT('',(-0.0831274531821924,0.0339424554280107,0.0688030198693276));
#1640=CARTESIAN_POINT('',(-0.0831274531821924,0.0339424554280107,0.0668030198693275));
#1641=CARTESIAN_POINT('',(-0.0836450912723974,0.0358743070805888,0.0668030198693275));
#1642=CARTESIAN_POINT('',(-0.0836450912723974,0.0358743070805888,1.81980431079865E-6));
#1643=CARTESIAN_POINT('',(-0.0836450912723974,0.0358743070805888,-0.066799380260706));
#1644=CARTESIAN_POINT('',(-0.0831274531821924,0.0339424554280107,-0.066799380260706));
#1645=CARTESIAN_POINT('',(-0.0831274531821924,0.0339424554280107,-0.068799380260706));
#1646=CARTESIAN_POINT('',(-0.0736673300639037,-0.00136320469529954,-0.068799380260706));
#1647=CARTESIAN_POINT('',(-0.064207206945615,-0.0366688648186098,-0.068799380260706));
#1648=CARTESIAN_POINT('',(-0.064207206945615,-0.0366688648186098,-0.0667993802607059));
#1649=CARTESIAN_POINT('',(-0.0736673300639037,-0.00136320469529954,0.0688030198693276));
#1650=CARTESIAN_POINT('',(-0.064207206945615,-0.0366688648186098,0.0688030198693276));
#1651=CARTESIAN_POINT('',(-0.0831274531821924,0.0339424554280107,0.0688030198693276));
#1652=CARTESIAN_POINT('',(-0.0736673300639037,-0.00136320469529954,-0.068799380260706));
#1653=CARTESIAN_POINT('',(-0.064207206945615,-0.0366688648186098,-0.068799380260706));
#1654=CARTESIAN_POINT('',(-0.0831274531821924,0.0339424554280107,-0.068799380260706));
#1655=CARTESIAN_POINT('',(-0.0836450912723974,0.0358743070805888,1.81980431079865E-6));
#1656=CARTESIAN_POINT('',(-0.0836450912723974,0.0358743070805888,-0.066799380260706));
#1657=CARTESIAN_POINT('',(-0.063360648920327,0.0413095070277418,0.0668030198693275));
#1658=CARTESIAN_POINT('',(-0.0612772438553899,-0.00896660288406881,-0.054799380260706));
#1659=CARTESIAN_POINT('',(-0.0612772438553899,-0.00896660288406881,-0.048799380260706));
#1660=CARTESIAN_POINT('',(-0.0586890534043647,-0.0186258611469595,-0.048799380260706));
#1661=CARTESIAN_POINT('',(-0.0612772438553899,-0.00896660288406881,-0.054799380260706));
#1662=CARTESIAN_POINT('',(-0.0582473699568845,-0.0202742462138179,-0.0540112070739269));
#1663=CARTESIAN_POINT('',(-0.0621110732620407,-0.0213095223942279,-0.0540112070739269));
#1664=CARTESIAN_POINT('',(-0.0625336820232223,-0.0197323250257743,-0.0540112070739269));
#1665=CARTESIAN_POINT('',(-0.0579902602693611,-0.0212337926307734,0.0544774495065212));
#1666=CARTESIAN_POINT('',(-0.0579902602693611,-0.0212337926307734,0.0544774495065212));
#1667=CARTESIAN_POINT('',(-0.0584159899667269,-0.0196449477699132,0.0544774495065212));
#1668=CARTESIAN_POINT('',(-0.0618539635745173,-0.0222690688111835,0.0544774495065212));
#1669=CARTESIAN_POINT('',(-0.0622796932718831,-0.0206802239503233,0.0544774495065212));
#1670=CARTESIAN_POINT('',(-0.0586890534043647,-0.0186258611469595,0.0488030198693275));
#1671=CARTESIAN_POINT('',(-0.0612772438553899,-0.00896660288406881,0.0488030198693275));
#1672=CARTESIAN_POINT('',(-0.0612772438553899,-0.00896660288406881,0.0488030198693275));
#1673=CARTESIAN_POINT('',(-0.0586890534043647,-0.0186258611469595,0.0488030198693275));
#1674=CARTESIAN_POINT('',(-0.0612772438553899,-0.00896660288406881,0.0548030198693276));
#1675=CARTESIAN_POINT('',(-0.0612772438553899,-0.00896660288406881,0.0548030198693276));
#1676=CARTESIAN_POINT('',(-0.066078687986433,0.00895263056268768,0.));
#1677=CARTESIAN_POINT('',(-0.070103547332969,0.0239736101372781,0.0488030198693276));
#1678=CARTESIAN_POINT('',(-0.0682918140172513,0.0172121293532546,0.0488030198693276));
#1679=CARTESIAN_POINT('',(-0.0682918140172513,0.0172121293532546,0.0548030198693276));
#1680=CARTESIAN_POINT('',(-0.0695044064005685,0.0217375857366654,0.0544879361987114));
#1681=CARTESIAN_POINT('',(-0.0733681097057248,0.0207023095562553,0.0544879361987114));
#1682=CARTESIAN_POINT('',(-0.0737886759478046,0.0222718841396456,0.0544879361987114));
#1683=CARTESIAN_POINT('',(-0.0678717751061693,0.000189709575315588,1.81980431079865E-6));
#1684=CARTESIAN_POINT('',(-0.0678717751061693,0.000189709575315588,1.81980431079865E-6));
#1685=CARTESIAN_POINT('',(-0.0693270901976614,0.0210758326584108,-0.048799380260706));
#1686=CARTESIAN_POINT('',(-0.0667388997466362,0.0114165743955201,-0.048799380260706));
#1687=CARTESIAN_POINT('',(-0.0667388997466362,0.0114165743955201,-0.054799380260706));
#1688=CARTESIAN_POINT('',(-0.0695095540604752,0.0217567970649771,-0.054));
#1689=CARTESIAN_POINT('',(-0.0733732573656314,0.0207215208845671,-0.054));
#1690=CARTESIAN_POINT('',(-0.0737953980292498,0.0222969712891318,-0.054));
#1691=CARTESIAN_POINT('',(-0.0678717751061693,0.000189709575315588,1.81980431079865E-6));
#1692=CARTESIAN_POINT('',(-0.0678717751061693,0.000189709575315588,1.81980431079865E-6));
#1693=CARTESIAN_POINT('',(-0.0521683833336453,-0.0313702232348093,-0.0643969801306725));
#1694=CARTESIAN_POINT('',(-0.0521683833336453,-0.0313702232348093,-0.0643969801306725));
#1695=CARTESIAN_POINT('',(-0.052750726185126,-0.0291968901256589,-0.0643969801306725));
#1696=CARTESIAN_POINT('',(-0.0432258983055617,-0.0647440317055414,-0.129198180195689));
#1697=CARTESIAN_POINT('',(-0.0700527793502295,0.0353752513617654,0.0648030198693275));
#1698=CARTESIAN_POINT('',(-0.0700527793502295,0.0353752513617654,0.0648030198693275));
#1699=CARTESIAN_POINT('',(-0.0706351222017102,0.0375485844709158,0.0648030198693275));
#1700=CARTESIAN_POINT('',(-0.0611102943221459,0.00200144289103323,1.81980431079865E-6));
#1701=CARTESIAN_POINT('',(-0.0521683833336453,-0.0313702232348093,0.0648030198693275));
#1702=CARTESIAN_POINT('',(-0.0521683833336453,-0.0313702232348093,0.0648030198693275));
#1703=CARTESIAN_POINT('',(-0.052750726185126,-0.0291968901256589,0.0648030198693275));
#1704=CARTESIAN_POINT('',(-0.0432258983055617,-0.0647440317055414,1.81980431079865E-6));
#1705=CARTESIAN_POINT('',(-0.0700527793502295,0.0353752513617653,-0.0643969801306725));
#1706=CARTESIAN_POINT('',(-0.0700527793502295,0.0353752513617653,-0.0643969801306725));
#1707=CARTESIAN_POINT('',(-0.0706351222017102,0.0375485844709157,-0.0643969801306725));
#1708=CARTESIAN_POINT('',(-0.0611102943221458,0.00200144289103319,-0.129198180195689));
#1709=CARTESIAN_POINT('',(-0.064207206945615,-0.0366688648186098,0.0668030198693276));
#1710=CARTESIAN_POINT('',(-0.064207206945615,-0.0366688648186098,-0.0667993802607059));
#1711=CARTESIAN_POINT('',(-0.0831274531821924,0.0339424554280107,-0.066799380260706));
#1712=CARTESIAN_POINT('',(-0.0831274531821924,0.0339424554280107,0.0668030198693275));
#1713=CARTESIAN_POINT('',(-0.0584413694282512,-0.0113125611627112,0.0406341447880563));
#1714=CARTESIAN_POINT('',(-0.0623050727334075,-0.0123478373431213,0.0406341447880563));
#1715=CARTESIAN_POINT('',(-0.0545776661230949,-0.0102772849823011,0.0406341447880563));
#1716=CARTESIAN_POINT('',(-0.0545776661230949,-0.0102772849823011,0.0416341447880563));
#1717=CARTESIAN_POINT('',(-0.0545776661230949,-0.0102772849823011,0.0426341447880563));
#1718=CARTESIAN_POINT('',(-0.0584413694282512,-0.0113125611627112,0.0426341447880563));
#1719=CARTESIAN_POINT('',(-0.0623050727334075,-0.0123478373431213,0.0426341447880564));
#1720=CARTESIAN_POINT('',(-0.0623050727334075,-0.0123478373431213,0.0416341447880563));
#1721=CARTESIAN_POINT('',(-0.0584413694282512,-0.0113125611627112,0.0337057614704918));
#1722=CARTESIAN_POINT('',(-0.0623050727334075,-0.0123478373431213,0.0337057614704918));
#1723=CARTESIAN_POINT('',(-0.0545776661230949,-0.0102772849823011,0.0337057614704918));
#1724=CARTESIAN_POINT('',(-0.0545776661230949,-0.0102772849823011,0.0347057614704918));
#1725=CARTESIAN_POINT('',(-0.0545776661230949,-0.0102772849823011,0.0357057614704918));
#1726=CARTESIAN_POINT('',(-0.0584413694282512,-0.0113125611627112,0.0357057614704918));
#1727=CARTESIAN_POINT('',(-0.0623050727334075,-0.0123478373431213,0.0357057614704918));
#1728=CARTESIAN_POINT('',(-0.0623050727334075,-0.0123478373431213,0.0347057614704918));
#1729=CARTESIAN_POINT('',(-0.0562280890716712,-0.0107195144785419,-0.0189916917606139));
#1730=CARTESIAN_POINT('',(-0.0538132745059485,-0.0100724668657856,-0.0189916917606139));
#1731=CARTESIAN_POINT('',(-0.0483780745587956,-0.0303569092178561,-0.0189916917606139));
#1732=CARTESIAN_POINT('',(-0.0507928891245183,-0.0310039568306123,-0.0189916917606139));
#1733=CARTESIAN_POINT('',(-0.0532077036902409,-0.0316510044433687,-0.0189916917606139));
#1734=CARTESIAN_POINT('',(-0.0586429036373939,-0.0113665620912982,-0.0189916917606139));
#1735=CARTESIAN_POINT('',(-0.0586429036373939,-0.0113665620912982,-0.025491691760614));
#1736=CARTESIAN_POINT('',(-0.0532077036902409,-0.0316510044433687,-0.0319916917606139));
#1737=CARTESIAN_POINT('',(-0.0532077036902409,-0.0316510044433687,-0.0319916917606139));
#1738=CARTESIAN_POINT('',(-0.0586429036373939,-0.0113665620912982,-0.0319916917606139));
#1739=CARTESIAN_POINT('',(-0.0562280890716712,-0.0107195144785419,-0.0319916917606139));
#1740=CARTESIAN_POINT('',(-0.0483780745587956,-0.0303569092178561,-0.0319916917606139));
#1741=CARTESIAN_POINT('',(-0.0483780745587956,-0.0303569092178561,-0.0319916917606139));
#1742=CARTESIAN_POINT('',(-0.0538132745059485,-0.0100724668657856,-0.0319916917606139));
#1743=CARTESIAN_POINT('',(-0.0538132745059485,-0.0100724668657856,-0.025491691760614));
#1744=CARTESIAN_POINT('',(-0.0483780745587956,-0.0303569092178561,-0.025491691760614));
#1745=CARTESIAN_POINT('',(-0.0532077036902409,-0.0316510044433687,-0.025491691760614));
#1746=CARTESIAN_POINT('',(-0.0516756389976701,-0.0289973905553536,-0.0298250250939473));
#1747=CARTESIAN_POINT('',(-0.0579036993143771,-0.0397847074564936,-0.0123505510601159));
#1748=CARTESIAN_POINT('',(-0.06368956885541,-0.0386007164711879,-0.014991691760614));
#1749=CARTESIAN_POINT('',(-0.0373580196087986,-0.0367193409097213,-0.0099938545723057));
#1750=CARTESIAN_POINT('',(-0.0507928891245183,-0.0310039568306123,-0.0319916917606139));
#1751=CARTESIAN_POINT('',(-0.0581733846374011,-0.0247015843071773,-0.0239938545723057));
#1752=CARTESIAN_POINT('',(-0.0434790950732293,-0.0331853363426022,1.81980431079865E-6));
#1753=MECHANICAL_DESIGN_GEOMETRIC_PRESENTATION_REPRESENTATION('',(#1056),
#1754);
#1754=(
GEOMETRIC_REPRESENTATION_CONTEXT(3)
GLOBAL_UNCERTAINTY_ASSIGNED_CONTEXT((#1755))
GLOBAL_UNIT_ASSIGNED_CONTEXT((#1758,#1757,#1756))
REPRESENTATION_CONTEXT('Part 1','TOP_LEVEL_ASSEMBLY_PART')
);
#1755=UNCERTAINTY_MEASURE_WITH_UNIT(LENGTH_MEASURE(4.06666580050962E-6),
#1758,'DISTANCE_ACCURACY_VALUE','Maximum Tolerance applied to model');
#1756=(
NAMED_UNIT(*)
SI_UNIT($,.STERADIAN.)
SOLID_ANGLE_UNIT()
);
#1757=(
NAMED_UNIT(*)
PLANE_ANGLE_UNIT()
SI_UNIT($,.RADIAN.)
);
#1758=(
LENGTH_UNIT()
NAMED_UNIT(*)
SI_UNIT($,.METRE.)
);
#1759=PRODUCT_DEFINITION_SHAPE('','',#1760);
#1760=PRODUCT_DEFINITION('','',#1762,#1761);
#1761=PRODUCT_DEFINITION_CONTEXT('',#1768,'design');
#1762=PRODUCT_DEFINITION_FORMATION_WITH_SPECIFIED_SOURCE('','',#1764,
 .NOT_KNOWN.);
#1763=PRODUCT_RELATED_PRODUCT_CATEGORY('','',(#1764));
#1764=PRODUCT('Part 1','Part 1','Part 1',(#1766));
#1765=PRODUCT_CATEGORY('','');
#1766=PRODUCT_CONTEXT('',#1768,'mechanical');
#1767=APPLICATION_PROTOCOL_DEFINITION('international standard',
'ap242_managed_model_based_3d_engineering',2020,#1768);
#1768=APPLICATION_CONTEXT('managed model based 3d engineering');
ENDSEC;
END-ISO-10303-21;
