%TF.GenerationSoftware,KiCad,Pcbnew,10.0.6*%
%TF.CreationDate,2026-09-21T18:21:29+08:00*%
%TF.ProjectId,KiCad,4b694361-642e-46b6-9963-61645f706362,rev?*%
%TF.SameCoordinates,Original*%
%TF.FileFunction,Legend,Top*%
%TF.FilePolarity,Positive*%
%FSLAX46Y46*%
G04 Gerber Fmt 4.6, Leading zero omitted, Abs format (unit mm)*
G04 Created by KiCad (PCBNEW 10.0.6) date 2026-09-21 18:21:29*
%MOMM*%
%LPD*%
G01*
G04 APERTURE LIST*
%ADD10C,0.100000*%
%ADD11C,0.150000*%
%ADD12C,0.101600*%
%ADD13C,0.300000*%
%ADD14C,0.120000*%
%ADD15C,0.127000*%
%ADD16C,0.504000*%
%ADD17C,0.000000*%
G04 APERTURE END LIST*
D10*
G36*
X163531472Y-149344263D02*
G01*
X163590947Y-149275300D01*
X163664549Y-149214133D01*
X163754099Y-149160593D01*
X163850642Y-149121250D01*
X163955141Y-149097253D01*
X164069173Y-149089030D01*
X164202576Y-149100202D01*
X164324988Y-149132937D01*
X164438590Y-149187093D01*
X164540253Y-149261048D01*
X164626720Y-149353325D01*
X164698953Y-149466018D01*
X164751054Y-149589730D01*
X164783119Y-149726641D01*
X164794207Y-149879277D01*
X164783165Y-150031936D01*
X164751140Y-150169832D01*
X164698953Y-150295345D01*
X164626644Y-150409915D01*
X164539688Y-150504539D01*
X164437124Y-150581231D01*
X164322468Y-150637918D01*
X164200528Y-150671915D01*
X164069173Y-150683447D01*
X163951329Y-150675251D01*
X163846013Y-150651612D01*
X163751290Y-150613349D01*
X163663377Y-150560944D01*
X163590671Y-150501193D01*
X163531472Y-150433953D01*
X163531472Y-150660000D01*
X163211025Y-150660000D01*
X163211025Y-149884773D01*
X163531472Y-149884773D01*
X163539216Y-149989495D01*
X163561440Y-150081709D01*
X163597295Y-150163454D01*
X163646785Y-150237646D01*
X163704456Y-150297372D01*
X163770830Y-150344193D01*
X163882222Y-150390475D01*
X163998953Y-150405743D01*
X164079414Y-150398737D01*
X164156051Y-150377869D01*
X164230006Y-150342728D01*
X164296412Y-150295041D01*
X164354091Y-150234424D01*
X164403541Y-150159302D01*
X164439447Y-150076621D01*
X164461648Y-149983926D01*
X164469364Y-149879277D01*
X164461572Y-149774570D01*
X164439306Y-149683356D01*
X164403541Y-149603405D01*
X164354227Y-149531112D01*
X164296577Y-149472770D01*
X164230006Y-149426939D01*
X164118294Y-149381777D01*
X163998953Y-149366734D01*
X163882229Y-149382030D01*
X163770830Y-149428405D01*
X163704373Y-149475084D01*
X163646710Y-149534351D01*
X163597295Y-149607679D01*
X163561483Y-149688486D01*
X163539239Y-149780141D01*
X163531472Y-149884773D01*
X163211025Y-149884773D01*
X163211025Y-148581004D01*
X163531472Y-148581004D01*
X163531472Y-149344263D01*
G37*
G36*
X166496092Y-149112477D02*
G01*
X165549651Y-151386866D01*
X165219312Y-151386866D01*
X165532920Y-150634354D01*
X164925244Y-149112477D01*
X165280861Y-149112477D01*
X165714881Y-150291803D01*
X166165631Y-149112477D01*
X166496092Y-149112477D01*
G37*
G36*
X169066992Y-150660000D02*
G01*
X168746545Y-150660000D01*
X167785205Y-149202969D01*
X167785205Y-150660000D01*
X167464759Y-150660000D01*
X167464759Y-148706057D01*
X167785205Y-148706057D01*
X168746545Y-150160279D01*
X168746545Y-148706057D01*
X169066992Y-148706057D01*
X169066992Y-150660000D01*
G37*
G36*
X170220723Y-149097475D02*
G01*
X170325805Y-149121673D01*
X170418754Y-149160593D01*
X170505032Y-149213458D01*
X170576762Y-149272734D01*
X170635519Y-149338524D01*
X170635519Y-149112477D01*
X170960362Y-149112477D01*
X170960362Y-150660000D01*
X170635519Y-150660000D01*
X170635519Y-150428335D01*
X170576435Y-150495690D01*
X170503355Y-150556392D01*
X170414480Y-150610540D01*
X170318823Y-150650431D01*
X170213171Y-150674968D01*
X170095621Y-150683447D01*
X169966072Y-150671940D01*
X169845507Y-150637972D01*
X169731821Y-150581231D01*
X169630218Y-150504700D01*
X169543305Y-150410088D01*
X169470237Y-150295345D01*
X169417359Y-150169766D01*
X169384936Y-150031877D01*
X169373761Y-149879277D01*
X169698604Y-149879277D01*
X169706334Y-149983920D01*
X169728575Y-150076614D01*
X169764549Y-150159302D01*
X169814151Y-150234424D01*
X169871952Y-150295042D01*
X169938450Y-150342728D01*
X170012455Y-150377969D01*
X170088291Y-150398787D01*
X170167062Y-150405743D01*
X170247729Y-150398861D01*
X170323998Y-150378438D01*
X170397016Y-150344193D01*
X170462712Y-150297447D01*
X170520072Y-150237732D01*
X170569574Y-150163454D01*
X170605498Y-150081701D01*
X170627762Y-149989488D01*
X170635519Y-149884773D01*
X170627739Y-149780148D01*
X170605455Y-149688494D01*
X170569574Y-149607679D01*
X170520147Y-149534266D01*
X170462794Y-149475010D01*
X170397016Y-149428405D01*
X170323992Y-149394090D01*
X170247723Y-149373627D01*
X170167062Y-149366734D01*
X170047692Y-149381816D01*
X169936985Y-149426939D01*
X169871239Y-149472676D01*
X169813935Y-149531004D01*
X169764549Y-149603405D01*
X169728715Y-149683363D01*
X169706410Y-149774577D01*
X169698604Y-149879277D01*
X169373761Y-149879277D01*
X169385004Y-149726711D01*
X169417486Y-149590280D01*
X169470237Y-149467362D01*
X169543261Y-149355553D01*
X169630610Y-149263251D01*
X169733286Y-149188558D01*
X169847713Y-149133427D01*
X169969671Y-149100286D01*
X170101238Y-149089030D01*
X170220723Y-149097475D01*
G37*
G36*
X171538119Y-148909267D02*
G01*
X171482646Y-148902591D01*
X171434683Y-148883215D01*
X171392428Y-148850771D01*
X171359747Y-148808727D01*
X171340268Y-148761088D01*
X171333565Y-148706057D01*
X171340268Y-148651025D01*
X171359747Y-148603386D01*
X171392428Y-148561343D01*
X171434683Y-148528899D01*
X171482646Y-148509522D01*
X171538119Y-148502847D01*
X171591811Y-148509452D01*
X171638923Y-148528759D01*
X171681123Y-148561343D01*
X171713804Y-148603386D01*
X171733283Y-148651025D01*
X171739986Y-148706057D01*
X171733283Y-148761088D01*
X171713804Y-148808727D01*
X171681123Y-148850771D01*
X171638923Y-148883355D01*
X171591811Y-148902662D01*
X171538119Y-148909267D01*
G37*
G36*
X171693091Y-149112477D02*
G01*
X171693091Y-150660000D01*
X171372644Y-150660000D01*
X171372644Y-149112477D01*
X171693091Y-149112477D01*
G37*
G36*
X172403105Y-150402079D02*
G01*
X173103838Y-150402079D01*
X173103838Y-150660000D01*
X172033077Y-150660000D01*
X172033077Y-150402079D01*
X172736618Y-149370397D01*
X172033077Y-149370397D01*
X172033077Y-149112477D01*
X173103838Y-149112477D01*
X173103838Y-149370397D01*
X172403105Y-150402079D01*
G37*
G36*
X174173549Y-149097475D02*
G01*
X174278631Y-149121673D01*
X174371580Y-149160593D01*
X174457858Y-149213458D01*
X174529588Y-149272734D01*
X174588346Y-149338524D01*
X174588346Y-149112477D01*
X174913189Y-149112477D01*
X174913189Y-150660000D01*
X174588346Y-150660000D01*
X174588346Y-150428335D01*
X174529262Y-150495690D01*
X174456182Y-150556392D01*
X174367306Y-150610540D01*
X174271649Y-150650431D01*
X174165997Y-150674968D01*
X174048447Y-150683447D01*
X173918898Y-150671940D01*
X173798334Y-150637972D01*
X173684647Y-150581231D01*
X173583044Y-150504700D01*
X173496132Y-150410088D01*
X173423063Y-150295345D01*
X173370186Y-150169766D01*
X173337762Y-150031877D01*
X173326587Y-149879277D01*
X173651430Y-149879277D01*
X173659160Y-149983920D01*
X173681401Y-150076614D01*
X173717376Y-150159302D01*
X173766977Y-150234424D01*
X173824778Y-150295042D01*
X173891277Y-150342728D01*
X173965281Y-150377969D01*
X174041117Y-150398787D01*
X174119888Y-150405743D01*
X174200555Y-150398861D01*
X174276825Y-150378438D01*
X174349842Y-150344193D01*
X174415538Y-150297447D01*
X174472898Y-150237732D01*
X174522400Y-150163454D01*
X174558325Y-150081701D01*
X174580589Y-149989488D01*
X174588346Y-149884773D01*
X174580565Y-149780148D01*
X174558282Y-149688494D01*
X174522400Y-149607679D01*
X174472974Y-149534266D01*
X174415620Y-149475010D01*
X174349842Y-149428405D01*
X174276818Y-149394090D01*
X174200549Y-149373627D01*
X174119888Y-149366734D01*
X174000518Y-149381816D01*
X173889811Y-149426939D01*
X173824065Y-149472676D01*
X173766762Y-149531004D01*
X173717376Y-149603405D01*
X173681541Y-149683363D01*
X173659236Y-149774577D01*
X173651430Y-149879277D01*
X173326587Y-149879277D01*
X173337831Y-149726711D01*
X173370313Y-149590280D01*
X173423063Y-149467362D01*
X173496087Y-149355553D01*
X173583436Y-149263251D01*
X173686113Y-149188558D01*
X173800540Y-149133427D01*
X173922497Y-149100286D01*
X174054064Y-149089030D01*
X174173549Y-149097475D01*
G37*
G36*
X176068949Y-149101048D02*
G01*
X176174137Y-149125164D01*
X176268859Y-149164256D01*
X176356798Y-149217418D01*
X176428402Y-149276745D01*
X176485624Y-149342309D01*
X176485624Y-149117972D01*
X176810467Y-149117972D01*
X176810467Y-150688454D01*
X176800057Y-150828233D01*
X176769885Y-150954107D01*
X176720708Y-151068374D01*
X176652103Y-151171569D01*
X176566218Y-151258528D01*
X176461322Y-151330568D01*
X176344681Y-151382293D01*
X176210750Y-151414603D01*
X176056123Y-151425945D01*
X175899131Y-151415865D01*
X175761690Y-151387097D01*
X175640918Y-151341148D01*
X175534420Y-151278545D01*
X175440955Y-151197271D01*
X175371760Y-151104815D01*
X175324503Y-150999531D01*
X175298848Y-150878597D01*
X175613189Y-150878597D01*
X175646145Y-150953014D01*
X175697215Y-151017625D01*
X175768893Y-151073747D01*
X175851311Y-151114315D01*
X175945407Y-151139454D01*
X176053681Y-151148241D01*
X176177792Y-151134327D01*
X176280410Y-151094816D01*
X176366311Y-151030272D01*
X176416385Y-150968069D01*
X176453456Y-150892289D01*
X176477127Y-150800107D01*
X176485624Y-150687843D01*
X176485624Y-150429556D01*
X176426649Y-150497179D01*
X176354023Y-150558407D01*
X176266050Y-150613349D01*
X176171213Y-150654046D01*
X176066934Y-150678997D01*
X175951343Y-150687599D01*
X175819915Y-150676050D01*
X175697978Y-150642010D01*
X175583391Y-150585261D01*
X175480875Y-150508636D01*
X175393496Y-150414012D01*
X175320341Y-150299375D01*
X175267468Y-150173795D01*
X175235043Y-150035867D01*
X175223866Y-149883185D01*
X175548709Y-149883185D01*
X175556440Y-149987910D01*
X175578683Y-150080642D01*
X175614654Y-150163332D01*
X175664251Y-150238461D01*
X175722052Y-150299123D01*
X175788555Y-150346880D01*
X175862559Y-150382121D01*
X175938395Y-150402939D01*
X176017166Y-150409895D01*
X176097827Y-150403001D01*
X176174096Y-150382539D01*
X176247121Y-150348224D01*
X176312816Y-150301477D01*
X176370177Y-150241762D01*
X176419678Y-150167484D01*
X176455603Y-150085731D01*
X176477867Y-149993518D01*
X176485624Y-149888803D01*
X176477839Y-149784013D01*
X176455552Y-149692282D01*
X176419678Y-149611465D01*
X176370257Y-149538043D01*
X176312904Y-149478745D01*
X176247121Y-149432069D01*
X176174096Y-149397754D01*
X176097827Y-149377291D01*
X176017166Y-149370397D01*
X175897803Y-149385508D01*
X175787090Y-149430725D01*
X175721344Y-149476462D01*
X175664040Y-149534790D01*
X175614654Y-149607191D01*
X175578824Y-149687150D01*
X175556517Y-149778403D01*
X175548709Y-149883185D01*
X175223866Y-149883185D01*
X175235111Y-149730537D01*
X175267595Y-149594067D01*
X175320341Y-149471147D01*
X175393361Y-149359331D01*
X175480710Y-149266987D01*
X175583391Y-149192222D01*
X175697818Y-149137090D01*
X175819776Y-149103950D01*
X175951343Y-149092693D01*
X176068949Y-149101048D01*
G37*
G36*
X177968106Y-149097475D02*
G01*
X178073188Y-149121673D01*
X178166137Y-149160593D01*
X178252415Y-149213458D01*
X178324145Y-149272734D01*
X178382903Y-149338524D01*
X178382903Y-149112477D01*
X178707745Y-149112477D01*
X178707745Y-150660000D01*
X178382903Y-150660000D01*
X178382903Y-150428335D01*
X178323819Y-150495690D01*
X178250738Y-150556392D01*
X178161863Y-150610540D01*
X178066206Y-150650431D01*
X177960554Y-150674968D01*
X177843004Y-150683447D01*
X177713455Y-150671940D01*
X177592890Y-150637972D01*
X177479204Y-150581231D01*
X177377601Y-150504700D01*
X177290688Y-150410088D01*
X177217620Y-150295345D01*
X177164743Y-150169766D01*
X177132319Y-150031877D01*
X177121144Y-149879277D01*
X177445987Y-149879277D01*
X177453717Y-149983920D01*
X177475958Y-150076614D01*
X177511933Y-150159302D01*
X177561534Y-150234424D01*
X177619335Y-150295042D01*
X177685833Y-150342728D01*
X177759838Y-150377969D01*
X177835674Y-150398787D01*
X177914445Y-150405743D01*
X177995112Y-150398861D01*
X178071381Y-150378438D01*
X178144399Y-150344193D01*
X178210095Y-150297447D01*
X178267455Y-150237732D01*
X178316957Y-150163454D01*
X178352881Y-150081701D01*
X178375145Y-149989488D01*
X178382903Y-149884773D01*
X178375122Y-149780148D01*
X178352838Y-149688494D01*
X178316957Y-149607679D01*
X178267531Y-149534266D01*
X178210177Y-149475010D01*
X178144399Y-149428405D01*
X178071375Y-149394090D01*
X177995106Y-149373627D01*
X177914445Y-149366734D01*
X177795075Y-149381816D01*
X177684368Y-149426939D01*
X177618622Y-149472676D01*
X177561318Y-149531004D01*
X177511933Y-149603405D01*
X177476098Y-149683363D01*
X177453793Y-149774577D01*
X177445987Y-149879277D01*
X177121144Y-149879277D01*
X177132388Y-149726711D01*
X177164869Y-149590280D01*
X177217620Y-149467362D01*
X177290644Y-149355553D01*
X177377993Y-149263251D01*
X177480669Y-149188558D01*
X177595096Y-149133427D01*
X177717054Y-149100286D01*
X177848621Y-149089030D01*
X177968106Y-149097475D01*
G37*
G36*
X179285502Y-148909267D02*
G01*
X179230029Y-148902591D01*
X179182066Y-148883215D01*
X179139811Y-148850771D01*
X179107130Y-148808727D01*
X179087651Y-148761088D01*
X179080949Y-148706057D01*
X179087651Y-148651025D01*
X179107130Y-148603386D01*
X179139811Y-148561343D01*
X179182066Y-148528899D01*
X179230029Y-148509522D01*
X179285502Y-148502847D01*
X179339195Y-148509452D01*
X179386307Y-148528759D01*
X179428506Y-148561343D01*
X179461188Y-148603386D01*
X179480666Y-148651025D01*
X179487369Y-148706057D01*
X179480666Y-148761088D01*
X179461188Y-148808727D01*
X179428506Y-148850771D01*
X179386307Y-148883355D01*
X179339195Y-148902662D01*
X179285502Y-148909267D01*
G37*
G36*
X179440474Y-149112477D02*
G01*
X179440474Y-150660000D01*
X179120027Y-150660000D01*
X179120027Y-149112477D01*
X179440474Y-149112477D01*
G37*
G36*
X180913747Y-150402079D02*
G01*
X181570272Y-150402079D01*
X181570272Y-150660000D01*
X180593300Y-150660000D01*
X180593300Y-148709965D01*
X180913747Y-148709965D01*
X180913747Y-150402079D01*
G37*
G36*
X182573549Y-149097475D02*
G01*
X182678631Y-149121673D01*
X182771580Y-149160593D01*
X182857858Y-149213458D01*
X182929588Y-149272734D01*
X182988346Y-149338524D01*
X182988346Y-149112477D01*
X183313189Y-149112477D01*
X183313189Y-150660000D01*
X182988346Y-150660000D01*
X182988346Y-150428335D01*
X182929262Y-150495690D01*
X182856182Y-150556392D01*
X182767306Y-150610540D01*
X182671649Y-150650431D01*
X182565997Y-150674968D01*
X182448447Y-150683447D01*
X182318898Y-150671940D01*
X182198334Y-150637972D01*
X182084647Y-150581231D01*
X181983044Y-150504700D01*
X181896132Y-150410088D01*
X181823063Y-150295345D01*
X181770186Y-150169766D01*
X181737762Y-150031877D01*
X181726587Y-149879277D01*
X182051430Y-149879277D01*
X182059160Y-149983920D01*
X182081401Y-150076614D01*
X182117376Y-150159302D01*
X182166977Y-150234424D01*
X182224778Y-150295042D01*
X182291277Y-150342728D01*
X182365281Y-150377969D01*
X182441117Y-150398787D01*
X182519888Y-150405743D01*
X182600555Y-150398861D01*
X182676825Y-150378438D01*
X182749842Y-150344193D01*
X182815538Y-150297447D01*
X182872898Y-150237732D01*
X182922400Y-150163454D01*
X182958325Y-150081701D01*
X182980589Y-149989488D01*
X182988346Y-149884773D01*
X182980565Y-149780148D01*
X182958282Y-149688494D01*
X182922400Y-149607679D01*
X182872974Y-149534266D01*
X182815620Y-149475010D01*
X182749842Y-149428405D01*
X182676818Y-149394090D01*
X182600549Y-149373627D01*
X182519888Y-149366734D01*
X182400518Y-149381816D01*
X182289811Y-149426939D01*
X182224065Y-149472676D01*
X182166762Y-149531004D01*
X182117376Y-149603405D01*
X182081541Y-149683363D01*
X182059236Y-149774577D01*
X182051430Y-149879277D01*
X181726587Y-149879277D01*
X181737831Y-149726711D01*
X181770313Y-149590280D01*
X181823063Y-149467362D01*
X181896087Y-149355553D01*
X181983436Y-149263251D01*
X182086113Y-149188558D01*
X182200540Y-149133427D01*
X182322497Y-149100286D01*
X182454064Y-149089030D01*
X182573549Y-149097475D01*
G37*
G36*
X184053733Y-149344263D02*
G01*
X184113208Y-149275300D01*
X184186810Y-149214133D01*
X184276360Y-149160593D01*
X184372903Y-149121250D01*
X184477402Y-149097253D01*
X184591434Y-149089030D01*
X184724837Y-149100202D01*
X184847249Y-149132937D01*
X184960851Y-149187093D01*
X185062514Y-149261048D01*
X185148981Y-149353325D01*
X185221214Y-149466018D01*
X185273315Y-149589730D01*
X185305380Y-149726641D01*
X185316468Y-149879277D01*
X185305426Y-150031936D01*
X185273401Y-150169832D01*
X185221214Y-150295345D01*
X185148905Y-150409915D01*
X185061949Y-150504539D01*
X184959385Y-150581231D01*
X184844729Y-150637918D01*
X184722789Y-150671915D01*
X184591434Y-150683447D01*
X184473590Y-150675251D01*
X184368274Y-150651612D01*
X184273551Y-150613349D01*
X184185638Y-150560944D01*
X184112932Y-150501193D01*
X184053733Y-150433953D01*
X184053733Y-150660000D01*
X183733286Y-150660000D01*
X183733286Y-149884773D01*
X184053733Y-149884773D01*
X184061477Y-149989495D01*
X184083701Y-150081709D01*
X184119556Y-150163454D01*
X184169046Y-150237646D01*
X184226717Y-150297372D01*
X184293091Y-150344193D01*
X184404483Y-150390475D01*
X184521214Y-150405743D01*
X184601675Y-150398737D01*
X184678312Y-150377869D01*
X184752267Y-150342728D01*
X184818673Y-150295041D01*
X184876352Y-150234424D01*
X184925802Y-150159302D01*
X184961708Y-150076621D01*
X184983909Y-149983926D01*
X184991625Y-149879277D01*
X184983832Y-149774570D01*
X184961567Y-149683356D01*
X184925802Y-149603405D01*
X184876488Y-149531112D01*
X184818838Y-149472770D01*
X184752267Y-149426939D01*
X184640555Y-149381777D01*
X184521214Y-149366734D01*
X184404490Y-149382030D01*
X184293091Y-149428405D01*
X184226634Y-149475084D01*
X184168971Y-149534351D01*
X184119556Y-149607679D01*
X184083744Y-149688486D01*
X184061500Y-149780141D01*
X184053733Y-149884773D01*
X183733286Y-149884773D01*
X183733286Y-148581004D01*
X184053733Y-148581004D01*
X184053733Y-149344263D01*
G37*
G36*
X100839846Y-155300000D02*
G01*
X98885903Y-155300000D01*
X94430914Y-148578436D01*
X94430914Y-155300000D01*
X92476971Y-155300000D01*
X92476971Y-145491207D01*
X94430914Y-145491207D01*
X98885903Y-152226814D01*
X98885903Y-145491207D01*
X100839846Y-145491207D01*
X100839846Y-155300000D01*
G37*
G36*
X103741451Y-146624494D02*
G01*
X103407510Y-146586301D01*
X103122388Y-146476318D01*
X102875000Y-146294155D01*
X102683140Y-146055350D01*
X102569176Y-145784685D01*
X102530006Y-145471667D01*
X102569206Y-145158266D01*
X102683194Y-144887623D01*
X102875000Y-144649180D01*
X103122388Y-144467017D01*
X103407510Y-144357034D01*
X103741451Y-144318841D01*
X104075375Y-144357047D01*
X104360280Y-144467039D01*
X104607292Y-144649180D01*
X104799464Y-144887667D01*
X104913638Y-145158308D01*
X104952896Y-145471667D01*
X104913668Y-145784643D01*
X104799518Y-146055306D01*
X104607292Y-146294155D01*
X104360280Y-146476296D01*
X104075375Y-146586288D01*
X103741451Y-146624494D01*
G37*
G36*
X104679344Y-147523307D02*
G01*
X104679344Y-155300000D01*
X102725401Y-155300000D01*
X102725401Y-147523307D01*
X104679344Y-147523307D01*
G37*
G36*
X108606769Y-148732309D02*
G01*
X108887136Y-148345525D01*
X109215447Y-148022858D01*
X109595341Y-147759002D01*
X110014637Y-147565348D01*
X110476680Y-147446901D01*
X110990579Y-147406071D01*
X110990579Y-149477250D01*
X110471563Y-149477250D01*
X109869166Y-149532654D01*
X109415647Y-149682390D01*
X109076325Y-149912613D01*
X108834106Y-150236828D01*
X108669994Y-150721708D01*
X108606769Y-151427529D01*
X108606769Y-155300000D01*
X106652826Y-155300000D01*
X106652826Y-147523307D01*
X108606769Y-147523307D01*
X108606769Y-148732309D01*
G37*
G36*
X116510594Y-147462948D02*
G01*
X117182884Y-147629256D01*
X117805565Y-147903105D01*
X118369172Y-148280571D01*
X118844677Y-148746968D01*
X119239270Y-149310554D01*
X119526401Y-149936461D01*
X119702763Y-150632022D01*
X119763782Y-151411653D01*
X119701262Y-152190143D01*
X119520360Y-152885429D01*
X119225226Y-153512142D01*
X118821999Y-154075771D01*
X118339325Y-154542449D01*
X117770150Y-154920202D01*
X117142995Y-155193796D01*
X116463857Y-155360235D01*
X115721563Y-155417236D01*
X114988474Y-155360117D01*
X114320877Y-155193603D01*
X113707170Y-154920202D01*
X113153329Y-154542727D01*
X112687110Y-154076248D01*
X112301552Y-153512142D01*
X112022712Y-152887083D01*
X111851120Y-152191632D01*
X111791695Y-151411653D01*
X113793876Y-151411653D01*
X113862697Y-152128496D01*
X114051246Y-152682974D01*
X114345865Y-153111584D01*
X114745962Y-153442206D01*
X115202991Y-153638657D01*
X115735607Y-153706315D01*
X116250571Y-153641691D01*
X116734560Y-153447418D01*
X117022317Y-153248971D01*
X117270612Y-152992518D01*
X117481943Y-152670725D01*
X117632706Y-152315152D01*
X117727902Y-151899365D01*
X117761601Y-151411653D01*
X117720443Y-150859089D01*
X117605511Y-150402403D01*
X117425193Y-150024396D01*
X117181524Y-149711723D01*
X116764540Y-149380183D01*
X116297644Y-149184081D01*
X115763695Y-149116992D01*
X115230196Y-149184366D01*
X114768022Y-149380647D01*
X114359298Y-149711723D01*
X114122365Y-150023430D01*
X113946493Y-150401057D01*
X113834153Y-150858071D01*
X113793876Y-151411653D01*
X111791695Y-151411653D01*
X111852649Y-150631991D01*
X112028813Y-149936425D01*
X112315596Y-149310554D01*
X112710190Y-148746968D01*
X113185694Y-148280571D01*
X113749302Y-147903105D01*
X114371990Y-147629276D01*
X115044476Y-147462958D01*
X115777739Y-147406071D01*
X116510594Y-147462948D01*
G37*
G36*
X120760293Y-150383391D02*
G01*
X120802704Y-149664861D01*
X120926673Y-148998438D01*
X121129334Y-148377001D01*
X121410589Y-147794417D01*
X121899808Y-147084226D01*
X122488699Y-146493534D01*
X123185624Y-146012055D01*
X123957773Y-145660514D01*
X124794148Y-145447042D01*
X125709263Y-145373970D01*
X126519515Y-145428899D01*
X127260407Y-145588834D01*
X127942590Y-145850033D01*
X128574842Y-146213555D01*
X129142462Y-146672425D01*
X129614730Y-147207221D01*
X129998178Y-147825013D01*
X130294312Y-148536915D01*
X128040561Y-148536915D01*
X127780444Y-148099560D01*
X127466442Y-147752136D01*
X127095341Y-147483618D01*
X126676766Y-147291473D01*
X126211065Y-147173393D01*
X125688503Y-147132519D01*
X125130287Y-147178688D01*
X124627271Y-147312892D01*
X124169312Y-147533077D01*
X123760960Y-147834333D01*
X123416938Y-148208287D01*
X123133112Y-148663311D01*
X122931941Y-149162435D01*
X122806396Y-149729255D01*
X122762473Y-150376064D01*
X122806061Y-151013401D01*
X122931302Y-151578399D01*
X123133112Y-152082100D01*
X123417308Y-152541450D01*
X123761381Y-152917710D01*
X124169312Y-153219661D01*
X124627235Y-153439498D01*
X125130255Y-153573504D01*
X125688503Y-153619609D01*
X126210714Y-153578011D01*
X126676376Y-153457754D01*
X127095341Y-153261793D01*
X127466820Y-152988702D01*
X127780826Y-152638843D01*
X128040561Y-152201779D01*
X130294312Y-152201779D01*
X129997496Y-152924619D01*
X129614574Y-153548395D01*
X129144608Y-154085024D01*
X128581559Y-154542236D01*
X127953050Y-154903387D01*
X127271257Y-155163518D01*
X126527025Y-155323197D01*
X125709263Y-155378157D01*
X124794148Y-155305086D01*
X123957773Y-155091614D01*
X123185624Y-154740073D01*
X122488139Y-154258670D01*
X121899303Y-153670263D01*
X121410589Y-152965038D01*
X121129509Y-152385829D01*
X120926840Y-151766819D01*
X120802771Y-151101760D01*
X120760293Y-150383391D01*
G37*
G36*
X133929867Y-144905024D02*
G01*
X133929867Y-155300000D01*
X131975924Y-155300000D01*
X131975924Y-144905024D01*
X133929867Y-144905024D01*
G37*
G36*
X140075144Y-147462948D02*
G01*
X140747434Y-147629256D01*
X141370115Y-147903105D01*
X141933722Y-148280571D01*
X142409226Y-148746968D01*
X142803820Y-149310554D01*
X143090950Y-149936461D01*
X143267312Y-150632022D01*
X143328332Y-151411653D01*
X143265812Y-152190143D01*
X143084910Y-152885429D01*
X142789776Y-153512142D01*
X142386549Y-154075771D01*
X141903875Y-154542449D01*
X141334699Y-154920202D01*
X140707545Y-155193796D01*
X140028407Y-155360235D01*
X139286113Y-155417236D01*
X138553024Y-155360117D01*
X137885427Y-155193603D01*
X137271720Y-154920202D01*
X136717879Y-154542727D01*
X136251660Y-154076248D01*
X135866102Y-153512142D01*
X135587262Y-152887083D01*
X135415670Y-152191632D01*
X135356245Y-151411653D01*
X137358426Y-151411653D01*
X137427247Y-152128496D01*
X137615796Y-152682974D01*
X137910415Y-153111584D01*
X138310512Y-153442206D01*
X138767540Y-153638657D01*
X139300157Y-153706315D01*
X139815121Y-153641691D01*
X140299110Y-153447418D01*
X140586866Y-153248971D01*
X140835162Y-152992518D01*
X141046493Y-152670725D01*
X141197256Y-152315152D01*
X141292452Y-151899365D01*
X141326151Y-151411653D01*
X141284993Y-150859089D01*
X141170061Y-150402403D01*
X140989743Y-150024396D01*
X140746074Y-149711723D01*
X140329090Y-149380183D01*
X139862194Y-149184081D01*
X139328244Y-149116992D01*
X138794746Y-149184366D01*
X138332572Y-149380647D01*
X137923848Y-149711723D01*
X137686915Y-150023430D01*
X137511043Y-150401057D01*
X137398703Y-150858071D01*
X137358426Y-151411653D01*
X135356245Y-151411653D01*
X135417199Y-150631991D01*
X135593362Y-149936425D01*
X135880146Y-149310554D01*
X136274740Y-148746968D01*
X136750244Y-148280571D01*
X137313852Y-147903105D01*
X137936540Y-147629276D01*
X138609026Y-147462958D01*
X139342288Y-147406071D01*
X140075144Y-147462948D01*
G37*
G36*
X144285764Y-151411653D02*
G01*
X144343357Y-150620833D01*
X144508714Y-149923228D01*
X144775471Y-149303838D01*
X145147299Y-148742795D01*
X145597835Y-148278883D01*
X146133461Y-147903105D01*
X146730018Y-147630559D01*
X147388410Y-147463653D01*
X148121598Y-147406071D01*
X148840112Y-147455333D01*
X149468707Y-147596077D01*
X150021270Y-147821537D01*
X150509071Y-148130251D01*
X150936336Y-148521775D01*
X151288518Y-148984411D01*
X151568926Y-149526910D01*
X151776081Y-150161741D01*
X149662159Y-150161741D01*
X149433703Y-149709528D01*
X149094905Y-149372836D01*
X148816307Y-149217180D01*
X148491055Y-149120489D01*
X148108164Y-149086461D01*
X147577067Y-149156755D01*
X147141241Y-149357932D01*
X146777651Y-149694016D01*
X146518405Y-150125755D01*
X146349894Y-150688362D01*
X146287944Y-151418370D01*
X146349635Y-152139146D01*
X146517911Y-152697755D01*
X146777651Y-153129291D01*
X147141241Y-153465375D01*
X147577067Y-153666552D01*
X148108164Y-153736845D01*
X148570278Y-153690326D01*
X148940902Y-153560613D01*
X149239842Y-153353878D01*
X149479289Y-153064445D01*
X149662159Y-152675610D01*
X151776081Y-152675610D01*
X151570822Y-153284466D01*
X151290775Y-153814592D01*
X150936052Y-154276118D01*
X150502355Y-154675959D01*
X150010088Y-154993218D01*
X149456779Y-155223849D01*
X148831720Y-155367218D01*
X148121598Y-155417236D01*
X147388410Y-155359653D01*
X146730018Y-155192748D01*
X146133461Y-154920202D01*
X145597772Y-154544098D01*
X145147239Y-154080165D01*
X144775471Y-153519469D01*
X144508675Y-152899694D01*
X144343336Y-152202066D01*
X144285764Y-151411653D01*
G37*
G36*
X157800942Y-155300000D02*
G01*
X155169225Y-151987456D01*
X155169225Y-155300000D01*
X153215282Y-155300000D01*
X153215282Y-144905024D01*
X155169225Y-144905024D01*
X155169225Y-150821807D01*
X157773464Y-147523307D01*
X160320917Y-147523307D01*
X156905181Y-151425697D01*
X160349005Y-155300000D01*
X157800942Y-155300000D01*
G37*
D11*
X176476667Y-125573200D02*
X176619524Y-125620819D01*
X176619524Y-125620819D02*
X176857619Y-125620819D01*
X176857619Y-125620819D02*
X176952857Y-125573200D01*
X176952857Y-125573200D02*
X177000476Y-125525580D01*
X177000476Y-125525580D02*
X177048095Y-125430342D01*
X177048095Y-125430342D02*
X177048095Y-125335104D01*
X177048095Y-125335104D02*
X177000476Y-125239866D01*
X177000476Y-125239866D02*
X176952857Y-125192247D01*
X176952857Y-125192247D02*
X176857619Y-125144628D01*
X176857619Y-125144628D02*
X176667143Y-125097009D01*
X176667143Y-125097009D02*
X176571905Y-125049390D01*
X176571905Y-125049390D02*
X176524286Y-125001771D01*
X176524286Y-125001771D02*
X176476667Y-124906533D01*
X176476667Y-124906533D02*
X176476667Y-124811295D01*
X176476667Y-124811295D02*
X176524286Y-124716057D01*
X176524286Y-124716057D02*
X176571905Y-124668438D01*
X176571905Y-124668438D02*
X176667143Y-124620819D01*
X176667143Y-124620819D02*
X176905238Y-124620819D01*
X176905238Y-124620819D02*
X177048095Y-124668438D01*
X177381429Y-124620819D02*
X177619524Y-125620819D01*
X177619524Y-125620819D02*
X177810000Y-124906533D01*
X177810000Y-124906533D02*
X178000476Y-125620819D01*
X178000476Y-125620819D02*
X178238572Y-124620819D01*
X179095714Y-124620819D02*
X178619524Y-124620819D01*
X178619524Y-124620819D02*
X178571905Y-125097009D01*
X178571905Y-125097009D02*
X178619524Y-125049390D01*
X178619524Y-125049390D02*
X178714762Y-125001771D01*
X178714762Y-125001771D02*
X178952857Y-125001771D01*
X178952857Y-125001771D02*
X179048095Y-125049390D01*
X179048095Y-125049390D02*
X179095714Y-125097009D01*
X179095714Y-125097009D02*
X179143333Y-125192247D01*
X179143333Y-125192247D02*
X179143333Y-125430342D01*
X179143333Y-125430342D02*
X179095714Y-125525580D01*
X179095714Y-125525580D02*
X179048095Y-125573200D01*
X179048095Y-125573200D02*
X178952857Y-125620819D01*
X178952857Y-125620819D02*
X178714762Y-125620819D01*
X178714762Y-125620819D02*
X178619524Y-125573200D01*
X178619524Y-125573200D02*
X178571905Y-125525580D01*
X157476667Y-125573200D02*
X157619524Y-125620819D01*
X157619524Y-125620819D02*
X157857619Y-125620819D01*
X157857619Y-125620819D02*
X157952857Y-125573200D01*
X157952857Y-125573200D02*
X158000476Y-125525580D01*
X158000476Y-125525580D02*
X158048095Y-125430342D01*
X158048095Y-125430342D02*
X158048095Y-125335104D01*
X158048095Y-125335104D02*
X158000476Y-125239866D01*
X158000476Y-125239866D02*
X157952857Y-125192247D01*
X157952857Y-125192247D02*
X157857619Y-125144628D01*
X157857619Y-125144628D02*
X157667143Y-125097009D01*
X157667143Y-125097009D02*
X157571905Y-125049390D01*
X157571905Y-125049390D02*
X157524286Y-125001771D01*
X157524286Y-125001771D02*
X157476667Y-124906533D01*
X157476667Y-124906533D02*
X157476667Y-124811295D01*
X157476667Y-124811295D02*
X157524286Y-124716057D01*
X157524286Y-124716057D02*
X157571905Y-124668438D01*
X157571905Y-124668438D02*
X157667143Y-124620819D01*
X157667143Y-124620819D02*
X157905238Y-124620819D01*
X157905238Y-124620819D02*
X158048095Y-124668438D01*
X158381429Y-124620819D02*
X158619524Y-125620819D01*
X158619524Y-125620819D02*
X158810000Y-124906533D01*
X158810000Y-124906533D02*
X159000476Y-125620819D01*
X159000476Y-125620819D02*
X159238572Y-124620819D01*
X160048095Y-124954152D02*
X160048095Y-125620819D01*
X159810000Y-124573200D02*
X159571905Y-125287485D01*
X159571905Y-125287485D02*
X160190952Y-125287485D01*
X99976667Y-125573200D02*
X100119524Y-125620819D01*
X100119524Y-125620819D02*
X100357619Y-125620819D01*
X100357619Y-125620819D02*
X100452857Y-125573200D01*
X100452857Y-125573200D02*
X100500476Y-125525580D01*
X100500476Y-125525580D02*
X100548095Y-125430342D01*
X100548095Y-125430342D02*
X100548095Y-125335104D01*
X100548095Y-125335104D02*
X100500476Y-125239866D01*
X100500476Y-125239866D02*
X100452857Y-125192247D01*
X100452857Y-125192247D02*
X100357619Y-125144628D01*
X100357619Y-125144628D02*
X100167143Y-125097009D01*
X100167143Y-125097009D02*
X100071905Y-125049390D01*
X100071905Y-125049390D02*
X100024286Y-125001771D01*
X100024286Y-125001771D02*
X99976667Y-124906533D01*
X99976667Y-124906533D02*
X99976667Y-124811295D01*
X99976667Y-124811295D02*
X100024286Y-124716057D01*
X100024286Y-124716057D02*
X100071905Y-124668438D01*
X100071905Y-124668438D02*
X100167143Y-124620819D01*
X100167143Y-124620819D02*
X100405238Y-124620819D01*
X100405238Y-124620819D02*
X100548095Y-124668438D01*
X100881429Y-124620819D02*
X101119524Y-125620819D01*
X101119524Y-125620819D02*
X101310000Y-124906533D01*
X101310000Y-124906533D02*
X101500476Y-125620819D01*
X101500476Y-125620819D02*
X101738572Y-124620819D01*
X102643333Y-125620819D02*
X102071905Y-125620819D01*
X102357619Y-125620819D02*
X102357619Y-124620819D01*
X102357619Y-124620819D02*
X102262381Y-124763676D01*
X102262381Y-124763676D02*
X102167143Y-124858914D01*
X102167143Y-124858914D02*
X102071905Y-124906533D01*
X138246667Y-125533200D02*
X138389524Y-125580819D01*
X138389524Y-125580819D02*
X138627619Y-125580819D01*
X138627619Y-125580819D02*
X138722857Y-125533200D01*
X138722857Y-125533200D02*
X138770476Y-125485580D01*
X138770476Y-125485580D02*
X138818095Y-125390342D01*
X138818095Y-125390342D02*
X138818095Y-125295104D01*
X138818095Y-125295104D02*
X138770476Y-125199866D01*
X138770476Y-125199866D02*
X138722857Y-125152247D01*
X138722857Y-125152247D02*
X138627619Y-125104628D01*
X138627619Y-125104628D02*
X138437143Y-125057009D01*
X138437143Y-125057009D02*
X138341905Y-125009390D01*
X138341905Y-125009390D02*
X138294286Y-124961771D01*
X138294286Y-124961771D02*
X138246667Y-124866533D01*
X138246667Y-124866533D02*
X138246667Y-124771295D01*
X138246667Y-124771295D02*
X138294286Y-124676057D01*
X138294286Y-124676057D02*
X138341905Y-124628438D01*
X138341905Y-124628438D02*
X138437143Y-124580819D01*
X138437143Y-124580819D02*
X138675238Y-124580819D01*
X138675238Y-124580819D02*
X138818095Y-124628438D01*
X139151429Y-124580819D02*
X139389524Y-125580819D01*
X139389524Y-125580819D02*
X139580000Y-124866533D01*
X139580000Y-124866533D02*
X139770476Y-125580819D01*
X139770476Y-125580819D02*
X140008572Y-124580819D01*
X140294286Y-124580819D02*
X140913333Y-124580819D01*
X140913333Y-124580819D02*
X140580000Y-124961771D01*
X140580000Y-124961771D02*
X140722857Y-124961771D01*
X140722857Y-124961771D02*
X140818095Y-125009390D01*
X140818095Y-125009390D02*
X140865714Y-125057009D01*
X140865714Y-125057009D02*
X140913333Y-125152247D01*
X140913333Y-125152247D02*
X140913333Y-125390342D01*
X140913333Y-125390342D02*
X140865714Y-125485580D01*
X140865714Y-125485580D02*
X140818095Y-125533200D01*
X140818095Y-125533200D02*
X140722857Y-125580819D01*
X140722857Y-125580819D02*
X140437143Y-125580819D01*
X140437143Y-125580819D02*
X140341905Y-125533200D01*
X140341905Y-125533200D02*
X140294286Y-125485580D01*
X119126667Y-125613200D02*
X119269524Y-125660819D01*
X119269524Y-125660819D02*
X119507619Y-125660819D01*
X119507619Y-125660819D02*
X119602857Y-125613200D01*
X119602857Y-125613200D02*
X119650476Y-125565580D01*
X119650476Y-125565580D02*
X119698095Y-125470342D01*
X119698095Y-125470342D02*
X119698095Y-125375104D01*
X119698095Y-125375104D02*
X119650476Y-125279866D01*
X119650476Y-125279866D02*
X119602857Y-125232247D01*
X119602857Y-125232247D02*
X119507619Y-125184628D01*
X119507619Y-125184628D02*
X119317143Y-125137009D01*
X119317143Y-125137009D02*
X119221905Y-125089390D01*
X119221905Y-125089390D02*
X119174286Y-125041771D01*
X119174286Y-125041771D02*
X119126667Y-124946533D01*
X119126667Y-124946533D02*
X119126667Y-124851295D01*
X119126667Y-124851295D02*
X119174286Y-124756057D01*
X119174286Y-124756057D02*
X119221905Y-124708438D01*
X119221905Y-124708438D02*
X119317143Y-124660819D01*
X119317143Y-124660819D02*
X119555238Y-124660819D01*
X119555238Y-124660819D02*
X119698095Y-124708438D01*
X120031429Y-124660819D02*
X120269524Y-125660819D01*
X120269524Y-125660819D02*
X120460000Y-124946533D01*
X120460000Y-124946533D02*
X120650476Y-125660819D01*
X120650476Y-125660819D02*
X120888572Y-124660819D01*
X121221905Y-124756057D02*
X121269524Y-124708438D01*
X121269524Y-124708438D02*
X121364762Y-124660819D01*
X121364762Y-124660819D02*
X121602857Y-124660819D01*
X121602857Y-124660819D02*
X121698095Y-124708438D01*
X121698095Y-124708438D02*
X121745714Y-124756057D01*
X121745714Y-124756057D02*
X121793333Y-124851295D01*
X121793333Y-124851295D02*
X121793333Y-124946533D01*
X121793333Y-124946533D02*
X121745714Y-125089390D01*
X121745714Y-125089390D02*
X121174286Y-125660819D01*
X121174286Y-125660819D02*
X121793333Y-125660819D01*
X82238095Y-102804819D02*
X82238095Y-101804819D01*
X82238095Y-102281009D02*
X82809523Y-102281009D01*
X82809523Y-102804819D02*
X82809523Y-101804819D01*
X83238095Y-101900057D02*
X83285714Y-101852438D01*
X83285714Y-101852438D02*
X83380952Y-101804819D01*
X83380952Y-101804819D02*
X83619047Y-101804819D01*
X83619047Y-101804819D02*
X83714285Y-101852438D01*
X83714285Y-101852438D02*
X83761904Y-101900057D01*
X83761904Y-101900057D02*
X83809523Y-101995295D01*
X83809523Y-101995295D02*
X83809523Y-102090533D01*
X83809523Y-102090533D02*
X83761904Y-102233390D01*
X83761904Y-102233390D02*
X83190476Y-102804819D01*
X83190476Y-102804819D02*
X83809523Y-102804819D01*
X82238095Y-146304819D02*
X82238095Y-145304819D01*
X82238095Y-145781009D02*
X82809523Y-145781009D01*
X82809523Y-146304819D02*
X82809523Y-145304819D01*
X83809523Y-146304819D02*
X83238095Y-146304819D01*
X83523809Y-146304819D02*
X83523809Y-145304819D01*
X83523809Y-145304819D02*
X83428571Y-145447676D01*
X83428571Y-145447676D02*
X83333333Y-145542914D01*
X83333333Y-145542914D02*
X83238095Y-145590533D01*
X190738095Y-101804819D02*
X190738095Y-100804819D01*
X190738095Y-101281009D02*
X191309523Y-101281009D01*
X191309523Y-101804819D02*
X191309523Y-100804819D01*
X192214285Y-101138152D02*
X192214285Y-101804819D01*
X191976190Y-100757200D02*
X191738095Y-101471485D01*
X191738095Y-101471485D02*
X192357142Y-101471485D01*
D12*
X100998479Y-110378809D02*
X101512526Y-110378809D01*
X101512526Y-110378809D02*
X101573002Y-110348571D01*
X101573002Y-110348571D02*
X101603241Y-110318333D01*
X101603241Y-110318333D02*
X101633479Y-110257857D01*
X101633479Y-110257857D02*
X101633479Y-110136904D01*
X101633479Y-110136904D02*
X101603241Y-110076428D01*
X101603241Y-110076428D02*
X101573002Y-110046190D01*
X101573002Y-110046190D02*
X101512526Y-110015952D01*
X101512526Y-110015952D02*
X100998479Y-110015952D01*
X101633479Y-109380952D02*
X101633479Y-109743809D01*
X101633479Y-109562381D02*
X100998479Y-109562381D01*
X100998479Y-109562381D02*
X101089193Y-109622857D01*
X101089193Y-109622857D02*
X101149669Y-109683333D01*
X101149669Y-109683333D02*
X101179907Y-109743809D01*
D11*
X190738095Y-146304819D02*
X190738095Y-145304819D01*
X190738095Y-145781009D02*
X191309523Y-145781009D01*
X191309523Y-146304819D02*
X191309523Y-145304819D01*
X191690476Y-145304819D02*
X192309523Y-145304819D01*
X192309523Y-145304819D02*
X191976190Y-145685771D01*
X191976190Y-145685771D02*
X192119047Y-145685771D01*
X192119047Y-145685771D02*
X192214285Y-145733390D01*
X192214285Y-145733390D02*
X192261904Y-145781009D01*
X192261904Y-145781009D02*
X192309523Y-145876247D01*
X192309523Y-145876247D02*
X192309523Y-146114342D01*
X192309523Y-146114342D02*
X192261904Y-146209580D01*
X192261904Y-146209580D02*
X192214285Y-146257200D01*
X192214285Y-146257200D02*
X192119047Y-146304819D01*
X192119047Y-146304819D02*
X191833333Y-146304819D01*
X191833333Y-146304819D02*
X191738095Y-146257200D01*
X191738095Y-146257200D02*
X191690476Y-146209580D01*
X162531009Y-105380952D02*
X162578628Y-105238095D01*
X162578628Y-105238095D02*
X162626247Y-105190476D01*
X162626247Y-105190476D02*
X162721485Y-105142857D01*
X162721485Y-105142857D02*
X162864342Y-105142857D01*
X162864342Y-105142857D02*
X162959580Y-105190476D01*
X162959580Y-105190476D02*
X163007200Y-105238095D01*
X163007200Y-105238095D02*
X163054819Y-105333333D01*
X163054819Y-105333333D02*
X163054819Y-105714285D01*
X163054819Y-105714285D02*
X162054819Y-105714285D01*
X162054819Y-105714285D02*
X162054819Y-105380952D01*
X162054819Y-105380952D02*
X162102438Y-105285714D01*
X162102438Y-105285714D02*
X162150057Y-105238095D01*
X162150057Y-105238095D02*
X162245295Y-105190476D01*
X162245295Y-105190476D02*
X162340533Y-105190476D01*
X162340533Y-105190476D02*
X162435771Y-105238095D01*
X162435771Y-105238095D02*
X162483390Y-105285714D01*
X162483390Y-105285714D02*
X162531009Y-105380952D01*
X162531009Y-105380952D02*
X162531009Y-105714285D01*
X162054819Y-104809523D02*
X162054819Y-104142857D01*
X162054819Y-104142857D02*
X163054819Y-104809523D01*
X163054819Y-104809523D02*
X163054819Y-104142857D01*
X163054819Y-103238095D02*
X163054819Y-103809523D01*
X163054819Y-103523809D02*
X162054819Y-103523809D01*
X162054819Y-103523809D02*
X162197676Y-103619047D01*
X162197676Y-103619047D02*
X162292914Y-103714285D01*
X162292914Y-103714285D02*
X162340533Y-103809523D01*
X159609048Y-108033866D02*
X160370953Y-108033866D01*
X159990000Y-108414819D02*
X159990000Y-107652914D01*
X153885107Y-121699299D02*
X153885107Y-122413584D01*
X153885107Y-122413584D02*
X153837488Y-122556441D01*
X153837488Y-122556441D02*
X153742250Y-122651680D01*
X153742250Y-122651680D02*
X153599393Y-122699299D01*
X153599393Y-122699299D02*
X153504155Y-122699299D01*
X154885107Y-122699299D02*
X154313679Y-122699299D01*
X154599393Y-122699299D02*
X154599393Y-121699299D01*
X154599393Y-121699299D02*
X154504155Y-121842156D01*
X154504155Y-121842156D02*
X154408917Y-121937394D01*
X154408917Y-121937394D02*
X154313679Y-121985013D01*
D13*
X176678572Y-112749757D02*
X176535715Y-112678328D01*
X176535715Y-112678328D02*
X176321429Y-112678328D01*
X176321429Y-112678328D02*
X176107143Y-112749757D01*
X176107143Y-112749757D02*
X175964286Y-112892614D01*
X175964286Y-112892614D02*
X175892857Y-113035471D01*
X175892857Y-113035471D02*
X175821429Y-113321185D01*
X175821429Y-113321185D02*
X175821429Y-113535471D01*
X175821429Y-113535471D02*
X175892857Y-113821185D01*
X175892857Y-113821185D02*
X175964286Y-113964042D01*
X175964286Y-113964042D02*
X176107143Y-114106900D01*
X176107143Y-114106900D02*
X176321429Y-114178328D01*
X176321429Y-114178328D02*
X176464286Y-114178328D01*
X176464286Y-114178328D02*
X176678572Y-114106900D01*
X176678572Y-114106900D02*
X176750000Y-114035471D01*
X176750000Y-114035471D02*
X176750000Y-113535471D01*
X176750000Y-113535471D02*
X176464286Y-113535471D01*
X177607143Y-112678328D02*
X177607143Y-113035471D01*
X177250000Y-112892614D02*
X177607143Y-113035471D01*
X177607143Y-113035471D02*
X177964286Y-112892614D01*
X177392857Y-113321185D02*
X177607143Y-113035471D01*
X177607143Y-113035471D02*
X177821429Y-113321185D01*
X178750000Y-112678328D02*
X178750000Y-113035471D01*
X178392857Y-112892614D02*
X178750000Y-113035471D01*
X178750000Y-113035471D02*
X179107143Y-112892614D01*
X178535714Y-113321185D02*
X178750000Y-113035471D01*
X178750000Y-113035471D02*
X178964286Y-113321185D01*
X179892857Y-112678328D02*
X179892857Y-113035471D01*
X179535714Y-112892614D02*
X179892857Y-113035471D01*
X179892857Y-113035471D02*
X180250000Y-112892614D01*
X179678571Y-113321185D02*
X179892857Y-113035471D01*
X179892857Y-113035471D02*
X180107143Y-113321185D01*
X162321427Y-118749757D02*
X162464285Y-118678328D01*
X162464285Y-118678328D02*
X162678570Y-118678328D01*
X162678570Y-118678328D02*
X162892856Y-118749757D01*
X162892856Y-118749757D02*
X163035713Y-118892614D01*
X163035713Y-118892614D02*
X163107142Y-119035471D01*
X163107142Y-119035471D02*
X163178570Y-119321185D01*
X163178570Y-119321185D02*
X163178570Y-119535471D01*
X163178570Y-119535471D02*
X163107142Y-119821185D01*
X163107142Y-119821185D02*
X163035713Y-119964042D01*
X163035713Y-119964042D02*
X162892856Y-120106900D01*
X162892856Y-120106900D02*
X162678570Y-120178328D01*
X162678570Y-120178328D02*
X162535713Y-120178328D01*
X162535713Y-120178328D02*
X162321427Y-120106900D01*
X162321427Y-120106900D02*
X162249999Y-120035471D01*
X162249999Y-120035471D02*
X162249999Y-119535471D01*
X162249999Y-119535471D02*
X162535713Y-119535471D01*
X161392856Y-118678328D02*
X161392856Y-119035471D01*
X161749999Y-118892614D02*
X161392856Y-119035471D01*
X161392856Y-119035471D02*
X161035713Y-118892614D01*
X161607142Y-119321185D02*
X161392856Y-119035471D01*
X161392856Y-119035471D02*
X161178570Y-119321185D01*
X160249999Y-118678328D02*
X160249999Y-119035471D01*
X160607142Y-118892614D02*
X160249999Y-119035471D01*
X160249999Y-119035471D02*
X159892856Y-118892614D01*
X160464285Y-119321185D02*
X160249999Y-119035471D01*
X160249999Y-119035471D02*
X160035713Y-119321185D01*
X159107142Y-118678328D02*
X159107142Y-119035471D01*
X159464285Y-118892614D02*
X159107142Y-119035471D01*
X159107142Y-119035471D02*
X158749999Y-118892614D01*
X159321428Y-119321185D02*
X159107142Y-119035471D01*
X159107142Y-119035471D02*
X158892856Y-119321185D01*
%TO.C,SW5*%
D14*
X170825000Y-126055000D02*
X184795000Y-126055000D01*
X170825000Y-140025000D02*
X170825000Y-126055000D01*
X184795000Y-126055000D02*
X184795000Y-140025000D01*
X184795000Y-140025000D02*
X170825000Y-140025000D01*
%TO.C,SW4*%
X151825000Y-126055000D02*
X165795000Y-126055000D01*
X151825000Y-140025000D02*
X151825000Y-126055000D01*
X165795000Y-126055000D02*
X165795000Y-140025000D01*
X165795000Y-140025000D02*
X151825000Y-140025000D01*
%TO.C,SW1*%
X94325000Y-126055000D02*
X108295000Y-126055000D01*
X94325000Y-140025000D02*
X94325000Y-126055000D01*
X108295000Y-126055000D02*
X108295000Y-140025000D01*
X108295000Y-140025000D02*
X94325000Y-140025000D01*
%TO.C,SW3*%
X132595000Y-126015000D02*
X146565000Y-126015000D01*
X132595000Y-139985000D02*
X132595000Y-126015000D01*
X146565000Y-126015000D02*
X146565000Y-139985000D01*
X146565000Y-139985000D02*
X132595000Y-139985000D01*
%TO.C,SW2*%
X113475000Y-126095000D02*
X127445000Y-126095000D01*
X113475000Y-140065000D02*
X113475000Y-126095000D01*
X127445000Y-126095000D02*
X127445000Y-140065000D01*
X127445000Y-140065000D02*
X113475000Y-140065000D01*
%TO.C,U1*%
D15*
X104635000Y-120034000D02*
X118605000Y-120034000D01*
X102730000Y-118129000D02*
X102730000Y-100984000D01*
X120510000Y-118129000D02*
X120510000Y-100984000D01*
X107125000Y-99079000D02*
X107128728Y-98068728D01*
D10*
X118605000Y-99079000D02*
X104635000Y-99079000D01*
D15*
X118605000Y-99079000D02*
X104635000Y-99079000D01*
X116124000Y-98069000D02*
X116124000Y-99079000D01*
X107628728Y-97569000D02*
X115624000Y-97569000D01*
X104635000Y-120034000D02*
G75*
G02*
X102730000Y-118129000I1J1905001D01*
G01*
X120510000Y-118129000D02*
G75*
G02*
X118605000Y-120034000I-1905001J1D01*
G01*
X102730000Y-100984000D02*
G75*
G02*
X104635000Y-99079000I1905000J0D01*
G01*
X118605000Y-99079000D02*
G75*
G02*
X120510000Y-100984000I0J-1905000D01*
G01*
X107128728Y-98068728D02*
G75*
G02*
X107628728Y-97569028I499972J-272D01*
G01*
X115624000Y-97569000D02*
G75*
G02*
X116124000Y-98069000I0J-500000D01*
G01*
D16*
X104015000Y-100250000D02*
G75*
G02*
X103511000Y-100250000I-252000J0D01*
G01*
X103511000Y-100250000D02*
G75*
G02*
X104015000Y-100250000I252000J0D01*
G01*
X102872000Y-99370000D02*
G75*
G02*
X102368000Y-99370000I-252000J0D01*
G01*
X102368000Y-99370000D02*
G75*
G02*
X102872000Y-99370000I252000J0D01*
G01*
%TO.C,BZ1*%
D14*
X169900000Y-110500000D02*
G75*
G02*
X157700000Y-110500000I-6100000J0D01*
G01*
X157700000Y-110500000D02*
G75*
G02*
X169900000Y-110500000I6100000J0D01*
G01*
%TO.C,J1*%
X155548441Y-118204480D02*
X155548441Y-100364480D01*
X155548441Y-118204480D02*
X152888441Y-118204480D01*
X155548441Y-100364480D02*
X152888441Y-100364480D01*
X154218441Y-120804480D02*
X152888441Y-120804480D01*
X152888441Y-120804480D02*
X152888441Y-119474480D01*
X152888441Y-118204480D02*
X152888441Y-100364480D01*
D17*
%TO.C,G\u002A\u002A\u002A*%
G36*
X177482982Y-111565483D02*
G01*
X177618499Y-111746625D01*
X177761478Y-111937929D01*
X177908773Y-112135177D01*
X178057239Y-112334147D01*
X178203730Y-112530620D01*
X178345101Y-112720378D01*
X178478206Y-112899199D01*
X178599899Y-113062865D01*
X178707035Y-113207156D01*
X178750403Y-113265645D01*
X179268404Y-113964645D01*
X179272465Y-112264483D01*
X179276526Y-110564321D01*
X179850826Y-110564321D01*
X180425125Y-110564321D01*
X180425125Y-113236746D01*
X180425125Y-115909171D01*
X179862720Y-115908255D01*
X179300314Y-115907339D01*
X179041125Y-115553261D01*
X178935941Y-115409994D01*
X178813664Y-115244191D01*
X178676459Y-115058761D01*
X178526493Y-114856609D01*
X178365931Y-114640644D01*
X178196940Y-114413772D01*
X178021685Y-114178901D01*
X177842331Y-113938937D01*
X177661046Y-113696789D01*
X177479994Y-113455362D01*
X177301342Y-113217564D01*
X177266080Y-113170682D01*
X176715640Y-112439007D01*
X176711581Y-114174089D01*
X176707521Y-115909171D01*
X176133220Y-115909171D01*
X175558919Y-115909171D01*
X175558919Y-113236746D01*
X175558919Y-110564321D01*
X176146241Y-110564321D01*
X176733563Y-110564321D01*
X177482982Y-111565483D01*
G37*
G36*
X183663944Y-111675803D02*
G01*
X183692855Y-111693689D01*
X183706199Y-111727482D01*
X183708730Y-111748364D01*
X183713629Y-111807013D01*
X183529286Y-111915598D01*
X183344943Y-112024183D01*
X183344896Y-113271054D01*
X183344849Y-114517925D01*
X183528340Y-114624477D01*
X183613323Y-114675613D01*
X183672439Y-114716443D01*
X183708630Y-114750386D01*
X183724838Y-114780863D01*
X183724001Y-114811293D01*
X183712604Y-114838715D01*
X183693140Y-114861516D01*
X183664243Y-114869871D01*
X183622453Y-114862846D01*
X183564308Y-114839508D01*
X183486347Y-114798922D01*
X183416645Y-114758876D01*
X183344488Y-114715770D01*
X183280479Y-114676407D01*
X183230600Y-114644545D01*
X183200833Y-114623944D01*
X183197177Y-114620942D01*
X183192189Y-114615046D01*
X183187842Y-114605561D01*
X183184101Y-114590442D01*
X183180931Y-114567646D01*
X183178293Y-114535129D01*
X183176154Y-114490847D01*
X183174476Y-114432757D01*
X183173224Y-114358814D01*
X183172362Y-114266975D01*
X183171854Y-114155196D01*
X183171663Y-114021433D01*
X183171754Y-113863643D01*
X183172091Y-113679781D01*
X183172637Y-113467805D01*
X183173245Y-113262346D01*
X183177324Y-111928922D01*
X183400691Y-111795407D01*
X183486365Y-111744808D01*
X183549587Y-111709283D01*
X183594838Y-111686795D01*
X183626601Y-111675308D01*
X183649358Y-111672786D01*
X183663944Y-111675803D01*
G37*
G36*
X172365542Y-111675233D02*
G01*
X172395124Y-111685405D01*
X172437775Y-111706115D01*
X172498055Y-111739345D01*
X172580525Y-111787073D01*
X172590160Y-111792715D01*
X172814698Y-111924284D01*
X172818325Y-113186796D01*
X172819024Y-113431272D01*
X172819602Y-113645832D01*
X172820028Y-113832469D01*
X172820270Y-113993176D01*
X172820295Y-114129946D01*
X172820071Y-114244774D01*
X172819566Y-114339651D01*
X172818747Y-114416572D01*
X172817581Y-114477529D01*
X172816038Y-114524516D01*
X172814084Y-114559526D01*
X172811687Y-114584552D01*
X172808815Y-114601588D01*
X172805435Y-114612627D01*
X172801515Y-114619661D01*
X172797024Y-114624685D01*
X172794982Y-114626652D01*
X172768539Y-114646471D01*
X172721899Y-114676180D01*
X172661271Y-114712329D01*
X172592867Y-114751462D01*
X172522898Y-114790128D01*
X172457572Y-114824874D01*
X172403101Y-114852248D01*
X172365695Y-114868795D01*
X172353491Y-114872110D01*
X172317386Y-114861267D01*
X172296441Y-114846172D01*
X172278146Y-114810783D01*
X172275358Y-114778364D01*
X172281685Y-114758464D01*
X172298748Y-114737195D01*
X172330744Y-114711209D01*
X172381870Y-114677158D01*
X172456323Y-114631694D01*
X172467778Y-114624864D01*
X172655343Y-114513234D01*
X172651258Y-113268708D01*
X172647173Y-112024183D01*
X172481756Y-111926004D01*
X172414935Y-111885554D01*
X172356721Y-111848854D01*
X172313537Y-111820048D01*
X172292219Y-111803705D01*
X172276173Y-111768021D01*
X172282915Y-111726152D01*
X172309057Y-111690160D01*
X172327347Y-111678586D01*
X172344469Y-111673620D01*
X172365542Y-111675233D01*
G37*
G36*
X178581626Y-107087671D02*
G01*
X178633468Y-107110734D01*
X178711300Y-107151549D01*
X178815263Y-107210188D01*
X178913365Y-107267625D01*
X179006706Y-107323193D01*
X179091878Y-107374390D01*
X179164687Y-107418657D01*
X179220940Y-107453433D01*
X179256443Y-107476158D01*
X179266128Y-107483015D01*
X179274679Y-107493513D01*
X179281174Y-107511512D01*
X179285885Y-107541012D01*
X179289083Y-107586011D01*
X179291043Y-107650508D01*
X179292036Y-107738502D01*
X179292334Y-107853991D01*
X179292336Y-107867648D01*
X179292336Y-108230383D01*
X179543624Y-108378498D01*
X179614117Y-108420139D01*
X179707331Y-108475340D01*
X179818579Y-108541318D01*
X179943175Y-108615291D01*
X180076432Y-108694477D01*
X180213665Y-108776092D01*
X180350186Y-108857354D01*
X180377261Y-108873478D01*
X180521976Y-108959613D01*
X180675990Y-109051172D01*
X180833146Y-109144503D01*
X180987289Y-109235954D01*
X181132264Y-109321872D01*
X181261915Y-109398606D01*
X181366457Y-109460363D01*
X181493064Y-109535480D01*
X181594188Y-109596836D01*
X181672106Y-109646409D01*
X181729094Y-109686173D01*
X181767428Y-109718107D01*
X181789385Y-109744185D01*
X181797242Y-109766385D01*
X181793274Y-109786682D01*
X181779759Y-109807053D01*
X181773741Y-109813964D01*
X181739877Y-109838246D01*
X181711001Y-109845635D01*
X181690165Y-109837535D01*
X181645199Y-109814763D01*
X181579305Y-109779113D01*
X181495685Y-109732379D01*
X181397542Y-109676353D01*
X181288078Y-109612830D01*
X181170497Y-109543602D01*
X181151068Y-109532070D01*
X181027501Y-109458647D01*
X180882024Y-109372205D01*
X180720160Y-109276024D01*
X180547431Y-109173385D01*
X180369358Y-109067570D01*
X180191463Y-108961860D01*
X180019269Y-108859536D01*
X179882663Y-108778359D01*
X179140766Y-108337491D01*
X179132789Y-107963427D01*
X179124811Y-107589363D01*
X178821671Y-107409966D01*
X178731852Y-107355960D01*
X178650589Y-107305488D01*
X178582219Y-107261372D01*
X178531078Y-107226438D01*
X178501506Y-107203509D01*
X178496696Y-107198346D01*
X178483413Y-107170021D01*
X178490893Y-107142586D01*
X178499657Y-107128281D01*
X178528898Y-107097099D01*
X178555632Y-107082286D01*
X178581626Y-107087671D01*
G37*
G36*
X183596074Y-110684164D02*
G01*
X183629254Y-110712931D01*
X183645859Y-110734266D01*
X183656187Y-110760348D01*
X183661669Y-110798872D01*
X183663740Y-110857533D01*
X183663944Y-110899144D01*
X183662484Y-110976922D01*
X183657511Y-111029094D01*
X183648139Y-111061858D01*
X183638537Y-111076504D01*
X183619010Y-111091193D01*
X183575394Y-111119845D01*
X183511148Y-111160323D01*
X183429732Y-111210486D01*
X183334606Y-111268196D01*
X183229229Y-111331314D01*
X183159894Y-111372443D01*
X182706658Y-111640308D01*
X182706658Y-113288512D01*
X182706658Y-114936715D01*
X182774466Y-114977119D01*
X182805871Y-114995801D01*
X182860433Y-115028224D01*
X182933869Y-115071844D01*
X183021894Y-115124118D01*
X183120225Y-115182501D01*
X183224579Y-115244449D01*
X183233166Y-115249546D01*
X183335369Y-115310493D01*
X183429571Y-115367206D01*
X183511983Y-115417360D01*
X183578816Y-115458633D01*
X183626282Y-115488701D01*
X183650593Y-115505241D01*
X183651978Y-115506385D01*
X183666994Y-115526941D01*
X183675684Y-115560405D01*
X183679437Y-115614177D01*
X183679899Y-115655227D01*
X183676396Y-115734623D01*
X183664420Y-115787099D01*
X183641770Y-115817024D01*
X183606246Y-115828766D01*
X183592148Y-115829397D01*
X183551344Y-115819018D01*
X183529468Y-115804325D01*
X183511103Y-115765687D01*
X183504416Y-115699255D01*
X183504397Y-115694706D01*
X183504397Y-115610159D01*
X183037720Y-115334620D01*
X182926835Y-115268844D01*
X182824681Y-115207658D01*
X182734531Y-115153068D01*
X182659658Y-115107082D01*
X182603338Y-115071705D01*
X182568844Y-115048944D01*
X182559280Y-115041381D01*
X182557742Y-115023366D01*
X182556330Y-114975510D01*
X182555053Y-114899886D01*
X182553923Y-114798562D01*
X182552947Y-114673609D01*
X182552135Y-114527096D01*
X182551496Y-114361093D01*
X182551041Y-114177671D01*
X182550777Y-113978899D01*
X182550715Y-113766848D01*
X182550864Y-113543587D01*
X182551234Y-113311186D01*
X182551303Y-113278338D01*
X182555088Y-111532995D01*
X183017776Y-111258306D01*
X183480465Y-110983618D01*
X183488442Y-110852413D01*
X183494094Y-110783173D01*
X183502043Y-110738695D01*
X183514098Y-110711834D01*
X183527390Y-110698606D01*
X183564664Y-110678755D01*
X183596074Y-110684164D01*
G37*
G36*
X177474957Y-107098617D02*
G01*
X177499862Y-107133680D01*
X177502566Y-107176236D01*
X177498142Y-107192269D01*
X177486453Y-107209380D01*
X177464173Y-107229973D01*
X177427979Y-107256452D01*
X177374545Y-107291221D01*
X177300549Y-107336685D01*
X177202664Y-107395248D01*
X177186306Y-107404960D01*
X176875188Y-107589563D01*
X176867211Y-107961254D01*
X176864289Y-108083022D01*
X176861206Y-108176544D01*
X176857661Y-108245480D01*
X176853350Y-108293493D01*
X176847970Y-108324245D01*
X176841220Y-108341397D01*
X176835301Y-108347407D01*
X176817389Y-108358111D01*
X176774661Y-108383586D01*
X176709720Y-108422282D01*
X176625171Y-108472648D01*
X176523617Y-108533132D01*
X176407660Y-108602185D01*
X176279906Y-108678256D01*
X176142957Y-108759793D01*
X176069472Y-108803542D01*
X175793657Y-108967618D01*
X175544220Y-109115730D01*
X175320232Y-109248418D01*
X175120761Y-109366222D01*
X174944877Y-109469682D01*
X174791648Y-109559338D01*
X174660143Y-109635730D01*
X174549432Y-109699398D01*
X174458584Y-109750882D01*
X174386667Y-109790721D01*
X174332752Y-109819456D01*
X174295905Y-109837627D01*
X174275198Y-109845774D01*
X174271568Y-109846357D01*
X174235223Y-109835878D01*
X174219519Y-109823389D01*
X174207021Y-109791168D01*
X174205599Y-109755581D01*
X174206645Y-109744242D01*
X174208427Y-109734224D01*
X174213209Y-109724032D01*
X174223255Y-109712175D01*
X174240830Y-109697157D01*
X174268198Y-109677486D01*
X174307624Y-109651667D01*
X174361371Y-109618207D01*
X174431705Y-109575613D01*
X174520889Y-109522390D01*
X174631188Y-109457045D01*
X174764866Y-109378085D01*
X174888819Y-109304904D01*
X175010148Y-109233207D01*
X175150498Y-109150187D01*
X175305535Y-109058414D01*
X175470923Y-108960458D01*
X175642329Y-108858888D01*
X175815417Y-108756275D01*
X175985854Y-108655190D01*
X176149305Y-108558201D01*
X176301435Y-108467879D01*
X176437910Y-108386794D01*
X176554396Y-108317516D01*
X176623900Y-108276124D01*
X176691708Y-108235710D01*
X176691708Y-107879384D01*
X176692267Y-107751704D01*
X176694040Y-107653150D01*
X176697172Y-107580957D01*
X176701806Y-107532361D01*
X176708089Y-107504597D01*
X176711652Y-107497958D01*
X176733936Y-107479332D01*
X176778946Y-107448770D01*
X176841918Y-107409008D01*
X176918086Y-107362782D01*
X177002687Y-107312827D01*
X177090956Y-107261880D01*
X177178127Y-107212676D01*
X177259436Y-107167951D01*
X177330119Y-107130441D01*
X177385411Y-107102882D01*
X177420547Y-107088010D01*
X177428787Y-107086181D01*
X177474957Y-107098617D01*
G37*
G36*
X174212930Y-116698833D02*
G01*
X174256181Y-116721147D01*
X174319721Y-116755917D01*
X174400013Y-116801165D01*
X174493522Y-116854909D01*
X174596709Y-116915170D01*
X174645277Y-116943838D01*
X174759004Y-117011139D01*
X174893934Y-117090905D01*
X175043770Y-117179418D01*
X175202213Y-117272961D01*
X175362966Y-117367815D01*
X175519731Y-117460262D01*
X175662625Y-117544472D01*
X175863089Y-117662575D01*
X176037913Y-117765614D01*
X176188960Y-117854700D01*
X176318094Y-117930948D01*
X176427179Y-117995470D01*
X176518079Y-118049380D01*
X176592657Y-118093792D01*
X176652777Y-118129818D01*
X176700303Y-118158572D01*
X176737098Y-118181167D01*
X176765027Y-118198716D01*
X176785952Y-118212333D01*
X176801739Y-118223132D01*
X176814250Y-118232224D01*
X176815358Y-118233056D01*
X176867211Y-118272101D01*
X176867211Y-118636026D01*
X176867211Y-118999951D01*
X176958951Y-119049664D01*
X177005189Y-119075505D01*
X177071387Y-119113536D01*
X177150177Y-119159477D01*
X177234190Y-119209046D01*
X177274058Y-119232780D01*
X177359013Y-119284148D01*
X177420035Y-119322943D01*
X177461027Y-119352186D01*
X177485895Y-119374898D01*
X177498542Y-119394102D01*
X177502566Y-119409621D01*
X177496803Y-119460133D01*
X177467294Y-119490767D01*
X177427663Y-119498760D01*
X177400777Y-119490470D01*
X177350203Y-119466922D01*
X177279253Y-119429867D01*
X177191239Y-119381057D01*
X177089471Y-119322243D01*
X177052160Y-119300180D01*
X176958696Y-119244092D01*
X176874251Y-119192435D01*
X176802767Y-119147700D01*
X176748188Y-119112382D01*
X176714460Y-119088971D01*
X176705388Y-119081036D01*
X176701538Y-119059588D01*
X176698109Y-119011127D01*
X176695276Y-118940546D01*
X176693214Y-118852740D01*
X176692098Y-118752604D01*
X176691953Y-118706001D01*
X176691708Y-118351763D01*
X176424466Y-118193539D01*
X176334715Y-118140417D01*
X176224924Y-118075459D01*
X176102525Y-118003061D01*
X175974948Y-117927618D01*
X175849627Y-117853525D01*
X175766331Y-117804290D01*
X175514626Y-117655516D01*
X175289063Y-117522166D01*
X175088304Y-117403446D01*
X174911013Y-117298561D01*
X174755849Y-117206717D01*
X174621477Y-117127119D01*
X174506558Y-117058973D01*
X174409753Y-117001485D01*
X174329726Y-116953858D01*
X174265138Y-116915300D01*
X174214651Y-116885016D01*
X174176927Y-116862211D01*
X174150630Y-116846090D01*
X174134419Y-116835860D01*
X174126978Y-116830740D01*
X174112250Y-116804031D01*
X174107035Y-116769336D01*
X174120915Y-116724685D01*
X174158092Y-116696997D01*
X174193506Y-116690954D01*
X174212930Y-116698833D01*
G37*
G36*
X176335398Y-107764009D02*
G01*
X176349955Y-107773294D01*
X176367660Y-107804720D01*
X176371645Y-107847540D01*
X176361552Y-107885422D01*
X176352669Y-107896228D01*
X176336426Y-107906498D01*
X176294897Y-107931763D01*
X176230240Y-107970739D01*
X176144614Y-108022141D01*
X176040176Y-108084683D01*
X175919083Y-108157081D01*
X175783495Y-108238049D01*
X175635569Y-108326302D01*
X175477462Y-108420556D01*
X175311333Y-108519524D01*
X175139339Y-108621921D01*
X174963639Y-108726463D01*
X174786390Y-108831865D01*
X174609751Y-108936840D01*
X174435878Y-109040105D01*
X174266931Y-109140374D01*
X174105066Y-109236361D01*
X173952442Y-109326782D01*
X173811217Y-109410351D01*
X173695431Y-109478769D01*
X173307759Y-109707653D01*
X173503974Y-109822834D01*
X173577961Y-109866204D01*
X173672009Y-109921238D01*
X173778602Y-109983545D01*
X173890225Y-110048732D01*
X173999363Y-110112407D01*
X174027261Y-110128672D01*
X174142224Y-110196389D01*
X174231502Y-110251101D01*
X174297454Y-110295021D01*
X174342441Y-110330367D01*
X174368820Y-110359353D01*
X174378954Y-110384196D01*
X174375200Y-110407111D01*
X174359918Y-110430313D01*
X174354771Y-110436200D01*
X174323962Y-110460542D01*
X174299783Y-110468593D01*
X174277627Y-110460922D01*
X174233430Y-110439769D01*
X174172599Y-110407921D01*
X174100543Y-110368167D01*
X174058946Y-110344438D01*
X173865107Y-110232541D01*
X173697132Y-110135372D01*
X173553225Y-110051750D01*
X173431590Y-109980490D01*
X173330432Y-109920410D01*
X173247956Y-109870324D01*
X173182366Y-109829051D01*
X173131867Y-109795406D01*
X173094662Y-109768207D01*
X173068958Y-109746269D01*
X173052958Y-109728410D01*
X173044867Y-109713446D01*
X173042890Y-109700194D01*
X173045230Y-109687469D01*
X173048426Y-109678374D01*
X173063565Y-109665688D01*
X173103166Y-109638757D01*
X173164173Y-109599490D01*
X173243529Y-109549798D01*
X173338181Y-109491592D01*
X173445071Y-109426782D01*
X173561144Y-109357279D01*
X173577831Y-109347356D01*
X173679052Y-109287216D01*
X173804083Y-109212933D01*
X173949301Y-109126661D01*
X174111080Y-109030554D01*
X174285796Y-108926765D01*
X174469825Y-108817446D01*
X174659542Y-108704750D01*
X174851322Y-108590832D01*
X175041541Y-108477844D01*
X175183034Y-108393800D01*
X175353544Y-108292772D01*
X175516560Y-108196669D01*
X175669944Y-108106723D01*
X175811559Y-108024164D01*
X175939268Y-107950223D01*
X176050933Y-107886131D01*
X176144416Y-107833119D01*
X176217581Y-107792417D01*
X176268290Y-107765257D01*
X176294405Y-107752869D01*
X176297154Y-107752219D01*
X176335398Y-107764009D01*
G37*
G36*
X172431268Y-110684122D02*
G01*
X172455716Y-110698470D01*
X172475848Y-110714180D01*
X172487771Y-110734000D01*
X172493608Y-110766001D01*
X172495484Y-110818254D01*
X172495603Y-110849967D01*
X172495603Y-110975329D01*
X172962280Y-111250197D01*
X173073202Y-111315851D01*
X173175384Y-111376953D01*
X173265549Y-111431493D01*
X173340420Y-111477464D01*
X173396720Y-111512859D01*
X173431170Y-111535670D01*
X173440679Y-111543279D01*
X173442257Y-111561377D01*
X173443777Y-111609302D01*
X173445225Y-111684970D01*
X173446587Y-111786298D01*
X173447847Y-111911203D01*
X173448992Y-112057602D01*
X173450008Y-112223412D01*
X173450879Y-112406550D01*
X173451593Y-112604933D01*
X173452134Y-112816478D01*
X173452489Y-113039101D01*
X173452642Y-113270719D01*
X173452645Y-113286831D01*
X173452661Y-113559329D01*
X173452608Y-113801713D01*
X173452459Y-114015777D01*
X173452185Y-114203316D01*
X173451757Y-114366127D01*
X173451148Y-114506003D01*
X173450329Y-114624741D01*
X173449272Y-114724134D01*
X173447948Y-114805979D01*
X173446330Y-114872070D01*
X173444388Y-114924202D01*
X173442096Y-114964170D01*
X173439424Y-114993770D01*
X173436344Y-115014797D01*
X173432828Y-115029045D01*
X173428847Y-115038310D01*
X173424968Y-115043732D01*
X173402332Y-115062038D01*
X173357193Y-115092887D01*
X173294728Y-115132944D01*
X173220110Y-115178870D01*
X173157726Y-115216076D01*
X173056891Y-115275519D01*
X172944469Y-115342003D01*
X172832194Y-115408575D01*
X172731802Y-115468282D01*
X172703015Y-115485452D01*
X172487625Y-115614049D01*
X172482681Y-115701296D01*
X172476954Y-115753876D01*
X172467593Y-115794645D01*
X172460784Y-115808970D01*
X172427152Y-115827565D01*
X172383244Y-115826883D01*
X172342929Y-115808503D01*
X172328982Y-115793937D01*
X172314785Y-115756501D01*
X172306394Y-115700382D01*
X172304014Y-115636910D01*
X172307850Y-115577417D01*
X172318106Y-115533232D01*
X172324089Y-115522333D01*
X172332435Y-115514224D01*
X172349159Y-115501638D01*
X172376223Y-115483379D01*
X172415591Y-115458253D01*
X172469227Y-115425065D01*
X172539094Y-115382619D01*
X172627155Y-115329720D01*
X172735375Y-115265174D01*
X172865715Y-115187785D01*
X173020141Y-115096359D01*
X173153810Y-115017348D01*
X173277533Y-114944254D01*
X173273471Y-113287750D01*
X173269409Y-111631246D01*
X172806721Y-111356715D01*
X172344032Y-111082183D01*
X172339528Y-110903732D01*
X172337841Y-110826095D01*
X172338194Y-110774012D01*
X172341697Y-110741139D01*
X172349461Y-110721134D01*
X172362598Y-110707653D01*
X172375426Y-110698808D01*
X172406832Y-110681726D01*
X172431268Y-110684122D01*
G37*
G36*
X181848216Y-116704974D02*
G01*
X181879202Y-116739290D01*
X181890847Y-116782292D01*
X181890258Y-116789243D01*
X181882802Y-116805558D01*
X181862579Y-116826412D01*
X181826513Y-116853976D01*
X181771526Y-116890419D01*
X181694543Y-116937911D01*
X181597801Y-116995491D01*
X181511556Y-117046307D01*
X181403902Y-117109766D01*
X181280906Y-117182291D01*
X181148638Y-117260301D01*
X181013166Y-117340218D01*
X180880558Y-117418464D01*
X180823995Y-117451845D01*
X180681399Y-117535997D01*
X180520127Y-117631158D01*
X180348987Y-117732129D01*
X180176790Y-117833713D01*
X180012347Y-117930713D01*
X179864468Y-118017930D01*
X179842776Y-118030722D01*
X179727724Y-118098785D01*
X179620603Y-118162566D01*
X179524723Y-118220064D01*
X179443395Y-118269277D01*
X179379928Y-118308202D01*
X179337632Y-118334837D01*
X179320257Y-118346773D01*
X179311093Y-118357530D01*
X179304164Y-118374429D01*
X179299163Y-118401607D01*
X179295786Y-118443198D01*
X179293728Y-118503340D01*
X179292683Y-118586168D01*
X179292346Y-118695819D01*
X179292336Y-118725188D01*
X179292121Y-118841517D01*
X179291273Y-118930062D01*
X179289486Y-118994946D01*
X179286456Y-119040295D01*
X179281877Y-119070231D01*
X179275444Y-119088879D01*
X179266852Y-119100362D01*
X179264416Y-119102527D01*
X179232341Y-119125680D01*
X179179726Y-119159585D01*
X179111345Y-119201519D01*
X179031975Y-119248755D01*
X178946389Y-119298569D01*
X178859364Y-119348235D01*
X178775674Y-119395030D01*
X178700096Y-119436228D01*
X178637403Y-119469105D01*
X178592372Y-119490934D01*
X178569777Y-119498993D01*
X178569624Y-119498995D01*
X178531486Y-119490181D01*
X178511353Y-119476027D01*
X178498812Y-119443734D01*
X178497434Y-119408716D01*
X178501817Y-119392638D01*
X178513388Y-119375524D01*
X178535467Y-119354960D01*
X178571378Y-119328535D01*
X178624442Y-119293834D01*
X178697981Y-119248446D01*
X178795317Y-119189956D01*
X178813693Y-119178999D01*
X179124811Y-118993626D01*
X179132789Y-118620924D01*
X179140766Y-118248222D01*
X179770980Y-117876016D01*
X179907974Y-117795107D01*
X180043118Y-117715293D01*
X180172533Y-117638863D01*
X180292345Y-117568105D01*
X180398678Y-117505310D01*
X180487654Y-117452765D01*
X180555399Y-117412760D01*
X180584673Y-117395475D01*
X180642498Y-117361309D01*
X180723079Y-117313665D01*
X180821717Y-117255322D01*
X180933711Y-117189062D01*
X181054361Y-117117666D01*
X181178967Y-117043913D01*
X181271647Y-116989047D01*
X181387612Y-116920901D01*
X181495918Y-116858232D01*
X181593282Y-116802867D01*
X181676421Y-116756630D01*
X181742052Y-116721349D01*
X181786892Y-116698848D01*
X181807648Y-116690954D01*
X181848216Y-116704974D01*
G37*
G36*
X181863888Y-116116467D02*
G01*
X181912753Y-116138939D01*
X181985268Y-116176790D01*
X182082143Y-116230409D01*
X182204089Y-116300186D01*
X182351815Y-116386510D01*
X182449119Y-116444034D01*
X182571064Y-116516738D01*
X182684334Y-116584963D01*
X182785998Y-116646894D01*
X182873125Y-116700712D01*
X182942785Y-116744601D01*
X182992046Y-116776744D01*
X183017978Y-116795325D01*
X183021223Y-116798685D01*
X183023046Y-116843235D01*
X182996033Y-116887900D01*
X182942920Y-116928173D01*
X182942413Y-116928456D01*
X182914832Y-116944320D01*
X182862903Y-116974654D01*
X182789717Y-117017635D01*
X182698365Y-117071442D01*
X182591936Y-117134254D01*
X182473521Y-117204248D01*
X182346210Y-117279603D01*
X182235992Y-117344917D01*
X182098624Y-117426342D01*
X181939022Y-117520907D01*
X181762418Y-117625512D01*
X181574047Y-117737061D01*
X181379142Y-117852453D01*
X181182937Y-117968591D01*
X180990665Y-118082375D01*
X180807561Y-118190707D01*
X180728266Y-118237610D01*
X180574430Y-118328650D01*
X180427413Y-118415754D01*
X180289741Y-118497419D01*
X180163943Y-118572140D01*
X180052545Y-118638414D01*
X179958075Y-118694736D01*
X179883061Y-118739604D01*
X179830029Y-118771513D01*
X179801508Y-118788959D01*
X179799243Y-118790401D01*
X179733393Y-118822255D01*
X179679266Y-118824738D01*
X179636177Y-118797883D01*
X179635946Y-118797628D01*
X179614842Y-118757482D01*
X179624253Y-118716447D01*
X179664630Y-118673585D01*
X179710510Y-118642617D01*
X179741545Y-118624186D01*
X179796841Y-118591378D01*
X179873206Y-118546087D01*
X179967449Y-118490203D01*
X180076380Y-118425619D01*
X180196807Y-118354227D01*
X180325540Y-118277918D01*
X180433103Y-118214164D01*
X180583177Y-118125194D01*
X180741736Y-118031154D01*
X180903089Y-117935421D01*
X181061546Y-117841373D01*
X181211416Y-117752389D01*
X181347009Y-117671844D01*
X181462635Y-117603117D01*
X181494095Y-117584406D01*
X181626656Y-117505651D01*
X181775088Y-117417636D01*
X181930257Y-117325767D01*
X182083030Y-117235447D01*
X182224274Y-117152081D01*
X182315766Y-117098185D01*
X182418614Y-117037419D01*
X182513007Y-116981184D01*
X182595284Y-116931695D01*
X182661786Y-116891171D01*
X182708852Y-116861829D01*
X182732823Y-116845886D01*
X182734619Y-116844411D01*
X182735593Y-116837290D01*
X182726547Y-116825447D01*
X182705683Y-116807754D01*
X182671203Y-116783082D01*
X182621311Y-116750303D01*
X182554209Y-116708288D01*
X182468100Y-116655908D01*
X182361186Y-116592034D01*
X182231671Y-116515538D01*
X182077757Y-116425290D01*
X181928192Y-116337967D01*
X181850041Y-116291274D01*
X181796863Y-116255649D01*
X181765379Y-116227336D01*
X181752307Y-116202575D01*
X181754365Y-116177607D01*
X181766165Y-116152343D01*
X181795989Y-116118348D01*
X181837961Y-116108984D01*
X181863888Y-116116467D01*
G37*
G36*
X174195295Y-116114425D02*
G01*
X174224335Y-116146124D01*
X174228802Y-116159182D01*
X174231349Y-116199741D01*
X174223729Y-116226095D01*
X174206724Y-116239829D01*
X174165463Y-116267663D01*
X174103211Y-116307555D01*
X174023237Y-116357461D01*
X173928808Y-116415339D01*
X173823192Y-116479145D01*
X173730949Y-116534208D01*
X173619312Y-116600781D01*
X173516737Y-116662498D01*
X173426380Y-116717420D01*
X173351398Y-116763602D01*
X173294947Y-116799104D01*
X173260186Y-116821983D01*
X173250058Y-116830023D01*
X173262518Y-116840565D01*
X173299657Y-116865411D01*
X173358590Y-116902783D01*
X173436433Y-116950906D01*
X173530304Y-117008004D01*
X173637319Y-117072299D01*
X173754593Y-117142015D01*
X173800319Y-117169012D01*
X173932612Y-117247008D01*
X174066069Y-117325754D01*
X174195933Y-117402439D01*
X174317446Y-117474250D01*
X174425852Y-117538377D01*
X174516393Y-117592008D01*
X174584312Y-117632332D01*
X174585678Y-117633144D01*
X174691973Y-117696338D01*
X174820677Y-117772772D01*
X174966728Y-117859446D01*
X175125068Y-117953363D01*
X175290636Y-118051521D01*
X175458372Y-118150922D01*
X175623217Y-118248566D01*
X175780111Y-118341454D01*
X175923993Y-118426587D01*
X176005653Y-118474872D01*
X176096944Y-118529145D01*
X176180159Y-118579202D01*
X176250943Y-118622377D01*
X176304943Y-118656004D01*
X176337803Y-118677416D01*
X176344692Y-118682489D01*
X176366572Y-118718251D01*
X176371566Y-118763986D01*
X176358572Y-118803688D01*
X176353467Y-118809748D01*
X176319507Y-118826123D01*
X176270200Y-118820728D01*
X176203201Y-118792992D01*
X176141269Y-118758002D01*
X176114137Y-118741690D01*
X176061809Y-118710454D01*
X175986546Y-118665635D01*
X175890605Y-118608572D01*
X175776247Y-118540606D01*
X175645729Y-118463075D01*
X175501311Y-118377321D01*
X175345252Y-118284682D01*
X175179811Y-118186498D01*
X175007248Y-118084110D01*
X174829820Y-117978857D01*
X174649787Y-117872078D01*
X174469408Y-117765114D01*
X174290942Y-117659305D01*
X174116649Y-117555990D01*
X173948786Y-117456509D01*
X173789614Y-117362202D01*
X173641391Y-117274408D01*
X173506376Y-117194468D01*
X173386828Y-117123722D01*
X173285007Y-117063508D01*
X173203171Y-117015168D01*
X173143579Y-116980040D01*
X173131717Y-116973065D01*
X173053159Y-116924452D01*
X173001364Y-116885491D01*
X172973871Y-116853016D01*
X172968219Y-116823861D01*
X172981949Y-116794862D01*
X172987690Y-116787764D01*
X173005516Y-116774622D01*
X173047233Y-116747501D01*
X173109215Y-116708577D01*
X173187839Y-116660028D01*
X173279478Y-116604032D01*
X173380507Y-116542766D01*
X173487302Y-116478408D01*
X173596236Y-116413135D01*
X173703685Y-116349124D01*
X173806023Y-116288554D01*
X173899625Y-116233602D01*
X173980867Y-116186445D01*
X174046122Y-116149262D01*
X174091765Y-116124228D01*
X174096359Y-116121830D01*
X174150417Y-116105702D01*
X174195295Y-116114425D01*
G37*
G36*
X179699302Y-107760072D02*
G01*
X179725376Y-107768016D01*
X179760249Y-107782671D01*
X179805777Y-107804993D01*
X179863815Y-107835938D01*
X179936221Y-107876461D01*
X180024849Y-107927520D01*
X180131557Y-107990070D01*
X180258199Y-108065067D01*
X180406634Y-108153468D01*
X180578715Y-108256228D01*
X180776300Y-108374303D01*
X180784108Y-108378968D01*
X180881269Y-108437002D01*
X180973674Y-108492142D01*
X181064197Y-108546093D01*
X181155711Y-108600561D01*
X181251091Y-108657248D01*
X181353209Y-108717859D01*
X181464939Y-108784100D01*
X181589155Y-108857673D01*
X181728731Y-108940284D01*
X181886540Y-109033637D01*
X182065456Y-109139437D01*
X182268352Y-109259387D01*
X182315766Y-109287415D01*
X182439750Y-109360889D01*
X182555870Y-109430059D01*
X182661088Y-109493088D01*
X182752368Y-109548142D01*
X182826674Y-109593386D01*
X182880967Y-109626984D01*
X182912212Y-109647102D01*
X182918059Y-109651368D01*
X182943202Y-109690818D01*
X182939732Y-109734291D01*
X182908636Y-109773897D01*
X182902104Y-109778705D01*
X182868468Y-109800333D01*
X182813063Y-109834115D01*
X182739380Y-109878049D01*
X182650909Y-109930133D01*
X182551140Y-109988366D01*
X182443564Y-110050745D01*
X182331672Y-110115269D01*
X182218952Y-110179936D01*
X182108897Y-110242745D01*
X182004996Y-110301693D01*
X181910739Y-110354779D01*
X181829617Y-110400001D01*
X181765120Y-110435357D01*
X181720739Y-110458846D01*
X181699963Y-110468465D01*
X181699195Y-110468593D01*
X181669935Y-110457556D01*
X181648138Y-110439416D01*
X181624461Y-110394380D01*
X181629111Y-110348987D01*
X181649654Y-110321384D01*
X181670041Y-110307438D01*
X181714416Y-110279675D01*
X181779158Y-110240273D01*
X181860646Y-110191412D01*
X181955257Y-110135271D01*
X182059371Y-110074030D01*
X182104098Y-110047875D01*
X182213793Y-109983746D01*
X182317975Y-109922665D01*
X182412509Y-109867071D01*
X182493261Y-109819402D01*
X182556095Y-109782093D01*
X182596876Y-109757584D01*
X182604906Y-109752647D01*
X182679192Y-109706411D01*
X182641072Y-109681941D01*
X182620656Y-109669517D01*
X182575323Y-109642376D01*
X182507628Y-109602036D01*
X182420126Y-109550014D01*
X182315371Y-109487826D01*
X182195919Y-109416990D01*
X182064325Y-109339022D01*
X181923143Y-109255439D01*
X181797236Y-109180951D01*
X181507231Y-109009459D01*
X181243459Y-108853488D01*
X181004715Y-108712262D01*
X180789798Y-108585006D01*
X180597504Y-108470944D01*
X180426631Y-108369301D01*
X180275975Y-108279301D01*
X180144335Y-108200169D01*
X180030507Y-108131129D01*
X179933289Y-108071406D01*
X179851477Y-108020225D01*
X179783869Y-107976810D01*
X179729262Y-107940386D01*
X179686454Y-107910176D01*
X179654241Y-107885407D01*
X179631421Y-107865301D01*
X179616791Y-107849085D01*
X179609148Y-107835982D01*
X179607290Y-107825217D01*
X179610013Y-107816014D01*
X179616115Y-107807598D01*
X179624393Y-107799194D01*
X179633644Y-107790026D01*
X179635946Y-107787548D01*
X179645869Y-107776280D01*
X179655310Y-107766942D01*
X179666125Y-107760491D01*
X179680170Y-107757882D01*
X179699302Y-107760072D01*
G37*
G36*
X178086928Y-105547573D02*
G01*
X178143480Y-105550427D01*
X178187140Y-105557422D01*
X178227414Y-105570349D01*
X178273808Y-105590999D01*
X178294724Y-105601100D01*
X178422701Y-105680260D01*
X178528441Y-105780781D01*
X178610209Y-105899571D01*
X178666269Y-106033540D01*
X178694886Y-106179594D01*
X178695976Y-106315852D01*
X178685947Y-106446969D01*
X178921334Y-106585565D01*
X179002011Y-106633112D01*
X179103140Y-106692782D01*
X179217716Y-106760437D01*
X179338736Y-106831941D01*
X179459194Y-106903157D01*
X179539635Y-106950742D01*
X179638824Y-107009403D01*
X179760074Y-107081057D01*
X179897952Y-107162498D01*
X180047028Y-107250519D01*
X180201871Y-107341914D01*
X180357049Y-107433477D01*
X180507132Y-107521999D01*
X180552764Y-107548907D01*
X180681595Y-107624954D01*
X180833221Y-107714601D01*
X181003025Y-107815114D01*
X181186393Y-107923754D01*
X181378708Y-108037785D01*
X181575356Y-108154470D01*
X181771719Y-108271073D01*
X181963184Y-108384857D01*
X182140264Y-108490186D01*
X182306921Y-108589348D01*
X182470900Y-108686883D01*
X182629277Y-108781053D01*
X182779125Y-108870119D01*
X182917520Y-108952345D01*
X183041535Y-109025992D01*
X183148247Y-109089322D01*
X183234728Y-109140598D01*
X183298055Y-109178081D01*
X183318490Y-109190146D01*
X183539431Y-109320411D01*
X183596655Y-109270167D01*
X183697238Y-109201308D01*
X183816511Y-109151494D01*
X183946051Y-109122949D01*
X184077435Y-109117893D01*
X184145102Y-109125524D01*
X184285642Y-109164456D01*
X184410289Y-109228156D01*
X184517154Y-109313047D01*
X184604348Y-109415552D01*
X184669985Y-109532094D01*
X184712175Y-109659096D01*
X184729031Y-109792981D01*
X184718664Y-109930171D01*
X184679186Y-110067090D01*
X184662374Y-110105494D01*
X184610325Y-110193976D01*
X184541831Y-110279314D01*
X184463484Y-110355342D01*
X184381876Y-110415892D01*
X184303597Y-110454796D01*
X184282192Y-110461215D01*
X184238316Y-110472052D01*
X184238316Y-113290997D01*
X184238316Y-116109943D01*
X184335401Y-116154505D01*
X184428605Y-116210306D01*
X184519610Y-116287812D01*
X184598898Y-116377669D01*
X184656942Y-116470505D01*
X184708577Y-116611304D01*
X184729469Y-116754271D01*
X184720226Y-116895781D01*
X184681453Y-117032213D01*
X184613755Y-117159943D01*
X184523359Y-117269768D01*
X184416962Y-117360392D01*
X184304796Y-117422179D01*
X184180223Y-117458049D01*
X184068402Y-117469995D01*
X183927438Y-117465435D01*
X183802383Y-117436988D01*
X183685732Y-117382449D01*
X183618716Y-117337804D01*
X183525666Y-117269304D01*
X183255766Y-117429308D01*
X182748940Y-117729690D01*
X182269428Y-118013726D01*
X181817240Y-118281411D01*
X181392384Y-118532739D01*
X180994869Y-118767704D01*
X180624705Y-118986303D01*
X180281900Y-119188528D01*
X179966464Y-119374375D01*
X179850753Y-119442480D01*
X179702872Y-119529503D01*
X179555964Y-119615971D01*
X179413746Y-119699696D01*
X179279933Y-119778490D01*
X179158239Y-119850166D01*
X179052379Y-119912534D01*
X178966070Y-119963409D01*
X178903024Y-120000601D01*
X178896216Y-120004621D01*
X178806274Y-120059201D01*
X178738219Y-120103640D01*
X178694007Y-120136563D01*
X178675595Y-120156592D01*
X178675377Y-120159833D01*
X178693208Y-120240293D01*
X178694831Y-120338232D01*
X178681452Y-120444391D01*
X178654281Y-120549511D01*
X178614523Y-120644333D01*
X178611452Y-120650065D01*
X178559657Y-120727255D01*
X178490169Y-120806686D01*
X178413996Y-120876656D01*
X178364561Y-120912506D01*
X178241864Y-120971862D01*
X178106410Y-121005620D01*
X177965536Y-121012969D01*
X177826580Y-120993098D01*
X177774339Y-120977744D01*
X177647217Y-120921946D01*
X177540060Y-120846192D01*
X177472279Y-120778189D01*
X177394770Y-120668346D01*
X177339244Y-120543346D01*
X177308055Y-120411031D01*
X177303645Y-120281903D01*
X177593492Y-120281903D01*
X177598620Y-120391129D01*
X177608165Y-120431467D01*
X177653181Y-120533537D01*
X177720610Y-120616400D01*
X177805699Y-120677590D01*
X177903695Y-120714641D01*
X178009846Y-120725086D01*
X178119400Y-120706459D01*
X178130913Y-120702714D01*
X178227847Y-120653408D01*
X178307623Y-120579024D01*
X178367545Y-120482928D01*
X178404919Y-120368489D01*
X178406991Y-120357909D01*
X178407591Y-120274820D01*
X178383267Y-120186371D01*
X178338323Y-120100008D01*
X178277065Y-120023177D01*
X178203796Y-119963324D01*
X178167525Y-119943670D01*
X178092691Y-119922011D01*
X178003255Y-119914459D01*
X177913238Y-119921014D01*
X177836661Y-119941676D01*
X177832121Y-119943671D01*
X177738527Y-120002679D01*
X177665913Y-120082303D01*
X177616746Y-120177170D01*
X177593492Y-120281903D01*
X177303645Y-120281903D01*
X177303554Y-120279244D01*
X177308893Y-120233609D01*
X177324717Y-120135348D01*
X177131862Y-120022292D01*
X177035598Y-119965848D01*
X176943306Y-119911703D01*
X176852482Y-119858385D01*
X176760622Y-119804416D01*
X176665220Y-119748323D01*
X176563772Y-119688630D01*
X176453775Y-119623864D01*
X176332722Y-119552547D01*
X176198110Y-119473207D01*
X176047435Y-119384367D01*
X175878190Y-119284553D01*
X175687873Y-119172290D01*
X175473978Y-119046103D01*
X175343530Y-118969140D01*
X174965457Y-118746007D01*
X174581259Y-118519126D01*
X174196097Y-118291549D01*
X173815133Y-118066327D01*
X173443528Y-117846512D01*
X173086444Y-117635157D01*
X172749042Y-117435312D01*
X172583354Y-117337115D01*
X172471671Y-117270909D01*
X172380356Y-117338306D01*
X172260070Y-117408736D01*
X172128060Y-117453805D01*
X171990165Y-117473225D01*
X171852226Y-117466712D01*
X171720084Y-117433980D01*
X171602135Y-117376380D01*
X171533930Y-117325162D01*
X171462518Y-117258824D01*
X171398132Y-117187727D01*
X171351003Y-117122236D01*
X171350706Y-117121733D01*
X171300548Y-117007704D01*
X171272953Y-116879220D01*
X171268237Y-116744703D01*
X171269377Y-116736555D01*
X171558707Y-116736555D01*
X171559008Y-116830511D01*
X171580088Y-116921477D01*
X171620981Y-117005244D01*
X171680721Y-117077603D01*
X171758343Y-117134346D01*
X171852879Y-117171264D01*
X171961118Y-117184152D01*
X172022987Y-117179596D01*
X172083131Y-117168161D01*
X172100754Y-117162789D01*
X172198816Y-117111700D01*
X172277198Y-117037534D01*
X172332591Y-116944605D01*
X172361685Y-116837225D01*
X172363565Y-116820259D01*
X172359726Y-116704253D01*
X172326980Y-116600673D01*
X172266523Y-116511795D01*
X172179551Y-116439897D01*
X172156633Y-116426393D01*
X172066110Y-116391483D01*
X171966319Y-116377952D01*
X171868056Y-116386130D01*
X171784609Y-116415011D01*
X171692136Y-116478837D01*
X171624305Y-116556509D01*
X171580151Y-116643818D01*
X171558707Y-116736555D01*
X171269377Y-116736555D01*
X171286716Y-116612571D01*
X171327210Y-116494409D01*
X171393205Y-116384318D01*
X171480927Y-116283624D01*
X171582297Y-116200516D01*
X171662268Y-116154725D01*
X171761351Y-116108605D01*
X171761353Y-116079595D01*
X172016960Y-116079595D01*
X172104243Y-116099128D01*
X172168024Y-116117749D01*
X172240325Y-116145131D01*
X172286362Y-116166052D01*
X172381199Y-116213443D01*
X172499420Y-116137092D01*
X172548240Y-116105718D01*
X172618151Y-116061002D01*
X172703292Y-116006684D01*
X172797799Y-115946501D01*
X172895812Y-115884192D01*
X172931856Y-115861306D01*
X173041889Y-115791301D01*
X173169275Y-115709983D01*
X173304586Y-115623389D01*
X173438393Y-115537554D01*
X173561267Y-115458515D01*
X173592303Y-115438505D01*
X173938536Y-115215138D01*
X173933805Y-115138953D01*
X173934814Y-115128910D01*
X174076215Y-115128910D01*
X174093426Y-115185170D01*
X174134285Y-115232567D01*
X174196535Y-115264933D01*
X174215242Y-115269968D01*
X174231362Y-115265120D01*
X174265412Y-115251864D01*
X174273788Y-115248398D01*
X174328649Y-115212792D01*
X174356922Y-115160984D01*
X174362311Y-115113786D01*
X174356308Y-115055420D01*
X174334687Y-115017065D01*
X174297351Y-114991181D01*
X174231201Y-114969504D01*
X174172663Y-114978251D01*
X174121762Y-115014476D01*
X174084908Y-115069956D01*
X174076215Y-115128910D01*
X173934814Y-115128910D01*
X173943054Y-115046875D01*
X173979695Y-114962193D01*
X174039732Y-114893033D01*
X174063525Y-114875312D01*
X174136922Y-114843545D01*
X174222303Y-114832138D01*
X174306651Y-114841725D01*
X174357498Y-114860945D01*
X174427858Y-114915108D01*
X174476825Y-114987586D01*
X174502500Y-115071431D01*
X174502986Y-115159695D01*
X174476383Y-115245430D01*
X174467202Y-115262419D01*
X174411239Y-115329226D01*
X174337596Y-115376071D01*
X174254034Y-115400587D01*
X174168312Y-115400406D01*
X174094006Y-115376287D01*
X174041090Y-115348835D01*
X173695136Y-115570691D01*
X173599368Y-115631948D01*
X173490117Y-115701561D01*
X173371383Y-115777006D01*
X173247167Y-115855756D01*
X173121468Y-115935285D01*
X172998286Y-116013069D01*
X172881620Y-116086583D01*
X172775470Y-116153300D01*
X172683837Y-116210695D01*
X172610720Y-116256243D01*
X172560118Y-116287418D01*
X172556494Y-116289621D01*
X172497724Y-116325286D01*
X172544378Y-116400426D01*
X172606896Y-116527421D01*
X172644640Y-116663521D01*
X172656511Y-116801540D01*
X172641412Y-116934293D01*
X172631691Y-116971246D01*
X172618912Y-117020921D01*
X172618329Y-117048775D01*
X172627702Y-117061251D01*
X172646318Y-117072401D01*
X172690171Y-117098467D01*
X172757027Y-117138127D01*
X172844653Y-117190060D01*
X172950816Y-117252945D01*
X173073283Y-117325461D01*
X173209820Y-117406287D01*
X173358195Y-117494101D01*
X173516174Y-117587583D01*
X173681524Y-117685412D01*
X173852011Y-117786265D01*
X174025403Y-117888823D01*
X174199466Y-117991763D01*
X174371968Y-118093766D01*
X174540674Y-118193509D01*
X174703351Y-118289671D01*
X174857767Y-118380932D01*
X175001688Y-118465970D01*
X175132881Y-118543465D01*
X175249112Y-118612094D01*
X175295666Y-118639571D01*
X175367075Y-118681740D01*
X175462469Y-118738112D01*
X175578375Y-118806635D01*
X175711319Y-118885254D01*
X175857829Y-118971915D01*
X176014433Y-119064563D01*
X176177658Y-119161145D01*
X176344031Y-119259607D01*
X176510079Y-119357894D01*
X176516206Y-119361522D01*
X176670926Y-119453086D01*
X176817417Y-119539727D01*
X176953392Y-119620095D01*
X177076566Y-119692843D01*
X177184651Y-119756621D01*
X177275363Y-119810081D01*
X177346416Y-119851874D01*
X177395523Y-119880653D01*
X177420399Y-119895068D01*
X177423062Y-119896512D01*
X177436085Y-119886756D01*
X177464500Y-119860026D01*
X177495946Y-119828440D01*
X177608604Y-119735132D01*
X177739643Y-119667058D01*
X177814897Y-119642045D01*
X177912248Y-119615398D01*
X177915818Y-118532102D01*
X177919388Y-117448806D01*
X177847310Y-117405108D01*
X177778682Y-117346484D01*
X177733972Y-117272340D01*
X177714054Y-117189229D01*
X177715231Y-117171729D01*
X177856407Y-117171729D01*
X177863374Y-117219700D01*
X177889463Y-117257388D01*
X177905495Y-117271885D01*
X177956863Y-117304912D01*
X178005968Y-117310337D01*
X178063664Y-117289338D01*
X178064138Y-117289093D01*
X178115206Y-117247830D01*
X178141370Y-117194995D01*
X178143264Y-117138145D01*
X178121521Y-117084839D01*
X178076776Y-117042638D01*
X178042135Y-117026747D01*
X177976113Y-117018977D01*
X177920054Y-117038788D01*
X177879018Y-117082234D01*
X177858062Y-117145364D01*
X177856407Y-117171729D01*
X177715231Y-117171729D01*
X177719804Y-117103703D01*
X177752094Y-117022316D01*
X177789614Y-116972727D01*
X177860281Y-116914686D01*
X177938273Y-116885279D01*
X178001148Y-116879976D01*
X178095016Y-116894682D01*
X178172813Y-116936848D01*
X178233722Y-117005905D01*
X178262492Y-117061608D01*
X178283962Y-117137421D01*
X178279849Y-117209417D01*
X178256741Y-117274979D01*
X178210617Y-117350836D01*
X178152795Y-117405972D01*
X178115672Y-117426011D01*
X178079774Y-117440039D01*
X178079774Y-118531235D01*
X178079774Y-119622431D01*
X178142516Y-119630847D01*
X178237304Y-119656136D01*
X178337632Y-119704884D01*
X178434367Y-119772211D01*
X178476287Y-119809164D01*
X178568663Y-119897276D01*
X178910556Y-119696424D01*
X179029037Y-119626762D01*
X179160601Y-119549310D01*
X179295554Y-119469781D01*
X179424204Y-119393888D01*
X179536858Y-119327343D01*
X179555590Y-119316266D01*
X179644191Y-119263908D01*
X179754345Y-119198891D01*
X179880095Y-119124727D01*
X180015486Y-119044926D01*
X180154562Y-118963000D01*
X180291366Y-118882459D01*
X180369284Y-118836611D01*
X180512905Y-118752056D01*
X180672019Y-118658270D01*
X180838549Y-118560019D01*
X181004417Y-118462072D01*
X181161549Y-118369196D01*
X181301866Y-118286160D01*
X181342525Y-118262074D01*
X181482343Y-118179274D01*
X181639785Y-118086133D01*
X181805775Y-117988013D01*
X181971238Y-117890277D01*
X182127098Y-117798288D01*
X182259924Y-117719974D01*
X182389820Y-117643349D01*
X182529217Y-117560959D01*
X182670875Y-117477092D01*
X182807557Y-117396039D01*
X182932024Y-117322089D01*
X183037037Y-117259532D01*
X183047367Y-117253365D01*
X183380098Y-117054667D01*
X183369505Y-117004438D01*
X183350202Y-116904276D01*
X183339857Y-116825236D01*
X183339388Y-116809861D01*
X183630250Y-116809861D01*
X183650491Y-116911885D01*
X183695804Y-117004912D01*
X183764093Y-117084061D01*
X183853264Y-117144454D01*
X183919118Y-117170645D01*
X184000020Y-117183296D01*
X184090512Y-117179101D01*
X184173818Y-117159189D01*
X184190452Y-117152390D01*
X184286492Y-117092862D01*
X184365704Y-117011491D01*
X184402283Y-116954208D01*
X184425646Y-116885851D01*
X184436319Y-116802149D01*
X184434122Y-116715877D01*
X184418875Y-116639813D01*
X184407127Y-116611181D01*
X184343488Y-116517657D01*
X184264162Y-116447513D01*
X184173845Y-116400832D01*
X184077234Y-116377695D01*
X183979024Y-116378185D01*
X183883911Y-116402384D01*
X183796591Y-116450374D01*
X183721760Y-116522237D01*
X183673361Y-116598333D01*
X183637175Y-116703718D01*
X183630250Y-116809861D01*
X183339388Y-116809861D01*
X183337807Y-116758016D01*
X183343385Y-116693312D01*
X183346010Y-116675709D01*
X183379066Y-116542591D01*
X183431802Y-116427142D01*
X183464317Y-116378671D01*
X183503054Y-116327885D01*
X183300302Y-116203352D01*
X183158753Y-116115704D01*
X182991138Y-116010639D01*
X182797933Y-115888458D01*
X182579610Y-115749460D01*
X182336644Y-115593945D01*
X182263888Y-115547243D01*
X182165462Y-115484124D01*
X182090144Y-115436429D01*
X182034197Y-115402333D01*
X181993883Y-115380011D01*
X181965465Y-115367638D01*
X181945204Y-115363390D01*
X181929365Y-115365440D01*
X181914208Y-115371965D01*
X181909687Y-115374289D01*
X181844790Y-115393843D01*
X181766222Y-115397440D01*
X181687727Y-115385447D01*
X181638396Y-115367069D01*
X181567733Y-115315857D01*
X181518392Y-115243671D01*
X181495130Y-115179093D01*
X181488342Y-115105223D01*
X181624572Y-115105223D01*
X181629380Y-115154215D01*
X181655847Y-115198361D01*
X181709127Y-115247068D01*
X181766175Y-115264379D01*
X181824741Y-115250233D01*
X181882573Y-115204571D01*
X181882731Y-115204401D01*
X181912482Y-115166123D01*
X181922040Y-115131102D01*
X181919167Y-115097276D01*
X181896293Y-115035662D01*
X181854987Y-114993048D01*
X181802496Y-114970757D01*
X181746065Y-114970115D01*
X181692941Y-114992447D01*
X181650368Y-115039078D01*
X181645831Y-115047293D01*
X181624572Y-115105223D01*
X181488342Y-115105223D01*
X181487340Y-115094317D01*
X181506998Y-115013913D01*
X181549644Y-114942509D01*
X181610819Y-114884732D01*
X181686063Y-114845210D01*
X181770914Y-114828570D01*
X181829406Y-114832267D01*
X181903313Y-114859721D01*
X181969215Y-114911371D01*
X182021715Y-114979727D01*
X182055419Y-115057299D01*
X182064931Y-115136597D01*
X182062821Y-115156292D01*
X182058883Y-115187270D01*
X182062389Y-115209589D01*
X182078319Y-115229894D01*
X182111653Y-115254832D01*
X182160461Y-115286609D01*
X182195350Y-115308920D01*
X182254068Y-115346346D01*
X182333498Y-115396906D01*
X182430524Y-115458617D01*
X182542031Y-115529500D01*
X182664903Y-115607573D01*
X182796025Y-115690855D01*
X182932281Y-115777366D01*
X182943481Y-115784475D01*
X183619059Y-116213313D01*
X183713785Y-116165978D01*
X183780389Y-116136928D01*
X183852138Y-116111983D01*
X183895776Y-116100527D01*
X183983040Y-116082411D01*
X183983040Y-113299738D01*
X183983040Y-110517065D01*
X183939164Y-110507184D01*
X183825461Y-110478086D01*
X183735187Y-110445592D01*
X183659880Y-110405256D01*
X183591077Y-110352632D01*
X183527632Y-110290998D01*
X183439142Y-110198226D01*
X182731998Y-110600652D01*
X182024854Y-111003078D01*
X182015604Y-111078005D01*
X181993704Y-111170756D01*
X181951383Y-111243412D01*
X181899808Y-111292210D01*
X181825111Y-111330446D01*
X181740199Y-111344061D01*
X181653478Y-111334239D01*
X181573358Y-111302165D01*
X181508245Y-111249022D01*
X181497453Y-111235552D01*
X181473494Y-111192575D01*
X181452971Y-111137993D01*
X181439555Y-111084093D01*
X181437166Y-111047084D01*
X181582375Y-111047084D01*
X181585042Y-111082856D01*
X181596092Y-111113132D01*
X181633775Y-111168862D01*
X181685425Y-111199122D01*
X181744242Y-111202674D01*
X181803430Y-111178276D01*
X181830373Y-111155875D01*
X181868536Y-111100313D01*
X181874942Y-111042263D01*
X181849566Y-110982571D01*
X181835705Y-110964415D01*
X181784620Y-110924841D01*
X181726636Y-110912275D01*
X181669569Y-110925413D01*
X181621239Y-110962950D01*
X181596236Y-111004362D01*
X181582375Y-111047084D01*
X181437166Y-111047084D01*
X181436913Y-111043165D01*
X181438175Y-111037011D01*
X181445474Y-111008642D01*
X181452871Y-110976386D01*
X181481454Y-110912833D01*
X181533696Y-110854613D01*
X181601357Y-110807818D01*
X181676196Y-110778543D01*
X181729649Y-110771733D01*
X181780143Y-110779262D01*
X181841069Y-110798633D01*
X181874510Y-110813363D01*
X181958050Y-110854992D01*
X182511845Y-110539540D01*
X182640210Y-110466368D01*
X182765873Y-110394638D01*
X182884740Y-110326693D01*
X182992723Y-110264875D01*
X183085729Y-110211526D01*
X183159667Y-110168989D01*
X183210446Y-110139606D01*
X183214758Y-110137093D01*
X183363877Y-110050099D01*
X183352604Y-109976148D01*
X183344083Y-109880879D01*
X183344515Y-109813591D01*
X183632385Y-109813591D01*
X183640163Y-109907032D01*
X183661581Y-109981648D01*
X183662005Y-109982590D01*
X183698333Y-110039777D01*
X183752434Y-110098982D01*
X183814397Y-110151076D01*
X183874313Y-110186932D01*
X183890743Y-110193265D01*
X183958327Y-110206795D01*
X184037943Y-110210964D01*
X184115909Y-110205943D01*
X184178540Y-110191901D01*
X184184394Y-110189610D01*
X184285790Y-110131899D01*
X184362137Y-110054771D01*
X184412338Y-109959893D01*
X184435292Y-109848935D01*
X184436685Y-109806470D01*
X184428800Y-109711421D01*
X184403962Y-109634184D01*
X184357631Y-109563172D01*
X184328270Y-109529852D01*
X184241225Y-109459269D01*
X184141341Y-109416748D01*
X184032902Y-109403426D01*
X183920188Y-109420436D01*
X183917897Y-109421100D01*
X183815194Y-109466491D01*
X183733071Y-109534853D01*
X183673861Y-109622980D01*
X183639896Y-109727664D01*
X183632385Y-109813591D01*
X183344515Y-109813591D01*
X183344740Y-109778502D01*
X183353985Y-109682234D01*
X183368850Y-109612758D01*
X183382254Y-109568214D01*
X183390852Y-109538948D01*
X183392541Y-109532646D01*
X183379760Y-109524149D01*
X183345266Y-109503432D01*
X183295072Y-109474070D01*
X183261086Y-109454460D01*
X183200449Y-109419433D01*
X183128405Y-109377423D01*
X183042669Y-109327079D01*
X182940958Y-109267050D01*
X182820987Y-109195986D01*
X182680472Y-109112535D01*
X182517129Y-109015348D01*
X182331721Y-108904890D01*
X182222283Y-108839724D01*
X182092659Y-108762645D01*
X181950130Y-108677977D01*
X181801978Y-108590042D01*
X181655486Y-108503165D01*
X181517936Y-108421669D01*
X181486118Y-108402831D01*
X181368403Y-108333102D01*
X181254527Y-108265557D01*
X181148651Y-108202671D01*
X181054937Y-108146919D01*
X180977545Y-108100774D01*
X180920635Y-108066713D01*
X180895791Y-108051735D01*
X180857003Y-108028454D01*
X180794456Y-107991228D01*
X180711903Y-107942278D01*
X180613097Y-107883823D01*
X180501791Y-107818082D01*
X180381739Y-107747277D01*
X180256693Y-107673628D01*
X180233668Y-107660077D01*
X180084305Y-107572129D01*
X179918634Y-107474476D01*
X179744544Y-107371774D01*
X179569926Y-107268683D01*
X179402671Y-107169858D01*
X179250668Y-107079958D01*
X179175930Y-107035711D01*
X179058531Y-106966272D01*
X178948097Y-106901137D01*
X178848047Y-106842310D01*
X178761797Y-106791791D01*
X178692765Y-106751581D01*
X178644366Y-106723683D01*
X178620129Y-106710154D01*
X178571627Y-106685072D01*
X178479334Y-106773104D01*
X178361390Y-106865617D01*
X178230306Y-106932504D01*
X178147581Y-106958886D01*
X178079774Y-106975727D01*
X178079774Y-107785177D01*
X178079774Y-108594628D01*
X178137847Y-108625902D01*
X178207760Y-108680173D01*
X178255176Y-108751666D01*
X178279006Y-108833942D01*
X178278163Y-108920562D01*
X178251559Y-109005088D01*
X178212118Y-109065551D01*
X178150746Y-109121512D01*
X178079039Y-109151812D01*
X177996803Y-109160039D01*
X177906598Y-109146324D01*
X177831771Y-109109231D01*
X177773783Y-109053931D01*
X177734097Y-108985595D01*
X177714175Y-108909395D01*
X177714455Y-108892430D01*
X177855282Y-108892430D01*
X177871986Y-108949880D01*
X177915326Y-108997087D01*
X177932593Y-109007793D01*
X177967040Y-109025457D01*
X177991157Y-109030403D01*
X178020755Y-109023635D01*
X178045968Y-109014978D01*
X178099782Y-108982513D01*
X178131123Y-108935457D01*
X178140842Y-108880992D01*
X178129794Y-108826301D01*
X178098831Y-108778566D01*
X178048807Y-108744968D01*
X178012706Y-108734994D01*
X177970653Y-108732294D01*
X177938833Y-108744502D01*
X177905011Y-108774192D01*
X177866021Y-108831586D01*
X177855282Y-108892430D01*
X177714455Y-108892430D01*
X177715477Y-108830503D01*
X177739465Y-108754088D01*
X177787600Y-108685322D01*
X177848859Y-108636587D01*
X177919217Y-108593907D01*
X177919722Y-107784506D01*
X177920226Y-106975105D01*
X177876350Y-106965717D01*
X177786255Y-106938817D01*
X177692746Y-106897969D01*
X177604381Y-106848044D01*
X177529716Y-106793914D01*
X177477307Y-106740452D01*
X177474878Y-106737121D01*
X177448506Y-106704965D01*
X177427867Y-106688064D01*
X177424801Y-106687311D01*
X177408677Y-106695210D01*
X177367688Y-106717914D01*
X177304403Y-106753931D01*
X177221393Y-106801773D01*
X177121229Y-106859948D01*
X177006479Y-106926967D01*
X176879714Y-107001339D01*
X176743505Y-107081574D01*
X176672024Y-107123801D01*
X176513481Y-107217550D01*
X176348105Y-107315341D01*
X176180842Y-107414249D01*
X176016637Y-107511350D01*
X175860435Y-107603719D01*
X175717182Y-107688432D01*
X175591823Y-107762565D01*
X175495100Y-107819764D01*
X175341329Y-107910701D01*
X175211779Y-107987309D01*
X175103205Y-108051506D01*
X175012363Y-108105209D01*
X174936008Y-108150334D01*
X174870897Y-108188799D01*
X174813784Y-108222519D01*
X174761425Y-108253412D01*
X174710577Y-108283395D01*
X174657993Y-108314384D01*
X174625565Y-108333490D01*
X174568246Y-108367331D01*
X174488398Y-108414578D01*
X174390920Y-108472325D01*
X174280711Y-108537670D01*
X174162669Y-108607708D01*
X174041693Y-108679535D01*
X173979397Y-108716543D01*
X173840415Y-108799094D01*
X173685451Y-108891093D01*
X173523081Y-108987450D01*
X173361883Y-109083075D01*
X173210433Y-109172880D01*
X173077310Y-109251776D01*
X173069975Y-109256122D01*
X172962581Y-109319855D01*
X172863898Y-109378637D01*
X172777309Y-109430433D01*
X172706199Y-109473211D01*
X172653954Y-109504938D01*
X172623958Y-109523580D01*
X172618188Y-109527503D01*
X172615414Y-109547712D01*
X172621379Y-109588631D01*
X172632190Y-109631949D01*
X172643836Y-109692272D01*
X172650452Y-109768955D01*
X172652046Y-109851732D01*
X172648628Y-109930337D01*
X172640205Y-109994504D01*
X172631857Y-110024087D01*
X172633047Y-110043674D01*
X172655306Y-110066322D01*
X172702845Y-110096228D01*
X172705972Y-110097995D01*
X172738531Y-110116432D01*
X172795260Y-110148670D01*
X172872615Y-110192690D01*
X172967055Y-110246475D01*
X173075035Y-110308007D01*
X173193014Y-110375267D01*
X173317449Y-110446239D01*
X173349392Y-110464463D01*
X173474110Y-110535516D01*
X173592633Y-110602843D01*
X173701537Y-110664513D01*
X173797395Y-110718593D01*
X173876782Y-110763152D01*
X173936272Y-110796260D01*
X173972440Y-110815984D01*
X173977865Y-110818816D01*
X174047713Y-110854450D01*
X174133728Y-110810930D01*
X174190014Y-110785463D01*
X174235487Y-110774672D01*
X174285806Y-110775413D01*
X174301955Y-110777147D01*
X174391303Y-110802596D01*
X174465077Y-110853070D01*
X174519061Y-110923778D01*
X174549039Y-111009924D01*
X174553769Y-111063451D01*
X174540077Y-111153448D01*
X174502445Y-111228507D01*
X174446035Y-111286776D01*
X174376011Y-111326400D01*
X174297535Y-111345526D01*
X174215771Y-111342301D01*
X174135882Y-111314870D01*
X174063030Y-111261381D01*
X174047742Y-111245117D01*
X174017000Y-111204394D01*
X173996793Y-111160157D01*
X173983397Y-111102028D01*
X173980402Y-111079512D01*
X174125383Y-111079512D01*
X174145782Y-111138687D01*
X174185426Y-111182061D01*
X174232876Y-111200822D01*
X174290903Y-111200330D01*
X174345748Y-111181972D01*
X174371014Y-111163351D01*
X174400713Y-111120126D01*
X174410134Y-111064067D01*
X174410176Y-111058919D01*
X174397271Y-110993448D01*
X174363027Y-110945901D01*
X174314152Y-110918981D01*
X174257352Y-110915391D01*
X174199334Y-110937835D01*
X174169627Y-110961963D01*
X174133152Y-111018104D01*
X174125383Y-111079512D01*
X173980402Y-111079512D01*
X173975722Y-111044333D01*
X173971460Y-111033687D01*
X173959370Y-111019884D01*
X173937314Y-111001594D01*
X173903152Y-110977487D01*
X173854744Y-110946231D01*
X173789949Y-110906497D01*
X173706628Y-110856954D01*
X173602641Y-110796271D01*
X173475848Y-110723118D01*
X173324110Y-110636164D01*
X173264513Y-110602110D01*
X172557606Y-110198404D01*
X172466510Y-110291501D01*
X172384502Y-110363287D01*
X172291643Y-110424984D01*
X172197974Y-110470643D01*
X172128643Y-110491736D01*
X172082497Y-110501581D01*
X172046456Y-110510309D01*
X172044880Y-110510746D01*
X172041369Y-110512903D01*
X172038164Y-110518235D01*
X172035252Y-110528135D01*
X172032618Y-110543997D01*
X172030250Y-110567214D01*
X172028131Y-110599177D01*
X172026250Y-110641280D01*
X172024591Y-110694917D01*
X172023142Y-110761478D01*
X172021887Y-110842359D01*
X172020814Y-110938951D01*
X172019907Y-111052647D01*
X172019153Y-111184841D01*
X172018539Y-111336924D01*
X172018050Y-111510291D01*
X172017672Y-111706333D01*
X172017392Y-111926444D01*
X172017194Y-112172017D01*
X172017067Y-112444444D01*
X172016995Y-112745119D01*
X172016964Y-113075433D01*
X172016960Y-113299101D01*
X172016960Y-116079595D01*
X171761353Y-116079595D01*
X171761517Y-113299101D01*
X171761517Y-113297391D01*
X171761683Y-110486177D01*
X171661966Y-110438586D01*
X171559786Y-110376949D01*
X171464157Y-110295736D01*
X171386407Y-110204911D01*
X171372319Y-110183827D01*
X171311435Y-110059076D01*
X171276396Y-109922794D01*
X171272584Y-109861288D01*
X171558618Y-109861288D01*
X171584043Y-109965100D01*
X171635541Y-110058903D01*
X171662906Y-110091685D01*
X171743015Y-110155097D01*
X171839161Y-110195752D01*
X171943790Y-110212385D01*
X172049350Y-110203727D01*
X172141490Y-110171990D01*
X172232766Y-110110719D01*
X172300369Y-110032900D01*
X172344313Y-109943370D01*
X172364607Y-109846965D01*
X172361265Y-109748521D01*
X172334299Y-109652875D01*
X172283719Y-109564864D01*
X172209538Y-109489323D01*
X172139711Y-109444427D01*
X172081438Y-109421634D01*
X172012136Y-109410644D01*
X171961118Y-109408680D01*
X171893450Y-109410404D01*
X171842670Y-109419380D01*
X171793986Y-109439042D01*
X171765603Y-109454067D01*
X171711383Y-109489439D01*
X171662882Y-109530002D01*
X171641335Y-109553512D01*
X171587008Y-109649121D01*
X171559521Y-109753837D01*
X171558618Y-109861288D01*
X171272584Y-109861288D01*
X171267666Y-109781924D01*
X171285710Y-109643409D01*
X171327930Y-109520634D01*
X171400774Y-109399624D01*
X171494147Y-109298736D01*
X171603821Y-109219028D01*
X171725567Y-109161559D01*
X171855158Y-109127388D01*
X171988364Y-109117572D01*
X172120959Y-109133171D01*
X172248713Y-109175242D01*
X172367399Y-109244845D01*
X172382713Y-109256580D01*
X172461214Y-109318631D01*
X173080701Y-108950563D01*
X173233041Y-108860082D01*
X173397593Y-108762403D01*
X173567855Y-108661384D01*
X173737323Y-108560881D01*
X173899493Y-108464751D01*
X174047862Y-108376851D01*
X174175927Y-108301037D01*
X174186809Y-108294598D01*
X174316160Y-108218053D01*
X174451077Y-108138181D01*
X174585497Y-108058575D01*
X174713354Y-107982827D01*
X174828584Y-107914531D01*
X174925121Y-107857278D01*
X174960615Y-107836213D01*
X175227644Y-107677826D01*
X175497815Y-107517853D01*
X175776588Y-107353070D01*
X176069418Y-107180251D01*
X176381763Y-106996173D01*
X176540138Y-106902920D01*
X176668736Y-106827175D01*
X176791915Y-106754537D01*
X176906268Y-106687022D01*
X177008387Y-106626644D01*
X177094865Y-106575420D01*
X177162296Y-106535364D01*
X177207271Y-106508493D01*
X177219936Y-106500836D01*
X177309407Y-106446255D01*
X177301616Y-106297293D01*
X177301388Y-106289597D01*
X177589609Y-106289597D01*
X177613667Y-106397957D01*
X177662277Y-106491932D01*
X177730978Y-106568870D01*
X177815305Y-106626119D01*
X177910798Y-106661028D01*
X178012993Y-106670947D01*
X178117429Y-106653223D01*
X178168412Y-106633485D01*
X178227889Y-106597829D01*
X178285390Y-106550920D01*
X178305992Y-106529428D01*
X178366900Y-106437346D01*
X178400423Y-106339775D01*
X178408798Y-106240647D01*
X178394265Y-106143891D01*
X178359064Y-106053440D01*
X178305434Y-105973222D01*
X178235615Y-105907170D01*
X178151847Y-105859213D01*
X178056368Y-105833282D01*
X177951418Y-105833308D01*
X177913239Y-105840092D01*
X177815572Y-105872958D01*
X177735404Y-105926498D01*
X177670045Y-105998120D01*
X177615278Y-106092618D01*
X177589725Y-106196088D01*
X177589609Y-106289597D01*
X177301388Y-106289597D01*
X177299125Y-106213315D01*
X177302728Y-106147656D01*
X177313732Y-106087087D01*
X177327164Y-106038565D01*
X177382642Y-105907538D01*
X177463569Y-105789011D01*
X177565179Y-105688235D01*
X177682703Y-105610463D01*
X177739240Y-105584479D01*
X177788892Y-105566856D01*
X177837772Y-105555672D01*
X177895522Y-105549584D01*
X177971785Y-105547250D01*
X178007977Y-105547068D01*
X178086928Y-105547573D01*
G37*
%TD*%
M02*
