%TF.GenerationSoftware,KiCad,Pcbnew,10.0.6*%
%TF.CreationDate,2026-09-21T18:21:29+08:00*%
%TF.ProjectId,KiCad,4b694361-642e-46b6-9963-61645f706362,rev?*%
%TF.SameCoordinates,Original*%
%TF.FileFunction,Copper,L2,Bot*%
%TF.FilePolarity,Positive*%
%FSLAX46Y46*%
G04 Gerber Fmt 4.6, Leading zero omitted, Abs format (unit mm)*
G04 Created by KiCad (PCBNEW 10.0.6) date 2026-09-21 18:21:29*
%MOMM*%
%LPD*%
G01*
G04 APERTURE LIST*
%TA.AperFunction,ComponentPad*%
%ADD10C,2.200000*%
%TD*%
%TA.AperFunction,ComponentPad*%
%ADD11C,1.524000*%
%TD*%
%TA.AperFunction,ComponentPad*%
%ADD12R,2.000000X2.000000*%
%TD*%
%TA.AperFunction,ComponentPad*%
%ADD13C,2.000000*%
%TD*%
%TA.AperFunction,ComponentPad*%
%ADD14R,1.700000X1.700000*%
%TD*%
%TA.AperFunction,ComponentPad*%
%ADD15C,1.700000*%
%TD*%
%TA.AperFunction,ViaPad*%
%ADD16C,0.600000*%
%TD*%
%TA.AperFunction,Conductor*%
%ADD17C,0.200000*%
%TD*%
G04 APERTURE END LIST*
D10*
%TO.P,SW5,1,1_1*%
%TO.N,GND*%
X180350000Y-127960000D03*
%TO.P,SW5,2,2_2*%
%TO.N,Net-(U1-D0)*%
X174000000Y-130500000D03*
%TD*%
%TO.P,SW4,1,1_1*%
%TO.N,GND*%
X161350000Y-127960000D03*
%TO.P,SW4,2,2_2*%
%TO.N,Net-(U1-D1)*%
X155000000Y-130500000D03*
%TD*%
%TO.P,SW1,1,1_1*%
%TO.N,GND*%
X103850000Y-127960000D03*
%TO.P,SW1,2,2_2*%
%TO.N,Net-(U1-D4)*%
X97500000Y-130500000D03*
%TD*%
%TO.P,SW3,1,1_1*%
%TO.N,GND*%
X142120000Y-127920000D03*
%TO.P,SW3,2,2_2*%
%TO.N,Net-(U1-D2)*%
X135770000Y-130460000D03*
%TD*%
%TO.P,SW2,1,1_1*%
%TO.N,GND*%
X123000000Y-128000000D03*
%TO.P,SW2,2,2_2*%
%TO.N,Net-(U1-D3)*%
X116650000Y-130540000D03*
%TD*%
D11*
%TO.P,U1,1,D0_1*%
%TO.N,Net-(U1-D0)*%
X104000000Y-102000000D03*
%TO.P,U1,2,D1_2*%
%TO.N,Net-(U1-D1)*%
X104000000Y-104540000D03*
%TO.P,U1,3,D2_3*%
%TO.N,Net-(U1-D2)*%
X104000000Y-107080000D03*
%TO.P,U1,4,D3_4*%
%TO.N,Net-(U1-D3)*%
X104000000Y-109620000D03*
%TO.P,U1,5,D4_5*%
%TO.N,Net-(U1-D4)*%
X104000000Y-112160000D03*
%TO.P,U1,6,D5_6*%
%TO.N,/DC*%
X104000000Y-114700000D03*
%TO.P,U1,7,D6_7*%
%TO.N,/CS*%
X104000000Y-117240000D03*
%TO.P,U1,8,D7_8*%
%TO.N,Net-(BZ1-+)*%
X119240000Y-117240000D03*
%TO.P,U1,9,D8_9*%
%TO.N,/BL*%
X119240000Y-114700000D03*
%TO.P,U1,10,D9/BOOT_10*%
%TO.N,/SCL*%
X119240000Y-112160000D03*
%TO.P,U1,11,D10_11*%
%TO.N,/SDA*%
X119240000Y-109620000D03*
%TO.P,U1,12,3V3_OUT_12*%
%TO.N,+3V3*%
X119240000Y-107080000D03*
%TO.P,U1,13,GND_13*%
%TO.N,GND*%
X119240000Y-104540000D03*
%TO.P,U1,14,VBUS_14*%
%TO.N,unconnected-(U1-VBUS-Pad14)_1*%
X119240000Y-102000000D03*
%TD*%
D12*
%TO.P,BZ1,1,+_1*%
%TO.N,Net-(BZ1-+)*%
X160000000Y-110500000D03*
D13*
%TO.P,BZ1,2,-_2*%
%TO.N,GND*%
X167600000Y-110500000D03*
%TD*%
D14*
%TO.P,J1,1,Pin_1_1*%
%TO.N,GND*%
X154218441Y-119474480D03*
D15*
%TO.P,J1,2,Pin_2_2*%
%TO.N,+3V3*%
X154218441Y-116934480D03*
%TO.P,J1,3,Pin_3_3*%
%TO.N,/SCL*%
X154218441Y-114394480D03*
%TO.P,J1,4,Pin_4_4*%
%TO.N,/SDA*%
X154218441Y-111854480D03*
%TO.P,J1,5,Pin_5_5*%
%TO.N,unconnected-(J1-Pin_5-Pad5)*%
X154218441Y-109314480D03*
%TO.P,J1,6,Pin_6_6*%
%TO.N,/DC*%
X154218441Y-106774480D03*
%TO.P,J1,7,Pin_7_7*%
%TO.N,/CS*%
X154218441Y-104234480D03*
%TO.P,J1,8,Pin_8_8*%
%TO.N,/BL*%
X154218441Y-101694480D03*
%TD*%
D16*
%TO.N,+3V3*%
X125500000Y-121500000D03*
X136500000Y-116000000D03*
%TD*%
%TO.N,/DC*%
D17*
X118384105Y-103478000D02*
X119679895Y-103478000D01*
X119701895Y-103500000D02*
X140040000Y-103500000D01*
X119679895Y-103478000D02*
X119701895Y-103500000D01*
X102938000Y-115762000D02*
X102938000Y-117679895D01*
X117500000Y-104362105D02*
X118384105Y-103478000D01*
X140040000Y-103500000D02*
X142340000Y-105800000D01*
X142340000Y-105800000D02*
X153243961Y-105800000D01*
X117500000Y-105241895D02*
X117500000Y-104362105D01*
X153243961Y-105800000D02*
X154218441Y-106774480D01*
X104000000Y-114700000D02*
X102938000Y-115762000D01*
X104439895Y-118302000D02*
X117500000Y-105241895D01*
X103560105Y-118302000D02*
X104439895Y-118302000D01*
X102938000Y-117679895D02*
X103560105Y-118302000D01*
%TO.N,/CS*%
X118500000Y-100500000D02*
X139580000Y-100500000D01*
X116500000Y-104740000D02*
X116500000Y-102500000D01*
X104000000Y-117240000D02*
X116500000Y-104740000D01*
X142340000Y-103260000D02*
X153243961Y-103260000D01*
X139580000Y-100500000D02*
X142340000Y-103260000D01*
X153243961Y-103260000D02*
X154218441Y-104234480D01*
X116500000Y-102500000D02*
X118500000Y-100500000D01*
%TO.N,Net-(BZ1-+)*%
X119240000Y-117240000D02*
X122900000Y-120900000D01*
X122900000Y-120900000D02*
X125748529Y-120900000D01*
X126348529Y-121500000D02*
X156000000Y-121500000D01*
X156000000Y-121500000D02*
X156000000Y-119000000D01*
X156000000Y-119000000D02*
X160000000Y-115000000D01*
X125748529Y-120900000D02*
X126348529Y-121500000D01*
X160000000Y-115000000D02*
X160000000Y-110500000D01*
%TO.N,/SDA*%
X140920000Y-109620000D02*
X142180000Y-110880000D01*
X153243961Y-110880000D02*
X154218441Y-111854480D01*
X119240000Y-109620000D02*
X140920000Y-109620000D01*
X142180000Y-110880000D02*
X153243961Y-110880000D01*
%TO.N,+3V3*%
X119240000Y-107080000D02*
X117500000Y-108820000D01*
X139500000Y-114000000D02*
X140120000Y-114620000D01*
X150974480Y-116934480D02*
X154218441Y-116934480D01*
X136500000Y-116000000D02*
X137500000Y-116000000D01*
X137500000Y-116000000D02*
X139500000Y-114000000D01*
X140120000Y-114620000D02*
X148660000Y-114620000D01*
X148660000Y-114620000D02*
X150974480Y-116934480D01*
X117500000Y-108820000D02*
X117500000Y-120500000D01*
X117500000Y-120500000D02*
X118500000Y-121500000D01*
X118500000Y-121500000D02*
X125500000Y-121500000D01*
%TD*%
M02*
