ISO-10303-21;
HEADER;
/* Generated by software containing ST-Developer
 * from STEP Tools, Inc. (www.steptools.com) 
 */
/* OPTION: using custom renumber hook */

FILE_DESCRIPTION(
/* description */ ('STEP AP242 Edition 2',
'CAx-IF Rec.Pracs.---Representation and Presentation of Product Manufa
cturing Information (PMI)---4.0---2014-10-13',
'CAx-IF Rec.Pracs.---3D Tessellated Geometry---0.4---2014-09-14','2;1',
'CAx-IF Rec.Pracs.---User Defined Attributes---1.5---2016-08-15'),
/* implementation_level */ '2;1');

FILE_NAME(
/* name */ 'Part Studio 3 - Part 3',
/* time_stamp */ '2026-09-24T05:37:52Z',
/* author */ (''),
/* organization */ (''),
/* preprocessor_version */ 'ST-DEVELOPER v20',
/* originating_system */ 'ONSHAPE BY PTC INC, 1.221',
/* authorisation */ '  ');

FILE_SCHEMA (('AP242_MANAGED_MODEL_BASED_3D_ENGINEERING_MIM_LF { 1 0 10303 442 3 1 4 }'));
ENDSEC;

DATA;
#10=SHAPE_REPRESENTATION_RELATIONSHIP('','',#385,#11);
#11=ADVANCED_BREP_SHAPE_REPRESENTATION('',(#383),#627);
#12=CYLINDRICAL_SURFACE('',#409,0.002);
#13=CYLINDRICAL_SURFACE('',#410,0.002);
#14=CYLINDRICAL_SURFACE('',#411,0.002);
#15=CYLINDRICAL_SURFACE('',#415,0.00125);
#16=CYLINDRICAL_SURFACE('',#416,0.002);
#17=CYLINDRICAL_SURFACE('',#420,0.00125);
#18=CIRCLE('',#389,0.002);
#19=CIRCLE('',#390,0.002);
#20=CIRCLE('',#392,0.002);
#21=CIRCLE('',#393,0.002);
#22=CIRCLE('',#395,0.00125);
#23=CIRCLE('',#396,0.00125);
#24=CIRCLE('',#406,0.002);
#25=CIRCLE('',#407,0.002);
#26=CIRCLE('',#412,0.002);
#27=CIRCLE('',#414,0.00125);
#28=CIRCLE('',#417,0.002);
#29=CIRCLE('',#419,0.00125);
#30=ORIENTED_EDGE('',*,*,#122,.F.);
#31=ORIENTED_EDGE('',*,*,#123,.T.);
#32=ORIENTED_EDGE('',*,*,#124,.T.);
#33=ORIENTED_EDGE('',*,*,#125,.F.);
#34=ORIENTED_EDGE('',*,*,#126,.T.);
#35=ORIENTED_EDGE('',*,*,#127,.T.);
#36=ORIENTED_EDGE('',*,*,#122,.T.);
#37=ORIENTED_EDGE('',*,*,#128,.F.);
#38=ORIENTED_EDGE('',*,*,#129,.T.);
#39=ORIENTED_EDGE('',*,*,#130,.T.);
#40=ORIENTED_EDGE('',*,*,#131,.T.);
#41=ORIENTED_EDGE('',*,*,#132,.F.);
#42=ORIENTED_EDGE('',*,*,#133,.T.);
#43=ORIENTED_EDGE('',*,*,#134,.T.);
#44=ORIENTED_EDGE('',*,*,#126,.F.);
#45=ORIENTED_EDGE('',*,*,#135,.T.);
#46=ORIENTED_EDGE('',*,*,#136,.T.);
#47=ORIENTED_EDGE('',*,*,#137,.T.);
#48=ORIENTED_EDGE('',*,*,#138,.T.);
#49=ORIENTED_EDGE('',*,*,#139,.T.);
#50=ORIENTED_EDGE('',*,*,#140,.F.);
#51=ORIENTED_EDGE('',*,*,#141,.F.);
#52=ORIENTED_EDGE('',*,*,#125,.T.);
#53=ORIENTED_EDGE('',*,*,#142,.F.);
#54=ORIENTED_EDGE('',*,*,#143,.F.);
#55=ORIENTED_EDGE('',*,*,#128,.T.);
#56=ORIENTED_EDGE('',*,*,#144,.T.);
#57=ORIENTED_EDGE('',*,*,#145,.T.);
#58=ORIENTED_EDGE('',*,*,#146,.T.);
#59=ORIENTED_EDGE('',*,*,#147,.F.);
#60=ORIENTED_EDGE('',*,*,#148,.F.);
#61=ORIENTED_EDGE('',*,*,#149,.T.);
#62=ORIENTED_EDGE('',*,*,#150,.T.);
#63=ORIENTED_EDGE('',*,*,#144,.F.);
#64=ORIENTED_EDGE('',*,*,#151,.F.);
#65=ORIENTED_EDGE('',*,*,#152,.T.);
#66=ORIENTED_EDGE('',*,*,#148,.T.);
#67=ORIENTED_EDGE('',*,*,#147,.T.);
#68=ORIENTED_EDGE('',*,*,#153,.F.);
#69=ORIENTED_EDGE('',*,*,#154,.T.);
#70=ORIENTED_EDGE('',*,*,#151,.T.);
#71=ORIENTED_EDGE('',*,*,#146,.F.);
#72=ORIENTED_EDGE('',*,*,#150,.F.);
#73=ORIENTED_EDGE('',*,*,#155,.T.);
#74=ORIENTED_EDGE('',*,*,#153,.T.);
#75=ORIENTED_EDGE('',*,*,#145,.F.);
#76=ORIENTED_EDGE('',*,*,#156,.F.);
#77=ORIENTED_EDGE('',*,*,#139,.F.);
#78=ORIENTED_EDGE('',*,*,#157,.F.);
#79=ORIENTED_EDGE('',*,*,#149,.F.);
#80=ORIENTED_EDGE('',*,*,#157,.T.);
#81=ORIENTED_EDGE('',*,*,#138,.F.);
#82=ORIENTED_EDGE('',*,*,#158,.F.);
#83=ORIENTED_EDGE('',*,*,#155,.F.);
#84=ORIENTED_EDGE('',*,*,#156,.T.);
#85=ORIENTED_EDGE('',*,*,#152,.F.);
#86=ORIENTED_EDGE('',*,*,#159,.F.);
#87=ORIENTED_EDGE('',*,*,#136,.F.);
#88=ORIENTED_EDGE('',*,*,#158,.T.);
#89=ORIENTED_EDGE('',*,*,#137,.F.);
#90=ORIENTED_EDGE('',*,*,#159,.T.);
#91=ORIENTED_EDGE('',*,*,#154,.F.);
#92=ORIENTED_EDGE('',*,*,#124,.F.);
#93=ORIENTED_EDGE('',*,*,#160,.T.);
#94=ORIENTED_EDGE('',*,*,#133,.F.);
#95=ORIENTED_EDGE('',*,*,#161,.T.);
#96=ORIENTED_EDGE('',*,*,#162,.T.);
#97=ORIENTED_EDGE('',*,*,#142,.T.);
#98=ORIENTED_EDGE('',*,*,#162,.F.);
#99=ORIENTED_EDGE('',*,*,#163,.T.);
#100=ORIENTED_EDGE('',*,*,#129,.F.);
#101=ORIENTED_EDGE('',*,*,#143,.T.);
#102=ORIENTED_EDGE('',*,*,#127,.F.);
#103=ORIENTED_EDGE('',*,*,#134,.F.);
#104=ORIENTED_EDGE('',*,*,#160,.F.);
#105=ORIENTED_EDGE('',*,*,#123,.F.);
#106=ORIENTED_EDGE('',*,*,#130,.F.);
#107=ORIENTED_EDGE('',*,*,#163,.F.);
#108=ORIENTED_EDGE('',*,*,#161,.F.);
#109=ORIENTED_EDGE('',*,*,#135,.F.);
#110=ORIENTED_EDGE('',*,*,#164,.F.);
#111=ORIENTED_EDGE('',*,*,#132,.T.);
#112=ORIENTED_EDGE('',*,*,#165,.F.);
#113=ORIENTED_EDGE('',*,*,#164,.T.);
#114=ORIENTED_EDGE('',*,*,#141,.T.);
#115=ORIENTED_EDGE('',*,*,#165,.T.);
#116=ORIENTED_EDGE('',*,*,#166,.T.);
#117=ORIENTED_EDGE('',*,*,#131,.F.);
#118=ORIENTED_EDGE('',*,*,#167,.T.);
#119=ORIENTED_EDGE('',*,*,#166,.F.);
#120=ORIENTED_EDGE('',*,*,#140,.T.);
#121=ORIENTED_EDGE('',*,*,#167,.F.);
#122=EDGE_CURVE('',#168,#169,#200,.T.);
#123=EDGE_CURVE('',#168,#170,#201,.T.);
#124=EDGE_CURVE('',#170,#171,#202,.T.);
#125=EDGE_CURVE('',#169,#171,#203,.T.);
#126=EDGE_CURVE('',#172,#173,#204,.T.);
#127=EDGE_CURVE('',#173,#168,#18,.T.);
#128=EDGE_CURVE('',#174,#169,#205,.T.);
#129=EDGE_CURVE('',#174,#175,#206,.F.);
#130=EDGE_CURVE('',#175,#172,#19,.T.);
#131=EDGE_CURVE('',#176,#176,#20,.T.);
#132=EDGE_CURVE('',#177,#177,#21,.T.);
#133=EDGE_CURVE('',#178,#179,#207,.T.);
#134=EDGE_CURVE('',#179,#173,#208,.F.);
#135=EDGE_CURVE('',#172,#178,#209,.F.);
#136=EDGE_CURVE('',#180,#181,#210,.T.);
#137=EDGE_CURVE('',#181,#182,#211,.T.);
#138=EDGE_CURVE('',#182,#183,#212,.T.);
#139=EDGE_CURVE('',#183,#180,#213,.T.);
#140=EDGE_CURVE('',#184,#184,#22,.T.);
#141=EDGE_CURVE('',#185,#185,#23,.T.);
#142=EDGE_CURVE('',#186,#171,#214,.T.);
#143=EDGE_CURVE('',#174,#186,#215,.T.);
#144=EDGE_CURVE('',#187,#188,#216,.T.);
#145=EDGE_CURVE('',#188,#189,#217,.T.);
#146=EDGE_CURVE('',#189,#190,#218,.T.);
#147=EDGE_CURVE('',#187,#190,#219,.T.);
#148=EDGE_CURVE('',#191,#187,#220,.T.);
#149=EDGE_CURVE('',#191,#192,#221,.T.);
#150=EDGE_CURVE('',#192,#188,#222,.T.);
#151=EDGE_CURVE('',#193,#190,#223,.T.);
#152=EDGE_CURVE('',#193,#191,#224,.T.);
#153=EDGE_CURVE('',#194,#189,#225,.T.);
#154=EDGE_CURVE('',#194,#193,#226,.T.);
#155=EDGE_CURVE('',#192,#194,#227,.T.);
#156=EDGE_CURVE('',#180,#191,#228,.T.);
#157=EDGE_CURVE('',#192,#183,#229,.T.);
#158=EDGE_CURVE('',#194,#182,#230,.F.);
#159=EDGE_CURVE('',#181,#193,#231,.T.);
#160=EDGE_CURVE('',#170,#179,#24,.F.);
#161=EDGE_CURVE('',#178,#195,#25,.F.);
#162=EDGE_CURVE('',#195,#186,#232,.F.);
#163=EDGE_CURVE('',#195,#175,#233,.F.);
#164=EDGE_CURVE('',#196,#196,#26,.T.);
#165=EDGE_CURVE('',#197,#197,#27,.T.);
#166=EDGE_CURVE('',#198,#198,#28,.T.);
#167=EDGE_CURVE('',#199,#199,#29,.T.);
#168=VERTEX_POINT('',#528);
#169=VERTEX_POINT('',#529);
#170=VERTEX_POINT('',#531);
#171=VERTEX_POINT('',#533);
#172=VERTEX_POINT('',#537);
#173=VERTEX_POINT('',#538);
#174=VERTEX_POINT('',#541);
#175=VERTEX_POINT('',#543);
#176=VERTEX_POINT('',#547);
#177=VERTEX_POINT('',#549);
#178=VERTEX_POINT('',#551);
#179=VERTEX_POINT('',#552);
#180=VERTEX_POINT('',#556);
#181=VERTEX_POINT('',#557);
#182=VERTEX_POINT('',#559);
#183=VERTEX_POINT('',#561);
#184=VERTEX_POINT('',#565);
#185=VERTEX_POINT('',#567);
#186=VERTEX_POINT('',#569);
#187=VERTEX_POINT('',#572);
#188=VERTEX_POINT('',#573);
#189=VERTEX_POINT('',#575);
#190=VERTEX_POINT('',#577);
#191=VERTEX_POINT('',#581);
#192=VERTEX_POINT('',#583);
#193=VERTEX_POINT('',#587);
#194=VERTEX_POINT('',#591);
#195=VERTEX_POINT('',#606);
#196=VERTEX_POINT('',#614);
#197=VERTEX_POINT('',#617);
#198=VERTEX_POINT('',#621);
#199=VERTEX_POINT('',#624);
#200=LINE('',#527,#234);
#201=LINE('',#530,#235);
#202=LINE('',#532,#236);
#203=LINE('',#534,#237);
#204=LINE('',#536,#238);
#205=LINE('',#540,#239);
#206=LINE('',#542,#240);
#207=LINE('',#550,#241);
#208=LINE('',#553,#242);
#209=LINE('',#554,#243);
#210=LINE('',#555,#244);
#211=LINE('',#558,#245);
#212=LINE('',#560,#246);
#213=LINE('',#562,#247);
#214=LINE('',#568,#248);
#215=LINE('',#570,#249);
#216=LINE('',#571,#250);
#217=LINE('',#574,#251);
#218=LINE('',#576,#252);
#219=LINE('',#578,#253);
#220=LINE('',#580,#254);
#221=LINE('',#582,#255);
#222=LINE('',#584,#256);
#223=LINE('',#586,#257);
#224=LINE('',#588,#258);
#225=LINE('',#590,#259);
#226=LINE('',#592,#260);
#227=LINE('',#594,#261);
#228=LINE('',#596,#262);
#229=LINE('',#597,#263);
#230=LINE('',#599,#264);
#231=LINE('',#601,#265);
#232=LINE('',#607,#266);
#233=LINE('',#609,#267);
#234=VECTOR('',#425,1.);
#235=VECTOR('',#426,1.);
#236=VECTOR('',#427,1.);
#237=VECTOR('',#428,1.);
#238=VECTOR('',#431,1.);
#239=VECTOR('',#434,1.);
#240=VECTOR('',#435,1.);
#241=VECTOR('',#444,1.);
#242=VECTOR('',#445,1.);
#243=VECTOR('',#446,1.);
#244=VECTOR('',#447,1.);
#245=VECTOR('',#448,1.);
#246=VECTOR('',#449,1.);
#247=VECTOR('',#450,1.);
#248=VECTOR('',#457,1.);
#249=VECTOR('',#458,1.);
#250=VECTOR('',#459,1.);
#251=VECTOR('',#460,1.);
#252=VECTOR('',#461,1.);
#253=VECTOR('',#462,1.);
#254=VECTOR('',#465,1.);
#255=VECTOR('',#466,1.);
#256=VECTOR('',#467,1.);
#257=VECTOR('',#470,1.);
#258=VECTOR('',#471,1.);
#259=VECTOR('',#474,1.);
#260=VECTOR('',#475,1.);
#261=VECTOR('',#478,1.);
#262=VECTOR('',#481,1.);
#263=VECTOR('',#482,1.);
#264=VECTOR('',#485,1.);
#265=VECTOR('',#488,1.);
#266=VECTOR('',#497,1.);
#267=VECTOR('',#500,1.);
#268=EDGE_LOOP('',(#30,#31,#32,#33));
#269=EDGE_LOOP('',(#34,#35,#36,#37,#38,#39));
#270=EDGE_LOOP('',(#40));
#271=EDGE_LOOP('',(#41));
#272=EDGE_LOOP('',(#42,#43,#44,#45));
#273=EDGE_LOOP('',(#46,#47,#48,#49));
#274=EDGE_LOOP('',(#50));
#275=EDGE_LOOP('',(#51));
#276=EDGE_LOOP('',(#52,#53,#54,#55));
#277=EDGE_LOOP('',(#56,#57,#58,#59));
#278=EDGE_LOOP('',(#60,#61,#62,#63));
#279=EDGE_LOOP('',(#64,#65,#66,#67));
#280=EDGE_LOOP('',(#68,#69,#70,#71));
#281=EDGE_LOOP('',(#72,#73,#74,#75));
#282=EDGE_LOOP('',(#76,#77,#78,#79));
#283=EDGE_LOOP('',(#80,#81,#82,#83));
#284=EDGE_LOOP('',(#84,#85,#86,#87));
#285=EDGE_LOOP('',(#88,#89,#90,#91));
#286=EDGE_LOOP('',(#92,#93,#94,#95,#96,#97));
#287=EDGE_LOOP('',(#98,#99,#100,#101));
#288=EDGE_LOOP('',(#102,#103,#104,#105));
#289=EDGE_LOOP('',(#106,#107,#108,#109));
#290=EDGE_LOOP('',(#110));
#291=EDGE_LOOP('',(#111));
#292=EDGE_LOOP('',(#112));
#293=EDGE_LOOP('',(#113));
#294=EDGE_LOOP('',(#114));
#295=EDGE_LOOP('',(#115));
#296=EDGE_LOOP('',(#116));
#297=EDGE_LOOP('',(#117));
#298=EDGE_LOOP('',(#118));
#299=EDGE_LOOP('',(#119));
#300=EDGE_LOOP('',(#120));
#301=EDGE_LOOP('',(#121));
#302=FACE_BOUND('',#268,.T.);
#303=FACE_BOUND('',#269,.T.);
#304=FACE_BOUND('',#270,.T.);
#305=FACE_BOUND('',#271,.T.);
#306=FACE_BOUND('',#272,.T.);
#307=FACE_BOUND('',#273,.T.);
#308=FACE_BOUND('',#274,.T.);
#309=FACE_BOUND('',#275,.T.);
#310=FACE_BOUND('',#276,.T.);
#311=FACE_BOUND('',#277,.T.);
#312=FACE_BOUND('',#278,.T.);
#313=FACE_BOUND('',#279,.T.);
#314=FACE_BOUND('',#280,.T.);
#315=FACE_BOUND('',#281,.T.);
#316=FACE_BOUND('',#282,.T.);
#317=FACE_BOUND('',#283,.T.);
#318=FACE_BOUND('',#284,.T.);
#319=FACE_BOUND('',#285,.T.);
#320=FACE_BOUND('',#286,.T.);
#321=FACE_BOUND('',#287,.T.);
#322=FACE_BOUND('',#288,.T.);
#323=FACE_BOUND('',#289,.T.);
#324=FACE_BOUND('',#290,.T.);
#325=FACE_BOUND('',#291,.T.);
#326=FACE_BOUND('',#292,.T.);
#327=FACE_BOUND('',#293,.T.);
#328=FACE_BOUND('',#294,.T.);
#329=FACE_BOUND('',#295,.T.);
#330=FACE_BOUND('',#296,.T.);
#331=FACE_BOUND('',#297,.T.);
#332=FACE_BOUND('',#298,.T.);
#333=FACE_BOUND('',#299,.T.);
#334=FACE_BOUND('',#300,.T.);
#335=FACE_BOUND('',#301,.T.);
#336=PLANE('',#387);
#337=PLANE('',#388);
#338=PLANE('',#391);
#339=PLANE('',#394);
#340=PLANE('',#397);
#341=PLANE('',#398);
#342=PLANE('',#399);
#343=PLANE('',#400);
#344=PLANE('',#401);
#345=PLANE('',#402);
#346=PLANE('',#403);
#347=PLANE('',#404);
#348=PLANE('',#405);
#349=PLANE('',#408);
#350=PLANE('',#413);
#351=PLANE('',#418);
#352=ADVANCED_FACE('',(#302),#336,.T.);
#353=ADVANCED_FACE('',(#303),#337,.T.);
#354=ADVANCED_FACE('',(#304,#305,#306,#307),#338,.F.);
#355=ADVANCED_FACE('',(#308,#309,#310,#311),#339,.T.);
#356=ADVANCED_FACE('',(#312),#340,.T.);
#357=ADVANCED_FACE('',(#313),#341,.F.);
#358=ADVANCED_FACE('',(#314),#342,.T.);
#359=ADVANCED_FACE('',(#315),#343,.T.);
#360=ADVANCED_FACE('',(#316),#344,.F.);
#361=ADVANCED_FACE('',(#317),#345,.F.);
#362=ADVANCED_FACE('',(#318),#346,.T.);
#363=ADVANCED_FACE('',(#319),#347,.F.);
#364=ADVANCED_FACE('',(#320),#348,.F.);
#365=ADVANCED_FACE('',(#321),#349,.F.);
#366=ADVANCED_FACE('',(#322),#12,.T.);
#367=ADVANCED_FACE('',(#323),#13,.T.);
#368=ADVANCED_FACE('',(#324,#325),#14,.F.);
#369=ADVANCED_FACE('',(#326,#327),#350,.T.);
#370=ADVANCED_FACE('',(#328,#329),#15,.F.);
#371=ADVANCED_FACE('',(#330,#331),#16,.F.);
#372=ADVANCED_FACE('',(#332,#333),#351,.T.);
#373=ADVANCED_FACE('',(#334,#335),#17,.F.);
#374=CLOSED_SHELL('',(#352,#353,#354,#355,#356,#357,#358,#359,#360,#361,
#362,#363,#364,#365,#366,#367,#368,#369,#370,#371,#372,#373));
#375=STYLED_ITEM('',(#376),#383);
#376=PRESENTATION_STYLE_ASSIGNMENT((#377));
#377=SURFACE_STYLE_USAGE(.BOTH.,#378);
#378=SURFACE_SIDE_STYLE('',(#379));
#379=SURFACE_STYLE_FILL_AREA(#380);
#380=FILL_AREA_STYLE('',(#381));
#381=FILL_AREA_STYLE_COLOUR('',#382);
#382=COLOUR_RGB('',0.647058823529412,0.647058823529412,0.647058823529412);
#383=MANIFOLD_SOLID_BREP('Part 3',#374);
#384=SHAPE_DEFINITION_REPRESENTATION(#632,#385);
#385=SHAPE_REPRESENTATION('Part 3',(#386),#627);
#386=AXIS2_PLACEMENT_3D('',#525,#421,#422);
#387=AXIS2_PLACEMENT_3D('',#526,#423,#424);
#388=AXIS2_PLACEMENT_3D('',#535,#429,#430);
#389=AXIS2_PLACEMENT_3D('',#539,#432,#433);
#390=AXIS2_PLACEMENT_3D('',#544,#436,#437);
#391=AXIS2_PLACEMENT_3D('',#545,#438,#439);
#392=AXIS2_PLACEMENT_3D('',#546,#440,#441);
#393=AXIS2_PLACEMENT_3D('',#548,#442,#443);
#394=AXIS2_PLACEMENT_3D('',#563,#451,#452);
#395=AXIS2_PLACEMENT_3D('',#564,#453,#454);
#396=AXIS2_PLACEMENT_3D('',#566,#455,#456);
#397=AXIS2_PLACEMENT_3D('',#579,#463,#464);
#398=AXIS2_PLACEMENT_3D('',#585,#468,#469);
#399=AXIS2_PLACEMENT_3D('',#589,#472,#473);
#400=AXIS2_PLACEMENT_3D('',#593,#476,#477);
#401=AXIS2_PLACEMENT_3D('',#595,#479,#480);
#402=AXIS2_PLACEMENT_3D('',#598,#483,#484);
#403=AXIS2_PLACEMENT_3D('',#600,#486,#487);
#404=AXIS2_PLACEMENT_3D('',#602,#489,#490);
#405=AXIS2_PLACEMENT_3D('',#603,#491,#492);
#406=AXIS2_PLACEMENT_3D('',#604,#493,#494);
#407=AXIS2_PLACEMENT_3D('',#605,#495,#496);
#408=AXIS2_PLACEMENT_3D('',#608,#498,#499);
#409=AXIS2_PLACEMENT_3D('',#610,#501,#502);
#410=AXIS2_PLACEMENT_3D('',#611,#503,#504);
#411=AXIS2_PLACEMENT_3D('',#612,#505,#506);
#412=AXIS2_PLACEMENT_3D('',#613,#507,#508);
#413=AXIS2_PLACEMENT_3D('',#615,#509,#510);
#414=AXIS2_PLACEMENT_3D('',#616,#511,#512);
#415=AXIS2_PLACEMENT_3D('',#618,#513,#514);
#416=AXIS2_PLACEMENT_3D('',#619,#515,#516);
#417=AXIS2_PLACEMENT_3D('',#620,#517,#518);
#418=AXIS2_PLACEMENT_3D('',#622,#519,#520);
#419=AXIS2_PLACEMENT_3D('',#623,#521,#522);
#420=AXIS2_PLACEMENT_3D('',#625,#523,#524);
#421=DIRECTION('',(0.,0.,1.));
#422=DIRECTION('',(1.,0.,0.));
#423=DIRECTION('',(1.,0.,0.));
#424=DIRECTION('',(0.,0.,-1.));
#425=DIRECTION('',(0.,-1.,0.));
#426=DIRECTION('',(0.,0.,1.));
#427=DIRECTION('',(0.,-1.,0.));
#428=DIRECTION('',(0.,0.,1.));
#429=DIRECTION('',(0.,0.,-1.));
#430=DIRECTION('',(-1.,0.,0.));
#431=DIRECTION('',(1.,0.,0.));
#432=DIRECTION('',(0.,0.,-1.));
#433=DIRECTION('',(-1.,0.,0.));
#434=DIRECTION('',(1.,0.,0.));
#435=DIRECTION('',(-0.707106781186548,-0.707106781186547,0.));
#436=DIRECTION('',(0.,0.,-1.));
#437=DIRECTION('',(-1.,0.,0.));
#438=DIRECTION('',(0.,-1.,0.));
#439=DIRECTION('',(0.,0.,-1.));
#440=DIRECTION('',(0.,-1.,0.));
#441=DIRECTION('',(-1.,0.,0.));
#442=DIRECTION('',(0.,1.,0.));
#443=DIRECTION('',(-1.,0.,0.));
#444=DIRECTION('',(1.,0.,0.));
#445=DIRECTION('',(0.,0.,1.));
#446=DIRECTION('',(0.,0.,-1.));
#447=DIRECTION('',(1.,0.,0.));
#448=DIRECTION('',(0.,0.,1.));
#449=DIRECTION('',(-1.,0.,0.));
#450=DIRECTION('',(0.,0.,-1.));
#451=DIRECTION('',(0.,-1.,0.));
#452=DIRECTION('',(0.,0.,-1.));
#453=DIRECTION('',(0.,-1.,0.));
#454=DIRECTION('',(0.,0.,-1.));
#455=DIRECTION('',(0.,-1.,0.));
#456=DIRECTION('',(0.,0.,-1.));
#457=DIRECTION('',(1.,0.,0.));
#458=DIRECTION('',(0.,0.,1.));
#459=DIRECTION('',(0.,0.,1.));
#460=DIRECTION('',(1.,0.,0.));
#461=DIRECTION('',(0.,0.,-1.));
#462=DIRECTION('',(1.,0.,0.));
#463=DIRECTION('',(1.,0.,0.));
#464=DIRECTION('',(0.,0.,-1.));
#465=DIRECTION('',(0.,-1.,0.));
#466=DIRECTION('',(0.,0.,1.));
#467=DIRECTION('',(0.,-1.,0.));
#468=DIRECTION('',(0.,0.,-1.));
#469=DIRECTION('',(-1.,0.,0.));
#470=DIRECTION('',(0.,-1.,0.));
#471=DIRECTION('',(-1.,0.,0.));
#472=DIRECTION('',(-1.,0.,0.));
#473=DIRECTION('',(0.,0.,1.));
#474=DIRECTION('',(0.,-1.,0.));
#475=DIRECTION('',(0.,0.,-1.));
#476=DIRECTION('',(0.,0.,-1.));
#477=DIRECTION('',(-1.,0.,0.));
#478=DIRECTION('',(1.,0.,0.));
#479=DIRECTION('',(-0.707106781186547,-0.707106781186548,0.));
#480=DIRECTION('',(0.,0.,1.));
#481=DIRECTION('',(0.577350269189626,-0.577350269189626,0.577350269189626));
#482=DIRECTION('',(-0.577350269189626,0.577350269189626,0.577350269189626));
#483=DIRECTION('',(0.,-0.707106781186548,0.707106781186547));
#484=DIRECTION('',(1.,0.,0.));
#485=DIRECTION('',(-0.577350269189626,-0.577350269189626,-0.577350269189626));
#486=DIRECTION('',(0.,0.707106781186548,0.707106781186547));
#487=DIRECTION('',(-1.,0.,0.));
#488=DIRECTION('',(-0.577350269189626,-0.577350269189626,0.577350269189626));
#489=DIRECTION('',(0.707106781186548,-0.707106781186548,0.));
#490=DIRECTION('',(0.,0.,-1.));
#491=DIRECTION('',(0.,0.,-1.));
#492=DIRECTION('',(-1.,0.,0.));
#493=DIRECTION('',(0.,0.,-1.));
#494=DIRECTION('',(-1.,0.,0.));
#495=DIRECTION('',(0.,0.,-1.));
#496=DIRECTION('',(-1.,0.,0.));
#497=DIRECTION('',(0.707106781186548,0.707106781186547,0.));
#498=DIRECTION('',(0.707106781186547,-0.707106781186548,0.));
#499=DIRECTION('',(0.,0.,1.));
#500=DIRECTION('',(0.,0.,1.));
#501=DIRECTION('',(0.,0.,-1.));
#502=DIRECTION('',(-1.,0.,0.));
#503=DIRECTION('',(0.,0.,1.));
#504=DIRECTION('',(1.,0.,0.));
#505=DIRECTION('',(0.,1.,0.));
#506=DIRECTION('',(0.,0.,1.));
#507=DIRECTION('',(0.,1.,0.));
#508=DIRECTION('',(-1.,0.,0.));
#509=DIRECTION('',(0.,1.,0.));
#510=DIRECTION('',(-1.,0.,0.));
#511=DIRECTION('',(0.,1.,0.));
#512=DIRECTION('',(0.,0.,1.));
#513=DIRECTION('',(0.,1.,0.));
#514=DIRECTION('',(0.,0.,1.));
#515=DIRECTION('',(0.,1.,0.));
#516=DIRECTION('',(0.,0.,-1.));
#517=DIRECTION('',(0.,-1.,0.));
#518=DIRECTION('',(-1.,0.,0.));
#519=DIRECTION('',(0.,1.,0.));
#520=DIRECTION('',(-1.,0.,0.));
#521=DIRECTION('',(0.,-1.,0.));
#522=DIRECTION('',(0.,0.,-1.));
#523=DIRECTION('',(0.,1.,0.));
#524=DIRECTION('',(0.,0.,-1.));
#525=CARTESIAN_POINT('',(0.,0.,0.));
#526=CARTESIAN_POINT('',(0.009,0.01,-0.052575));
#527=CARTESIAN_POINT('',(0.009,0.01,-0.052575));
#528=CARTESIAN_POINT('',(0.009,0.008,-0.052575));
#529=CARTESIAN_POINT('',(0.009,0.006,-0.052575));
#530=CARTESIAN_POINT('',(0.009,0.008,0.052585));
#531=CARTESIAN_POINT('',(0.009,0.008,0.052585));
#532=CARTESIAN_POINT('',(0.009,0.01,0.052585));
#533=CARTESIAN_POINT('',(0.009,0.006,0.052585));
#534=CARTESIAN_POINT('',(0.009,0.006,-0.052575));
#535=CARTESIAN_POINT('',(-0.0105400000000006,0.01,-0.052575));
#536=CARTESIAN_POINT('',(-0.0105400000000006,0.01,-0.052575));
#537=CARTESIAN_POINT('',(-0.025251572875255,0.01,-0.052575));
#538=CARTESIAN_POINT('',(0.007,0.01,-0.052575));
#539=CARTESIAN_POINT('',(0.007,0.008,-0.052575));
#540=CARTESIAN_POINT('',(-0.0105400000000006,0.006,-0.052575));
#541=CARTESIAN_POINT('',(-0.0300800000000012,0.006,-0.052575));
#542=CARTESIAN_POINT('',(-0.0183100000000009,0.0177700000000003,-0.052575));
#543=CARTESIAN_POINT('',(-0.0266657864376281,0.00941421356237309,-0.052575));
#544=CARTESIAN_POINT('',(-0.025251572875255,0.008,-0.052575));
#545=CARTESIAN_POINT('',(-0.0105400000000006,0.01,-0.052575));
#546=CARTESIAN_POINT('',(-0.00670893490314484,0.01,-0.0497447856783867));
#547=CARTESIAN_POINT('',(-0.00870893490314484,0.01,-0.0497447856783867));
#548=CARTESIAN_POINT('',(-0.00670893490314484,0.01,0.0497947856783867));
#549=CARTESIAN_POINT('',(-0.00870893490314484,0.01,0.0497947856783867));
#550=CARTESIAN_POINT('',(-0.0105400000000006,0.01,0.052585));
#551=CARTESIAN_POINT('',(-0.025251572875255,0.01,0.052585));
#552=CARTESIAN_POINT('',(0.007,0.01,0.052585));
#553=CARTESIAN_POINT('',(0.007,0.01,-0.052575));
#554=CARTESIAN_POINT('',(-0.025251572875255,0.01,0.052585));
#555=CARTESIAN_POINT('',(-0.00239573931321502,0.01,-0.0313758772313595));
#556=CARTESIAN_POINT('',(-0.0207748055905103,0.01,-0.0313758772313595));
#557=CARTESIAN_POINT('',(-0.000395739313215017,0.01,-0.0313758772313595));
#558=CARTESIAN_POINT('',(-0.000395739313215017,0.01,0.));
#559=CARTESIAN_POINT('',(-0.000395739313215017,0.01,0.0334145423471928));
#560=CARTESIAN_POINT('',(-0.0105400000000006,0.01,0.0334145423471928));
#561=CARTESIAN_POINT('',(-0.0207748055905103,0.01,0.0334145423471928));
#562=CARTESIAN_POINT('',(-0.0207748055905103,0.01,0.));
#563=CARTESIAN_POINT('',(-0.0105400000000006,0.006,-0.052575));
#564=CARTESIAN_POINT('',(-0.00670893490314484,0.006,-0.0497447856783867));
#565=CARTESIAN_POINT('',(-0.00670893490314484,0.006,-0.0509947856783867));
#566=CARTESIAN_POINT('',(-0.00670893490314484,0.006,0.0497947856783867));
#567=CARTESIAN_POINT('',(-0.00670893490314484,0.006,0.0485447856783867));
#568=CARTESIAN_POINT('',(-0.0105400000000006,0.006,0.052585));
#569=CARTESIAN_POINT('',(-0.0300800000000012,0.006,0.052585));
#570=CARTESIAN_POINT('',(-0.0300800000000012,0.006,-0.052575));
#571=CARTESIAN_POINT('',(-0.0187748055905103,0.006,0.00101933255791664));
#572=CARTESIAN_POINT('',(-0.0187748055905103,0.006,-0.0293758772313595));
#573=CARTESIAN_POINT('',(-0.0187748055905103,0.006,0.0314145423471928));
#574=CARTESIAN_POINT('',(-0.0105852724518627,0.006,0.0314145423471928));
#575=CARTESIAN_POINT('',(-0.00239573931321502,0.006,0.0314145423471928));
#576=CARTESIAN_POINT('',(-0.00239573931321502,0.006,0.00101933255791664));
#577=CARTESIAN_POINT('',(-0.00239573931321502,0.006,-0.0293758772313595));
#578=CARTESIAN_POINT('',(-0.0105852724518627,0.006,-0.0293758772313595));
#579=CARTESIAN_POINT('',(-0.0187748055905103,0.01,0.00101933255791664));
#580=CARTESIAN_POINT('',(-0.0187748055905103,0.01,-0.0293758772313595));
#581=CARTESIAN_POINT('',(-0.0187748055905103,0.008,-0.0293758772313595));
#582=CARTESIAN_POINT('',(-0.0187748055905103,0.008,0.00101933255791664));
#583=CARTESIAN_POINT('',(-0.0187748055905103,0.008,0.0314145423471928));
#584=CARTESIAN_POINT('',(-0.0187748055905103,0.01,0.0314145423471928));
#585=CARTESIAN_POINT('',(-0.0105852724518627,0.01,-0.0293758772313595));
#586=CARTESIAN_POINT('',(-0.00239573931321502,0.01,-0.0293758772313595));
#587=CARTESIAN_POINT('',(-0.00239573931321502,0.008,-0.0293758772313595));
#588=CARTESIAN_POINT('',(-0.0187748055905103,0.008,-0.0293758772313595));
#589=CARTESIAN_POINT('',(-0.00239573931321502,0.01,0.00101933255791664));
#590=CARTESIAN_POINT('',(-0.00239573931321502,0.01,0.0314145423471928));
#591=CARTESIAN_POINT('',(-0.00239573931321502,0.008,0.0314145423471928));
#592=CARTESIAN_POINT('',(-0.00239573931321502,0.008,0.00101933255791664));
#593=CARTESIAN_POINT('',(-0.0105852724518627,0.01,0.0314145423471928));
#594=CARTESIAN_POINT('',(-0.0105852724518627,0.008,0.0314145423471928));
#595=CARTESIAN_POINT('',(-0.0187748055905103,0.008,0.00101933255791664));
#596=CARTESIAN_POINT('',(-0.0173632037270071,0.00658839813649674,-0.0279642753678562));
#597=CARTESIAN_POINT('',(-0.00864306899408499,-0.00213173659642538,0.0212828057507674));
#598=CARTESIAN_POINT('',(-0.0105852724518627,0.008,0.0314145423471928));
#599=CARTESIAN_POINT('',(-0.0125274759096404,-0.00213173659642539,0.0212828057507674));
#600=CARTESIAN_POINT('',(-0.0105400000000006,0.01,-0.0313758772313595));
#601=CARTESIAN_POINT('',(-0.0125274759096404,-0.00213173659642539,-0.0192441406349341));
#602=CARTESIAN_POINT('',(-0.00239573931321502,0.008,0.00101933255791664));
#603=CARTESIAN_POINT('',(-0.0105400000000006,0.01,0.052585));
#604=CARTESIAN_POINT('',(0.007,0.008,0.052585));
#605=CARTESIAN_POINT('',(-0.025251572875255,0.008,0.052585));
#606=CARTESIAN_POINT('',(-0.0266657864376281,0.00941421356237309,0.052585));
#607=CARTESIAN_POINT('',(-0.0260800000000012,0.01,0.052585));
#608=CARTESIAN_POINT('',(-0.0260800000000012,0.01,-0.052575));
#609=CARTESIAN_POINT('',(-0.0266657864376281,0.00941421356237309,-0.052575));
#610=CARTESIAN_POINT('',(0.007,0.008,-0.052575));
#611=CARTESIAN_POINT('',(-0.025251572875255,0.008,-0.052575));
#612=CARTESIAN_POINT('',(-0.00670893490314484,0.009,0.0497947856783867));
#613=CARTESIAN_POINT('',(-0.00670893490314484,0.009,0.0497947856783867));
#614=CARTESIAN_POINT('',(-0.00870893490314484,0.009,0.0497947856783867));
#615=CARTESIAN_POINT('',(-0.0091257864376275,0.009,4.99999999999806E-6));
#616=CARTESIAN_POINT('',(-0.00670893490314484,0.009,0.0497947856783867));
#617=CARTESIAN_POINT('',(-0.00670893490314484,0.009,0.0510447856783867));
#618=CARTESIAN_POINT('',(-0.00670893490314484,-0.002,0.0497947856783867));
#619=CARTESIAN_POINT('',(-0.00670893490314484,0.009,-0.0497447856783867));
#620=CARTESIAN_POINT('',(-0.00670893490314484,0.009,-0.0497447856783867));
#621=CARTESIAN_POINT('',(-0.00870893490314484,0.009,-0.0497447856783867));
#622=CARTESIAN_POINT('',(-0.0091257864376275,0.009,4.50000000000103E-5));
#623=CARTESIAN_POINT('',(-0.00670893490314484,0.009,-0.0497447856783867));
#624=CARTESIAN_POINT('',(-0.00670893490314484,0.009,-0.0509947856783867));
#625=CARTESIAN_POINT('',(-0.00670893490314484,-0.002,-0.0497447856783867));
#626=MECHANICAL_DESIGN_GEOMETRIC_PRESENTATION_REPRESENTATION('',(#375),
#627);
#627=(
GEOMETRIC_REPRESENTATION_CONTEXT(3)
GLOBAL_UNCERTAINTY_ASSIGNED_CONTEXT((#628))
GLOBAL_UNIT_ASSIGNED_CONTEXT((#631,#630,#629))
REPRESENTATION_CONTEXT('Part 3','TOP_LEVEL_ASSEMBLY_PART')
);
#628=UNCERTAINTY_MEASURE_WITH_UNIT(LENGTH_MEASURE(1.E-8),#631,
'DISTANCE_ACCURACY_VALUE','Maximum Tolerance applied to model');
#629=(
NAMED_UNIT(*)
SI_UNIT($,.STERADIAN.)
SOLID_ANGLE_UNIT()
);
#630=(
NAMED_UNIT(*)
PLANE_ANGLE_UNIT()
SI_UNIT($,.RADIAN.)
);
#631=(
LENGTH_UNIT()
NAMED_UNIT(*)
SI_UNIT($,.METRE.)
);
#632=PRODUCT_DEFINITION_SHAPE('','',#633);
#633=PRODUCT_DEFINITION('','',#635,#634);
#634=PRODUCT_DEFINITION_CONTEXT('',#641,'design');
#635=PRODUCT_DEFINITION_FORMATION_WITH_SPECIFIED_SOURCE('','',#637,
 .NOT_KNOWN.);
#636=PRODUCT_RELATED_PRODUCT_CATEGORY('','',(#637));
#637=PRODUCT('Part 3','Part 3','Part 3',(#639));
#638=PRODUCT_CATEGORY('','');
#639=PRODUCT_CONTEXT('',#641,'mechanical');
#640=APPLICATION_PROTOCOL_DEFINITION('international standard',
'ap242_managed_model_based_3d_engineering',2020,#641);
#641=APPLICATION_CONTEXT('managed model based 3d engineering');
ENDSEC;
END-ISO-10303-21;
